<?xml version="1.0" encoding="UTF-8"?>
<svg width="74px" height="85px" viewBox="0 0 74 85" version="1.1" xmlns="http://www.w3.org/2000/svg" xmlns:xlink="http://www.w3.org/1999/xlink">
    <!-- Generator: Sketch 55.2 (78181) - https://sketchapp.com -->
    <title>h</title>
    <desc>Created with Sketch.</desc>
    <g id="the-brand" stroke="none" stroke-width="1" fill="none" fill-rule="evenodd">
        <g id="downloadable-files" transform="translate(-183.000000, -578.000000)" fill="#44444E" fill-rule="nonzero">
            <path d="M241.734235,607.867293 C244.031104,606.992296 246.327974,606.910265 248.624844,607.6212 C250.921713,608.332135 252.808427,609.644631 254.284986,611.55869 C255.761545,613.472749 256.499825,615.687587 256.499825,618.203206 L256.499825,631.984423 C256.499825,632.85942 256.390449,633.67973 256.171701,634.445354 L251.742024,653.968745 C251.195151,656.484363 249.909996,658.53514 247.886564,660.121074 C245.863132,661.707009 243.593605,662.499975 241.077987,662.499975 L211.874931,662.499975 C210.124934,662.499975 208.484313,662.08982 206.953068,661.269509 C205.421822,660.449199 204.109326,659.328108 203.015577,657.906236 L185.132807,632.640671 C183.382811,630.234426 182.726562,627.527401 183.164062,624.519597 C183.601562,621.511792 185.023432,619.132892 187.429677,617.382895 C188.960922,616.289147 190.628888,615.605556 192.433571,615.332119 C194.238254,615.058681 195.960907,615.250088 197.601528,615.906336 L197.601528,589.492337 C197.601528,586.429843 198.667931,583.832194 200.800739,581.699386 C202.933546,579.566579 205.503853,578.500175 208.511658,578.500175 C211.519462,578.500175 214.08977,579.566579 216.222577,581.699386 C218.355384,583.832194 219.421788,586.429843 219.421788,589.492337 L219.421788,601.632933 C221.062409,601.304808 222.70303,601.441526 224.343651,602.043088 C225.984273,602.64465 227.406145,603.546991 228.609266,604.750113 C230.906136,603.76574 233.285036,603.546991 235.745968,604.093864 C238.2069,604.640737 240.202989,605.898547 241.734235,607.867293 Z M196.289031,624.437566 C195.523407,623.343817 194.593723,622.90632 193.499975,623.125069 C192.406227,623.343817 191.613261,623.972724 191.121074,625.011783 C190.628888,626.050842 190.765606,627.062559 191.53123,628.046932 L209.414,653.312497 C210.070248,654.187494 210.890559,654.624994 211.874931,654.624994 L241.077987,654.624994 C241.843611,654.624994 242.499859,654.406245 243.046732,653.968745 C243.593605,653.531246 243.921729,652.929686 244.031104,652.164062 L248.460781,632.640671 L248.624844,631.984423 L248.624844,618.203206 C248.624844,616.890709 248.132657,615.988367 247.148285,615.496181 C246.163912,615.003994 245.152195,615.003994 244.113136,615.496181 C243.074076,615.988367 242.554546,616.890709 242.554546,618.203206 C242.554546,618.96883 242.308452,619.597734 241.816266,620.08992 C241.32408,620.582106 240.695176,620.828199 239.929552,620.828199 L238.945179,620.828199 C238.179555,620.828199 237.550651,620.582106 237.058465,620.08992 C236.566279,619.597734 236.320185,618.96883 236.320185,618.203206 L236.320185,614.757901 C236.320185,613.445404 235.800655,612.543063 234.761595,612.050876 C233.722536,611.55869 232.710819,611.55869 231.726446,612.050876 C230.742074,612.543063 230.249887,613.445404 230.249887,614.757901 L230.249887,618.203206 C230.249887,618.96883 230.003794,619.597734 229.511608,620.08992 C229.019422,620.582106 228.390518,620.828199 227.624894,620.828199 L226.476459,620.828199 C225.82021,620.828199 225.218649,620.582106 224.671776,620.08992 C224.124903,619.597734 223.851465,618.96883 223.851465,618.203206 L223.851465,612.461032 C223.851465,611.148535 223.359279,610.246193 222.374906,609.754007 C221.390533,609.261821 220.406161,609.261821 219.421788,609.754007 C218.437416,610.246193 217.945229,611.148535 217.945229,612.461032 L217.945229,618.203206 C217.945229,618.96883 217.671792,619.597734 217.124919,620.08992 C216.578046,620.582106 215.976484,620.828199 215.320235,620.828199 L214.171801,620.828199 C213.406177,620.828199 212.777273,620.582106 212.285086,620.08992 C211.7929,619.597734 211.546807,618.96883 211.546807,618.203206 L211.546807,589.492337 C211.546807,588.17984 211.027276,587.277498 209.988217,586.785312 C208.949158,586.293125 207.937441,586.293125 206.953068,586.785312 C205.968695,587.277498 205.476509,588.17984 205.476509,589.492337 L205.476509,629.031305 C205.476509,630.343802 204.874947,631.191457 203.671826,631.574267 C202.468704,631.957078 201.484332,631.656299 200.718708,630.671926 L196.289031,624.437566 Z M211.874931,628.375056 C211.874931,627.609432 212.09368,626.980528 212.53118,626.488342 C212.968679,625.996156 213.515552,625.750063 214.171801,625.750063 L215.156173,625.750063 C215.812422,625.750063 216.359295,625.996156 216.796794,626.488342 C217.234294,626.980528 217.453043,627.609432 217.453043,628.375056 L217.453043,644.125019 C217.453043,644.890643 217.234294,645.519547 216.796794,646.011733 C216.359295,646.503919 215.812422,646.750013 215.156173,646.750013 L214.171801,646.750013 C213.515552,646.750013 212.968679,646.503919 212.53118,646.011733 C212.09368,645.519547 211.874931,644.890643 211.874931,644.125019 L211.874931,628.375056 Z M224.343651,628.375056 C224.343651,627.609432 224.5624,626.980528 224.9999,626.488342 C225.4374,625.996156 225.984273,625.750063 226.640521,625.750063 L227.624894,625.750063 C228.171766,625.750063 228.691297,625.996156 229.183484,626.488342 C229.67567,626.980528 229.921763,627.609432 229.921763,628.375056 L229.921763,644.125019 C229.921763,644.890643 229.67567,645.519547 229.183484,646.011733 C228.691297,646.503919 228.171766,646.750013 227.624894,646.750013 L226.640521,646.750013 C225.984273,646.750013 225.4374,646.503919 224.9999,646.011733 C224.5624,645.519547 224.343651,644.890643 224.343651,644.125019 L224.343651,628.375056 Z M236.64831,628.375056 C236.64831,627.609432 236.867058,626.980528 237.304558,626.488342 C237.742058,625.996156 238.288931,625.750063 238.945179,625.750063 L239.929552,625.750063 C240.5858,625.750063 241.132673,625.996156 241.570173,626.488342 C242.007673,626.980528 242.226421,627.609432 242.226421,628.375056 L242.226421,644.125019 C242.226421,644.890643 242.007673,645.519547 241.570173,646.011733 C241.132673,646.503919 240.5858,646.750013 239.929552,646.750013 L238.945179,646.750013 C238.288931,646.750013 237.742058,646.503919 237.304558,646.011733 C236.867058,645.519547 236.64831,644.890643 236.64831,644.125019 L236.64831,628.375056 Z" id="h"></path>
        </g>
    </g>
</svg>