<?xml version="1.0" encoding="UTF-8"?>
<svg width="813px" height="656px" viewBox="0 0 813 656" version="1.1" xmlns="http://www.w3.org/2000/svg" xmlns:xlink="http://www.w3.org/1999/xlink">
    <!-- Generator: Sketch 55.2 (78181) - https://sketchapp.com -->
    <title>Group</title>
    <desc>Created with Sketch.</desc>
    <g id="email-signature" stroke="none" stroke-width="1" fill="none" fill-rule="evenodd">
        <g id="10%-website" transform="translate(-135.000000, -121.000000)" fill="#F8F8FF" fill-rule="nonzero">
            <g id="Group" transform="translate(135.119015, 121.986877)">
                <path d="M119.148487,47.3932829 C115.853751,47.3932829 112.696342,46.8652882 109.676167,45.8092828 C106.655991,44.7532775 104.322255,43.3593713 102.674886,41.6275226 L104.512326,38.0160023 C106.117455,39.6211305 108.250553,40.9199975 110.911687,41.9126426 C113.57282,42.9052876 116.318393,43.4016027 119.148487,43.4016027 C123.119067,43.4016027 126.096958,42.6729699 128.082248,41.2156825 C130.067538,39.7583952 131.060168,37.8681739 131.060168,35.5449622 C131.060168,33.7708732 130.521613,32.3558473 129.444488,31.2998419 C128.367362,30.2438366 127.047376,29.4307247 125.484488,28.8604818 C123.9216,28.2902389 121.746261,27.6672051 118.958407,26.9913617 C115.62143,26.1465574 112.960337,25.3334455 110.975047,24.5520015 C108.989757,23.7705576 107.289614,22.5772894 105.874567,20.9721613 C104.459519,19.3670332 103.752006,17.1916948 103.752006,14.4460809 C103.752006,12.2073496 104.34336,10.1692898 105.526086,8.33184051 C106.708812,6.49439121 108.525114,5.0265658 110.975047,3.92832024 C113.424979,2.83007468 116.466229,2.28096014 120.098887,2.28096014 C122.6333,2.28096014 125.114876,2.62943668 127.543688,3.3264002 C129.9725,4.02336373 132.073919,4.98431418 133.848008,6.20928038 L132.264008,9.94752061 C130.405439,8.72255441 128.420178,7.80384354 126.308168,7.19136044 C124.196157,6.57887734 122.126418,6.27264039 120.098887,6.27264039 C116.212788,6.27264039 113.287697,7.02239293 111.323527,8.52192052 C109.359357,10.0214481 108.377287,11.9539089 108.377287,14.3193609 C108.377287,16.0934499 108.915841,17.5190357 109.992967,18.5961611 C111.070092,19.6732866 112.421759,20.4969584 114.048007,21.0672013 C115.674255,21.6374442 117.860154,22.260478 120.605767,22.9363214 C123.858264,23.7388855 126.487678,24.5308776 128.494088,25.3123216 C130.500498,26.0937655 132.200641,27.2764738 133.594568,28.8604818 C134.988495,30.4444898 135.685448,32.5881485 135.685448,35.2915222 C135.685448,37.5302535 135.083534,39.5683132 133.879688,41.4057625 C132.675842,43.2432118 130.82786,44.7004774 128.335688,45.7776028 C125.843515,46.8547283 122.781146,47.3932829 119.148487,47.3932829 Z M173.648651,13.6857608 L173.648651,47.0131229 L169.34017,47.0131229 L169.34017,40.9305625 C168.157444,42.9580928 166.531221,44.5315171 164.46145,45.6508828 C162.39168,46.7702485 160.026263,47.3299229 157.36513,47.3299229 C153.014388,47.3299229 149.582422,46.115535 147.069129,43.6867227 C144.555836,41.2579104 143.299209,37.6992258 143.299209,33.010562 L143.299209,13.6857608 L147.797769,13.6857608 L147.797769,32.567042 C147.797769,36.0729797 148.66368,38.7340733 150.395529,40.5504025 C152.127378,42.3667317 154.598393,43.2748827 157.80865,43.2748827 C161.314587,43.2748827 164.08128,42.2083333 166.10881,40.0752025 C168.13634,37.9420717 169.15009,34.9747412 169.15009,31.1731219 L169.15009,13.6857608 L173.648651,13.6857608 Z M202.107852,13.4323208 C205.233628,13.4323208 208.06368,14.1398338 210.598093,15.554881 C213.132506,16.9699281 215.117766,18.9657483 216.553933,21.5424013 C217.990101,24.1190544 218.708173,27.0547052 218.708173,30.3494419 C218.708173,33.6441785 217.990101,36.5798294 216.553933,39.1564824 C215.117766,41.7331354 213.132506,43.7395155 210.598093,45.1756828 C208.06368,46.61185 205.233628,47.3299229 202.107852,47.3299229 C199.319998,47.3299229 196.817303,46.7385688 194.599692,45.5558428 C192.382081,44.3731168 190.597458,42.6624138 189.245772,40.4236825 L189.245772,47.0131229 L184.937291,47.0131229 L184.937291,7.10542736e-15 L189.435852,7.10542736e-15 L189.435852,20.0217612 C190.829779,17.8675103 192.614401,16.2307266 194.789772,15.1113609 C196.965143,13.9919953 199.404479,13.4323208 202.107852,13.4323208 Z M201.791052,43.3382427 C204.114264,43.3382427 206.226243,42.799688 208.127053,41.7225626 C210.027862,40.6454371 211.516808,39.1142523 212.593933,37.1289623 C213.671059,35.1436722 214.209613,32.8838547 214.209613,30.3494419 C214.209613,27.815029 213.671059,25.5552115 212.593933,23.5699214 C211.516808,21.5846314 210.027862,20.0534466 208.127053,18.9763212 C206.226243,17.8991957 204.114264,17.3606411 201.791052,17.3606411 C199.4256,17.3606411 197.303062,17.8991957 195.423372,18.9763212 C193.543682,20.0534466 192.065297,21.5846314 190.988172,23.5699214 C189.911046,25.5552115 189.372492,27.815029 189.372492,30.3494419 C189.372492,32.8838547 189.911046,35.1436722 190.988172,37.1289623 C192.065297,39.1142523 193.543682,40.6454371 195.423372,41.7225626 C197.303062,42.799688 199.4256,43.3382427 201.791052,43.3382427 Z M235.509134,47.3299229 C232.805761,47.3299229 230.218586,46.9392068 227.747534,46.1577628 C225.276481,45.3763189 223.344021,44.3942486 221.950094,43.2115227 L223.977614,39.6633624 C225.371541,40.761608 227.124483,41.6591991 229.236494,42.3561626 C231.348505,43.0531261 233.544963,43.4016027 235.825934,43.4016027 C238.86723,43.4016027 241.116488,42.9264074 242.573775,41.9760026 C244.031062,41.0255978 244.759695,39.6844911 244.759695,37.9526423 C244.759695,36.7276761 244.358419,35.7667257 243.555855,35.0697622 C242.753291,34.3727986 241.739541,33.8448039 240.514575,33.4857621 C239.289609,33.1267202 237.663385,32.7782437 235.635854,32.440322 C232.932481,31.9334394 230.757142,31.4160046 229.109774,30.8880019 C227.462406,30.3599992 226.05794,29.4624081 224.896334,28.1952017 C223.734728,26.9279953 223.153934,25.1750527 223.153934,22.9363214 C223.153934,20.1484673 224.315522,17.86753 226.638734,16.093441 C228.961946,14.319352 232.193274,13.4323208 236.332815,13.4323208 C238.487065,13.4323208 240.641284,13.717438 242.795535,14.2876809 C244.949786,14.8579238 246.723848,15.6076763 248.117775,16.536961 L246.153615,20.1484812 C243.408001,18.2476716 240.134434,17.2972811 236.332815,17.2972811 C233.46048,17.2972811 231.295701,17.804156 229.838414,18.8179212 C228.381127,19.8316863 227.652494,21.1622331 227.652494,22.8096014 C227.652494,24.0768078 228.06433,25.0905577 228.888014,25.8508816 C229.711698,26.6112054 230.736008,27.1708799 231.960974,27.5299217 C233.18594,27.8889635 234.875524,28.2585598 237.029775,28.6387218 C239.690908,29.1456043 241.824007,29.6524793 243.429135,30.1593619 C245.034263,30.6662444 246.407049,31.5321558 247.547535,32.757122 C248.688021,33.9820882 249.258255,35.6716714 249.258255,37.8259223 C249.258255,40.7404971 248.043867,43.0531141 245.615055,44.7638427 C243.186243,46.4745714 239.817636,47.3299229 235.509134,47.3299229 Z M270.050897,47.3299229 C266.75616,47.3299229 263.809949,46.61185 261.212176,45.1756828 C258.614403,43.7395155 256.576343,41.7225756 255.097936,39.1248024 C253.619528,36.5270293 252.880336,33.6019383 252.880336,30.3494419 C252.880336,27.0969454 253.619528,24.1824144 255.097936,21.6057613 C256.576343,19.0291083 258.614403,17.0227282 261.212176,15.586561 C263.809949,14.1503937 266.75616,13.4323208 270.050897,13.4323208 C272.923231,13.4323208 275.489286,13.9919953 277.749137,15.1113609 C280.008988,16.2307266 281.793611,17.8675103 283.103057,20.0217612 L279.744977,22.3027214 C278.646732,20.655353 277.252825,19.4198453 275.563217,18.5961611 C273.873608,17.772477 272.036187,17.3606411 270.050897,17.3606411 C267.643204,17.3606411 265.478426,17.8991957 263.556496,18.9763212 C261.634566,20.0534466 260.135061,21.5846314 259.057936,23.5699214 C257.98081,25.5552115 257.442256,27.815029 257.442256,30.3494419 C257.442256,32.9260949 257.98081,35.1964723 259.057936,37.1606423 C260.135061,39.1248122 261.634566,40.6454371 263.556496,41.7225626 C265.478426,42.799688 267.643204,43.3382427 270.050897,43.3382427 C272.036187,43.3382427 273.873608,42.9369666 275.563217,42.1344026 C277.252825,41.3318385 278.646732,40.1068907 279.744977,38.4595224 L283.103057,40.7404825 C281.793611,42.8947334 279.998429,44.5315171 277.717457,45.6508828 C275.436486,46.7702485 272.880991,47.3299229 270.050897,47.3299229 Z M294.898578,20.2118412 C295.954583,17.9731099 297.528008,16.2835267 299.618898,15.1430409 C301.709789,14.0025552 304.296963,13.4323208 307.380499,13.4323208 L307.380499,17.8041611 L306.303379,17.7408011 C302.797441,17.7408011 300.051868,18.8179104 298.066578,20.9721613 C296.081288,23.1264122 295.088658,26.1465422 295.088658,30.0326418 L295.088658,47.0131229 L290.590098,47.0131229 L290.590098,13.6857608 L294.898578,13.6857608 L294.898578,20.2118412 Z M314.170579,13.6857608 L318.66914,13.6857608 L318.66914,47.0131229 L314.170579,47.0131229 L314.170579,13.6857608 Z M316.451539,6.39936039 C315.522255,6.39936039 314.740822,6.08256354 314.107219,5.44896033 C313.473616,4.81535713 313.156819,4.05504468 313.156819,3.16800019 C313.156819,2.32319592 313.473616,1.58400327 314.107219,0.950400058 C314.740822,0.316796851 315.522255,7.10542736e-15 316.451539,7.10542736e-15 C317.380824,7.10542736e-15 318.162256,0.306236956 318.79586,0.918720056 C319.429463,1.53120316 319.74626,2.25983591 319.74626,3.10464019 C319.74626,4.03392489 319.429463,4.81535713 318.79586,5.44896033 C318.162256,6.08256354 317.380824,6.39936039 316.451539,6.39936039 Z M347.064981,13.4323208 C350.190757,13.4323208 353.020809,14.1398338 355.555222,15.554881 C358.089635,16.9699281 360.074895,18.9657483 361.511062,21.5424013 C362.947229,24.1190544 363.665302,27.0547052 363.665302,30.3494419 C363.665302,33.6441785 362.947229,36.5798294 361.511062,39.1564824 C360.074895,41.7331354 358.089635,43.7395155 355.555222,45.1756828 C353.020809,46.61185 350.190757,47.3299229 347.064981,47.3299229 C344.277127,47.3299229 341.774432,46.7385688 339.556821,45.5558428 C337.33921,44.3731168 335.554587,42.6624138 334.202901,40.4236825 L334.202901,47.0131229 L329.89442,47.0131229 L329.89442,7.10542736e-15 L334.392981,7.10542736e-15 L334.392981,20.0217612 C335.786908,17.8675103 337.57153,16.2307266 339.746901,15.1113609 C341.922272,13.9919953 344.361608,13.4323208 347.064981,13.4323208 Z M346.748181,43.3382427 C349.071393,43.3382427 351.183372,42.799688 353.084182,41.7225626 C354.984991,40.6454371 356.473937,39.1142523 357.551062,37.1289623 C358.628187,35.1436722 359.166742,32.8838547 359.166742,30.3494419 C359.166742,27.815029 358.628187,25.5552115 357.551062,23.5699214 C356.473937,21.5846314 354.984991,20.0534466 353.084182,18.9763212 C351.183372,17.8991957 349.071393,17.3606411 346.748181,17.3606411 C344.382729,17.3606411 342.26019,17.8991957 340.380501,18.9763212 C338.500811,20.0534466 337.022426,21.5846314 335.945301,23.5699214 C334.868175,25.5552115 334.329621,27.815029 334.329621,30.3494419 C334.329621,32.8838547 334.868175,35.1436722 335.945301,37.1289623 C337.022426,39.1142523 338.500811,40.6454371 340.380501,41.7225626 C342.26019,42.799688 344.382729,43.3382427 346.748181,43.3382427 Z M400.551385,31.7433619 L372.672983,31.7433619 C372.926424,35.2070595 374.256971,38.0054317 376.664663,40.1385625 C379.072355,42.2716933 382.113605,43.3382427 385.788504,43.3382427 C387.858274,43.3382427 389.759055,42.9686463 391.490904,42.2294426 C393.222753,41.4902389 394.722258,40.4025697 395.989464,38.9664024 L398.523864,41.8809626 C397.045457,43.6550516 395.197475,45.0067181 392.979864,45.9360028 C390.762253,46.8652875 388.322917,47.3299229 385.661784,47.3299229 C382.240326,47.3299229 379.209636,46.6012901 376.569623,45.1440028 C373.92961,43.6867154 371.87043,41.6697754 370.392023,39.0931224 C368.913615,36.5164694 368.174423,33.6019383 368.174423,30.3494419 C368.174423,27.0969454 368.881936,24.1824144 370.296983,21.6057613 C371.71203,19.0291083 373.655051,17.0227282 376.126103,15.586561 C378.597156,14.1503937 381.374408,13.4323208 384.457944,13.4323208 C387.541479,13.4323208 390.308172,14.1503937 392.758104,15.586561 C395.208037,17.0227282 397.129937,19.0185484 398.523864,21.5740813 C399.917792,24.1296143 400.614745,27.0547052 400.614745,30.3494419 L400.551385,31.7433619 Z M384.457944,17.2972811 C381.247687,17.2972811 378.554914,18.3215909 376.379543,20.3702413 C374.204172,22.4188916 372.968664,25.0905451 372.672983,28.3852817 L396.306264,28.3852817 C396.010583,25.0905451 394.775075,22.4188916 392.599704,20.3702413 C390.424333,18.3215909 387.71044,17.2972811 384.457944,17.2972811 Z M441.312987,44.9856028 C440.468183,45.7459266 439.422753,46.3267208 438.176667,46.7280029 C436.930581,47.1292849 435.631714,47.3299229 434.280027,47.3299229 C431.154251,47.3299229 428.746595,46.4851313 427.056986,44.7955228 C425.367378,43.1059142 424.522586,40.7193779 424.522586,37.6358423 L424.522586,17.4873611 L418.566746,17.4873611 L418.566746,13.6857608 L424.522586,13.6857608 L424.522586,6.39936039 L429.021146,6.39936039 L429.021146,13.6857608 L439.158747,13.6857608 L439.158747,17.4873611 L429.021146,17.4873611 L429.021146,37.3824023 C429.021146,39.3676923 429.517461,40.8777573 430.510106,41.9126426 C431.502751,42.9475278 432.928337,43.4649627 434.786907,43.4649627 C435.716191,43.4649627 436.613782,43.3171241 437.479707,43.0214426 C438.345631,42.7257611 439.095384,42.3033653 439.728987,41.7542426 L441.312987,44.9856028 Z M460.584988,47.3299229 C457.374732,47.3299229 454.481321,46.6012901 451.904668,45.1440028 C449.328015,43.6867154 447.300515,41.6697754 445.822107,39.0931224 C444.3437,36.5164694 443.604507,33.6019383 443.604507,30.3494419 C443.604507,27.0969454 444.3437,24.1824144 445.822107,21.6057613 C447.300515,19.0291083 449.328015,17.0227282 451.904668,15.586561 C454.481321,14.1503937 457.374732,13.4323208 460.584988,13.4323208 C463.795245,13.4323208 466.688656,14.1503937 469.265309,15.586561 C471.841962,17.0227282 473.858902,19.0291083 475.316189,21.6057613 C476.773477,24.1824144 477.502109,27.0969454 477.502109,30.3494419 C477.502109,33.6019383 476.773477,36.5164694 475.316189,39.0931224 C473.858902,41.6697754 471.841962,43.6867154 469.265309,45.1440028 C466.688656,46.6012901 463.795245,47.3299229 460.584988,47.3299229 Z M460.584988,43.3382427 C462.95044,43.3382427 465.072979,42.799688 466.952669,41.7225626 C468.832358,40.6454371 470.300184,39.1142523 471.356189,37.1289623 C472.412194,35.1436722 472.940189,32.8838547 472.940189,30.3494419 C472.940189,27.815029 472.412194,25.5552115 471.356189,23.5699214 C470.300184,21.5846314 468.832358,20.0534466 466.952669,18.9763212 C465.072979,17.8991957 462.95044,17.3606411 460.584988,17.3606411 C458.219536,17.3606411 456.096997,17.8991957 454.217308,18.9763212 C452.337618,20.0534466 450.859233,21.5846314 449.782108,23.5699214 C448.704982,25.5552115 448.166428,27.815029 448.166428,30.3494419 C448.166428,32.8838547 448.704982,35.1436722 449.782108,37.1289623 C450.859233,39.1142523 452.337618,40.6454371 454.217308,41.7225626 C456.096997,42.799688 458.219536,43.3382427 460.584988,43.3382427 Z M504.958111,20.2118412 C506.014116,17.9731099 507.587541,16.2835267 509.678431,15.1430409 C511.769322,14.0025552 514.356496,13.4323208 517.440032,13.4323208 L517.440032,17.8041611 L516.362912,17.7408011 C512.856974,17.7408011 510.111401,18.8179104 508.126111,20.9721613 C506.140821,23.1264122 505.148191,26.1465422 505.148191,30.0326418 L505.148191,47.0131229 L500.649631,47.0131229 L500.649631,13.6857608 L504.958111,13.6857608 L504.958111,20.2118412 Z M552.932194,31.7433619 L525.053792,31.7433619 C525.307234,35.2070595 526.63778,38.0054317 529.045472,40.1385625 C531.453165,42.2716933 534.494414,43.3382427 538.169313,43.3382427 C540.239084,43.3382427 542.139865,42.9686463 543.871713,42.2294426 C545.603562,41.4902389 547.103067,40.4025697 548.370274,38.9664024 L550.904674,41.8809626 C549.426266,43.6550516 547.578285,45.0067181 545.360673,45.9360028 C543.143062,46.8652875 540.703727,47.3299229 538.042593,47.3299229 C534.621136,47.3299229 531.590446,46.6012901 528.950432,45.1440028 C526.310419,43.6867154 524.25124,41.6697754 522.772832,39.0931224 C521.294425,36.5164694 520.555232,33.6019383 520.555232,30.3494419 C520.555232,27.0969454 521.262745,24.1824144 522.677792,21.6057613 C524.092839,19.0291083 526.03586,17.0227282 528.506912,15.586561 C530.977965,14.1503937 533.755217,13.4323208 536.838753,13.4323208 C539.922289,13.4323208 542.688981,14.1503937 545.138913,15.586561 C547.588846,17.0227282 549.510747,19.0185484 550.904674,21.5740813 C552.298601,24.1296143 552.995554,27.0547052 552.995554,30.3494419 L552.932194,31.7433619 Z M536.838753,17.2972811 C533.628497,17.2972811 530.935723,18.3215909 528.760352,20.3702413 C526.584981,22.4188916 525.349474,25.0905451 525.053792,28.3852817 L548.687074,28.3852817 C548.391392,25.0905451 547.155884,22.4188916 544.980513,20.3702413 C542.805142,18.3215909 540.091249,17.2972811 536.838753,17.2972811 Z M574.675235,47.3299229 C571.380499,47.3299229 568.434288,46.61185 565.836515,45.1756828 C563.238742,43.7395155 561.200682,41.7225756 559.722274,39.1248024 C558.243867,36.5270293 557.504674,33.6019383 557.504674,30.3494419 C557.504674,27.0969454 558.243867,24.1824144 559.722274,21.6057613 C561.200682,19.0291083 563.238742,17.0227282 565.836515,15.586561 C568.434288,14.1503937 571.380499,13.4323208 574.675235,13.4323208 C577.54757,13.4323208 580.113624,13.9919953 582.373476,15.1113609 C584.633327,16.2307266 586.417949,17.8675103 587.727396,20.0217612 L584.369316,22.3027214 C583.27107,20.655353 581.877164,19.4198453 580.187556,18.5961611 C578.497947,17.772477 576.660525,17.3606411 574.675235,17.3606411 C572.267543,17.3606411 570.102765,17.8991957 568.180835,18.9763212 C566.258905,20.0534466 564.7594,21.5846314 563.682275,23.5699214 C562.605149,25.5552115 562.066595,27.815029 562.066595,30.3494419 C562.066595,32.9260949 562.605149,35.1964723 563.682275,37.1606423 C564.7594,39.1248122 566.258905,40.6454371 568.180835,41.7225626 C570.102765,42.799688 572.267543,43.3382427 574.675235,43.3382427 C576.660525,43.3382427 578.497947,42.9369666 580.187556,42.1344026 C581.877164,41.3318385 583.27107,40.1068907 584.369316,38.4595224 L587.727396,40.7404825 C586.417949,42.8947334 584.622767,44.5315171 582.341796,45.6508828 C580.060824,46.7702485 577.50533,47.3299229 574.675235,47.3299229 Z M623.663078,31.7433619 L595.784677,31.7433619 C596.038118,35.2070595 597.368665,38.0054317 599.776357,40.1385625 C602.184049,42.2716933 605.225299,43.3382427 608.900197,43.3382427 C610.969968,43.3382427 612.870749,42.9686463 614.602598,42.2294426 C616.334447,41.4902389 617.833952,40.4025697 619.101158,38.9664024 L621.635558,41.8809626 C620.157151,43.6550516 618.309169,45.0067181 616.091558,45.9360028 C613.873947,46.8652875 611.434611,47.3299229 608.773477,47.3299229 C605.35202,47.3299229 602.32133,46.6012901 599.681317,45.1440028 C597.041303,43.6867154 594.982124,41.6697754 593.503716,39.0931224 C592.025309,36.5164694 591.286116,33.6019383 591.286116,30.3494419 C591.286116,27.0969454 591.993629,24.1824144 593.408676,21.6057613 C594.823724,19.0291083 596.766744,17.0227282 599.237797,15.586561 C601.708849,14.1503937 604.486102,13.4323208 607.569637,13.4323208 C610.653173,13.4323208 613.419865,14.1503937 615.869798,15.586561 C618.31973,17.0227282 620.241631,19.0185484 621.635558,21.5740813 C623.029485,24.1296143 623.726438,27.0547052 623.726438,30.3494419 L623.663078,31.7433619 Z M607.569637,17.2972811 C604.359381,17.2972811 601.666608,18.3215909 599.491237,20.3702413 C597.315866,22.4188916 596.080358,25.0905451 595.784677,28.3852817 L619.417958,28.3852817 C619.122277,25.0905451 617.886769,22.4188916 615.711398,20.3702413 C613.536027,18.3215909 610.822134,17.2972811 607.569637,17.2972811 Z M631.593639,13.6857608 L636.092199,13.6857608 L636.092199,47.0131229 L631.593639,47.0131229 L631.593639,13.6857608 Z M633.874599,6.39936039 C632.945314,6.39936039 632.163882,6.08256354 631.530279,5.44896033 C630.896676,4.81535713 630.579879,4.05504468 630.579879,3.16800019 C630.579879,2.32319592 630.896676,1.58400327 631.530279,0.950400058 C632.163882,0.316796851 632.945314,7.10542736e-15 633.874599,7.10542736e-15 C634.803884,7.10542736e-15 635.585316,0.306236956 636.218919,0.918720056 C636.852522,1.53120316 637.169319,2.25983591 637.169319,3.10464019 C637.169319,4.03392489 636.852522,4.81535713 636.218919,5.44896033 C635.585316,6.08256354 634.803884,6.39936039 633.874599,6.39936039 Z M675.322601,13.6857608 L660.496361,47.0131229 L655.87108,47.0131229 L641.108199,13.6857608 L645.79684,13.6857608 L658.27876,42.0710426 L670.887401,13.6857608 L675.322601,13.6857608 Z M708.407084,31.7433619 L680.528682,31.7433619 C680.782123,35.2070595 682.11267,38.0054317 684.520362,40.1385625 C686.928054,42.2716933 689.969304,43.3382427 693.644203,43.3382427 C695.713973,43.3382427 697.614754,42.9686463 699.346603,42.2294426 C701.078452,41.4902389 702.577957,40.4025697 703.845163,38.9664024 L706.379563,41.8809626 C704.901156,43.6550516 703.053174,45.0067181 700.835563,45.9360028 C698.617952,46.8652875 696.178616,47.3299229 693.517483,47.3299229 C690.096025,47.3299229 687.065335,46.6012901 684.425322,45.1440028 C681.785309,43.6867154 679.726129,41.6697754 678.247722,39.0931224 C676.769314,36.5164694 676.030122,33.6019383 676.030122,30.3494419 C676.030122,27.0969454 676.737634,24.1824144 678.152682,21.6057613 C679.567729,19.0291083 681.510749,17.0227282 683.981802,15.586561 C686.452855,14.1503937 689.230107,13.4323208 692.313643,13.4323208 C695.397178,13.4323208 698.163871,14.1503937 700.613803,15.586561 C703.063735,17.0227282 704.985636,19.0185484 706.379563,21.5740813 C707.77349,24.1296143 708.470444,27.0547052 708.470444,30.3494419 L708.407084,31.7433619 Z M692.313643,17.2972811 C689.103386,17.2972811 686.410613,18.3215909 684.235242,20.3702413 C682.059871,22.4188916 680.824363,25.0905451 680.528682,28.3852817 L704.161963,28.3852817 C703.866282,25.0905451 702.630774,22.4188916 700.455403,20.3702413 C698.280032,18.3215909 695.566139,17.2972811 692.313643,17.2972811 Z" id="Subscribetoreceive"></path>
                <path d="M16.980481,642.329923 C13.7702248,642.329923 10.8768136,641.60129 8.30016051,640.144003 C5.72350747,638.686715 3.69600762,636.669775 2.21760014,634.093122 C0.739192653,631.516469 1.13686838e-13,628.601938 1.13686838e-13,625.349442 C1.13686838e-13,622.096945 0.739192653,619.182414 2.21760014,616.605761 C3.69600762,614.029108 5.72350747,612.022728 8.30016051,610.586561 C10.8768136,609.150394 13.7702248,608.432321 16.980481,608.432321 C20.1907373,608.432321 23.0841485,609.150394 25.6608016,610.586561 C28.2374546,612.022728 30.2543946,614.029108 31.7116819,616.605761 C33.1689693,619.182414 33.8976021,622.096945 33.8976021,625.349442 C33.8976021,628.601938 33.1689693,631.516469 31.7116819,634.093122 C30.2543946,636.669775 28.2374546,638.686715 25.6608016,640.144003 C23.0841485,641.60129 20.1907373,642.329923 16.980481,642.329923 Z M16.980481,638.338243 C19.345933,638.338243 21.4684719,637.799688 23.3481614,636.722563 C25.2278509,635.645437 26.6956764,634.114252 27.7516817,632.128962 C28.807687,630.143672 29.3356818,627.883855 29.3356818,625.349442 C29.3356818,622.815029 28.807687,620.555211 27.7516817,618.569921 C26.6956764,616.584631 25.2278509,615.053447 23.3481614,613.976321 C21.4684719,612.899196 19.345933,612.360641 16.980481,612.360641 C14.6150291,612.360641 12.4924902,612.899196 10.6128007,613.976321 C8.73311114,615.053447 7.25472583,616.584631 6.17760038,618.569921 C5.10047493,620.555211 4.56192028,622.815029 4.56192028,625.349442 C4.56192028,627.883855 5.10047493,630.143672 6.17760038,632.128962 C7.25472583,634.114252 8.73311114,635.645437 10.6128007,636.722563 C12.4924902,637.799688 14.6150291,638.338243 16.980481,638.338243 Z M52.7894432,598.4848 C50.8463934,598.4848 49.378568,599.012795 48.385923,600.0688 C47.3932779,601.124806 46.8969629,602.68767 46.8969629,604.757441 L46.8969629,608.685761 L57.1612835,608.685761 L57.1612835,612.487361 L47.0236829,612.487361 L47.0236829,642.013123 L42.5251226,642.013123 L42.5251226,612.487361 L36.5692822,612.487361 L36.5692822,608.685761 L42.5251226,608.685761 L42.5251226,604.567361 C42.5251226,601.526065 43.4015939,599.118409 45.1545628,597.34432 C46.9075316,595.570231 49.389107,594.6832 52.5993632,594.6832 C53.8665696,594.6832 55.0915175,594.862718 56.2742435,595.22176 C57.4569694,595.580802 58.4495996,596.098237 59.2521636,596.77408 L57.7315235,600.13216 C56.4220769,599.033915 54.7747333,598.4848 52.7894432,598.4848 Z M72.9484845,598.4848 C71.0054346,598.4848 69.5376092,599.012795 68.5449642,600.0688 C67.5523192,601.124806 67.0560041,602.68767 67.0560041,604.757441 L67.0560041,608.685761 L77.3203247,608.685761 L77.3203247,612.487361 L67.1827241,612.487361 L67.1827241,642.013123 L62.6841638,642.013123 L62.6841638,612.487361 L56.7283235,612.487361 L56.7283235,608.685761 L62.6841638,608.685761 L62.6841638,604.567361 C62.6841638,601.526065 63.5606351,599.118409 65.313604,597.34432 C67.0665729,595.570231 69.5481482,594.6832 72.7584045,594.6832 C74.0256109,594.6832 75.2505587,594.862718 76.4332847,595.22176 C77.6160107,595.580802 78.6086408,596.098237 79.4112049,596.77408 L77.8905648,600.13216 C76.5811182,599.033915 74.9337745,598.4848 72.9484845,598.4848 Z M125.368328,608.685761 L108.704647,646.004803 C107.35296,649.130579 105.790095,651.348157 104.016006,652.657604 C102.241917,653.96705 100.108819,654.621764 97.616646,654.621764 C96.0115179,654.621764 94.5120128,654.368326 93.1180857,653.861444 C91.7241587,653.354561 90.5203306,652.594249 89.5065655,651.580483 L91.5974456,648.222403 C93.2870542,649.912012 95.314554,650.756803 97.680006,650.756803 C99.2006537,650.756803 100.499521,650.334408 101.576646,649.489603 C102.653772,648.644799 103.656962,647.208653 104.586246,645.181123 L106.043527,641.949763 L91.1539256,608.685761 L95.8425659,608.685761 L108.387847,637.007683 L120.933127,608.685761 L125.368328,608.685761 Z M143.056329,642.329923 C139.846073,642.329923 136.952661,641.60129 134.376008,640.144003 C131.799355,638.686715 129.771855,636.669775 128.293448,634.093122 C126.81504,631.516469 126.075848,628.601938 126.075848,625.349442 C126.075848,622.096945 126.81504,619.182414 128.293448,616.605761 C129.771855,614.029108 131.799355,612.022728 134.376008,610.586561 C136.952661,609.150394 139.846073,608.432321 143.056329,608.432321 C146.266585,608.432321 149.159996,609.150394 151.736649,610.586561 C154.313302,612.022728 156.330242,614.029108 157.78753,616.605761 C159.244817,619.182414 159.97345,622.096945 159.97345,625.349442 C159.97345,628.601938 159.244817,631.516469 157.78753,634.093122 C156.330242,636.669775 154.313302,638.686715 151.736649,640.144003 C149.159996,641.60129 146.266585,642.329923 143.056329,642.329923 Z M143.056329,638.338243 C145.421781,638.338243 147.54432,637.799688 149.424009,636.722563 C151.303699,635.645437 152.771524,634.114252 153.827529,632.128962 C154.883535,630.143672 155.41153,627.883855 155.41153,625.349442 C155.41153,622.815029 154.883535,620.555211 153.827529,618.569921 C152.771524,616.584631 151.303699,615.053447 149.424009,613.976321 C147.54432,612.899196 145.421781,612.360641 143.056329,612.360641 C140.690877,612.360641 138.568338,612.899196 136.688648,613.976321 C134.808959,615.053447 133.330574,616.584631 132.253448,618.569921 C131.176323,620.555211 130.637768,622.815029 130.637768,625.349442 C130.637768,627.883855 131.176323,630.143672 132.253448,632.128962 C133.330574,634.114252 134.808959,635.645437 136.688648,636.722563 C138.568338,637.799688 140.690877,638.338243 143.056329,638.338243 Z M197.873292,608.685761 L197.873292,642.013123 L193.564812,642.013123 L193.564812,635.930563 C192.382086,637.958093 190.755862,639.531517 188.686092,640.650883 C186.616321,641.770248 184.250905,642.329923 181.589771,642.329923 C177.239029,642.329923 173.807063,641.115535 171.293771,638.686723 C168.780478,636.25791 167.52385,632.699226 167.52385,628.010562 L167.52385,608.685761 L172.022411,608.685761 L172.022411,627.567042 C172.022411,631.07298 172.888322,633.734073 174.620171,635.550402 C176.352019,637.366732 178.823035,638.274883 182.033291,638.274883 C185.539229,638.274883 188.305921,637.208333 190.333452,635.075202 C192.360982,632.942072 193.374732,629.974741 193.374732,626.173122 L193.374732,608.685761 L197.873292,608.685761 Z M213.470413,615.211841 C214.526418,612.97311 216.099843,611.283527 218.190733,610.143041 C220.281624,609.002555 222.868798,608.432321 225.952334,608.432321 L225.952334,612.804161 L224.875214,612.740801 C221.369276,612.740801 218.623703,613.81791 216.638413,615.972161 C214.653123,618.126412 213.660493,621.146542 213.660493,625.032642 L213.660493,642.013123 L209.161933,642.013123 L209.161933,608.685761 L213.470413,608.685761 L213.470413,615.211841 Z M275.077457,613.184321 L273.430097,626.489922 L282.427217,626.489922 L282.427217,629.974722 L272.986577,629.974722 L271.529297,642.013123 L268.107856,642.013123 L269.565137,629.974722 L256.576336,629.974722 L255.055696,642.013123 L251.634255,642.013123 L253.091536,629.974722 L244.094415,629.974722 L244.094415,626.489922 L253.535056,626.489922 L255.182416,613.184321 L246.121935,613.184321 L246.121935,609.699521 L255.625936,609.699521 L257.083216,597.66112 L260.568016,597.66112 L259.047376,609.699521 L272.099537,609.699521 L273.556817,597.66112 L276.978257,597.66112 L275.520977,609.699521 L284.454737,609.699521 L284.454737,613.184321 L275.077457,613.184321 Z M271.656017,613.184321 L258.667216,613.184321 L256.956496,626.489922 L270.008657,626.489922 L271.656017,613.184321 Z M311.646739,642.393283 C307.253757,642.393283 303.272676,641.411213 299.703378,639.447043 C296.13408,637.482873 293.346268,634.7901 291.339858,631.368642 C289.333448,627.947185 288.330258,624.103383 288.330258,619.837122 C288.330258,615.57086 289.333448,611.727058 291.339858,608.305601 C293.346268,604.884143 296.13408,602.19137 299.703378,600.2272 C303.272676,598.26303 307.253757,597.28096 311.646739,597.28096 C316.039721,597.28096 319.999682,598.25247 323.52674,600.19552 C327.053798,602.13857 329.83105,604.831343 331.85858,608.273921 C333.886111,611.716498 334.899861,615.57086 334.899861,619.837122 C334.899861,624.103383 333.886111,627.957745 331.85858,631.400322 C329.83105,634.8429 327.053798,637.535673 323.52674,639.478723 C319.999682,641.421773 316.039721,642.393283 311.646739,642.393283 Z M311.646739,638.211523 C315.152677,638.211523 318.320645,637.419531 321.15074,635.835523 C323.980834,634.251514 326.198412,632.055056 327.80354,629.246082 C329.408668,626.437108 330.21122,623.300819 330.21122,619.837122 C330.21122,616.373424 329.408668,613.237135 327.80354,610.428161 C326.198412,607.619187 323.980834,605.422729 321.15074,603.838721 C318.320645,602.254713 315.152677,601.46272 311.646739,601.46272 C308.140801,601.46272 304.962273,602.254713 302.111059,603.838721 C299.259844,605.422729 297.021146,607.619187 295.394898,610.428161 C293.76865,613.237135 292.955538,616.373424 292.955538,619.837122 C292.955538,623.300819 293.76865,626.437108 295.394898,629.246082 C297.021146,632.055056 299.259844,634.251514 302.111059,635.835523 C304.962273,637.419531 308.140801,638.211523 311.646739,638.211523 Z M360.127702,608.432321 C364.309483,608.432321 367.63585,609.646709 370.106903,612.075521 C372.577955,614.504333 373.813463,618.041898 373.813463,622.688322 L373.813463,642.013123 L369.314903,642.013123 L369.314903,623.131842 C369.314903,619.668144 368.448991,617.02817 366.717143,615.211841 C364.985294,613.395512 362.514278,612.487361 359.304022,612.487361 C355.713604,612.487361 352.872992,613.55391 350.782102,615.687041 C348.691211,617.820172 347.645781,620.766383 347.645781,624.525762 L347.645781,642.013123 L343.147221,642.013123 L343.147221,608.685761 L347.455701,608.685761 L347.455701,614.831681 C348.680668,612.804151 350.380811,611.230727 352.556182,610.111361 C354.731553,608.991995 357.255368,608.432321 360.127702,608.432321 Z M413.614105,619.140161 C416.52868,619.773765 418.777938,621.030392 420.361946,622.910082 C421.945954,624.789771 422.737946,627.207987 422.737946,630.164802 C422.737946,633.966421 421.33348,636.891512 418.524506,638.940163 C415.715531,640.988813 411.565493,642.013123 406.074265,642.013123 L385.672344,642.013123 L385.672344,597.66112 L404.807065,597.66112 C409.74917,597.66112 413.582412,598.65375 416.306906,600.63904 C419.031399,602.62433 420.393626,605.433262 420.393626,609.065921 C420.393626,611.515853 419.791712,613.596153 418.587866,615.306881 C417.38402,617.01761 415.726116,618.295357 413.614105,619.140161 Z M390.360984,601.52608 L390.360984,617.619521 L404.490265,617.619521 C408.080683,617.619521 410.847376,616.933128 412.790425,615.560321 C414.733475,614.187514 415.704986,612.191694 415.704986,609.572801 C415.704986,606.953908 414.733475,604.958087 412.790425,603.585281 C410.847376,602.212474 408.080683,601.52608 404.490265,601.52608 L390.360984,601.52608 Z M406.010905,638.148163 C409.981485,638.148163 412.980495,637.472329 415.008025,636.120643 C417.035556,634.768956 418.049306,632.656977 418.049306,629.784642 C418.049306,624.251174 414.036546,621.484482 406.010905,621.484482 L390.360984,621.484482 L390.360984,638.148163 L406.010905,638.148163 Z M435.483867,615.211841 C436.539872,612.97311 438.113296,611.283527 440.204187,610.143041 C442.295078,609.002555 444.882252,608.432321 447.965788,608.432321 L447.965788,612.804161 L446.888667,612.740801 C443.38273,612.740801 440.637157,613.81791 438.651867,615.972161 C436.666577,618.126412 435.673947,621.146542 435.673947,625.032642 L435.673947,642.013123 L431.175386,642.013123 L431.175386,608.685761 L435.483867,608.685761 L435.483867,615.211841 Z M466.350749,608.432321 C470.701491,608.432321 474.038417,609.51999 476.361629,611.695361 C478.684841,613.870732 479.846429,617.0915 479.846429,621.357762 L479.846429,642.013123 L475.537949,642.013123 L475.537949,636.817603 C474.524184,638.549451 473.035239,639.901118 471.071069,640.872643 C469.106899,641.844168 466.773162,642.329923 464.069788,642.329923 C460.35265,642.329923 457.395879,641.442892 455.199388,639.668803 C453.002897,637.894714 451.904668,635.550417 451.904668,632.635842 C451.904668,629.805748 452.928978,627.524811 454.977628,625.792962 C457.026278,624.061113 460.289286,623.195202 464.766749,623.195202 L475.347869,623.195202 L475.347869,621.167682 C475.347869,618.295347 474.545317,616.109449 472.940189,614.609921 C471.335061,613.110394 468.990764,612.360641 465.907229,612.360641 C463.795218,612.360641 461.767718,612.709118 459.824668,613.406081 C457.881618,614.103045 456.213155,615.063995 454.819228,616.288961 L452.791708,612.930881 C454.481316,611.494714 456.508816,610.385925 458.874268,609.604481 C461.23972,608.823037 463.731855,608.432321 466.350749,608.432321 Z M464.766749,638.781763 C467.301161,638.781763 469.4765,638.200968 471.292829,637.039363 C473.109158,635.877757 474.460825,634.198733 475.347869,632.002242 L475.347869,626.553282 L464.893469,626.553282 C459.19104,626.553282 456.339868,628.538542 456.339868,632.509122 C456.339868,634.452172 457.079061,635.983357 458.557468,637.102723 C460.035876,638.222088 462.105615,638.781763 464.766749,638.781763 Z M507.735391,608.432321 C511.917172,608.432321 515.243539,609.646709 517.714592,612.075521 C520.185644,614.504333 521.421152,618.041898 521.421152,622.688322 L521.421152,642.013123 L516.922592,642.013123 L516.922592,623.131842 C516.922592,619.668144 516.05668,617.02817 514.324832,615.211841 C512.592983,613.395512 510.121967,612.487361 506.911711,612.487361 C503.321293,612.487361 500.480681,613.55391 498.389791,615.687041 C496.2989,617.820172 495.25347,620.766383 495.25347,624.525762 L495.25347,642.013123 L490.75491,642.013123 L490.75491,608.685761 L495.06339,608.685761 L495.06339,614.831681 C496.288357,612.804151 497.9885,611.230727 500.163871,610.111361 C502.339242,608.991995 504.863057,608.432321 507.735391,608.432321 Z M562.869155,595 L562.869155,642.013123 L558.560674,642.013123 L558.560674,635.423682 C557.208987,637.662414 555.424365,639.373117 553.206754,640.555843 C550.989143,641.738569 548.486448,642.329923 545.698594,642.329923 C542.572818,642.329923 539.742766,641.61185 537.208353,640.175683 C534.67394,638.739516 532.68868,636.733135 531.252513,634.156482 C529.816345,631.579829 529.098272,628.644179 529.098272,625.349442 C529.098272,622.054705 529.816345,619.119054 531.252513,616.542401 C532.68868,613.965748 534.67394,611.969928 537.208353,610.554881 C539.742766,609.139834 542.572818,608.432321 545.698594,608.432321 C548.401967,608.432321 550.841303,608.991995 553.016674,610.111361 C555.192045,611.230727 556.976667,612.86751 558.370594,615.021761 L558.370594,595 L562.869155,595 Z M546.078754,638.338243 C548.401965,638.338243 550.503384,637.799688 552.383074,636.722563 C554.262763,635.645437 555.741149,634.114252 556.818274,632.128962 C557.8954,630.143672 558.433954,627.883855 558.433954,625.349442 C558.433954,622.815029 557.8954,620.555211 556.818274,618.569921 C555.741149,616.584631 554.262763,615.053447 552.383074,613.976321 C550.503384,612.899196 548.401965,612.360641 546.078754,612.360641 C543.713302,612.360641 541.590763,612.899196 539.711073,613.976321 C537.831384,615.053447 536.352998,616.584631 535.275873,618.569921 C534.198747,620.555211 533.660193,622.815029 533.660193,625.349442 C533.660193,627.883855 534.198747,630.143672 535.275873,632.128962 C536.352998,634.114252 537.831384,635.645437 539.711073,636.722563 C541.590763,637.799688 543.713302,638.338243 546.078754,638.338243 Z M583.408356,597.66112 L583.408356,642.013123 L578.846436,642.013123 L578.846436,601.71616 L568.392035,601.71616 L568.392035,597.66112 L583.408356,597.66112 Z M606.481957,597.28096 C612.353347,597.28096 616.851862,599.213421 619.977638,603.0784 C623.103414,606.94338 624.666278,612.402846 624.666278,619.456962 C624.666278,624.399067 623.821487,628.580785 622.131878,632.002242 C620.44227,635.4237 618.076853,638.010874 615.035558,639.763843 C611.994262,641.516812 608.446138,642.393283 604.391077,642.393283 C599.998095,642.393283 596.49221,641.590731 593.873316,639.985603 L595.710757,636.310723 C597.822767,637.70465 600.695059,638.401603 604.327717,638.401603 C609.227582,638.401603 613.071384,636.849298 615.859238,633.744642 C618.647092,630.639987 620.040998,626.130911 620.040998,620.217282 C620.040998,619.119036 619.977639,617.915208 619.850918,616.605761 C618.752673,619.013454 616.99973,620.882555 614.592038,622.213122 C612.184346,623.543688 609.417653,624.208962 606.291877,624.208962 C603.377302,624.208962 600.790128,623.659847 598.530277,622.561602 C596.270425,621.463356 594.506923,619.911052 593.239716,617.904641 C591.97251,615.898231 591.338916,613.564494 591.338916,610.903361 C591.338916,608.199987 591.99363,605.813451 593.303076,603.743681 C594.612523,601.67391 596.418265,600.079366 598.720357,598.96 C601.022448,597.840635 603.609623,597.28096 606.481957,597.28096 Z M606.988837,620.344002 C609.227569,620.344002 611.202269,619.921606 612.912998,619.076801 C614.623726,618.231997 615.964833,617.070409 616.936358,615.592001 C617.907883,614.113594 618.393638,612.46625 618.393638,610.649921 C618.393638,608.960312 617.939562,607.397448 617.031398,605.961281 C616.123233,604.525113 614.782127,603.363525 613.008038,602.47648 C611.233949,601.589436 609.12197,601.14592 606.672037,601.14592 C603.461781,601.14592 600.853487,602.022392 598.847077,603.775361 C596.840667,605.528329 595.837477,607.862066 595.837477,610.776641 C595.837477,613.691216 596.840667,616.014393 598.847077,617.746241 C600.853487,619.47809 603.56738,620.344002 606.988837,620.344002 Z M665.744681,639.985603 C664.899877,640.745927 663.854447,641.326721 662.608361,641.728003 C661.362274,642.129285 660.063407,642.329923 658.71172,642.329923 C655.585945,642.329923 653.178289,641.485131 651.48868,639.795523 C649.799071,638.105914 648.95428,635.719378 648.95428,632.635842 L648.95428,612.487361 L642.998439,612.487361 L642.998439,608.685761 L648.95428,608.685761 L648.95428,601.39936 L653.45284,601.39936 L653.45284,608.685761 L663.590441,608.685761 L663.590441,612.487361 L653.45284,612.487361 L653.45284,632.382402 C653.45284,634.367692 653.949155,635.877757 654.9418,636.912643 C655.934445,637.947528 657.360031,638.464963 659.2186,638.464963 C660.147885,638.464963 661.045476,638.317124 661.911401,638.021443 C662.777325,637.725761 663.527078,637.303365 664.160681,636.754243 L665.744681,639.985603 Z M672.598121,608.685761 L677.096682,608.685761 L677.096682,642.013123 L672.598121,642.013123 L672.598121,608.685761 Z M674.879081,601.39936 C673.949797,601.39936 673.168365,601.082564 672.534761,600.44896 C671.901158,599.815357 671.584361,599.055045 671.584361,598.168 C671.584361,597.323196 671.901158,596.584003 672.534761,595.9504 C673.168365,595.316797 673.949797,595 674.879081,595 C675.808366,595 676.589798,595.306237 677.223402,595.91872 C677.857005,596.531203 678.173802,597.259836 678.173802,598.10464 C678.173802,599.033925 677.857005,599.815357 677.223402,600.44896 C676.589798,601.082564 675.808366,601.39936 674.879081,601.39936 Z M702.134443,642.329923 C698.839706,642.329923 695.893496,641.61185 693.295723,640.175683 C690.697949,638.739516 688.65989,636.722576 687.181482,634.124802 C685.703075,631.527029 684.963882,628.601938 684.963882,625.349442 C684.963882,622.096945 685.703075,619.182414 687.181482,616.605761 C688.65989,614.029108 690.697949,612.022728 693.295723,610.586561 C695.893496,609.150394 698.839706,608.432321 702.134443,608.432321 C705.006778,608.432321 707.572832,608.991995 709.832684,610.111361 C712.092535,611.230727 713.877157,612.86751 715.186604,615.021761 L711.828524,617.302721 C710.730278,615.655353 709.336372,614.419845 707.646763,613.596161 C705.957155,612.772477 704.119733,612.360641 702.134443,612.360641 C699.726751,612.360641 697.561972,612.899196 695.640043,613.976321 C693.718113,615.053447 692.218608,616.584631 691.141482,618.569921 C690.064357,620.555211 689.525802,622.815029 689.525802,625.349442 C689.525802,627.926095 690.064357,630.196472 691.141482,632.160642 C692.218608,634.124812 693.718113,635.645437 695.640043,636.722563 C697.561972,637.799688 699.726751,638.338243 702.134443,638.338243 C704.119733,638.338243 705.957155,637.936967 707.646763,637.134403 C709.336372,636.331839 710.730278,635.106891 711.828524,633.459522 L715.186604,635.740483 C713.877157,637.894733 712.081975,639.531517 709.801004,640.650883 C707.520032,641.770248 704.964537,642.329923 702.134443,642.329923 Z M734.521965,625.286082 L726.665325,632.509122 L726.665325,642.013123 L722.166764,642.013123 L722.166764,595 L726.665325,595 L726.665325,626.870082 L746.560366,608.685761 L752.136046,608.685761 L737.880045,622.308162 L753.466606,642.013123 L747.954286,642.013123 L734.521965,625.286082 Z M786.614448,626.743362 L758.736047,626.743362 C758.989488,630.207059 760.320035,633.005432 762.727727,635.138562 C765.135419,637.271693 768.176669,638.338243 771.851567,638.338243 C773.921338,638.338243 775.822119,637.968646 777.553968,637.229443 C779.285817,636.490239 780.785322,635.40257 782.052528,633.966402 L784.586928,636.880963 C783.108521,638.655052 781.260539,640.006718 779.042928,640.936003 C776.825317,641.865288 774.385981,642.329923 771.724847,642.329923 C768.30339,642.329923 765.2727,641.60129 762.632687,640.144003 C759.992673,638.686715 757.933494,636.669775 756.455086,634.093122 C754.976679,631.516469 754.237486,628.601938 754.237486,625.349442 C754.237486,622.096945 754.944999,619.182414 756.360046,616.605761 C757.775094,614.029108 759.718114,612.022728 762.189167,610.586561 C764.660219,609.150394 767.437472,608.432321 770.521007,608.432321 C773.604543,608.432321 776.371235,609.150394 778.821168,610.586561 C781.2711,612.022728 783.193001,614.018548 784.586928,616.574081 C785.980855,619.129614 786.677808,622.054705 786.677808,625.349442 L786.614448,626.743362 Z M770.521007,612.297281 C767.310751,612.297281 764.617978,613.321591 762.442607,615.370241 C760.267236,617.418892 759.031728,620.090545 758.736047,623.385282 L782.369328,623.385282 C782.073647,620.090545 780.838139,617.418892 778.662768,615.370241 C776.487397,613.321591 773.773504,612.297281 770.521007,612.297281 Z M812.09573,639.985603 C811.250926,640.745927 810.205496,641.326721 808.95941,641.728003 C807.713323,642.129285 806.414456,642.329923 805.062769,642.329923 C801.936994,642.329923 799.529338,641.485131 797.839729,639.795523 C796.15012,638.105914 795.305329,635.719378 795.305329,632.635842 L795.305329,612.487361 L789.349488,612.487361 L789.349488,608.685761 L795.305329,608.685761 L795.305329,601.39936 L799.803889,601.39936 L799.803889,608.685761 L809.94149,608.685761 L809.94149,612.487361 L799.803889,612.487361 L799.803889,632.382402 C799.803889,634.367692 800.300204,635.877757 801.292849,636.912643 C802.285494,637.947528 803.71108,638.464963 805.569649,638.464963 C806.498934,638.464963 807.396525,638.317124 808.26245,638.021443 C809.128374,637.725761 809.878127,637.303365 810.51173,636.754243 L812.09573,639.985603 Z" id="offyour#OnBrand19ticket"></path>
                <path d="M225.048094,132.085111 L225.048094,333.013123 L168.214171,333.013123 L168.214171,176.002234 L130.898969,176.002234 L130.898969,132.085111 L225.048094,132.085111 Z M337.902661,337.031683 C320.680174,337.031683 305.371526,332.917484 291.976258,324.688962 C278.58099,316.460441 268.104135,304.45272 260.545376,288.66544 C252.986618,272.87816 249.207296,254.172906 249.207296,232.549117 C249.207296,210.925328 252.986618,192.220074 260.545376,176.432794 C268.104135,160.645514 278.58099,148.637793 291.976258,140.409272 C305.371526,132.18075 320.680174,128.066551 337.902661,128.066551 C354.933787,128.066551 370.146756,132.18075 383.542023,140.409272 C396.937291,148.637793 407.414147,160.645514 414.972905,176.432794 C422.531664,192.220074 426.310986,210.925328 426.310986,232.549117 C426.310986,254.172906 422.531664,272.87816 414.972905,288.66544 C407.414147,304.45272 396.937291,316.460441 383.542023,324.688962 C370.146756,332.917484 354.933787,337.031683 337.902661,337.031683 Z M337.902661,290.5312 C347.470709,290.5312 355.077194,285.890767 360.722342,276.60976 C366.367491,267.328753 369.190023,252.642019 369.190023,232.549117 C369.190023,212.456215 366.367491,197.769481 360.722342,188.488475 C355.077194,179.207468 347.470709,174.567034 337.902661,174.567034 C328.143251,174.567034 320.441088,179.207468 314.79594,188.488475 C309.150791,197.769481 306.328259,212.456215 306.328259,232.549117 C306.328259,252.642019 309.150791,267.328753 314.79594,276.60976 C320.441088,285.890767 328.143251,290.5312 337.902661,290.5312 Z M487.78539,240.873278 C472.667873,240.873278 460.325276,235.897967 450.757228,225.947197 C441.189179,215.996426 436.405227,202.410001 436.405227,185.187514 C436.405227,173.897217 438.605845,164.042275 443.007147,155.622393 C447.408449,147.20251 453.484069,140.744174 461.234188,136.247191 C468.984307,131.750209 477.834619,129.501751 487.78539,129.501751 C503.094267,129.501751 515.532544,134.524901 525.100592,144.571352 C534.66864,154.617803 539.452593,168.156388 539.452593,185.187514 C539.452593,202.410001 534.66864,215.996426 525.100592,225.947197 C515.532544,235.897967 503.094267,240.873278 487.78539,240.873278 Z M606.619957,132.085111 L647.953719,132.085111 L510.748591,333.013123 L469.414829,333.013123 L606.619957,132.085111 Z M487.78539,213.604476 C492.952136,213.604476 497.066335,211.308179 500.12811,206.715516 C503.189886,202.122852 504.720751,194.946924 504.720751,185.187514 C504.720751,175.428105 503.189886,168.252176 500.12811,163.659513 C497.066335,159.06685 492.952136,156.770553 487.78539,156.770553 C482.810005,156.770553 478.743645,159.114689 475.586189,163.803033 C472.428733,168.491377 470.850029,175.619466 470.850029,185.187514 C470.850029,194.755563 472.428733,201.883652 475.586189,206.571996 C478.743645,211.260339 482.810005,213.604476 487.78539,213.604476 Z M629.583158,335.596483 C614.274281,335.596483 601.883844,330.621173 592.411476,320.670402 C582.939108,310.719632 578.202995,297.133207 578.202995,279.91072 C578.202995,262.879594 582.986947,249.341008 592.554996,239.294557 C602.123044,229.248107 614.465641,224.224957 629.583158,224.224957 C644.892035,224.224957 657.330312,229.248107 666.89836,239.294557 C676.466409,249.341008 681.250361,262.879594 681.250361,279.91072 C681.250361,297.133207 676.466409,310.719632 666.89836,320.670402 C657.330312,330.621173 644.892035,335.596483 629.583158,335.596483 Z M629.583158,308.327681 C634.749904,308.327681 638.864103,306.031384 641.925879,301.438721 C644.987654,296.846058 646.518519,289.670129 646.518519,279.91072 C646.518519,270.15131 644.987654,262.975382 641.925879,258.382719 C638.864103,253.790055 634.749904,251.493758 629.583158,251.493758 C624.416412,251.493758 620.302213,253.790055 617.240437,258.382719 C614.178662,262.975382 612.647797,270.15131 612.647797,279.91072 C612.647797,289.670129 614.178662,296.846058 617.240437,301.438721 C620.302213,306.031384 624.416412,308.327681 629.583158,308.327681 Z" id="10%"></path>
                <path d="M128.502201,390.222915 L128.502201,518.013123 L97.3296572,518.013123 L97.3296572,508.713027 C91.2443787,515.946471 82.116598,519.563139 69.9460412,519.563139 C61.4496147,519.563139 53.6996122,517.582583 46.6958012,513.621411 C39.6919902,509.660239 34.1521736,504.005608 30.0761853,496.657347 C26.0001969,489.309086 23.9622333,480.812787 23.9622333,471.168195 C23.9622333,461.523603 26.0001969,453.056007 30.0761853,445.765155 C34.1521736,438.474303 39.6919902,432.877079 46.6958012,428.973315 C53.6996122,425.069552 61.4496147,423.117699 69.9460412,423.117699 C81.0832489,423.117699 89.6943627,426.332515 95.7796412,432.762243 L95.7796412,390.222915 L128.502201,390.222915 Z M76.8350012,493.557315 C82.4610133,493.557315 87.1110148,491.576759 90.7851452,487.615587 C94.4592755,483.654415 96.2963132,478.172006 96.2963132,471.168195 C96.2963132,464.279201 94.4879792,458.882903 90.8712572,454.979139 C87.2545351,451.075375 82.5758299,449.123523 76.8350012,449.123523 C71.0941725,449.123523 66.3867636,451.075375 62.7126332,454.979139 C59.0385029,458.882903 57.2014652,464.279201 57.2014652,471.168195 C57.2014652,478.172006 59.0385029,483.654415 62.7126332,487.615587 C66.3867636,491.576759 71.0941725,493.557315 76.8350012,493.557315 Z M145.925529,424.667715 L178.648089,424.667715 L178.648089,518.013123 L145.925529,518.013123 L145.925529,424.667715 Z M162.286809,414.334275 C156.316347,414.334275 151.494123,412.66946 147.819993,409.339779 C144.145863,406.010098 142.308825,401.876764 142.308825,396.939651 C142.308825,392.002538 144.145863,387.869204 147.819993,384.539523 C151.494123,381.209842 156.316347,379.545027 162.286809,379.545027 C168.257271,379.545027 173.079495,381.123731 176.753625,384.281187 C180.427755,387.438643 182.264793,391.485866 182.264793,396.422979 C182.264793,401.589725 180.427755,405.866578 176.753625,409.253667 C173.079495,412.640756 168.257271,414.334275 162.286809,414.334275 Z M230.171769,519.563139 C222.364242,519.563139 214.671647,518.673324 207.093753,516.893667 C199.515859,515.11401 193.430672,512.789009 188.838009,509.918595 L198.654777,487.529475 C202.90299,490.170256 207.954844,492.265627 213.810489,493.815651 C219.666134,495.365675 225.464284,496.140675 231.205113,496.140675 C236.486675,496.140675 240.246862,495.595304 242.485785,494.504547 C244.724708,493.413789 245.844153,491.835085 245.844153,489.768387 C245.844153,487.701689 244.495079,486.237799 241.796889,485.376675 C239.0987,484.515551 234.821846,483.683143 228.966201,482.879427 C221.503124,481.960894 215.159603,480.755338 209.935449,479.262723 C204.711295,477.770107 200.204812,475.014551 196.415865,470.995971 C192.626918,466.977391 190.732473,461.351463 190.732473,454.118019 C190.732473,448.147557 192.512103,442.83737 196.071417,438.187299 C199.630731,433.537228 204.826103,429.863153 211.657689,427.164963 C218.489275,424.466774 226.669833,423.117699 236.199609,423.117699 C242.973787,423.117699 249.690456,423.806588 256.349817,425.184387 C263.009178,426.562186 268.577699,428.514038 273.055545,431.040003 L263.238777,453.256899 C254.971984,448.664236 246.016425,446.367939 236.371833,446.367939 C231.205087,446.367939 227.416197,446.970717 225.005049,448.176291 C222.593901,449.381865 221.388345,450.960569 221.388345,452.912451 C221.388345,455.093966 222.708716,456.615263 225.349497,457.476387 C227.990278,458.337511 232.353243,459.227326 238.438521,460.145859 C246.131231,461.294025 252.503456,462.614396 257.555385,464.107011 C262.607314,465.599626 266.998982,468.326479 270.730521,472.287651 C274.46206,476.248823 276.327801,481.788639 276.327801,488.907267 C276.327801,494.762912 274.548171,500.015692 270.988857,504.665763 C267.429543,509.315834 262.176764,512.961206 255.230361,515.601987 C248.283958,518.242768 239.931178,519.563139 230.171769,519.563139 Z M334.568217,519.563139 C324.234725,519.563139 314.99213,517.496472 306.840153,513.363075 C298.688176,509.229678 292.344656,503.488936 287.809401,496.140675 C283.274146,488.792414 281.006553,480.468337 281.006553,471.168195 C281.006553,461.868052 283.274146,453.572679 287.809401,446.281827 C292.344656,438.990975 298.688176,433.307639 306.840153,429.231651 C314.99213,425.155663 324.234725,423.117699 334.568217,423.117699 C345.131342,423.117699 354.259122,425.385292 361.951833,429.920547 C369.644543,434.455802 375.098249,440.741915 378.313113,448.779075 L352.996185,461.695875 C348.747972,453.314265 342.54797,449.123523 334.395993,449.123523 C328.540348,449.123523 323.68942,451.075375 319.843065,454.979139 C315.99671,458.882903 314.073561,464.279201 314.073561,471.168195 C314.073561,478.172006 315.99671,483.654415 319.843065,487.615587 C323.68942,491.576759 328.540348,493.557315 334.395993,493.557315 C342.54797,493.557315 348.747972,489.366573 352.996185,480.984963 L378.313113,493.901763 C375.098249,501.938923 369.644543,508.225036 361.951833,512.760291 C354.259122,517.295546 345.131342,519.563139 334.568217,519.563139 Z M432.936825,519.563139 C422.947783,519.563139 413.934817,517.496472 405.897657,513.363075 C397.860497,509.229678 391.574384,503.488936 387.039129,496.140675 C382.503874,488.792414 380.236281,480.468337 380.236281,471.168195 C380.236281,461.982869 382.503874,453.7162 387.039129,446.367939 C391.574384,439.019678 397.831793,433.307639 405.811545,429.231651 C413.791297,425.155663 422.832966,423.117699 432.936825,423.117699 C443.040683,423.117699 452.111057,425.155663 460.148217,429.231651 C468.185377,433.307639 474.442786,438.990975 478.920633,446.281827 C483.398479,453.572679 485.637369,461.868052 485.637369,471.168195 C485.637369,480.468337 483.398479,488.792414 478.920633,496.140675 C474.442786,503.488936 468.185377,509.229678 460.148217,513.363075 C452.111057,517.496472 443.040683,519.563139 432.936825,519.563139 Z M432.936825,493.557315 C438.677654,493.557315 443.385062,491.576759 447.059193,487.615587 C450.733323,483.654415 452.570361,478.172006 452.570361,471.168195 C452.570361,464.279201 450.733323,458.882903 447.059193,454.979139 C443.385062,451.075375 438.677654,449.123523 432.936825,449.123523 C427.195996,449.123523 422.488587,451.075375 418.814457,454.979139 C415.140326,458.882903 413.303289,464.279201 413.303289,471.168195 C413.303289,478.172006 415.140326,483.654415 418.814457,487.615587 C422.488587,491.576759 427.195996,493.557315 432.936825,493.557315 Z M595.372761,424.667715 L595.372761,518.013123 L564.200217,518.013123 L564.200217,508.024131 C560.755719,511.813078 556.622385,514.683449 551.800089,516.635331 C546.977793,518.587213 541.868532,519.563139 536.472153,519.563139 C524.416412,519.563139 514.800669,516.003878 507.624633,508.885251 C500.448597,501.766623 496.860633,491.088842 496.860633,476.851587 L496.860633,424.667715 L529.583193,424.667715 L529.583193,471.512643 C529.583193,478.516454 530.903564,483.625715 533.544345,486.840579 C536.185126,490.055443 540.031423,491.662851 545.083353,491.662851 C550.250099,491.662851 554.469544,489.854517 557.741817,486.237795 C561.014089,482.621073 562.650201,477.081256 562.650201,469.618179 L562.650201,424.667715 L595.372761,424.667715 Z M673.591161,423.117699 C685.187634,423.117699 694.516341,426.562145 701.57756,433.451139 C708.63878,440.340133 712.169336,450.730878 712.169336,464.623683 L712.169336,518.013123 L679.446777,518.013123 L679.446777,469.962627 C679.446777,457.217987 674.337516,450.845763 664.118841,450.845763 C658.492828,450.845763 653.986345,452.682801 650.599257,456.356931 C647.212168,460.031061 645.518649,465.542174 645.518649,472.890435 L645.518649,518.013123 L612.796089,518.013123 L612.796089,424.667715 L643.968633,424.667715 L643.968633,434.828931 C647.642763,431.039984 652.005727,428.140909 657.057657,426.131619 C662.109586,424.122329 667.620699,423.117699 673.591161,423.117699 Z M793.487768,514.224195 C790.732171,515.946444 787.373836,517.266814 783.412664,518.185347 C779.451493,519.103879 775.232047,519.563139 770.7542,519.563139 C758.583644,519.563139 749.226233,516.577953 742.681688,510.607491 C736.137144,504.637029 732.86492,495.738878 732.86492,483.912771 L732.86492,452.568003 L719.259225,452.568003 L719.259225,428.112195 L732.86492,428.112195 L732.86492,403.828611 L765.58748,403.828611 L765.58748,428.112195 L786.943256,428.112195 L786.943256,452.568003 L765.58748,452.568003 L765.58748,483.568323 C765.58748,486.898004 766.477296,489.510041 768.256952,491.404515 C770.036609,493.298988 772.419017,494.246211 775.404248,494.246211 C779.193195,494.246211 782.522826,493.270285 785.39324,491.318403 L793.487768,514.224195 Z" id="discount"></path>
            </g>
        </g>
    </g>
</svg>