<?xml version="1.0" encoding="UTF-8"?>
<svg width="940px" height="526px" viewBox="0 0 940 526" version="1.1" xmlns="http://www.w3.org/2000/svg" xmlns:xlink="http://www.w3.org/1999/xlink">
    <!-- Generator: Sketch 55.2 (78181) - https://sketchapp.com -->
    <title>Group 23</title>
    <desc>Created with Sketch.</desc>
    <defs>
        <linearGradient x1="0%" y1="38.5411951%" x2="100%" y2="61.4588049%" id="linearGradient-1">
            <stop stop-color="#FD4256" offset="0%"></stop>
            <stop stop-color="#0847FF" offset="100%"></stop>
        </linearGradient>
    </defs>
    <g id="the-brand" stroke="none" stroke-width="1" fill="none" fill-rule="evenodd">
        <g id="OnBrand-brand-guidelines" transform="translate(-250.000000, -3376.000000)">
            <g id="Group-23" transform="translate(250.000000, 3376.000000)">
                <rect id="Rectangle" fill="url(#linearGradient-1)" x="0" y="0" width="940" height="450"></rect>
                <path d="M10.656,495 L7.776,490.95 C7.45199838,490.986 7.11600174,491.004 6.768,491.004 L3.384,491.004 L3.384,495 L2.052,495 L2.052,482.4 L6.768,482.4 C8.37600804,482.4 9.63599544,482.783996 10.548,483.552 C11.4600046,484.320004 11.916,485.375993 11.916,486.72 C11.916,487.704005 11.6670025,488.534997 11.169,489.213 C10.6709975,489.891003 9.96000462,490.379998 9.036,490.68 L12.114,495 L10.656,495 Z M6.732,489.87 C7.98000624,489.87 8.9339967,489.594003 9.594,489.042 C10.2540033,488.489997 10.584,487.716005 10.584,486.72 C10.584,485.699995 10.2540033,484.917003 9.594,484.371 C8.9339967,483.824997 7.98000624,483.552 6.732,483.552 L3.384,483.552 L3.384,489.87 L6.732,489.87 Z M23.94,488.7 L25.218,488.7 L25.218,493.506 C24.6299971,494.022003 23.934004,494.417999 23.13,494.694 C22.325996,494.970001 21.4800044,495.108 20.592,495.108 C19.3319937,495.108 18.198005,494.832003 17.19,494.28 C16.181995,493.727997 15.3900029,492.963005 14.814,491.985 C14.2379971,491.006995 13.95,489.912006 13.95,488.7 C13.95,487.487994 14.2379971,486.393005 14.814,485.415 C15.3900029,484.436995 16.181995,483.672003 17.19,483.12 C18.198005,482.567997 19.3379936,482.292 20.61,482.292 C21.5700048,482.292 22.451996,482.444998 23.256,482.751 C24.060004,483.057002 24.7379972,483.509997 25.29,484.11 L24.462,484.956 C23.465995,483.971995 22.2000077,483.48 20.664,483.48 C19.6439949,483.48 18.7230041,483.704998 17.901,484.155 C17.0789959,484.605002 16.4340023,485.228996 15.966,486.027 C15.4979977,486.825004 15.264,487.715995 15.264,488.7 C15.264,489.684005 15.4979977,490.571996 15.966,491.364 C16.4340023,492.156004 17.0759959,492.779998 17.892,493.236 C18.7080041,493.692002 19.6259949,493.92 20.646,493.92 C21.9420065,493.92 23.0399955,493.596003 23.94,492.948 L23.94,488.7 Z M36.918,488.502 C37.7460041,488.682001 38.3849977,489.038997 38.835,489.573 C39.2850022,490.107003 39.51,490.793996 39.51,491.634 C39.51,492.714005 39.111004,493.544997 38.313,494.127 C37.514996,494.709003 36.3360078,495 34.776,495 L28.98,495 L28.98,482.4 L34.416,482.4 C35.820007,482.4 36.9089961,482.681997 37.683,483.246 C38.4570039,483.810003 38.844,484.607995 38.844,485.64 C38.844,486.336003 38.6730017,486.926998 38.331,487.413 C37.9889983,487.899002 37.518003,488.261999 36.918,488.502 Z M30.312,483.498 L30.312,488.07 L34.326,488.07 C35.3460051,488.07 36.1319972,487.875002 36.684,487.485 C37.2360028,487.094998 37.512,486.528004 37.512,485.784 C37.512,485.039996 37.2360028,484.473002 36.684,484.083 C36.1319972,483.692998 35.3460051,483.498 34.326,483.498 L30.312,483.498 Z M34.758,493.902 C35.8860056,493.902 36.7379971,493.710002 37.314,493.326 C37.8900029,492.941998 38.178,492.342004 38.178,491.526 C38.178,489.953992 37.0380114,489.168 34.758,489.168 L30.312,489.168 L30.312,493.902 L34.758,493.902 Z M45.216,489.654 L63.216,489.654 L63.216,490.572 L45.216,490.572 L45.216,489.654 Z M89.22,487.8 C90.5400066,487.872 91.5449965,488.228997 92.235,488.871 C92.9250034,489.513003 93.27,490.349995 93.27,491.382 C93.27,492.102004 93.0960017,492.740997 92.748,493.299 C92.3999983,493.857003 91.8840034,494.297998 91.2,494.622 C90.5159966,494.946002 89.6820049,495.108 88.698,495.108 C87.7859954,495.108 86.925004,494.961001 86.115,494.667 C85.3049959,494.372999 84.6540025,493.980002 84.162,493.488 L84.792,492.462 C85.2120021,492.894002 85.7699965,493.244999 86.466,493.515 C87.162,493.785001 87.905996,493.92 88.698,493.92 C89.7300052,493.92 90.5279972,493.695002 91.092,493.245 C91.6560028,492.794998 91.938,492.174004 91.938,491.382 C91.938,490.601996 91.6560028,489.990002 91.092,489.546 C90.5279972,489.101998 89.6760057,488.88 88.536,488.88 L87.636,488.88 L87.636,487.926 L91.128,483.552 L84.684,483.552 L84.684,482.4 L92.784,482.4 L92.784,483.318 L89.22,487.8 Z M98.4,487.566 C100.224009,487.566 101.552996,487.892997 102.387,488.547 C103.221004,489.201003 103.638,490.115994 103.638,491.292 C103.638,492.024004 103.467002,492.677997 103.125,493.254 C102.782998,493.830003 102.270003,494.282998 101.586,494.613 C100.901997,494.943002 100.062005,495.108 99.066,495.108 C98.1659955,495.108 97.311004,494.961001 96.501,494.667 C95.6909959,494.372999 95.0400025,493.980002 94.548,493.488 L95.178,492.462 C95.5980021,492.894002 96.1499966,493.244999 96.834,493.515 C97.5180034,493.785001 98.255996,493.92 99.048,493.92 C100.092005,493.92 100.898997,493.686002 101.469,493.218 C102.039003,492.749998 102.324,492.126004 102.324,491.346 C102.324,490.481996 102.003003,489.828002 101.361,489.384 C100.718997,488.939998 99.6360076,488.718 98.112,488.718 L95.43,488.718 L96.078,482.4 L102.972,482.4 L102.972,483.552 L97.212,483.552 L96.78,487.566 L98.4,487.566 Z M115.986,491.688 L113.466,491.688 L113.466,495 L112.17,495 L112.17,491.688 L105.06,491.688 L105.06,490.752 L111.738,482.4 L113.178,482.4 L106.734,490.536 L112.206,490.536 L112.206,487.62 L113.466,487.62 L113.466,490.536 L115.986,490.536 L115.986,491.688 Z M130.782,482.4 L130.782,483.318 L125.508,495 L124.104,495 L129.288,483.552 L122.808,483.552 L122.808,485.91 L121.53,485.91 L121.53,482.4 L130.782,482.4 Z M143.202,491.688 L140.682,491.688 L140.682,495 L139.386,495 L139.386,491.688 L132.276,491.688 L132.276,490.752 L138.954,482.4 L140.394,482.4 L133.95,490.536 L139.422,490.536 L139.422,487.62 L140.682,487.62 L140.682,490.536 L143.202,490.536 L143.202,491.688 Z M153.03,482.292 C154.698008,482.292 155.975996,482.840995 156.864,483.939 C157.752004,485.037005 158.196,486.58799 158.196,488.592 C158.196,489.996007 157.956002,491.183995 157.476,492.156 C156.995998,493.128005 156.324004,493.862998 155.46,494.361 C154.595996,494.859002 153.588006,495.108 152.436,495.108 C151.187994,495.108 150.192004,494.880002 149.448,494.424 L149.97,493.38 C150.570003,493.776002 151.385995,493.974 152.418,493.974 C153.810007,493.974 154.901996,493.533004 155.694,492.651 C156.486004,491.768996 156.882,490.488008 156.882,488.808 C156.882,488.495998 156.864,488.154002 156.828,487.782 C156.515998,488.466003 156.018003,488.996998 155.334,489.375 C154.649997,489.753002 153.864004,489.942 152.976,489.942 C152.147996,489.942 151.413003,489.786002 150.771,489.474 C150.128997,489.161998 149.628002,488.721003 149.268,488.151 C148.907998,487.580997 148.728,486.918004 148.728,486.162 C148.728,485.393996 148.913998,484.716003 149.286,484.128 C149.658002,483.539997 150.170997,483.087002 150.825,482.769 C151.479003,482.450998 152.213996,482.292 153.03,482.292 Z M153.174,488.844 C153.810003,488.844 154.370998,488.724001 154.857,488.484 C155.343002,488.243999 155.723999,487.914002 156,487.494 C156.276001,487.073998 156.414,486.606003 156.414,486.09 C156.414,485.609998 156.285001,485.166002 156.027,484.758 C155.768999,484.349998 155.388003,484.020001 154.884,483.768 C154.379997,483.515999 153.780003,483.39 153.084,483.39 C152.171995,483.39 151.431003,483.638998 150.861,484.137 C150.290997,484.635002 150.006,485.297996 150.006,486.126 C150.006,486.954004 150.290997,487.613998 150.861,488.106 C151.431003,488.598002 152.201995,488.844 153.174,488.844 Z M163.992,482.292 C165.660008,482.292 166.937996,482.840995 167.826,483.939 C168.714004,485.037005 169.158,486.58799 169.158,488.592 C169.158,489.996007 168.918002,491.183995 168.438,492.156 C167.957998,493.128005 167.286004,493.862998 166.422,494.361 C165.557996,494.859002 164.550006,495.108 163.398,495.108 C162.149994,495.108 161.154004,494.880002 160.41,494.424 L160.932,493.38 C161.532003,493.776002 162.347995,493.974 163.38,493.974 C164.772007,493.974 165.863996,493.533004 166.656,492.651 C167.448004,491.768996 167.844,490.488008 167.844,488.808 C167.844,488.495998 167.826,488.154002 167.79,487.782 C167.477998,488.466003 166.980003,488.996998 166.296,489.375 C165.611997,489.753002 164.826004,489.942 163.938,489.942 C163.109996,489.942 162.375003,489.786002 161.733,489.474 C161.090997,489.161998 160.590002,488.721003 160.23,488.151 C159.869998,487.580997 159.69,486.918004 159.69,486.162 C159.69,485.393996 159.875998,484.716003 160.248,484.128 C160.620002,483.539997 161.132997,483.087002 161.787,482.769 C162.441003,482.450998 163.175996,482.292 163.992,482.292 Z M164.136,488.844 C164.772003,488.844 165.332998,488.724001 165.819,488.484 C166.305002,488.243999 166.685999,487.914002 166.962,487.494 C167.238001,487.073998 167.376,486.606003 167.376,486.09 C167.376,485.609998 167.247001,485.166002 166.989,484.758 C166.730999,484.349998 166.350003,484.020001 165.846,483.768 C165.341997,483.515999 164.742003,483.39 164.046,483.39 C163.133995,483.39 162.393003,483.638998 161.823,484.137 C161.252997,484.635002 160.968,485.297996 160.968,486.126 C160.968,486.954004 161.252997,487.613998 161.823,488.106 C162.393003,488.598002 163.163995,488.844 164.136,488.844 Z M205.54,493.848 L205.54,495 L196.702,495 L196.702,494.082 L201.94,488.952 C202.600003,488.303997 203.046999,487.743002 203.281,487.269 C203.515001,486.794998 203.632,486.318002 203.632,485.838 C203.632,485.093996 203.377003,484.515002 202.867,484.101 C202.356997,483.686998 201.628005,483.48 200.68,483.48 C199.203993,483.48 198.058004,483.947995 197.242,484.884 L196.324,484.092 C196.816002,483.515997 197.442996,483.072002 198.205,482.76 C198.967004,482.447998 199.827995,482.292 200.788,482.292 C202.072006,482.292 203.088996,482.594997 203.839,483.201 C204.589004,483.807003 204.964,484.637995 204.964,485.694 C204.964,486.342003 204.820001,486.965997 204.532,487.566 C204.243999,488.166003 203.698004,488.855996 202.894,489.636 L198.61,493.848 L205.54,493.848 Z M215.764,493.848 L215.764,495 L206.926,495 L206.926,494.082 L212.164,488.952 C212.824003,488.303997 213.270999,487.743002 213.505,487.269 C213.739001,486.794998 213.856,486.318002 213.856,485.838 C213.856,485.093996 213.601003,484.515002 213.091,484.101 C212.580997,483.686998 211.852005,483.48 210.904,483.48 C209.427993,483.48 208.282004,483.947995 207.466,484.884 L206.548,484.092 C207.040002,483.515997 207.666996,483.072002 208.429,482.76 C209.191004,482.447998 210.051995,482.292 211.012,482.292 C212.296006,482.292 213.312996,482.594997 214.063,483.201 C214.813004,483.807003 215.188,484.637995 215.188,485.694 C215.188,486.342003 215.044001,486.965997 214.756,487.566 C214.467999,488.166003 213.922004,488.855996 213.118,489.636 L208.834,493.848 L215.764,493.848 Z M220.696,487.566 C222.520009,487.566 223.848996,487.892997 224.683,488.547 C225.517004,489.201003 225.934,490.115994 225.934,491.292 C225.934,492.024004 225.763002,492.677997 225.421,493.254 C225.078998,493.830003 224.566003,494.282998 223.882,494.613 C223.197997,494.943002 222.358005,495.108 221.362,495.108 C220.461995,495.108 219.607004,494.961001 218.797,494.667 C217.986996,494.372999 217.336002,493.980002 216.844,493.488 L217.474,492.462 C217.894002,492.894002 218.445997,493.244999 219.13,493.515 C219.814003,493.785001 220.551996,493.92 221.344,493.92 C222.388005,493.92 223.194997,493.686002 223.765,493.218 C224.335003,492.749998 224.62,492.126004 224.62,491.346 C224.62,490.481996 224.299003,489.828002 223.657,489.384 C223.014997,488.939998 221.932008,488.718 220.408,488.718 L217.726,488.718 L218.374,482.4 L225.268,482.4 L225.268,483.552 L219.508,483.552 L219.076,487.566 L220.696,487.566 Z M236.212,482.292 C237.880008,482.292 239.157996,482.840995 240.046,483.939 C240.934004,485.037005 241.378,486.58799 241.378,488.592 C241.378,489.996007 241.138002,491.183995 240.658,492.156 C240.177998,493.128005 239.506004,493.862998 238.642,494.361 C237.777996,494.859002 236.770006,495.108 235.618,495.108 C234.369994,495.108 233.374004,494.880002 232.63,494.424 L233.152,493.38 C233.752003,493.776002 234.567995,493.974 235.6,493.974 C236.992007,493.974 238.083996,493.533004 238.876,492.651 C239.668004,491.768996 240.064,490.488008 240.064,488.808 C240.064,488.495998 240.046,488.154002 240.01,487.782 C239.697998,488.466003 239.200003,488.996998 238.516,489.375 C237.831997,489.753002 237.046004,489.942 236.158,489.942 C235.329996,489.942 234.595003,489.786002 233.953,489.474 C233.310997,489.161998 232.810002,488.721003 232.45,488.151 C232.089998,487.580997 231.91,486.918004 231.91,486.162 C231.91,485.393996 232.095998,484.716003 232.468,484.128 C232.840002,483.539997 233.352997,483.087002 234.007,482.769 C234.661003,482.450998 235.395996,482.292 236.212,482.292 Z M236.356,488.844 C236.992003,488.844 237.552998,488.724001 238.039,488.484 C238.525002,488.243999 238.905999,487.914002 239.182,487.494 C239.458001,487.073998 239.596,486.606003 239.596,486.09 C239.596,485.609998 239.467001,485.166002 239.209,484.758 C238.950999,484.349998 238.570003,484.020001 238.066,483.768 C237.561997,483.515999 236.962003,483.39 236.266,483.39 C235.353995,483.39 234.613003,483.638998 234.043,484.137 C233.472997,484.635002 233.188,485.297996 233.188,486.126 C233.188,486.954004 233.472997,487.613998 234.043,488.106 C234.613003,488.598002 235.383995,488.844 236.356,488.844 Z M252.142,482.4 L252.142,483.318 L246.868,495 L245.464,495 L250.648,483.552 L244.168,483.552 L244.168,485.91 L242.89,485.91 L242.89,482.4 L252.142,482.4 Z M262.06,482.4 L262.06,495 L260.764,495 L260.764,483.552 L257.794,483.552 L257.794,482.4 L262.06,482.4 Z M270.088,495.108 C269.115995,495.108 268.249004,494.850003 267.487,494.334 C266.724996,493.817997 266.131002,493.077005 265.705,492.111 C265.278998,491.144995 265.066,490.008007 265.066,488.7 C265.066,487.391993 265.278998,486.255005 265.705,485.289 C266.131002,484.322995 266.724996,483.582003 267.487,483.066 C268.249004,482.549997 269.115995,482.292 270.088,482.292 C271.060005,482.292 271.926996,482.549997 272.689,483.066 C273.451004,483.582003 274.047998,484.322995 274.48,485.289 C274.912002,486.255005 275.128,487.391993 275.128,488.7 C275.128,490.008007 274.912002,491.144995 274.48,492.111 C274.047998,493.077005 273.451004,493.817997 272.689,494.334 C271.926996,494.850003 271.060005,495.108 270.088,495.108 Z M270.088,493.92 C270.820004,493.92 271.464997,493.716002 272.023,493.308 C272.581003,492.899998 273.015998,492.306004 273.328,491.526 C273.640002,490.745996 273.796,489.804006 273.796,488.7 C273.796,487.595994 273.640002,486.654004 273.328,485.874 C273.015998,485.093996 272.581003,484.500002 272.023,484.092 C271.464997,483.683998 270.820004,483.48 270.088,483.48 C269.355996,483.48 268.711003,483.683998 268.153,484.092 C267.594997,484.500002 267.160002,485.093996 266.848,485.874 C266.535998,486.654004 266.38,487.595994 266.38,488.7 C266.38,489.804006 266.535998,490.745996 266.848,491.526 C267.160002,492.306004 267.594997,492.899998 268.153,493.308 C268.711003,493.716002 269.355996,493.92 270.088,493.92 Z M282.004,495.108 C281.031995,495.108 280.165004,494.850003 279.403,494.334 C278.640996,493.817997 278.047002,493.077005 277.621,492.111 C277.194998,491.144995 276.982,490.008007 276.982,488.7 C276.982,487.391993 277.194998,486.255005 277.621,485.289 C278.047002,484.322995 278.640996,483.582003 279.403,483.066 C280.165004,482.549997 281.031995,482.292 282.004,482.292 C282.976005,482.292 283.842996,482.549997 284.605,483.066 C285.367004,483.582003 285.963998,484.322995 286.396,485.289 C286.828002,486.255005 287.044,487.391993 287.044,488.7 C287.044,490.008007 286.828002,491.144995 286.396,492.111 C285.963998,493.077005 285.367004,493.817997 284.605,494.334 C283.842996,494.850003 282.976005,495.108 282.004,495.108 Z M282.004,493.92 C282.736004,493.92 283.380997,493.716002 283.939,493.308 C284.497003,492.899998 284.931998,492.306004 285.244,491.526 C285.556002,490.745996 285.712,489.804006 285.712,488.7 C285.712,487.595994 285.556002,486.654004 285.244,485.874 C284.931998,485.093996 284.497003,484.500002 283.939,484.092 C283.380997,483.683998 282.736004,483.48 282.004,483.48 C281.271996,483.48 280.627003,483.683998 280.069,484.092 C279.510997,484.500002 279.076002,485.093996 278.764,485.874 C278.451998,486.654004 278.296,487.595994 278.296,488.7 C278.296,489.804006 278.451998,490.745996 278.764,491.526 C279.076002,492.306004 279.510997,492.899998 280.069,493.308 C280.627003,493.716002 281.271996,493.92 282.004,493.92 Z M12.582,512.4 L12.582,525 L11.268,525 L11.268,519.186 L3.384,519.186 L3.384,525 L2.052,525 L2.052,512.4 L3.384,512.4 L3.384,518.016 L11.268,518.016 L11.268,512.4 L12.582,512.4 Z M25.596,523.848 L25.596,525 L16.686,525 L16.686,512.4 L25.326,512.4 L25.326,513.552 L18.018,513.552 L18.018,518.034 L24.534,518.034 L24.534,519.168 L18.018,519.168 L18.018,523.848 L25.596,523.848 Z M36.63,525 L32.562,519.456 L28.512,525 L26.982,525 L31.77,518.52 L27.288,512.4 L28.818,512.4 L32.616,517.548 L36.396,512.4 L37.836,512.4 L33.372,518.484 L38.178,525 L36.63,525 Z M43.2,519.654 L61.2,519.654 L61.2,520.572 L43.2,520.572 L43.2,519.654 Z M87.384,513.552 L87.384,518.502 L93.9,518.502 L93.9,519.654 L87.384,519.654 L87.384,525 L86.052,525 L86.052,512.4 L94.692,512.4 L94.692,513.552 L87.384,513.552 Z M97.446,512.4 L102.576,512.4 C103.908007,512.4 105.083995,512.666997 106.104,513.201 C107.124005,513.735003 107.915997,514.478995 108.48,515.433 C109.044003,516.387005 109.326,517.475994 109.326,518.7 C109.326,519.924006 109.044003,521.012995 108.48,521.967 C107.915997,522.921005 107.124005,523.664997 106.104,524.199 C105.083995,524.733003 103.908007,525 102.576,525 L97.446,525 L97.446,512.4 Z M102.504,523.848 C103.608006,523.848 104.573996,523.629002 105.402,523.191 C106.230004,522.752998 106.871998,522.147004 107.328,521.373 C107.784002,520.598996 108.012,519.708005 108.012,518.7 C108.012,517.691995 107.784002,516.801004 107.328,516.027 C106.871998,515.252996 106.230004,514.647002 105.402,514.209 C104.573996,513.770998 103.608006,513.552 102.504,513.552 L98.778,513.552 L98.778,523.848 L102.504,523.848 Z M121.908,521.688 L119.388,521.688 L119.388,525 L118.092,525 L118.092,521.688 L110.982,521.688 L110.982,520.752 L117.66,512.4 L119.1,512.4 L112.656,520.536 L118.128,520.536 L118.128,517.62 L119.388,517.62 L119.388,520.536 L121.908,520.536 L121.908,521.688 Z M131.7,523.848 L131.7,525 L122.862,525 L122.862,524.082 L128.1,518.952 C128.760003,518.303997 129.206999,517.743002 129.441,517.269 C129.675001,516.794998 129.792,516.318002 129.792,515.838 C129.792,515.093996 129.537003,514.515002 129.027,514.101 C128.516997,513.686998 127.788005,513.48 126.84,513.48 C125.363993,513.48 124.218004,513.947995 123.402,514.884 L122.484,514.092 C122.976002,513.515997 123.602996,513.072002 124.365,512.76 C125.127004,512.447998 125.987995,512.292 126.948,512.292 C128.232006,512.292 129.248996,512.594997 129.999,513.201 C130.749004,513.807003 131.124,514.637995 131.124,515.694 C131.124,516.342003 130.980001,516.965997 130.692,517.566 C130.403999,518.166003 129.858004,518.855996 129.054,519.636 L124.77,523.848 L131.7,523.848 Z M136.632,517.566 C138.456009,517.566 139.784996,517.892997 140.619,518.547 C141.453004,519.201003 141.87,520.115994 141.87,521.292 C141.87,522.024004 141.699002,522.677997 141.357,523.254 C141.014998,523.830003 140.502003,524.282998 139.818,524.613 C139.133997,524.943002 138.294005,525.108 137.298,525.108 C136.397995,525.108 135.543004,524.961001 134.733,524.667 C133.922996,524.372999 133.272002,523.980002 132.78,523.488 L133.41,522.462 C133.830002,522.894002 134.381997,523.244999 135.066,523.515 C135.750003,523.785001 136.487996,523.92 137.28,523.92 C138.324005,523.92 139.130997,523.686002 139.701,523.218 C140.271003,522.749998 140.556,522.126004 140.556,521.346 C140.556,520.481996 140.235003,519.828002 139.593,519.384 C138.950997,518.939998 137.868008,518.718 136.344,518.718 L133.662,518.718 L134.31,512.4 L141.204,512.4 L141.204,513.552 L135.444,513.552 L135.012,517.566 L136.632,517.566 Z M148.728,517.458 C149.556004,517.458 150.290997,517.613998 150.933,517.926 C151.575003,518.238002 152.075998,518.678997 152.436,519.249 C152.796002,519.819003 152.976,520.481996 152.976,521.238 C152.976,522.006004 152.790002,522.683997 152.418,523.272 C152.045998,523.860003 151.533003,524.312998 150.879,524.631 C150.224997,524.949002 149.490004,525.108 148.674,525.108 C147.005992,525.108 145.728004,524.559005 144.84,523.461 C143.951996,522.362995 143.508,520.81201 143.508,518.808 C143.508,517.403993 143.747998,516.216005 144.228,515.244 C144.708002,514.271995 145.379996,513.537002 146.244,513.039 C147.108004,512.540998 148.115994,512.292 149.268,512.292 C150.516006,512.292 151.511996,512.519998 152.256,512.976 L151.734,514.02 C151.133997,513.623998 150.318005,513.426 149.286,513.426 C147.893993,513.426 146.802004,513.866996 146.01,514.749 C145.217996,515.631004 144.822,516.911992 144.822,518.592 C144.822,518.892001 144.84,519.233998 144.876,519.618 C145.188002,518.933997 145.685997,518.403002 146.37,518.025 C147.054003,517.646998 147.839996,517.458 148.728,517.458 Z M148.62,524.01 C149.532005,524.01 150.272997,523.761002 150.843,523.263 C151.413003,522.764998 151.698,522.102004 151.698,521.274 C151.698,520.445996 151.413003,519.786002 150.843,519.294 C150.272997,518.801998 149.502005,518.556 148.53,518.556 C147.893997,518.556 147.333002,518.675999 146.847,518.916 C146.360998,519.156001 145.980001,519.485998 145.704,519.906 C145.427999,520.326002 145.29,520.793997 145.29,521.31 C145.29,521.790002 145.418999,522.233998 145.677,522.642 C145.935001,523.050002 146.315997,523.379999 146.82,523.632 C147.324003,523.884001 147.923997,524.01 148.62,524.01 Z M201.958,525.108 C200.985995,525.108 200.119004,524.850003 199.357,524.334 C198.594996,523.817997 198.001002,523.077005 197.575,522.111 C197.148998,521.144995 196.936,520.008007 196.936,518.7 C196.936,517.391993 197.148998,516.255005 197.575,515.289 C198.001002,514.322995 198.594996,513.582003 199.357,513.066 C200.119004,512.549997 200.985995,512.292 201.958,512.292 C202.930005,512.292 203.796996,512.549997 204.559,513.066 C205.321004,513.582003 205.917998,514.322995 206.35,515.289 C206.782002,516.255005 206.998,517.391993 206.998,518.7 C206.998,520.008007 206.782002,521.144995 206.35,522.111 C205.917998,523.077005 205.321004,523.817997 204.559,524.334 C203.796996,524.850003 202.930005,525.108 201.958,525.108 Z M201.958,523.92 C202.690004,523.92 203.334997,523.716002 203.893,523.308 C204.451003,522.899998 204.885998,522.306004 205.198,521.526 C205.510002,520.745996 205.666,519.804006 205.666,518.7 C205.666,517.595994 205.510002,516.654004 205.198,515.874 C204.885998,515.093996 204.451003,514.500002 203.893,514.092 C203.334997,513.683998 202.690004,513.48 201.958,513.48 C201.225996,513.48 200.581003,513.683998 200.023,514.092 C199.464997,514.500002 199.030002,515.093996 198.718,515.874 C198.405998,516.654004 198.25,517.595994 198.25,518.7 C198.25,519.804006 198.405998,520.745996 198.718,521.526 C199.030002,522.306004 199.464997,522.899998 200.023,523.308 C200.581003,523.716002 201.225996,523.92 201.958,523.92 Z M216.07,518.394 C216.862004,518.658001 217.470998,519.053997 217.897,519.582 C218.323002,520.110003 218.536,520.745996 218.536,521.49 C218.536,522.222004 218.338002,522.860997 217.942,523.407 C217.545998,523.953003 216.979004,524.372999 216.241,524.667 C215.502996,524.961001 214.636005,525.108 213.64,525.108 C212.127992,525.108 210.940004,524.784003 210.076,524.136 C209.211996,523.487997 208.78,522.606006 208.78,521.49 C208.78,520.733996 208.986998,520.095003 209.401,519.573 C209.815002,519.050997 210.417996,518.658001 211.21,518.394 C210.561997,518.141999 210.070002,517.779002 209.734,517.305 C209.397998,516.830998 209.23,516.270003 209.23,515.622 C209.23,514.601995 209.628996,513.792 210.427,513.192 C211.225004,512.591997 212.295993,512.292 213.64,512.292 C214.528004,512.292 215.304997,512.426999 215.971,512.697 C216.637003,512.967001 217.155998,513.353997 217.528,513.858 C217.900002,514.362003 218.086,514.949997 218.086,515.622 C218.086,516.270003 217.912002,516.830998 217.564,517.305 C217.215998,517.779002 216.718003,518.141999 216.07,518.394 Z M210.526,515.658 C210.526,516.354003 210.801997,516.905998 211.354,517.314 C211.906003,517.722002 212.667995,517.926 213.64,517.926 C214.612005,517.926 215.376997,517.722002 215.935,517.314 C216.493003,516.905998 216.772,516.360003 216.772,515.676 C216.772,514.967996 216.487003,514.410002 215.917,514.002 C215.346997,513.593998 214.588005,513.39 213.64,513.39 C212.679995,513.39 211.921003,513.593998 211.363,514.002 C210.804997,514.410002 210.526,514.961997 210.526,515.658 Z M213.64,524.01 C214.756006,524.01 215.628997,523.782002 216.259,523.326 C216.889003,522.869998 217.204,522.252004 217.204,521.472 C217.204,520.691996 216.889003,520.077002 216.259,519.627 C215.628997,519.176998 214.756006,518.952 213.64,518.952 C212.535994,518.952 211.669003,519.176998 211.039,519.627 C210.408997,520.077002 210.094,520.691996 210.094,521.472 C210.094,522.264004 210.405997,522.884998 211.03,523.335 C211.654003,523.785002 212.523994,524.01 213.64,524.01 Z M231.046,521.688 L228.526,521.688 L228.526,525 L227.23,525 L227.23,521.688 L220.12,521.688 L220.12,520.752 L226.798,512.4 L228.238,512.4 L221.794,520.536 L227.266,520.536 L227.266,517.62 L228.526,517.62 L228.526,520.536 L231.046,520.536 L231.046,521.688 Z M241.126,512.4 L241.126,513.318 L235.852,525 L234.448,525 L239.632,513.552 L233.152,513.552 L233.152,515.91 L231.874,515.91 L231.874,512.4 L241.126,512.4 Z M245.284,513.552 L245.284,518.502 L251.8,518.502 L251.8,519.654 L245.284,519.654 L245.284,525 L243.952,525 L243.952,512.4 L252.592,512.4 L252.592,513.552 L245.284,513.552 Z M256.678,513.552 L256.678,518.502 L263.194,518.502 L263.194,519.654 L256.678,519.654 L256.678,525 L255.346,525 L255.346,512.4 L263.986,512.4 L263.986,513.552 L256.678,513.552 Z" id="RGB—354749922597100HEX—FD42560847FF" fill="#44444E" fill-rule="nonzero"></path>
                <rect id="Rectangle" fill="#FD4256" x="68" y="482" width="13" height="13"></rect>
                <rect id="Rectangle-Copy-10" fill="#FD4256" x="68" y="510" width="13" height="13"></rect>
                <rect id="Rectangle-Copy-9" fill="#0847FF" x="180" y="483" width="13" height="13"></rect>
                <rect id="Rectangle-Copy-11" fill="#0847FF" x="180" y="511" width="13" height="13"></rect>
            </g>
        </g>
    </g>
</svg>