<?xml version="1.0" encoding="UTF-8"?>
<svg width="295px" height="191px" viewBox="0 0 295 191" version="1.1" xmlns="http://www.w3.org/2000/svg" xmlns:xlink="http://www.w3.org/1999/xlink">
    <!-- Generator: Sketch 55.2 (78181) - https://sketchapp.com -->
    <title>Group 14</title>
    <desc>Created with Sketch.</desc>
    <g id="the-brand" stroke="none" stroke-width="1" fill="none" fill-rule="evenodd">
        <g id="OnBrand-brand-guidelines-Copy" transform="translate(-252.000000, -5374.000000)">
            <g id="Group-14" transform="translate(252.000000, 5374.480000)">
                <g id="Group-11" transform="translate(0.000000, 27.520000)">
                    <rect id="Rectangle" fill="#0847FF" x="0" y="0" width="230" height="60" rx="30"></rect>
                    <path d="M52.174,22.4 C53.2660055,22.4 54.2169959,22.5799982 55.027,22.94 C55.837004,23.3000018 56.4579978,23.8159966 56.89,24.488 C57.3220022,25.1600034 57.538,25.9579954 57.538,26.882 C57.538,27.7940046 57.3220022,28.5889966 56.89,29.267 C56.4579978,29.9450034 55.837004,30.4639982 55.027,30.824 C54.2169959,31.1840018 53.2660055,31.364 52.174,31.364 L49.33,31.364 L49.33,35 L46.99,35 L46.99,22.4 L52.174,22.4 Z M52.066,29.384 C53.0860051,29.384 53.8599974,29.1680022 54.388,28.736 C54.9160026,28.3039978 55.18,27.686004 55.18,26.882 C55.18,26.077996 54.9160026,25.4600022 54.388,25.028 C53.8599974,24.5959978 53.0860051,24.38 52.066,24.38 L49.33,24.38 L49.33,29.384 L52.066,29.384 Z M61.614,26.792 C62.2620032,25.783995 63.4019918,25.28 65.034,25.28 L65.034,27.422 C64.841999,27.3859998 64.6680008,27.368 64.512,27.368 C63.6359956,27.368 62.9520025,27.6229974 62.46,28.133 C61.9679975,28.6430025 61.722,29.3779952 61.722,30.338 L61.722,35 L59.472,35 L59.472,25.388 L61.614,25.388 L61.614,26.792 Z M66.842,25.388 L69.092,25.388 L69.092,35 L66.842,35 L66.842,25.388 Z M67.976,23.804 C67.567998,23.804 67.2260014,23.6750013 66.95,23.417 C66.6739986,23.1589987 66.536,22.8380019 66.536,22.454 C66.536,22.0699981 66.6739986,21.7490013 66.95,21.491 C67.2260014,21.2329987 67.567998,21.104 67.976,21.104 C68.384002,21.104 68.7259986,21.2269988 69.002,21.473 C69.2780014,21.7190012 69.416,22.0279981 69.416,22.4 C69.416,22.796002 69.2810013,23.1289986 69.011,23.399 C68.7409986,23.6690013 68.3960021,23.804 67.976,23.804 Z M84.076,25.28 C85.2880061,25.28 86.2479965,25.6309965 86.956,26.333 C87.6640035,27.0350035 88.018,28.087993 88.018,29.492 L88.018,35 L85.768,35 L85.768,29.78 C85.768,28.9399958 85.5820019,28.3070021 85.21,27.881 C84.8379981,27.4549979 84.3040035,27.242 83.608,27.242 C82.8519962,27.242 82.2460023,27.4909975 81.79,27.989 C81.3339977,28.4870025 81.106,29.1979954 81.106,30.122 L81.106,35 L78.856,35 L78.856,29.78 C78.856,28.9399958 78.6700019,28.3070021 78.298,27.881 C77.9259981,27.4549979 77.3920035,27.242 76.696,27.242 C75.9279962,27.242 75.3190022,27.4879975 74.869,27.98 C74.4189977,28.4720025 74.194,29.1859953 74.194,30.122 L74.194,35 L71.944,35 L71.944,25.388 L74.086,25.388 L74.086,26.612 C74.4460018,26.1799978 74.8959973,25.8500011 75.436,25.622 C75.9760027,25.3939989 76.5759967,25.28 77.236,25.28 C77.9560036,25.28 78.5949972,25.4149987 79.153,25.685 C79.7110028,25.9550013 80.1519984,26.3539974 80.476,26.882 C80.872002,26.3779975 81.3819969,25.9850014 82.006,25.703 C82.6300031,25.4209986 83.3199962,25.28 84.076,25.28 Z M94.47,25.28 C95.8860071,25.28 96.9689962,25.6189966 97.719,26.297 C98.4690037,26.9750034 98.844,27.9979932 98.844,29.366 L98.844,35 L96.72,35 L96.72,33.83 C96.4439986,34.2500021 96.0510025,34.5709989 95.541,34.793 C95.0309974,35.0150011 94.4160036,35.126 93.696,35.126 C92.9759964,35.126 92.3460027,35.0030012 91.806,34.757 C91.2659973,34.5109988 90.8490015,34.1690022 90.555,33.731 C90.2609985,33.2929978 90.114,32.7980028 90.114,32.246 C90.114,31.3819957 90.4349968,30.6890026 91.077,30.167 C91.7190032,29.6449974 92.7299931,29.384 94.11,29.384 L96.594,29.384 L96.594,29.24 C96.594,28.5679966 96.393002,28.0520018 95.991,27.692 C95.588998,27.3319982 94.992004,27.152 94.2,27.152 C93.6599973,27.152 93.1290026,27.2359992 92.607,27.404 C92.0849974,27.5720008 91.6440018,27.8059985 91.284,28.106 L90.402,26.468 C90.9060025,26.0839981 91.5119965,25.790001 92.22,25.586 C92.9280035,25.381999 93.677996,25.28 94.47,25.28 Z M94.164,33.488 C94.7280028,33.488 95.2289978,33.3590013 95.667,33.101 C96.1050022,32.8429987 96.4139991,32.4740024 96.594,31.994 L96.594,30.878 L94.272,30.878 C92.9759935,30.878 92.328,31.3039957 92.328,32.156 C92.328,32.564002 92.4899984,32.8879988 92.814,33.128 C93.1380016,33.3680012 93.5879971,33.488 94.164,33.488 Z M103.766,26.792 C104.414003,25.783995 105.553992,25.28 107.186,25.28 L107.186,27.422 C106.993999,27.3859998 106.820001,27.368 106.664,27.368 C105.787996,27.368 105.104002,27.6229974 104.612,28.133 C104.119998,28.6430025 103.874,29.3779952 103.874,30.338 L103.874,35 L101.624,35 L101.624,25.388 L103.766,25.388 L103.766,26.792 Z M118.354,25.388 L113.854,35.774 C113.433998,36.8180052 112.924003,37.5529979 112.324,37.979 C111.723997,38.4050021 110.998004,38.618 110.146,38.618 C109.665998,38.618 109.192002,38.5400008 108.724,38.384 C108.255998,38.2279992 107.872001,38.0120014 107.572,37.736 L108.472,36.08 C108.688001,36.284001 108.942999,36.4459994 109.237,36.566 C109.531001,36.6860006 109.827998,36.746 110.128,36.746 C110.524002,36.746 110.850999,36.644001 111.109,36.44 C111.367001,36.235999 111.603999,35.8940024 111.82,35.414 L111.982,35.036 L107.788,25.388 L110.128,25.388 L113.152,32.498 L116.194,25.388 L118.354,25.388 Z M129.854,25.28 C130.790005,25.28 131.626996,25.483998 132.365,25.892 C133.103004,26.300002 133.681998,26.8759963 134.102,27.62 C134.522002,28.3640037 134.732,29.2219951 134.732,30.194 C134.732,31.1660049 134.522002,32.0269962 134.102,32.777 C133.681998,33.5270037 133.103004,34.105998 132.365,34.514 C131.626996,34.922002 130.790005,35.126 129.854,35.126 C129.193997,35.126 128.591003,35.0120011 128.045,34.784 C127.498997,34.5559989 127.040002,34.2140023 126.668,33.758 L126.668,35 L124.526,35 L124.526,21.644 L126.776,21.644 L126.776,26.558 C127.160002,26.1379979 127.612997,25.8200011 128.135,25.604 C128.657003,25.3879989 129.229997,25.28 129.854,25.28 Z M129.602,33.2 C130.430004,33.2 131.110997,32.9240028 131.645,32.372 C132.179003,31.8199972 132.446,31.0940045 132.446,30.194 C132.446,29.2939955 132.179003,28.5680028 131.645,28.016 C131.110997,27.4639972 130.430004,27.188 129.602,27.188 C129.061997,27.188 128.576002,27.3109988 128.144,27.557 C127.711998,27.8030012 127.370001,28.1539977 127.118,28.61 C126.865999,29.0660023 126.74,29.593997 126.74,30.194 C126.74,30.794003 126.865999,31.3219977 127.118,31.778 C127.370001,32.2340023 127.711998,32.5849988 128.144,32.831 C128.576002,33.0770012 129.061997,33.2 129.602,33.2 Z M146.08,25.388 L146.08,35 L143.938,35 L143.938,33.776 C143.577998,34.2080022 143.128003,34.5409988 142.588,34.775 C142.047997,35.0090012 141.466003,35.126 140.842,35.126 C139.557994,35.126 138.547004,34.7690036 137.809,34.055 C137.070996,33.3409964 136.702,32.282007 136.702,30.878 L136.702,25.388 L138.952,25.388 L138.952,30.572 C138.952,31.4360043 139.146998,32.0809979 139.537,32.507 C139.927002,32.9330021 140.481996,33.146 141.202,33.146 C142.006004,33.146 142.644998,32.8970025 143.119,32.399 C143.593002,31.9009975 143.83,31.1840047 143.83,30.248 L143.83,25.388 L146.08,25.388 Z M154.71,34.478 C154.445999,34.6940011 154.125002,34.8559995 153.747,34.964 C153.368998,35.0720005 152.970002,35.126 152.55,35.126 C151.493995,35.126 150.678003,34.8500028 150.102,34.298 C149.525997,33.7459972 149.238,32.9420053 149.238,31.886 L149.238,27.26 L147.654,27.26 L147.654,25.46 L149.238,25.46 L149.238,23.264 L151.488,23.264 L151.488,25.46 L154.062,25.46 L154.062,27.26 L151.488,27.26 L151.488,31.832 C151.488,32.3000023 151.601999,32.6569988 151.83,32.903 C152.058001,33.1490012 152.387998,33.272 152.82,33.272 C153.324003,33.272 153.743998,33.1400013 154.08,32.876 L154.71,34.478 Z M162.008,34.478 C161.743999,34.6940011 161.423002,34.8559995 161.045,34.964 C160.666998,35.0720005 160.268002,35.126 159.848,35.126 C158.791995,35.126 157.976003,34.8500028 157.4,34.298 C156.823997,33.7459972 156.536,32.9420053 156.536,31.886 L156.536,27.26 L154.952,27.26 L154.952,25.46 L156.536,25.46 L156.536,23.264 L158.786,23.264 L158.786,25.46 L161.36,25.46 L161.36,27.26 L158.786,27.26 L158.786,31.832 C158.786,32.3000023 158.899999,32.6569988 159.128,32.903 C159.356001,33.1490012 159.685998,33.272 160.118,33.272 C160.622003,33.272 161.041998,33.1400013 161.378,32.876 L162.008,34.478 Z M167.758,35.126 C166.785995,35.126 165.910004,34.9160021 165.13,34.496 C164.349996,34.0759979 163.741002,33.4910038 163.303,32.741 C162.864998,31.9909962 162.646,31.1420047 162.646,30.194 C162.646,29.2459953 162.864998,28.4000037 163.303,27.656 C163.741002,26.9119963 164.349996,26.3300021 165.13,25.91 C165.910004,25.4899979 166.785995,25.28 167.758,25.28 C168.742005,25.28 169.623996,25.4899979 170.404,25.91 C171.184004,26.3300021 171.792998,26.9119963 172.231,27.656 C172.669002,28.4000037 172.888,29.2459953 172.888,30.194 C172.888,31.1420047 172.669002,31.9909962 172.231,32.741 C171.792998,33.4910038 171.184004,34.0759979 170.404,34.496 C169.623996,34.9160021 168.742005,35.126 167.758,35.126 Z M167.758,33.2 C168.586004,33.2 169.269997,32.9240028 169.81,32.372 C170.350003,31.8199972 170.62,31.0940045 170.62,30.194 C170.62,29.2939955 170.350003,28.5680028 169.81,28.016 C169.269997,27.4639972 168.586004,27.188 167.758,27.188 C166.929996,27.188 166.249003,27.4639972 165.715,28.016 C165.180997,28.5680028 164.914,29.2939955 164.914,30.194 C164.914,31.0940045 165.180997,31.8199972 165.715,32.372 C166.249003,32.9240028 166.929996,33.2 167.758,33.2 Z M180.402,25.28 C181.614006,25.28 182.585996,25.6339965 183.318,26.342 C184.050004,27.0500035 184.416,28.099993 184.416,29.492 L184.416,35 L182.166,35 L182.166,29.78 C182.166,28.9399958 181.968002,28.3070021 181.572,27.881 C181.175998,27.4549979 180.612004,27.242 179.88,27.242 C179.051996,27.242 178.398002,27.4909975 177.918,27.989 C177.437998,28.4870025 177.198,29.2039953 177.198,30.14 L177.198,35 L174.948,35 L174.948,25.388 L177.09,25.388 L177.09,26.63 C177.462002,26.1859978 177.929997,25.8500011 178.494,25.622 C179.058003,25.3939989 179.693996,25.28 180.402,25.28 Z" id="Primarybutton" fill="#FFFFFF" fill-rule="nonzero"></path>
                </g>
                <g id="Group-10" transform="translate(0.000000, 150.520000)">
                    <rect id="Rectangle-Copy-13" fill="#0847FF" x="0" y="0" width="230" height="40" rx="20"></rect>
                    <path d="M59.2102222,14.8 C60.1808937,14.8 61.0262186,14.9599984 61.7462222,15.28 C62.4662258,15.6000016 63.0182203,16.0586637 63.4022222,16.656 C63.7862241,17.2533363 63.9782222,17.9626626 63.9782222,18.784 C63.9782222,19.5946707 63.7862241,20.3013303 63.4022222,20.904 C63.0182203,21.5066697 62.4662258,21.9679984 61.7462222,22.288 C61.0262186,22.6080016 60.1808937,22.768 59.2102222,22.768 L56.6822222,22.768 L56.6822222,26 L54.6022222,26 L54.6022222,14.8 L59.2102222,14.8 Z M59.1142222,21.008 C60.0208934,21.008 60.7088865,20.8160019 61.1782222,20.432 C61.6475579,20.0479981 61.8822222,19.4986702 61.8822222,18.784 C61.8822222,18.0693298 61.6475579,17.5200019 61.1782222,17.136 C60.7088865,16.7519981 60.0208934,16.56 59.1142222,16.56 L56.6822222,16.56 L56.6822222,21.008 L59.1142222,21.008 Z M67.6013333,18.704 C68.1773362,17.8079955 69.1906594,17.36 70.6413333,17.36 L70.6413333,19.264 C70.4706658,19.2319998 70.3160007,19.216 70.1773333,19.216 C69.3986628,19.216 68.7906689,19.4426644 68.3533333,19.896 C67.9159978,20.3493356 67.6973333,21.0026624 67.6973333,21.856 L67.6973333,26 L65.6973333,26 L65.6973333,17.456 L67.6013333,17.456 L67.6013333,18.704 Z M72.2484444,17.456 L74.2484444,17.456 L74.2484444,26 L72.2484444,26 L72.2484444,17.456 Z M73.2564444,16.048 C72.893776,16.048 72.589779,15.9333345 72.3444444,15.704 C72.0991099,15.4746655 71.9764444,15.189335 71.9764444,14.848 C71.9764444,14.506665 72.0991099,14.2213345 72.3444444,13.992 C72.589779,13.7626655 72.893776,13.648 73.2564444,13.648 C73.6191129,13.648 73.9231099,13.7573322 74.1684444,13.976 C74.413779,14.1946678 74.5364444,14.4693317 74.5364444,14.8 C74.5364444,15.1520018 74.4164456,15.4479988 74.1764444,15.688 C73.9364432,15.9280012 73.6297796,16.048 73.2564444,16.048 Z M87.5675556,17.36 C88.6448943,17.36 89.4982191,17.6719969 90.1275556,18.296 C90.756892,18.9200031 91.0715556,19.8559938 91.0715556,21.104 L91.0715556,26 L89.0715556,26 L89.0715556,21.36 C89.0715556,20.6133296 88.9062239,20.0506686 88.5755556,19.672 C88.2448872,19.2933314 87.7702253,19.104 87.1515556,19.104 C86.4795522,19.104 85.9408909,19.3253311 85.5355556,19.768 C85.1302202,20.2106689 84.9275556,20.8426626 84.9275556,21.664 L84.9275556,26 L82.9275556,26 L82.9275556,21.36 C82.9275556,20.6133296 82.7622239,20.0506686 82.4315556,19.672 C82.1008872,19.2933314 81.6262253,19.104 81.0075556,19.104 C80.3248855,19.104 79.7835556,19.3226645 79.3835556,19.76 C78.9835536,20.1973355 78.7835556,20.8319958 78.7835556,21.664 L78.7835556,26 L76.7835556,26 L76.7835556,17.456 L78.6875556,17.456 L78.6875556,18.544 C79.0075572,18.1599981 79.4075532,17.8666677 79.8875556,17.664 C80.367558,17.4613323 80.900886,17.36 81.4875556,17.36 C82.1275588,17.36 82.6955531,17.4799988 83.1915556,17.72 C83.687558,17.9600012 84.0795541,18.3146643 84.3675556,18.784 C84.7195573,18.3359978 85.1728861,17.9866679 85.7275556,17.736 C86.282225,17.4853321 86.8955522,17.36 87.5675556,17.36 Z M96.8066667,17.36 C98.0653396,17.36 99.0279967,17.6613303 99.6946667,18.264 C100.361337,18.8666697 100.694667,19.7759939 100.694667,20.992 L100.694667,26 L98.8066667,26 L98.8066667,24.96 C98.5613321,25.3333352 98.2120023,25.6186657 97.7586667,25.816 C97.3053311,26.0133343 96.7586699,26.112 96.1186667,26.112 C95.4786635,26.112 94.9186691,26.0026678 94.4386667,25.784 C93.9586643,25.5653322 93.5880013,25.2613353 93.3266667,24.872 C93.065332,24.4826647 92.9346667,24.0426691 92.9346667,23.552 C92.9346667,22.7839962 93.2199971,22.1680023 93.7906667,21.704 C94.3613362,21.2399977 95.2599939,21.008 96.4866667,21.008 L98.6946667,21.008 L98.6946667,20.88 C98.6946667,20.2826637 98.5160018,19.8240016 98.1586667,19.504 C97.8013315,19.1839984 97.2706702,19.024 96.5666667,19.024 C96.0866643,19.024 95.614669,19.0986659 95.1506667,19.248 C94.6866643,19.3973341 94.2946683,19.605332 93.9746667,19.872 L93.1906667,18.416 C93.6386689,18.074665 94.1773302,17.8133342 94.8066667,17.632 C95.4360031,17.4506658 96.1026631,17.36 96.8066667,17.36 Z M96.5346667,24.656 C97.0360025,24.656 97.4813314,24.5413345 97.8706667,24.312 C98.2600019,24.0826655 98.5346659,23.7546688 98.6946667,23.328 L98.6946667,22.336 L96.6306667,22.336 C95.4786609,22.336 94.9026667,22.7146629 94.9026667,23.472 C94.9026667,23.8346685 95.0466652,24.1226656 95.3346667,24.336 C95.6226681,24.5493344 96.0226641,24.656 96.5346667,24.656 Z M105.069778,18.704 C105.645781,17.8079955 106.659104,17.36 108.109778,17.36 L108.109778,19.264 C107.93911,19.2319998 107.784445,19.216 107.645778,19.216 C106.867107,19.216 106.259113,19.4426644 105.821778,19.896 C105.384442,20.3493356 105.165778,21.0026624 105.165778,21.856 L105.165778,26 L103.165778,26 L103.165778,17.456 L105.069778,17.456 L105.069778,18.704 Z M118.036889,17.456 L114.036889,26.688 C113.663554,27.6160046 113.210225,28.2693314 112.676889,28.648 C112.143553,29.0266686 111.498226,29.216 110.740889,29.216 C110.31422,29.216 109.892891,29.1466674 109.476889,29.008 C109.060887,28.8693326 108.719557,28.6773346 108.452889,28.432 L109.252889,26.96 C109.44489,27.1413342 109.671554,27.2853328 109.932889,27.392 C110.194224,27.4986672 110.458221,27.552 110.724889,27.552 C111.076891,27.552 111.367554,27.4613342 111.596889,27.28 C111.826223,27.0986658 112.036888,26.7946688 112.228889,26.368 L112.372889,26.032 L108.644889,17.456 L110.724889,17.456 L113.412889,23.776 L116.116889,17.456 L118.036889,17.456 Z M128.259111,17.36 C129.091115,17.36 129.835108,17.5413315 130.491111,17.904 C131.147114,18.2666685 131.661776,18.7786634 132.035111,19.44 C132.408446,20.1013366 132.595111,20.8639957 132.595111,21.728 C132.595111,22.5920043 132.408446,23.35733 132.035111,24.024 C131.661776,24.69067 131.147114,25.2053315 130.491111,25.568 C129.835108,25.9306685 129.091115,26.112 128.259111,26.112 C127.672442,26.112 127.136447,26.0106677 126.651111,25.808 C126.165775,25.6053323 125.757779,25.3013354 125.427111,24.896 L125.427111,26 L123.523111,26 L123.523111,14.128 L125.523111,14.128 L125.523111,18.496 C125.864446,18.1226648 126.267109,17.840001 126.731111,17.648 C127.195113,17.455999 127.704442,17.36 128.259111,17.36 Z M128.035111,24.4 C128.771115,24.4 129.376442,24.1546691 129.851111,23.664 C130.32578,23.1733309 130.563111,22.528004 130.563111,21.728 C130.563111,20.927996 130.32578,20.2826691 129.851111,19.792 C129.376442,19.3013309 128.771115,19.056 128.035111,19.056 C127.555109,19.056 127.123113,19.1653322 126.739111,19.384 C126.355109,19.6026678 126.051112,19.9146646 125.827111,20.32 C125.60311,20.7253354 125.491111,21.194664 125.491111,21.728 C125.491111,22.261336 125.60311,22.7306646 125.827111,23.136 C126.051112,23.5413354 126.355109,23.8533322 126.739111,24.072 C127.123113,24.2906678 127.555109,24.4 128.035111,24.4 Z M142.682222,17.456 L142.682222,26 L140.778222,26 L140.778222,24.912 C140.458221,25.2960019 140.058225,25.591999 139.578222,25.8 C139.09822,26.008001 138.580892,26.112 138.026222,26.112 C136.884883,26.112 135.986226,25.7946698 135.330222,25.16 C134.674219,24.5253302 134.346222,23.5840062 134.346222,22.336 L134.346222,17.456 L136.346222,17.456 L136.346222,22.064 C136.346222,22.8320038 136.519554,23.4053314 136.866222,23.784 C137.212891,24.1626686 137.706219,24.352 138.346222,24.352 C139.060892,24.352 139.628887,24.1306689 140.050222,23.688 C140.471558,23.2453311 140.682222,22.6080042 140.682222,21.776 L140.682222,17.456 L142.682222,17.456 Z M150.353333,25.536 C150.118665,25.728001 149.833335,25.8719995 149.497333,25.968 C149.161332,26.0640005 148.806669,26.112 148.433333,26.112 C147.494662,26.112 146.769336,25.8666691 146.257333,25.376 C145.745331,24.8853309 145.489333,24.1706714 145.489333,23.232 L145.489333,19.12 L144.081333,19.12 L144.081333,17.52 L145.489333,17.52 L145.489333,15.568 L147.489333,15.568 L147.489333,17.52 L149.777333,17.52 L149.777333,19.12 L147.489333,19.12 L147.489333,23.184 C147.489333,23.6000021 147.590666,23.9173322 147.793333,24.136 C147.996001,24.3546678 148.289331,24.464 148.673333,24.464 C149.121336,24.464 149.494665,24.3466678 149.793333,24.112 L150.353333,25.536 Z M156.840444,25.536 C156.605777,25.728001 156.320446,25.8719995 155.984444,25.968 C155.648443,26.0640005 155.29378,26.112 154.920444,26.112 C153.981773,26.112 153.256447,25.8666691 152.744444,25.376 C152.232442,24.8853309 151.976444,24.1706714 151.976444,23.232 L151.976444,19.12 L150.568444,19.12 L150.568444,17.52 L151.976444,17.52 L151.976444,15.568 L153.976444,15.568 L153.976444,17.52 L156.264444,17.52 L156.264444,19.12 L153.976444,19.12 L153.976444,23.184 C153.976444,23.6000021 154.077777,23.9173322 154.280444,24.136 C154.483112,24.3546678 154.776443,24.464 155.160444,24.464 C155.608447,24.464 155.981776,24.3466678 156.280444,24.112 L156.840444,25.536 Z M161.951556,26.112 C161.087551,26.112 160.308892,25.9253352 159.615556,25.552 C158.922219,25.1786648 158.380891,24.65867 157.991556,23.992 C157.60222,23.32533 157.407556,22.5706709 157.407556,21.728 C157.407556,20.8853291 157.60222,20.1333366 157.991556,19.472 C158.380891,18.8106634 158.922219,18.2933352 159.615556,17.92 C160.308892,17.5466648 161.087551,17.36 161.951556,17.36 C162.826227,17.36 163.610219,17.5466648 164.303556,17.92 C164.996892,18.2933352 165.53822,18.8106634 165.927556,19.472 C166.316891,20.1333366 166.511556,20.8853291 166.511556,21.728 C166.511556,22.5706709 166.316891,23.32533 165.927556,23.992 C165.53822,24.65867 164.996892,25.1786648 164.303556,25.552 C163.610219,25.9253352 162.826227,26.112 161.951556,26.112 Z M161.951556,24.4 C162.687559,24.4 163.295553,24.1546691 163.775556,23.664 C164.255558,23.1733309 164.495556,22.528004 164.495556,21.728 C164.495556,20.927996 164.255558,20.2826691 163.775556,19.792 C163.295553,19.3013309 162.687559,19.056 161.951556,19.056 C161.215552,19.056 160.610225,19.3013309 160.135556,19.792 C159.660887,20.2826691 159.423556,20.927996 159.423556,21.728 C159.423556,22.528004 159.660887,23.1733309 160.135556,23.664 C160.610225,24.1546691 161.215552,24.4 161.951556,24.4 Z M173.190667,17.36 C174.268005,17.36 175.131997,17.6746635 175.782667,18.304 C176.433337,18.9333365 176.758667,19.8666605 176.758667,21.104 L176.758667,26 L174.758667,26 L174.758667,21.36 C174.758667,20.6133296 174.582668,20.0506686 174.230667,19.672 C173.878665,19.2933314 173.377337,19.104 172.726667,19.104 C171.990663,19.104 171.409335,19.3253311 170.982667,19.768 C170.555998,20.2106689 170.342667,20.8479958 170.342667,21.68 L170.342667,26 L168.342667,26 L168.342667,17.456 L170.246667,17.456 L170.246667,18.56 C170.577335,18.1653314 170.993331,17.8666677 171.494667,17.664 C171.996003,17.4613323 172.56133,17.36 173.190667,17.36 Z" id="Primarybutton" fill="#FFFFFF" fill-rule="nonzero"></path>
                </g>
                <polygon id="Line-7" fill="#0847FF" fill-rule="nonzero" points="250.15 29.67 250.15 85.37 250.85 85.37 250.85 29.67"></polygon>
                <polygon id="Line-7-Copy" fill="#0847FF" fill-rule="nonzero" points="250.65 152.67 250.65 189.37 251.35 189.37 251.35 152.67"></polygon>
                <polygon id="Line-8" fill="#0847FF" fill-rule="nonzero" points="247.65 28.37 253.35 28.37 253.35 27.67 247.65 27.67"></polygon>
                <polygon id="Line-8-Copy-2" fill="#0847FF" fill-rule="nonzero" points="247.65 151.37 253.35 151.37 253.35 150.67 247.65 150.67"></polygon>
                <polygon id="Line-8-Copy" fill="#0847FF" fill-rule="nonzero" points="247.65 87.37 253.35 87.37 253.35 86.67 247.65 86.67"></polygon>
                <polygon id="Line-8-Copy-3" fill="#0847FF" fill-rule="nonzero" points="247.65 190.37 253.35 190.37 253.35 189.67 247.65 189.67"></polygon>
                <path d="M263.328667,57.42 C263.880669,57.42 264.374664,57.524 264.810667,57.732 C265.246669,57.940001 265.588665,58.2379981 265.836667,58.626 C266.084668,59.0140019 266.208667,59.4599975 266.208667,59.964 C266.208667,60.4920026 266.078668,60.955998 265.818667,61.356 C265.558665,61.756002 265.202669,62.0659989 264.750667,62.286 C264.298664,62.5060011 263.792669,62.616 263.232667,62.616 C262.104661,62.616 261.23467,62.2520036 260.622667,61.524 C260.010664,60.7959964 259.704667,59.7640067 259.704667,58.428 C259.704667,57.4919953 259.870665,56.6940033 260.202667,56.034 C260.534668,55.3739967 260.998664,54.8740017 261.594667,54.534 C262.19067,54.1939983 262.884663,54.024 263.676667,54.024 C264.084669,54.024 264.468665,54.0659996 264.828667,54.15 C265.188668,54.2340004 265.500665,54.3559992 265.764667,54.516 L265.308667,55.452 C264.908665,55.1879987 264.37267,55.056 263.700667,55.056 C262.828662,55.056 262.144669,55.3259973 261.648667,55.866 C261.152664,56.4060027 260.904667,57.1919948 260.904667,58.224 C260.904667,58.3520006 260.908667,58.4519996 260.916667,58.524 C261.156668,58.1639982 261.486665,57.8900009 261.906667,57.702 C262.326669,57.5139991 262.800664,57.42 263.328667,57.42 Z M263.184667,61.644 C263.736669,61.644 264.184665,61.4960015 264.528667,61.2 C264.872668,60.9039985 265.044667,60.5080025 265.044667,60.012 C265.044667,59.5159975 264.870668,59.1220015 264.522667,58.83 C264.174665,58.5379985 263.70867,58.392 263.124667,58.392 C262.748665,58.392 262.414668,58.4639993 262.122667,58.608 C261.830665,58.7520007 261.602667,58.9479988 261.438667,59.196 C261.274666,59.4440012 261.192667,59.7199985 261.192667,60.024 C261.192667,60.3200015 261.270666,60.5899988 261.426667,60.834 C261.582667,61.0780012 261.810665,61.2739993 262.110667,61.422 C262.410668,61.5700007 262.768665,61.644 263.184667,61.644 Z M270.474,62.616 C269.809997,62.616 269.220003,62.4460017 268.704,62.106 C268.187997,61.7659983 267.782001,61.2720032 267.486,60.624 C267.189999,59.9759968 267.042,59.2080044 267.042,58.32 C267.042,57.4319956 267.189999,56.6640032 267.486,56.016 C267.782001,55.3679968 268.187997,54.8740017 268.704,54.534 C269.220003,54.1939983 269.809997,54.024 270.474,54.024 C271.130003,54.024 271.715997,54.1939983 272.232,54.534 C272.748003,54.8740017 273.153999,55.3679968 273.45,56.016 C273.746001,56.6640032 273.894,57.4319956 273.894,58.32 C273.894,59.2080044 273.746001,59.9759968 273.45,60.624 C273.153999,61.2720032 272.748003,61.7659983 272.232,62.106 C271.715997,62.4460017 271.130003,62.616 270.474,62.616 Z M270.474,61.548 C271.146003,61.548 271.683998,61.2720028 272.088,60.72 C272.492002,60.1679972 272.694,59.3680052 272.694,58.32 C272.694,57.2719948 272.492002,56.4720028 272.088,55.92 C271.683998,55.3679972 271.146003,55.092 270.474,55.092 C269.793997,55.092 269.252002,55.3679972 268.848,55.92 C268.443998,56.4720028 268.242,57.2719948 268.242,58.32 C268.242,59.3680052 268.443998,60.1679972 268.848,60.72 C269.252002,61.2720028 269.793997,61.548 270.474,61.548 Z M282.100667,54.12 C283.188672,54.12 284.044664,54.3799974 284.668667,54.9 C285.29267,55.4200026 285.604667,56.1359954 285.604667,57.048 C285.604667,57.9600046 285.29267,58.6759974 284.668667,59.196 C284.044664,59.7160026 283.188672,59.976 282.100667,59.976 L280.024667,59.976 L280.024667,62.52 L278.824667,62.52 L278.824667,54.12 L282.100667,54.12 Z M282.064667,58.932 C282.82467,58.932 283.404665,58.7700016 283.804667,58.446 C284.204669,58.1219984 284.404667,57.656003 284.404667,57.048 C284.404667,56.439997 284.204669,55.9740016 283.804667,55.65 C283.404665,55.3259984 282.82467,55.164 282.064667,55.164 L280.024667,55.164 L280.024667,58.932 L282.064667,58.932 Z M292.402,62.52 L289.882,59.052 L287.398,62.52 L286.018,62.52 L289.174,58.212 L286.21,54.12 L287.578,54.12 L289.93,57.348 L292.258,54.12 L293.566,54.12 L290.602,58.176 L293.782,62.52 L292.402,62.52 Z" id="60PX" fill-opacity="0.5" fill="#44444E" fill-rule="nonzero"></path>
                <path d="M267.200667,173.456 L265.604667,173.456 L265.604667,175.52 L264.440667,175.52 L264.440667,173.456 L259.772667,173.456 L259.772667,172.616 L264.068667,167.12 L265.364667,167.12 L261.248667,172.424 L264.476667,172.424 L264.476667,170.6 L265.604667,170.6 L265.604667,172.424 L267.200667,172.424 L267.200667,173.456 Z M271.286,175.616 C270.621997,175.616 270.032003,175.446002 269.516,175.106 C268.999997,174.765998 268.594001,174.272003 268.298,173.624 C268.001999,172.975997 267.854,172.208004 267.854,171.32 C267.854,170.431996 268.001999,169.664003 268.298,169.016 C268.594001,168.367997 268.999997,167.874002 269.516,167.534 C270.032003,167.193998 270.621997,167.024 271.286,167.024 C271.942003,167.024 272.527997,167.193998 273.044,167.534 C273.560003,167.874002 273.965999,168.367997 274.262,169.016 C274.558001,169.664003 274.706,170.431996 274.706,171.32 C274.706,172.208004 274.558001,172.975997 274.262,173.624 C273.965999,174.272003 273.560003,174.765998 273.044,175.106 C272.527997,175.446002 271.942003,175.616 271.286,175.616 Z M271.286,174.548 C271.958003,174.548 272.495998,174.272003 272.9,173.72 C273.304002,173.167997 273.506,172.368005 273.506,171.32 C273.506,170.271995 273.304002,169.472003 272.9,168.92 C272.495998,168.367997 271.958003,168.092 271.286,168.092 C270.605997,168.092 270.064002,168.367997 269.66,168.92 C269.255998,169.472003 269.054,170.271995 269.054,171.32 C269.054,172.368005 269.255998,173.167997 269.66,173.72 C270.064002,174.272003 270.605997,174.548 271.286,174.548 Z M282.912667,167.12 C284.000672,167.12 284.856664,167.379997 285.480667,167.9 C286.10467,168.420003 286.416667,169.135995 286.416667,170.048 C286.416667,170.960005 286.10467,171.675997 285.480667,172.196 C284.856664,172.716003 284.000672,172.976 282.912667,172.976 L280.836667,172.976 L280.836667,175.52 L279.636667,175.52 L279.636667,167.12 L282.912667,167.12 Z M282.876667,171.932 C283.63667,171.932 284.216665,171.770002 284.616667,171.446 C285.016669,171.121998 285.216667,170.656003 285.216667,170.048 C285.216667,169.439997 285.016669,168.974002 284.616667,168.65 C284.216665,168.325998 283.63667,168.164 282.876667,168.164 L280.836667,168.164 L280.836667,171.932 L282.876667,171.932 Z M293.214,175.52 L290.694,172.052 L288.21,175.52 L286.83,175.52 L289.986,171.212 L287.022,167.12 L288.39,167.12 L290.742,170.348 L293.07,167.12 L294.378,167.12 L291.414,171.176 L294.594,175.52 L293.214,175.52 Z" id="40PX" fill-opacity="0.5" fill="#44444E" fill-rule="nonzero"></path>
                <path d="M67.358,0.12 L68.918,0.12 L68.918,7.2 L73.31,7.2 L73.31,8.52 L67.358,8.52 L67.358,0.12 Z M79.9873333,6.576 L75.7873333,6.576 L74.9593333,8.52 L73.3513333,8.52 L77.1313333,0.12 L78.6673333,0.12 L82.4593333,8.52 L80.8273333,8.52 L79.9873333,6.576 Z M79.4713333,5.352 L77.8873333,1.68 L76.3153333,5.352 L79.4713333,5.352 Z M88.9566667,8.52 L87.2406667,6.06 C87.1686663,6.06800004 87.0606674,6.072 86.9166667,6.072 L85.0206667,6.072 L85.0206667,8.52 L83.4606667,8.52 L83.4606667,0.12 L86.9166667,0.12 C87.6446703,0.12 88.278664,0.2399988 88.8186667,0.48 C89.3586694,0.7200012 89.7726652,1.06399776 90.0606667,1.512 C90.3486681,1.96000224 90.4926667,2.49199692 90.4926667,3.108 C90.4926667,3.74000316 90.3386682,4.28399772 90.0306667,4.74 C89.7226651,5.19600228 89.2806695,5.53599888 88.7046667,5.76 L90.6366667,8.52 L88.9566667,8.52 Z M88.9206667,3.108 C88.9206667,2.57199732 88.7446684,2.16000144 88.3926667,1.872 C88.0406649,1.58399856 87.5246701,1.44 86.8446667,1.44 L85.0206667,1.44 L85.0206667,4.788 L86.8446667,4.788 C87.5246701,4.788 88.0406649,4.64200146 88.3926667,4.35 C88.7446684,4.05799854 88.9206667,3.64400268 88.9206667,3.108 Z M97.902,4.224 L99.378,4.224 L99.378,7.572 C98.9459978,7.91600172 98.4420029,8.17999908 97.866,8.364 C97.2899971,8.54800092 96.698003,8.64 96.09,8.64 C95.2339957,8.64 94.4620034,8.45400186 93.774,8.082 C93.0859966,7.70999814 92.546002,7.19600328 92.154,6.54 C91.761998,5.88399672 91.566,5.14400412 91.566,4.32 C91.566,3.49599588 91.761998,2.75600328 92.154,2.1 C92.546002,1.44399672 93.0879965,0.93000186 93.78,0.558 C94.4720035,0.18599814 95.2499957,-4.54747351e-13 96.114,-4.54747351e-13 C96.8180035,-4.54747351e-13 97.4579971,0.11599884 98.034,0.348 C98.6100029,0.58000116 99.093998,0.91999776 99.486,1.368 L98.502,2.328 C97.8619968,1.6879968 97.0900045,1.368 96.186,1.368 C95.593997,1.368 95.0680023,1.49199876 94.608,1.74 C94.1479977,1.98800124 93.7880013,2.33599776 93.528,2.784 C93.2679987,3.23200224 93.138,3.74399712 93.138,4.32 C93.138,4.8800028 93.2679987,5.38399776 93.528,5.832 C93.7880013,6.28000224 94.1479977,6.63199872 94.608,6.888 C95.0680023,7.14400128 95.5899971,7.272 96.174,7.272 C96.8300033,7.272 97.4059975,7.12800144 97.902,6.84 L97.902,4.224 Z M107.663333,7.212 L107.663333,8.52 L101.363333,8.52 L101.363333,0.12 L107.495333,0.12 L107.495333,1.428 L102.923333,1.428 L102.923333,3.612 L106.979333,3.612 L106.979333,4.896 L102.923333,4.896 L102.923333,7.212 L107.663333,7.212 Z M118.534,4.152 C118.998002,4.30400076 119.365999,4.55799822 119.638,4.914 C119.910001,5.27000178 120.046,5.71199736 120.046,6.24 C120.046,6.96800364 119.766003,7.52999802 119.206,7.926 C118.645997,8.32200198 117.830005,8.52 116.758,8.52 L112.582,8.52 L112.582,0.12 L116.518,0.12 C117.510005,0.12 118.273997,0.31399806 118.81,0.702 C119.346003,1.09000194 119.614,1.6239966 119.614,2.304 C119.614,2.72000208 119.518001,3.0879984 119.326,3.408 C119.133999,3.7280016 118.870002,3.97599912 118.534,4.152 Z M114.142,1.344 L114.142,3.66 L116.35,3.66 C116.894003,3.66 117.311999,3.56200098 117.604,3.366 C117.896001,3.16999902 118.042,2.88400188 118.042,2.508 C118.042,2.12399808 117.896001,1.83400098 117.604,1.638 C117.311999,1.44199902 116.894003,1.344 116.35,1.344 L114.142,1.344 Z M116.662,7.296 C117.870006,7.296 118.474,6.89200404 118.474,6.084 C118.474,5.27599596 117.870006,4.872 116.662,4.872 L114.142,4.872 L114.142,7.296 L116.662,7.296 Z M125.259333,8.64 C124.099328,8.64 123.195337,8.31400326 122.547333,7.662 C121.89933,7.00999674 121.575333,6.07600608 121.575333,4.86 L121.575333,0.12 L123.135333,0.12 L123.135333,4.8 C123.135333,6.44800824 123.847326,7.272 125.271333,7.272 C126.68734,7.272 127.395333,6.44800824 127.395333,4.8 L127.395333,0.12 L128.931333,0.12 L128.931333,4.86 C128.931333,6.07600608 128.609337,7.00999674 127.965333,7.662 C127.32133,8.31400326 126.419339,8.64 125.259333,8.64 Z M132.596667,1.44 L129.812667,1.44 L129.812667,0.12 L136.940667,0.12 L136.940667,1.44 L134.156667,1.44 L134.156667,8.52 L132.596667,8.52 L132.596667,1.44 Z M139.874,1.44 L137.09,1.44 L137.09,0.12 L144.218,0.12 L144.218,1.44 L141.434,1.44 L141.434,8.52 L139.874,8.52 L139.874,1.44 Z M149.131333,8.64 C148.275329,8.64 147.503337,8.45400186 146.815333,8.082 C146.12733,7.70999814 145.587335,7.1940033 145.195333,6.534 C144.803331,5.8739967 144.607333,5.13600408 144.607333,4.32 C144.607333,3.50399592 144.803331,2.7660033 145.195333,2.106 C145.587335,1.4459967 146.12733,0.93000186 146.815333,0.558 C147.503337,0.18599814 148.275329,-4.54747351e-13 149.131333,-4.54747351e-13 C149.987338,-4.54747351e-13 150.75933,0.18599814 151.447333,0.558 C152.135337,0.93000186 152.675331,1.44399672 153.067333,2.1 C153.459335,2.75600328 153.655333,3.49599588 153.655333,4.32 C153.655333,5.14400412 153.459335,5.88399672 153.067333,6.54 C152.675331,7.19600328 152.135337,7.70999814 151.447333,8.082 C150.75933,8.45400186 149.987338,8.64 149.131333,8.64 Z M149.131333,7.272 C149.691336,7.272 150.195331,7.14600126 150.643333,6.894 C151.091336,6.64199874 151.443332,6.29000226 151.699333,5.838 C151.955335,5.38599774 152.083333,4.8800028 152.083333,4.32 C152.083333,3.7599972 151.955335,3.25400226 151.699333,2.802 C151.443332,2.34999774 151.091336,1.99800126 150.643333,1.746 C150.195331,1.49399874 149.691336,1.368 149.131333,1.368 C148.571331,1.368 148.067336,1.49399874 147.619333,1.746 C147.171331,1.99800126 146.819335,2.34999774 146.563333,2.802 C146.307332,3.25400226 146.179333,3.7599972 146.179333,4.32 C146.179333,4.8800028 146.307332,5.38599774 146.563333,5.838 C146.819335,6.29000226 147.171331,6.64199874 147.619333,6.894 C148.067336,7.14600126 148.571331,7.272 149.131333,7.272 Z M162.708667,0.12 L162.708667,8.52 L161.424667,8.52 L156.792667,2.832 L156.792667,8.52 L155.244667,8.52 L155.244667,0.12 L156.528667,0.12 L161.160667,5.808 L161.160667,0.12 L162.708667,0.12 Z" id="LARGEBUTTON" fill-opacity="0.5" fill="#44444E" fill-rule="nonzero"></path>
                <path d="M69.932,131.64 C69.2839968,131.64 68.658003,131.548001 68.054,131.364 C67.449997,131.179999 66.9720018,130.936002 66.62,130.632 L67.16,129.42 C67.5040017,129.692001 67.9259975,129.913999 68.426,130.086 C68.9260025,130.258001 69.4279975,130.344 69.932,130.344 C70.5560031,130.344 71.0219985,130.244001 71.33,130.044 C71.6380015,129.843999 71.792,129.580002 71.792,129.252 C71.792,129.011999 71.7060009,128.814001 71.534,128.658 C71.3619991,128.501999 71.1440013,128.38 70.88,128.292 C70.6159987,128.204 70.2560023,128.104001 69.8,127.992 C69.1599968,127.839999 68.642002,127.688001 68.246,127.536 C67.849998,127.383999 67.5100014,127.146002 67.226,126.822 C66.9419986,126.497998 66.8,126.060003 66.8,125.508 C66.8,125.043998 66.9259987,124.622002 67.178,124.242 C67.4300013,123.861998 67.8099975,123.560001 68.318,123.336 C68.8260025,123.111999 69.4479963,123 70.184,123 C70.6960026,123 71.1999975,123.063999 71.696,123.192 C72.1920025,123.320001 72.62,123.503999 72.98,123.744 L72.488,124.956 C72.12,124.739999 71.736002,124.576001 71.336,124.464 C70.935998,124.351999 70.5480019,124.296 70.172,124.296 C69.5559969,124.296 69.0980015,124.399999 68.798,124.608 C68.4979985,124.816001 68.348,125.091998 68.348,125.436 C68.348,125.676001 68.4339991,125.871999 68.606,126.024 C68.7780009,126.176001 68.9959987,126.296 69.26,126.384 C69.5240013,126.472 69.8839977,126.571999 70.34,126.684 C70.9640031,126.828001 71.475998,126.977999 71.876,127.134 C72.276002,127.290001 72.6179986,127.527998 72.902,127.848 C73.1860014,128.168002 73.328,128.599997 73.328,129.144 C73.328,129.608002 73.2020013,130.027998 72.95,130.404 C72.6979987,130.780002 72.3160026,131.079999 71.804,131.304 C71.2919974,131.528001 70.6680037,131.64 69.932,131.64 Z M82.5253333,131.52 L82.5133333,125.952 L79.7533333,130.56 L79.0573333,130.56 L76.2973333,126.024 L76.2973333,131.52 L74.8093333,131.52 L74.8093333,123.12 L76.0933333,123.12 L79.4293333,128.688 L82.7053333,123.12 L83.9893333,123.12 L84.0013333,131.52 L82.5253333,131.52 Z M91.6506667,129.576 L87.4506667,129.576 L86.6226667,131.52 L85.0146667,131.52 L88.7946667,123.12 L90.3306667,123.12 L94.1226667,131.52 L92.4906667,131.52 L91.6506667,129.576 Z M91.1346667,128.352 L89.5506667,124.68 L87.9786667,128.352 L91.1346667,128.352 Z M95.124,123.12 L96.684,123.12 L96.684,130.2 L101.076,130.2 L101.076,131.52 L95.124,131.52 L95.124,123.12 Z M102.245333,123.12 L103.805333,123.12 L103.805333,130.2 L108.197333,130.2 L108.197333,131.52 L102.245333,131.52 L102.245333,123.12 Z M118.564,127.152 C119.028002,127.304001 119.395999,127.557998 119.668,127.914 C119.940001,128.270002 120.076,128.711997 120.076,129.24 C120.076,129.968004 119.796003,130.529998 119.236,130.926 C118.675997,131.322002 117.860005,131.52 116.788,131.52 L112.612,131.52 L112.612,123.12 L116.548,123.12 C117.540005,123.12 118.303997,123.313998 118.84,123.702 C119.376003,124.090002 119.644,124.623997 119.644,125.304 C119.644,125.720002 119.548001,126.087998 119.356,126.408 C119.163999,126.728002 118.900002,126.975999 118.564,127.152 Z M114.172,124.344 L114.172,126.66 L116.38,126.66 C116.924003,126.66 117.341999,126.562001 117.634,126.366 C117.926001,126.169999 118.072,125.884002 118.072,125.508 C118.072,125.123998 117.926001,124.834001 117.634,124.638 C117.341999,124.441999 116.924003,124.344 116.38,124.344 L114.172,124.344 Z M116.692,130.296 C117.900006,130.296 118.504,129.892004 118.504,129.084 C118.504,128.275996 117.900006,127.872 116.692,127.872 L114.172,127.872 L114.172,130.296 L116.692,130.296 Z M125.289333,131.64 C124.129328,131.64 123.225337,131.314003 122.577333,130.662 C121.92933,130.009997 121.605333,129.076006 121.605333,127.86 L121.605333,123.12 L123.165333,123.12 L123.165333,127.8 C123.165333,129.448008 123.877326,130.272 125.301333,130.272 C126.71734,130.272 127.425333,129.448008 127.425333,127.8 L127.425333,123.12 L128.961333,123.12 L128.961333,127.86 C128.961333,129.076006 128.639337,130.009997 127.995333,130.662 C127.35133,131.314003 126.449339,131.64 125.289333,131.64 Z M132.626667,124.44 L129.842667,124.44 L129.842667,123.12 L136.970667,123.12 L136.970667,124.44 L134.186667,124.44 L134.186667,131.52 L132.626667,131.52 L132.626667,124.44 Z M139.904,124.44 L137.12,124.44 L137.12,123.12 L144.248,123.12 L144.248,124.44 L141.464,124.44 L141.464,131.52 L139.904,131.52 L139.904,124.44 Z M149.161333,131.64 C148.305329,131.64 147.533337,131.454002 146.845333,131.082 C146.15733,130.709998 145.617335,130.194003 145.225333,129.534 C144.833331,128.873997 144.637333,128.136004 144.637333,127.32 C144.637333,126.503996 144.833331,125.766003 145.225333,125.106 C145.617335,124.445997 146.15733,123.930002 146.845333,123.558 C147.533337,123.185998 148.305329,123 149.161333,123 C150.017338,123 150.78933,123.185998 151.477333,123.558 C152.165337,123.930002 152.705331,124.443997 153.097333,125.1 C153.489335,125.756003 153.685333,126.495996 153.685333,127.32 C153.685333,128.144004 153.489335,128.883997 153.097333,129.54 C152.705331,130.196003 152.165337,130.709998 151.477333,131.082 C150.78933,131.454002 150.017338,131.64 149.161333,131.64 Z M149.161333,130.272 C149.721336,130.272 150.225331,130.146001 150.673333,129.894 C151.121336,129.641999 151.473332,129.290002 151.729333,128.838 C151.985335,128.385998 152.113333,127.880003 152.113333,127.32 C152.113333,126.759997 151.985335,126.254002 151.729333,125.802 C151.473332,125.349998 151.121336,124.998001 150.673333,124.746 C150.225331,124.493999 149.721336,124.368 149.161333,124.368 C148.601331,124.368 148.097336,124.493999 147.649333,124.746 C147.201331,124.998001 146.849335,125.349998 146.593333,125.802 C146.337332,126.254002 146.209333,126.759997 146.209333,127.32 C146.209333,127.880003 146.337332,128.385998 146.593333,128.838 C146.849335,129.290002 147.201331,129.641999 147.649333,129.894 C148.097336,130.146001 148.601331,130.272 149.161333,130.272 Z M162.738667,123.12 L162.738667,131.52 L161.454667,131.52 L156.822667,125.832 L156.822667,131.52 L155.274667,131.52 L155.274667,123.12 L156.558667,123.12 L161.190667,128.808 L161.190667,123.12 L162.738667,123.12 Z" id="SMALLBUTTON" fill-opacity="0.5" fill="#44444E" fill-rule="nonzero"></path>
            </g>
        </g>
    </g>
</svg>