<?xml version="1.0" encoding="UTF-8"?>
<svg width="295px" height="191px" viewBox="0 0 295 191" version="1.1" xmlns="http://www.w3.org/2000/svg" xmlns:xlink="http://www.w3.org/1999/xlink">
    <!-- Generator: Sketch 55.2 (78181) - https://sketchapp.com -->
    <title>Group 17</title>
    <desc>Created with Sketch.</desc>
    <g id="the-brand" stroke="none" stroke-width="1" fill="none" fill-rule="evenodd">
        <g id="OnBrand-brand-guidelines-Copy" transform="translate(-623.000000, -5374.000000)">
            <g id="Group-17" transform="translate(623.000000, 5374.480000)">
                <g id="Group-12" transform="translate(0.000000, 27.520000)">
                    <rect id="Rectangle-Copy-14" stroke="#0847FF" fill="#FFFFFF" x="0.5" y="0.5" width="229" height="59" rx="29.5"></rect>
                    <text id="Secondary-button" font-family="Montserrat-SemiBold, Montserrat" font-size="18" font-weight="500" letter-spacing="-0.1" fill="#0847FF">
                        <tspan x="32.996" y="35">Secondary button</tspan>
                    </text>
                </g>
                <g id="Group-13" transform="translate(0.000000, 150.520000)">
                    <rect id="Rectangle-Copy-15" stroke="#0847FF" fill="#FFFFFF" x="0.5" y="0.5" width="229" height="39" rx="19.5"></rect>
                    <text id="Secondary-button" font-family="Montserrat-SemiBold, Montserrat" font-size="16" font-weight="500" letter-spacing="-0.0888888889" fill="#0847FF">
                        <tspan x="42.1631111" y="26">Secondary button</tspan>
                    </text>
                </g>
                <polygon id="Line-7-Copy-2" fill="#0847FF" fill-rule="nonzero" points="250.15 29.67 250.15 85.37 250.85 85.37 250.85 29.67"></polygon>
                <polygon id="Line-7-Copy-3" fill="#0847FF" fill-rule="nonzero" points="250.65 152.67 250.65 189.37 251.35 189.37 251.35 152.67"></polygon>
                <polygon id="Line-8-Copy-4" fill="#0847FF" fill-rule="nonzero" points="247.65 28.37 253.35 28.37 253.35 27.67 247.65 27.67"></polygon>
                <polygon id="Line-8-Copy-5" fill="#0847FF" fill-rule="nonzero" points="247.65 151.37 253.35 151.37 253.35 150.67 247.65 150.67"></polygon>
                <polygon id="Line-8-Copy-6" fill="#0847FF" fill-rule="nonzero" points="247.65 87.37 253.35 87.37 253.35 86.67 247.65 86.67"></polygon>
                <polygon id="Line-8-Copy-7" fill="#0847FF" fill-rule="nonzero" points="247.65 190.37 253.35 190.37 253.35 189.67 247.65 189.67"></polygon>
                <path d="M263.328667,57.42 C263.880669,57.42 264.374664,57.524 264.810667,57.732 C265.246669,57.940001 265.588665,58.2379981 265.836667,58.626 C266.084668,59.0140019 266.208667,59.4599975 266.208667,59.964 C266.208667,60.4920026 266.078668,60.955998 265.818667,61.356 C265.558665,61.756002 265.202669,62.0659989 264.750667,62.286 C264.298664,62.5060011 263.792669,62.616 263.232667,62.616 C262.104661,62.616 261.23467,62.2520036 260.622667,61.524 C260.010664,60.7959964 259.704667,59.7640067 259.704667,58.428 C259.704667,57.4919953 259.870665,56.6940033 260.202667,56.034 C260.534668,55.3739967 260.998664,54.8740017 261.594667,54.534 C262.19067,54.1939983 262.884663,54.024 263.676667,54.024 C264.084669,54.024 264.468665,54.0659996 264.828667,54.15 C265.188668,54.2340004 265.500665,54.3559992 265.764667,54.516 L265.308667,55.452 C264.908665,55.1879987 264.37267,55.056 263.700667,55.056 C262.828662,55.056 262.144669,55.3259973 261.648667,55.866 C261.152664,56.4060027 260.904667,57.1919948 260.904667,58.224 C260.904667,58.3520006 260.908667,58.4519996 260.916667,58.524 C261.156668,58.1639982 261.486665,57.8900009 261.906667,57.702 C262.326669,57.5139991 262.800664,57.42 263.328667,57.42 Z M263.184667,61.644 C263.736669,61.644 264.184665,61.4960015 264.528667,61.2 C264.872668,60.9039985 265.044667,60.5080025 265.044667,60.012 C265.044667,59.5159975 264.870668,59.1220015 264.522667,58.83 C264.174665,58.5379985 263.70867,58.392 263.124667,58.392 C262.748665,58.392 262.414668,58.4639993 262.122667,58.608 C261.830665,58.7520007 261.602667,58.9479988 261.438667,59.196 C261.274666,59.4440012 261.192667,59.7199985 261.192667,60.024 C261.192667,60.3200015 261.270666,60.5899988 261.426667,60.834 C261.582667,61.0780012 261.810665,61.2739993 262.110667,61.422 C262.410668,61.5700007 262.768665,61.644 263.184667,61.644 Z M270.474,62.616 C269.809997,62.616 269.220003,62.4460017 268.704,62.106 C268.187997,61.7659983 267.782001,61.2720032 267.486,60.624 C267.189999,59.9759968 267.042,59.2080044 267.042,58.32 C267.042,57.4319956 267.189999,56.6640032 267.486,56.016 C267.782001,55.3679968 268.187997,54.8740017 268.704,54.534 C269.220003,54.1939983 269.809997,54.024 270.474,54.024 C271.130003,54.024 271.715997,54.1939983 272.232,54.534 C272.748003,54.8740017 273.153999,55.3679968 273.45,56.016 C273.746001,56.6640032 273.894,57.4319956 273.894,58.32 C273.894,59.2080044 273.746001,59.9759968 273.45,60.624 C273.153999,61.2720032 272.748003,61.7659983 272.232,62.106 C271.715997,62.4460017 271.130003,62.616 270.474,62.616 Z M270.474,61.548 C271.146003,61.548 271.683998,61.2720028 272.088,60.72 C272.492002,60.1679972 272.694,59.3680052 272.694,58.32 C272.694,57.2719948 272.492002,56.4720028 272.088,55.92 C271.683998,55.3679972 271.146003,55.092 270.474,55.092 C269.793997,55.092 269.252002,55.3679972 268.848,55.92 C268.443998,56.4720028 268.242,57.2719948 268.242,58.32 C268.242,59.3680052 268.443998,60.1679972 268.848,60.72 C269.252002,61.2720028 269.793997,61.548 270.474,61.548 Z M282.100667,54.12 C283.188672,54.12 284.044664,54.3799974 284.668667,54.9 C285.29267,55.4200026 285.604667,56.1359954 285.604667,57.048 C285.604667,57.9600046 285.29267,58.6759974 284.668667,59.196 C284.044664,59.7160026 283.188672,59.976 282.100667,59.976 L280.024667,59.976 L280.024667,62.52 L278.824667,62.52 L278.824667,54.12 L282.100667,54.12 Z M282.064667,58.932 C282.82467,58.932 283.404665,58.7700016 283.804667,58.446 C284.204669,58.1219984 284.404667,57.656003 284.404667,57.048 C284.404667,56.439997 284.204669,55.9740016 283.804667,55.65 C283.404665,55.3259984 282.82467,55.164 282.064667,55.164 L280.024667,55.164 L280.024667,58.932 L282.064667,58.932 Z M292.402,62.52 L289.882,59.052 L287.398,62.52 L286.018,62.52 L289.174,58.212 L286.21,54.12 L287.578,54.12 L289.93,57.348 L292.258,54.12 L293.566,54.12 L290.602,58.176 L293.782,62.52 L292.402,62.52 Z" id="60PX" fill-opacity="0.5" fill="#44444E" fill-rule="nonzero"></path>
                <path d="M267.200667,173.456 L265.604667,173.456 L265.604667,175.52 L264.440667,175.52 L264.440667,173.456 L259.772667,173.456 L259.772667,172.616 L264.068667,167.12 L265.364667,167.12 L261.248667,172.424 L264.476667,172.424 L264.476667,170.6 L265.604667,170.6 L265.604667,172.424 L267.200667,172.424 L267.200667,173.456 Z M271.286,175.616 C270.621997,175.616 270.032003,175.446002 269.516,175.106 C268.999997,174.765998 268.594001,174.272003 268.298,173.624 C268.001999,172.975997 267.854,172.208004 267.854,171.32 C267.854,170.431996 268.001999,169.664003 268.298,169.016 C268.594001,168.367997 268.999997,167.874002 269.516,167.534 C270.032003,167.193998 270.621997,167.024 271.286,167.024 C271.942003,167.024 272.527997,167.193998 273.044,167.534 C273.560003,167.874002 273.965999,168.367997 274.262,169.016 C274.558001,169.664003 274.706,170.431996 274.706,171.32 C274.706,172.208004 274.558001,172.975997 274.262,173.624 C273.965999,174.272003 273.560003,174.765998 273.044,175.106 C272.527997,175.446002 271.942003,175.616 271.286,175.616 Z M271.286,174.548 C271.958003,174.548 272.495998,174.272003 272.9,173.72 C273.304002,173.167997 273.506,172.368005 273.506,171.32 C273.506,170.271995 273.304002,169.472003 272.9,168.92 C272.495998,168.367997 271.958003,168.092 271.286,168.092 C270.605997,168.092 270.064002,168.367997 269.66,168.92 C269.255998,169.472003 269.054,170.271995 269.054,171.32 C269.054,172.368005 269.255998,173.167997 269.66,173.72 C270.064002,174.272003 270.605997,174.548 271.286,174.548 Z M282.912667,167.12 C284.000672,167.12 284.856664,167.379997 285.480667,167.9 C286.10467,168.420003 286.416667,169.135995 286.416667,170.048 C286.416667,170.960005 286.10467,171.675997 285.480667,172.196 C284.856664,172.716003 284.000672,172.976 282.912667,172.976 L280.836667,172.976 L280.836667,175.52 L279.636667,175.52 L279.636667,167.12 L282.912667,167.12 Z M282.876667,171.932 C283.63667,171.932 284.216665,171.770002 284.616667,171.446 C285.016669,171.121998 285.216667,170.656003 285.216667,170.048 C285.216667,169.439997 285.016669,168.974002 284.616667,168.65 C284.216665,168.325998 283.63667,168.164 282.876667,168.164 L280.836667,168.164 L280.836667,171.932 L282.876667,171.932 Z M293.214,175.52 L290.694,172.052 L288.21,175.52 L286.83,175.52 L289.986,171.212 L287.022,167.12 L288.39,167.12 L290.742,170.348 L293.07,167.12 L294.378,167.12 L291.414,171.176 L294.594,175.52 L293.214,175.52 Z" id="40PX" fill-opacity="0.5" fill="#44444E" fill-rule="nonzero"></path>
                <path d="M67.358,0.12 L68.918,0.12 L68.918,7.2 L73.31,7.2 L73.31,8.52 L67.358,8.52 L67.358,0.12 Z M79.9873333,6.576 L75.7873333,6.576 L74.9593333,8.52 L73.3513333,8.52 L77.1313333,0.12 L78.6673333,0.12 L82.4593333,8.52 L80.8273333,8.52 L79.9873333,6.576 Z M79.4713333,5.352 L77.8873333,1.68 L76.3153333,5.352 L79.4713333,5.352 Z M88.9566667,8.52 L87.2406667,6.06 C87.1686663,6.06800004 87.0606674,6.072 86.9166667,6.072 L85.0206667,6.072 L85.0206667,8.52 L83.4606667,8.52 L83.4606667,0.12 L86.9166667,0.12 C87.6446703,0.12 88.278664,0.2399988 88.8186667,0.48 C89.3586694,0.7200012 89.7726652,1.06399776 90.0606667,1.512 C90.3486681,1.96000224 90.4926667,2.49199692 90.4926667,3.108 C90.4926667,3.74000316 90.3386682,4.28399772 90.0306667,4.74 C89.7226651,5.19600228 89.2806695,5.53599888 88.7046667,5.76 L90.6366667,8.52 L88.9566667,8.52 Z M88.9206667,3.108 C88.9206667,2.57199732 88.7446684,2.16000144 88.3926667,1.872 C88.0406649,1.58399856 87.5246701,1.44 86.8446667,1.44 L85.0206667,1.44 L85.0206667,4.788 L86.8446667,4.788 C87.5246701,4.788 88.0406649,4.64200146 88.3926667,4.35 C88.7446684,4.05799854 88.9206667,3.64400268 88.9206667,3.108 Z M97.902,4.224 L99.378,4.224 L99.378,7.572 C98.9459978,7.91600172 98.4420029,8.17999908 97.866,8.364 C97.2899971,8.54800092 96.698003,8.64 96.09,8.64 C95.2339957,8.64 94.4620034,8.45400186 93.774,8.082 C93.0859966,7.70999814 92.546002,7.19600328 92.154,6.54 C91.761998,5.88399672 91.566,5.14400412 91.566,4.32 C91.566,3.49599588 91.761998,2.75600328 92.154,2.1 C92.546002,1.44399672 93.0879965,0.93000186 93.78,0.558 C94.4720035,0.18599814 95.2499957,-4.54747351e-13 96.114,-4.54747351e-13 C96.8180035,-4.54747351e-13 97.4579971,0.11599884 98.034,0.348 C98.6100029,0.58000116 99.093998,0.91999776 99.486,1.368 L98.502,2.328 C97.8619968,1.6879968 97.0900045,1.368 96.186,1.368 C95.593997,1.368 95.0680023,1.49199876 94.608,1.74 C94.1479977,1.98800124 93.7880013,2.33599776 93.528,2.784 C93.2679987,3.23200224 93.138,3.74399712 93.138,4.32 C93.138,4.8800028 93.2679987,5.38399776 93.528,5.832 C93.7880013,6.28000224 94.1479977,6.63199872 94.608,6.888 C95.0680023,7.14400128 95.5899971,7.272 96.174,7.272 C96.8300033,7.272 97.4059975,7.12800144 97.902,6.84 L97.902,4.224 Z M107.663333,7.212 L107.663333,8.52 L101.363333,8.52 L101.363333,0.12 L107.495333,0.12 L107.495333,1.428 L102.923333,1.428 L102.923333,3.612 L106.979333,3.612 L106.979333,4.896 L102.923333,4.896 L102.923333,7.212 L107.663333,7.212 Z M118.534,4.152 C118.998002,4.30400076 119.365999,4.55799822 119.638,4.914 C119.910001,5.27000178 120.046,5.71199736 120.046,6.24 C120.046,6.96800364 119.766003,7.52999802 119.206,7.926 C118.645997,8.32200198 117.830005,8.52 116.758,8.52 L112.582,8.52 L112.582,0.12 L116.518,0.12 C117.510005,0.12 118.273997,0.31399806 118.81,0.702 C119.346003,1.09000194 119.614,1.6239966 119.614,2.304 C119.614,2.72000208 119.518001,3.0879984 119.326,3.408 C119.133999,3.7280016 118.870002,3.97599912 118.534,4.152 Z M114.142,1.344 L114.142,3.66 L116.35,3.66 C116.894003,3.66 117.311999,3.56200098 117.604,3.366 C117.896001,3.16999902 118.042,2.88400188 118.042,2.508 C118.042,2.12399808 117.896001,1.83400098 117.604,1.638 C117.311999,1.44199902 116.894003,1.344 116.35,1.344 L114.142,1.344 Z M116.662,7.296 C117.870006,7.296 118.474,6.89200404 118.474,6.084 C118.474,5.27599596 117.870006,4.872 116.662,4.872 L114.142,4.872 L114.142,7.296 L116.662,7.296 Z M125.259333,8.64 C124.099328,8.64 123.195337,8.31400326 122.547333,7.662 C121.89933,7.00999674 121.575333,6.07600608 121.575333,4.86 L121.575333,0.12 L123.135333,0.12 L123.135333,4.8 C123.135333,6.44800824 123.847326,7.272 125.271333,7.272 C126.68734,7.272 127.395333,6.44800824 127.395333,4.8 L127.395333,0.12 L128.931333,0.12 L128.931333,4.86 C128.931333,6.07600608 128.609337,7.00999674 127.965333,7.662 C127.32133,8.31400326 126.419339,8.64 125.259333,8.64 Z M132.596667,1.44 L129.812667,1.44 L129.812667,0.12 L136.940667,0.12 L136.940667,1.44 L134.156667,1.44 L134.156667,8.52 L132.596667,8.52 L132.596667,1.44 Z M139.874,1.44 L137.09,1.44 L137.09,0.12 L144.218,0.12 L144.218,1.44 L141.434,1.44 L141.434,8.52 L139.874,8.52 L139.874,1.44 Z M149.131333,8.64 C148.275329,8.64 147.503337,8.45400186 146.815333,8.082 C146.12733,7.70999814 145.587335,7.1940033 145.195333,6.534 C144.803331,5.8739967 144.607333,5.13600408 144.607333,4.32 C144.607333,3.50399592 144.803331,2.7660033 145.195333,2.106 C145.587335,1.4459967 146.12733,0.93000186 146.815333,0.558 C147.503337,0.18599814 148.275329,-4.54747351e-13 149.131333,-4.54747351e-13 C149.987338,-4.54747351e-13 150.75933,0.18599814 151.447333,0.558 C152.135337,0.93000186 152.675331,1.44399672 153.067333,2.1 C153.459335,2.75600328 153.655333,3.49599588 153.655333,4.32 C153.655333,5.14400412 153.459335,5.88399672 153.067333,6.54 C152.675331,7.19600328 152.135337,7.70999814 151.447333,8.082 C150.75933,8.45400186 149.987338,8.64 149.131333,8.64 Z M149.131333,7.272 C149.691336,7.272 150.195331,7.14600126 150.643333,6.894 C151.091336,6.64199874 151.443332,6.29000226 151.699333,5.838 C151.955335,5.38599774 152.083333,4.8800028 152.083333,4.32 C152.083333,3.7599972 151.955335,3.25400226 151.699333,2.802 C151.443332,2.34999774 151.091336,1.99800126 150.643333,1.746 C150.195331,1.49399874 149.691336,1.368 149.131333,1.368 C148.571331,1.368 148.067336,1.49399874 147.619333,1.746 C147.171331,1.99800126 146.819335,2.34999774 146.563333,2.802 C146.307332,3.25400226 146.179333,3.7599972 146.179333,4.32 C146.179333,4.8800028 146.307332,5.38599774 146.563333,5.838 C146.819335,6.29000226 147.171331,6.64199874 147.619333,6.894 C148.067336,7.14600126 148.571331,7.272 149.131333,7.272 Z M162.708667,0.12 L162.708667,8.52 L161.424667,8.52 L156.792667,2.832 L156.792667,8.52 L155.244667,8.52 L155.244667,0.12 L156.528667,0.12 L161.160667,5.808 L161.160667,0.12 L162.708667,0.12 Z" id="LARGEBUTTON" fill-opacity="0.5" fill="#44444E" fill-rule="nonzero"></path>
                <path d="M69.932,131.64 C69.2839968,131.64 68.658003,131.548001 68.054,131.364 C67.449997,131.179999 66.9720018,130.936002 66.62,130.632 L67.16,129.42 C67.5040017,129.692001 67.9259975,129.913999 68.426,130.086 C68.9260025,130.258001 69.4279975,130.344 69.932,130.344 C70.5560031,130.344 71.0219985,130.244001 71.33,130.044 C71.6380015,129.843999 71.792,129.580002 71.792,129.252 C71.792,129.011999 71.7060009,128.814001 71.534,128.658 C71.3619991,128.501999 71.1440013,128.38 70.88,128.292 C70.6159987,128.204 70.2560023,128.104001 69.8,127.992 C69.1599968,127.839999 68.642002,127.688001 68.246,127.536 C67.849998,127.383999 67.5100014,127.146002 67.226,126.822 C66.9419986,126.497998 66.8,126.060003 66.8,125.508 C66.8,125.043998 66.9259987,124.622002 67.178,124.242 C67.4300013,123.861998 67.8099975,123.560001 68.318,123.336 C68.8260025,123.111999 69.4479963,123 70.184,123 C70.6960026,123 71.1999975,123.063999 71.696,123.192 C72.1920025,123.320001 72.62,123.503999 72.98,123.744 L72.488,124.956 C72.12,124.739999 71.736002,124.576001 71.336,124.464 C70.935998,124.351999 70.5480019,124.296 70.172,124.296 C69.5559969,124.296 69.0980015,124.399999 68.798,124.608 C68.4979985,124.816001 68.348,125.091998 68.348,125.436 C68.348,125.676001 68.4339991,125.871999 68.606,126.024 C68.7780009,126.176001 68.9959987,126.296 69.26,126.384 C69.5240013,126.472 69.8839977,126.571999 70.34,126.684 C70.9640031,126.828001 71.475998,126.977999 71.876,127.134 C72.276002,127.290001 72.6179986,127.527998 72.902,127.848 C73.1860014,128.168002 73.328,128.599997 73.328,129.144 C73.328,129.608002 73.2020013,130.027998 72.95,130.404 C72.6979987,130.780002 72.3160026,131.079999 71.804,131.304 C71.2919974,131.528001 70.6680037,131.64 69.932,131.64 Z M82.5253333,131.52 L82.5133333,125.952 L79.7533333,130.56 L79.0573333,130.56 L76.2973333,126.024 L76.2973333,131.52 L74.8093333,131.52 L74.8093333,123.12 L76.0933333,123.12 L79.4293333,128.688 L82.7053333,123.12 L83.9893333,123.12 L84.0013333,131.52 L82.5253333,131.52 Z M91.6506667,129.576 L87.4506667,129.576 L86.6226667,131.52 L85.0146667,131.52 L88.7946667,123.12 L90.3306667,123.12 L94.1226667,131.52 L92.4906667,131.52 L91.6506667,129.576 Z M91.1346667,128.352 L89.5506667,124.68 L87.9786667,128.352 L91.1346667,128.352 Z M95.124,123.12 L96.684,123.12 L96.684,130.2 L101.076,130.2 L101.076,131.52 L95.124,131.52 L95.124,123.12 Z M102.245333,123.12 L103.805333,123.12 L103.805333,130.2 L108.197333,130.2 L108.197333,131.52 L102.245333,131.52 L102.245333,123.12 Z M118.564,127.152 C119.028002,127.304001 119.395999,127.557998 119.668,127.914 C119.940001,128.270002 120.076,128.711997 120.076,129.24 C120.076,129.968004 119.796003,130.529998 119.236,130.926 C118.675997,131.322002 117.860005,131.52 116.788,131.52 L112.612,131.52 L112.612,123.12 L116.548,123.12 C117.540005,123.12 118.303997,123.313998 118.84,123.702 C119.376003,124.090002 119.644,124.623997 119.644,125.304 C119.644,125.720002 119.548001,126.087998 119.356,126.408 C119.163999,126.728002 118.900002,126.975999 118.564,127.152 Z M114.172,124.344 L114.172,126.66 L116.38,126.66 C116.924003,126.66 117.341999,126.562001 117.634,126.366 C117.926001,126.169999 118.072,125.884002 118.072,125.508 C118.072,125.123998 117.926001,124.834001 117.634,124.638 C117.341999,124.441999 116.924003,124.344 116.38,124.344 L114.172,124.344 Z M116.692,130.296 C117.900006,130.296 118.504,129.892004 118.504,129.084 C118.504,128.275996 117.900006,127.872 116.692,127.872 L114.172,127.872 L114.172,130.296 L116.692,130.296 Z M125.289333,131.64 C124.129328,131.64 123.225337,131.314003 122.577333,130.662 C121.92933,130.009997 121.605333,129.076006 121.605333,127.86 L121.605333,123.12 L123.165333,123.12 L123.165333,127.8 C123.165333,129.448008 123.877326,130.272 125.301333,130.272 C126.71734,130.272 127.425333,129.448008 127.425333,127.8 L127.425333,123.12 L128.961333,123.12 L128.961333,127.86 C128.961333,129.076006 128.639337,130.009997 127.995333,130.662 C127.35133,131.314003 126.449339,131.64 125.289333,131.64 Z M132.626667,124.44 L129.842667,124.44 L129.842667,123.12 L136.970667,123.12 L136.970667,124.44 L134.186667,124.44 L134.186667,131.52 L132.626667,131.52 L132.626667,124.44 Z M139.904,124.44 L137.12,124.44 L137.12,123.12 L144.248,123.12 L144.248,124.44 L141.464,124.44 L141.464,131.52 L139.904,131.52 L139.904,124.44 Z M149.161333,131.64 C148.305329,131.64 147.533337,131.454002 146.845333,131.082 C146.15733,130.709998 145.617335,130.194003 145.225333,129.534 C144.833331,128.873997 144.637333,128.136004 144.637333,127.32 C144.637333,126.503996 144.833331,125.766003 145.225333,125.106 C145.617335,124.445997 146.15733,123.930002 146.845333,123.558 C147.533337,123.185998 148.305329,123 149.161333,123 C150.017338,123 150.78933,123.185998 151.477333,123.558 C152.165337,123.930002 152.705331,124.443997 153.097333,125.1 C153.489335,125.756003 153.685333,126.495996 153.685333,127.32 C153.685333,128.144004 153.489335,128.883997 153.097333,129.54 C152.705331,130.196003 152.165337,130.709998 151.477333,131.082 C150.78933,131.454002 150.017338,131.64 149.161333,131.64 Z M149.161333,130.272 C149.721336,130.272 150.225331,130.146001 150.673333,129.894 C151.121336,129.641999 151.473332,129.290002 151.729333,128.838 C151.985335,128.385998 152.113333,127.880003 152.113333,127.32 C152.113333,126.759997 151.985335,126.254002 151.729333,125.802 C151.473332,125.349998 151.121336,124.998001 150.673333,124.746 C150.225331,124.493999 149.721336,124.368 149.161333,124.368 C148.601331,124.368 148.097336,124.493999 147.649333,124.746 C147.201331,124.998001 146.849335,125.349998 146.593333,125.802 C146.337332,126.254002 146.209333,126.759997 146.209333,127.32 C146.209333,127.880003 146.337332,128.385998 146.593333,128.838 C146.849335,129.290002 147.201331,129.641999 147.649333,129.894 C148.097336,130.146001 148.601331,130.272 149.161333,130.272 Z M162.738667,123.12 L162.738667,131.52 L161.454667,131.52 L156.822667,125.832 L156.822667,131.52 L155.274667,131.52 L155.274667,123.12 L156.558667,123.12 L161.190667,128.808 L161.190667,123.12 L162.738667,123.12 Z" id="SMALLBUTTON" fill-opacity="0.5" fill="#44444E" fill-rule="nonzero"></path>
            </g>
        </g>
    </g>
</svg>