<?xml version="1.0" encoding="UTF-8"?>
<svg width="295px" height="191px" viewBox="0 0 295 191" version="1.1" xmlns="http://www.w3.org/2000/svg" xmlns:xlink="http://www.w3.org/1999/xlink">
    <!-- Generator: Sketch 55.2 (78181) - https://sketchapp.com -->
    <title>Group 24</title>
    <desc>Created with Sketch.</desc>
    <g id="the-brand" stroke="none" stroke-width="1" fill="none" fill-rule="evenodd">
        <g id="OnBrand-brand-guidelines-Copy" transform="translate(-623.000000, -5374.000000)">
            <g id="Group-24" transform="translate(623.000000, 5374.480000)">
                <g id="Group-17">
                    <g id="Group-12" transform="translate(0.000000, 27.520000)">
                        <rect id="Rectangle-Copy-14" stroke="#0847FF" fill="#FFFFFF" x="0.5" y="0.5" width="229" height="59" rx="29.5"></rect>
                        <path d="M38.594,35.18 C37.6219951,35.18 36.6830045,35.0420014 35.777,34.766 C34.8709955,34.4899986 34.1540026,34.1240023 33.626,33.668 L34.436,31.85 C34.9520026,32.258002 35.5849962,32.5909987 36.335,32.849 C37.0850037,33.1070013 37.8379962,33.236 38.594,33.236 C39.5300047,33.236 40.2289977,33.0860015 40.691,32.786 C41.1530023,32.4859985 41.384,32.0900025 41.384,31.598 C41.384,31.2379982 41.2550013,30.9410012 40.997,30.707 C40.7389987,30.4729988 40.412002,30.2900007 40.016,30.158 C39.619998,30.0259993 39.0800034,29.8760008 38.396,29.708 C37.4359952,29.4799989 36.659003,29.2520011 36.065,29.024 C35.470997,28.7959989 34.9610021,28.4390024 34.535,27.953 C34.1089979,27.4669976 33.896,26.8100041 33.896,25.982 C33.896,25.2859965 34.0849981,24.6530029 34.463,24.083 C34.8410019,23.5129971 35.4109962,23.0600017 36.173,22.724 C36.9350038,22.3879983 37.8679945,22.22 38.972,22.22 C39.7400038,22.22 40.4959963,22.315999 41.24,22.508 C41.9840037,22.700001 42.626,22.9759982 43.166,23.336 L42.428,25.154 C41.8759972,24.8299984 41.300003,24.5840008 40.7,24.416 C40.099997,24.2479992 39.5180028,24.164 38.954,24.164 C38.0299954,24.164 37.3430022,24.3199984 36.893,24.632 C36.4429977,24.9440016 36.218,25.3579974 36.218,25.874 C36.218,26.2340018 36.3469987,26.5279989 36.605,26.756 C36.8630013,26.9840011 37.189998,27.1639993 37.586,27.296 C37.982002,27.4280007 38.5219966,27.5779992 39.206,27.746 C40.1420047,27.9620011 40.909997,28.1869988 41.51,28.421 C42.110003,28.6550012 42.6229979,29.0119976 43.049,29.492 C43.4750021,29.9720024 43.688,30.6199959 43.688,31.436 C43.688,32.1320035 43.4990019,32.7619972 43.121,33.326 C42.7429981,33.8900028 42.1700038,34.3399983 41.402,34.676 C40.6339962,35.0120017 39.6980055,35.18 38.594,35.18 Z M54.73,30.248 C54.73,30.4040008 54.7180001,30.6259986 54.694,30.914 L47.152,30.914 C47.2840007,31.6220035 47.6289972,32.1829979 48.187,32.597 C48.7450028,33.0110021 49.4379959,33.218 50.266,33.218 C51.3220053,33.218 52.1919966,32.8700035 52.876,32.174 L54.082,33.56 C53.6499978,34.0760026 53.1040033,34.4659987 52.444,34.73 C51.7839967,34.9940013 51.0400041,35.126 50.212,35.126 C49.1559947,35.126 48.226004,34.9160021 47.422,34.496 C46.617996,34.0759979 45.9970022,33.4910038 45.559,32.741 C45.1209978,31.9909962 44.902,31.1420047 44.902,30.194 C44.902,29.2579953 45.1149979,28.4150038 45.541,27.665 C45.9670021,26.9149962 46.5579962,26.3300021 47.314,25.91 C48.0700038,25.4899979 48.9219953,25.28 49.87,25.28 C50.8060047,25.28 51.6429963,25.4869979 52.381,25.901 C53.1190037,26.3150021 53.6949979,26.8969962 54.109,27.647 C54.5230021,28.3970037 54.73,29.2639951 54.73,30.248 Z M49.87,27.08 C49.1499964,27.08 48.5410025,27.2929979 48.043,27.719 C47.5449975,28.1450021 47.2420005,28.7119965 47.134,29.42 L52.588,29.42 C52.4919995,28.7239965 52.1980025,28.1600022 51.706,27.728 C51.2139975,27.2959978 50.6020037,27.08 49.87,27.08 Z M61.2,35.126 C60.203995,35.126 59.310004,34.9160021 58.518,34.496 C57.725996,34.0759979 57.1080022,33.4910038 56.664,32.741 C56.2199978,31.9909962 55.998,31.1420047 55.998,30.194 C55.998,29.2459953 56.2199978,28.4000037 56.664,27.656 C57.1080022,26.9119963 57.7229961,26.3300021 58.509,25.91 C59.2950039,25.4899979 60.191995,25.28 61.2,25.28 C62.1480047,25.28 62.9789964,25.4719981 63.693,25.856 C64.4070036,26.2400019 64.9439982,26.7919964 65.304,27.512 L63.576,28.52 C63.2999986,28.0759978 62.9550021,27.7430011 62.541,27.521 C62.1269979,27.2989989 61.6740025,27.188 61.182,27.188 C60.3419958,27.188 59.6460028,27.4609973 59.094,28.007 C58.5419972,28.5530027 58.266,29.2819954 58.266,30.194 C58.266,31.1060046 58.5389973,31.8349973 59.085,32.381 C59.6310027,32.9270027 60.3299957,33.2 61.182,33.2 C61.6740025,33.2 62.1269979,33.0890011 62.541,32.867 C62.9550021,32.6449989 63.2999986,32.3120022 63.576,31.868 L65.304,32.876 C64.9319981,33.5960036 64.3890036,34.150998 63.675,34.541 C62.9609964,34.931002 62.1360047,35.126 61.2,35.126 Z M71.324,35.126 C70.3519951,35.126 69.4760039,34.9160021 68.696,34.496 C67.9159961,34.0759979 67.3070022,33.4910038 66.869,32.741 C66.4309978,31.9909962 66.212,31.1420047 66.212,30.194 C66.212,29.2459953 66.4309978,28.4000037 66.869,27.656 C67.3070022,26.9119963 67.9159961,26.3300021 68.696,25.91 C69.4760039,25.4899979 70.3519951,25.28 71.324,25.28 C72.3080049,25.28 73.1899961,25.4899979 73.97,25.91 C74.7500039,26.3300021 75.3589978,26.9119963 75.797,27.656 C76.2350022,28.4000037 76.454,29.2459953 76.454,30.194 C76.454,31.1420047 76.2350022,31.9909962 75.797,32.741 C75.3589978,33.4910038 74.7500039,34.0759979 73.97,34.496 C73.1899961,34.9160021 72.3080049,35.126 71.324,35.126 Z M71.324,33.2 C72.1520041,33.2 72.8359973,32.9240028 73.376,32.372 C73.9160027,31.8199972 74.186,31.0940045 74.186,30.194 C74.186,29.2939955 73.9160027,28.5680028 73.376,28.016 C72.8359973,27.4639972 72.1520041,27.188 71.324,27.188 C70.4959959,27.188 69.8150027,27.4639972 69.281,28.016 C68.7469973,28.5680028 68.48,29.2939955 68.48,30.194 C68.48,31.0940045 68.7469973,31.8199972 69.281,32.372 C69.8150027,32.9240028 70.4959959,33.2 71.324,33.2 Z M83.968,25.28 C85.1800061,25.28 86.1519963,25.6339965 86.884,26.342 C87.6160037,27.0500035 87.982,28.099993 87.982,29.492 L87.982,35 L85.732,35 L85.732,29.78 C85.732,28.9399958 85.534002,28.3070021 85.138,27.881 C84.741998,27.4549979 84.1780037,27.242 83.446,27.242 C82.6179959,27.242 81.9640024,27.4909975 81.484,27.989 C81.0039976,28.4870025 80.764,29.2039953 80.764,30.14 L80.764,35 L78.514,35 L78.514,25.388 L80.656,25.388 L80.656,26.63 C81.0280019,26.1859978 81.4959972,25.8500011 82.06,25.622 C82.6240028,25.3939989 83.2599965,25.28 83.968,25.28 Z M100.248,21.644 L100.248,35 L98.088,35 L98.088,33.758 C97.7159981,34.2140023 97.2570027,34.5559989 96.711,34.784 C96.1649973,35.0120011 95.5620033,35.126 94.902,35.126 C93.9779954,35.126 93.1470037,34.922002 92.409,34.514 C91.6709963,34.105998 91.0920021,33.5270037 90.672,32.777 C90.2519979,32.0269962 90.042,31.1660049 90.042,30.194 C90.042,29.2219951 90.2519979,28.3640037 90.672,27.62 C91.0920021,26.8759963 91.6709963,26.300002 92.409,25.892 C93.1470037,25.483998 93.9779954,25.28 94.902,25.28 C95.5380032,25.28 96.1199974,25.3879989 96.648,25.604 C97.1760026,25.8200011 97.6259981,26.144 97.998,26.576 L97.998,21.644 L100.248,21.644 Z M95.172,33.2 C95.7120027,33.2 96.1979978,33.0770012 96.63,32.831 C97.0620022,32.5849988 97.4039987,32.2340023 97.656,31.778 C97.9080013,31.3219977 98.034,30.794003 98.034,30.194 C98.034,29.593997 97.9080013,29.0660023 97.656,28.61 C97.4039987,28.1539977 97.0620022,27.8030012 96.63,27.557 C96.1979978,27.3109988 95.7120027,27.188 95.172,27.188 C94.6319973,27.188 94.1460022,27.3109988 93.714,27.557 C93.2819978,27.8030012 92.9400013,28.1539977 92.688,28.61 C92.4359987,29.0660023 92.31,29.593997 92.31,30.194 C92.31,30.794003 92.4359987,31.3219977 92.688,31.778 C92.9400013,32.2340023 93.2819978,32.5849988 93.714,32.831 C94.1460022,33.0770012 94.6319973,33.2 95.172,33.2 Z M106.772,25.28 C108.188007,25.28 109.270996,25.6189966 110.021,26.297 C110.771004,26.9750034 111.146,27.9979932 111.146,29.366 L111.146,35 L109.022,35 L109.022,33.83 C108.745999,34.2500021 108.353003,34.5709989 107.843,34.793 C107.332997,35.0150011 106.718004,35.126 105.998,35.126 C105.277996,35.126 104.648003,35.0030012 104.108,34.757 C103.567997,34.5109988 103.151001,34.1690022 102.857,33.731 C102.562999,33.2929978 102.416,32.7980028 102.416,32.246 C102.416,31.3819957 102.736997,30.6890026 103.379,30.167 C104.021003,29.6449974 105.031993,29.384 106.412,29.384 L108.896,29.384 L108.896,29.24 C108.896,28.5679966 108.695002,28.0520018 108.293,27.692 C107.890998,27.3319982 107.294004,27.152 106.502,27.152 C105.961997,27.152 105.431003,27.2359992 104.909,27.404 C104.386997,27.5720008 103.946002,27.8059985 103.586,28.106 L102.704,26.468 C103.208003,26.0839981 103.813996,25.790001 104.522,25.586 C105.230004,25.381999 105.979996,25.28 106.772,25.28 Z M106.466,33.488 C107.030003,33.488 107.530998,33.3590013 107.969,33.101 C108.407002,32.8429987 108.715999,32.4740024 108.896,31.994 L108.896,30.878 L106.574,30.878 C105.277994,30.878 104.63,31.3039957 104.63,32.156 C104.63,32.564002 104.791998,32.8879988 105.116,33.128 C105.440002,33.3680012 105.889997,33.488 106.466,33.488 Z M116.068,26.792 C116.716003,25.783995 117.855992,25.28 119.488,25.28 L119.488,27.422 C119.295999,27.3859998 119.122001,27.368 118.966,27.368 C118.089996,27.368 117.406002,27.6229974 116.914,28.133 C116.421998,28.6430025 116.176,29.3779952 116.176,30.338 L116.176,35 L113.926,35 L113.926,25.388 L116.068,25.388 L116.068,26.792 Z M130.656,25.388 L126.156,35.774 C125.735998,36.8180052 125.226003,37.5529979 124.626,37.979 C124.025997,38.4050021 123.300004,38.618 122.448,38.618 C121.967998,38.618 121.494002,38.5400008 121.026,38.384 C120.557998,38.2279992 120.174001,38.0120014 119.874,37.736 L120.774,36.08 C120.990001,36.284001 121.244999,36.4459994 121.539,36.566 C121.833001,36.6860006 122.129998,36.746 122.43,36.746 C122.826002,36.746 123.152999,36.644001 123.411,36.44 C123.669001,36.235999 123.905999,35.8940024 124.122,35.414 L124.284,35.036 L120.09,25.388 L122.43,25.388 L125.454,32.498 L128.496,25.388 L130.656,25.388 Z M142.156,25.28 C143.092005,25.28 143.928996,25.483998 144.667,25.892 C145.405004,26.300002 145.983998,26.8759963 146.404,27.62 C146.824002,28.3640037 147.034,29.2219951 147.034,30.194 C147.034,31.1660049 146.824002,32.0269962 146.404,32.777 C145.983998,33.5270037 145.405004,34.105998 144.667,34.514 C143.928996,34.922002 143.092005,35.126 142.156,35.126 C141.495997,35.126 140.893003,35.0120011 140.347,34.784 C139.800997,34.5559989 139.342002,34.2140023 138.97,33.758 L138.97,35 L136.828,35 L136.828,21.644 L139.078,21.644 L139.078,26.558 C139.462002,26.1379979 139.914997,25.8200011 140.437,25.604 C140.959003,25.3879989 141.531997,25.28 142.156,25.28 Z M141.904,33.2 C142.732004,33.2 143.412997,32.9240028 143.947,32.372 C144.481003,31.8199972 144.748,31.0940045 144.748,30.194 C144.748,29.2939955 144.481003,28.5680028 143.947,28.016 C143.412997,27.4639972 142.732004,27.188 141.904,27.188 C141.363997,27.188 140.878002,27.3109988 140.446,27.557 C140.013998,27.8030012 139.672001,28.1539977 139.42,28.61 C139.167999,29.0660023 139.042,29.593997 139.042,30.194 C139.042,30.794003 139.167999,31.3219977 139.42,31.778 C139.672001,32.2340023 140.013998,32.5849988 140.446,32.831 C140.878002,33.0770012 141.363997,33.2 141.904,33.2 Z M158.382,25.388 L158.382,35 L156.24,35 L156.24,33.776 C155.879998,34.2080022 155.430003,34.5409988 154.89,34.775 C154.349997,35.0090012 153.768003,35.126 153.144,35.126 C151.859994,35.126 150.849004,34.7690036 150.111,34.055 C149.372996,33.3409964 149.004,32.282007 149.004,30.878 L149.004,25.388 L151.254,25.388 L151.254,30.572 C151.254,31.4360043 151.448998,32.0809979 151.839,32.507 C152.229002,32.9330021 152.783996,33.146 153.504,33.146 C154.308004,33.146 154.946998,32.8970025 155.421,32.399 C155.895002,31.9009975 156.132,31.1840047 156.132,30.248 L156.132,25.388 L158.382,25.388 Z M167.012,34.478 C166.747999,34.6940011 166.427002,34.8559995 166.049,34.964 C165.670998,35.0720005 165.272002,35.126 164.852,35.126 C163.795995,35.126 162.980003,34.8500028 162.404,34.298 C161.827997,33.7459972 161.54,32.9420053 161.54,31.886 L161.54,27.26 L159.956,27.26 L159.956,25.46 L161.54,25.46 L161.54,23.264 L163.79,23.264 L163.79,25.46 L166.364,25.46 L166.364,27.26 L163.79,27.26 L163.79,31.832 C163.79,32.3000023 163.903999,32.6569988 164.132,32.903 C164.360001,33.1490012 164.689998,33.272 165.122,33.272 C165.626003,33.272 166.045998,33.1400013 166.382,32.876 L167.012,34.478 Z M174.31,34.478 C174.045999,34.6940011 173.725002,34.8559995 173.347,34.964 C172.968998,35.0720005 172.570002,35.126 172.15,35.126 C171.093995,35.126 170.278003,34.8500028 169.702,34.298 C169.125997,33.7459972 168.838,32.9420053 168.838,31.886 L168.838,27.26 L167.254,27.26 L167.254,25.46 L168.838,25.46 L168.838,23.264 L171.088,23.264 L171.088,25.46 L173.662,25.46 L173.662,27.26 L171.088,27.26 L171.088,31.832 C171.088,32.3000023 171.201999,32.6569988 171.43,32.903 C171.658001,33.1490012 171.987998,33.272 172.42,33.272 C172.924003,33.272 173.343998,33.1400013 173.68,32.876 L174.31,34.478 Z M180.06,35.126 C179.087995,35.126 178.212004,34.9160021 177.432,34.496 C176.651996,34.0759979 176.043002,33.4910038 175.605,32.741 C175.166998,31.9909962 174.948,31.1420047 174.948,30.194 C174.948,29.2459953 175.166998,28.4000037 175.605,27.656 C176.043002,26.9119963 176.651996,26.3300021 177.432,25.91 C178.212004,25.4899979 179.087995,25.28 180.06,25.28 C181.044005,25.28 181.925996,25.4899979 182.706,25.91 C183.486004,26.3300021 184.094998,26.9119963 184.533,27.656 C184.971002,28.4000037 185.19,29.2459953 185.19,30.194 C185.19,31.1420047 184.971002,31.9909962 184.533,32.741 C184.094998,33.4910038 183.486004,34.0759979 182.706,34.496 C181.925996,34.9160021 181.044005,35.126 180.06,35.126 Z M180.06,33.2 C180.888004,33.2 181.571997,32.9240028 182.112,32.372 C182.652003,31.8199972 182.922,31.0940045 182.922,30.194 C182.922,29.2939955 182.652003,28.5680028 182.112,28.016 C181.571997,27.4639972 180.888004,27.188 180.06,27.188 C179.231996,27.188 178.551003,27.4639972 178.017,28.016 C177.482997,28.5680028 177.216,29.2939955 177.216,30.194 C177.216,31.0940045 177.482997,31.8199972 178.017,32.372 C178.551003,32.9240028 179.231996,33.2 180.06,33.2 Z M192.704,25.28 C193.916006,25.28 194.887996,25.6339965 195.62,26.342 C196.352004,27.0500035 196.718,28.099993 196.718,29.492 L196.718,35 L194.468,35 L194.468,29.78 C194.468,28.9399958 194.270002,28.3070021 193.874,27.881 C193.477998,27.4549979 192.914004,27.242 192.182,27.242 C191.353996,27.242 190.700002,27.4909975 190.22,27.989 C189.739998,28.4870025 189.5,29.2039953 189.5,30.14 L189.5,35 L187.25,35 L187.25,25.388 L189.392,25.388 L189.392,26.63 C189.764002,26.1859978 190.231997,25.8500011 190.796,25.622 C191.360003,25.3939989 191.995996,25.28 192.704,25.28 Z" id="Secondarybutton" fill="#0847FF" fill-rule="nonzero"></path>
                    </g>
                    <g id="Group-13" transform="translate(0.000000, 150.520000)">
                        <rect id="Rectangle-Copy-15" stroke="#0847FF" fill="#FFFFFF" x="0.5" y="0.5" width="229" height="39" rx="19.5"></rect>
                        <path d="M47.1391111,26.16 C46.2751068,26.16 45.4404485,26.0373346 44.6351111,25.792 C43.8297738,25.5466654 43.1924468,25.2213354 42.7231111,24.816 L43.4431111,23.2 C43.9017801,23.5626685 44.4644411,23.8586655 45.1311111,24.088 C45.7977811,24.3173345 46.4671078,24.432 47.1391111,24.432 C47.9711153,24.432 48.5924424,24.298668 49.0031111,24.032 C49.4137798,23.765332 49.6191111,23.4133355 49.6191111,22.976 C49.6191111,22.6559984 49.5044456,22.392001 49.2751111,22.184 C49.0457766,21.975999 48.7551129,21.8133339 48.4031111,21.696 C48.0511094,21.5786661 47.5711142,21.4453341 46.9631111,21.296 C46.1097735,21.0933323 45.4191138,20.8906677 44.8911111,20.688 C44.3631085,20.4853323 43.9097797,20.1680022 43.5311111,19.736 C43.1524426,19.3039978 42.9631111,18.7200037 42.9631111,17.984 C42.9631111,17.3653302 43.1311094,16.8026692 43.4671111,16.296 C43.8031128,15.7893308 44.3097744,15.3866682 44.9871111,15.088 C45.6644478,14.7893318 46.4937729,14.64 47.4751111,14.64 C48.1577812,14.64 48.8297745,14.7253325 49.4911111,14.896 C50.1524478,15.0666675 50.7231111,15.3119984 51.2031111,15.632 L50.5471111,17.248 C50.056442,16.9599986 49.5444471,16.7413341 49.0111111,16.592 C48.4777751,16.4426659 47.960447,16.368 47.4591111,16.368 C46.6377737,16.368 46.0271131,16.5066653 45.6271111,16.784 C45.2271091,17.0613347 45.0271111,17.429331 45.0271111,17.888 C45.0271111,18.2080016 45.1417766,18.4693323 45.3711111,18.672 C45.6004456,18.8746677 45.8911094,19.0346661 46.2431111,19.152 C46.5951129,19.2693339 47.0751081,19.4026659 47.6831111,19.552 C48.5151153,19.744001 49.1977751,19.943999 49.7311111,20.152 C50.2644471,20.360001 50.7204426,20.6773312 51.0991111,21.104 C51.4777797,21.5306688 51.6671111,22.106663 51.6671111,22.832 C51.6671111,23.4506698 51.4991128,24.0106642 51.1631111,24.512 C50.8271094,25.0133358 50.3177812,25.4133318 49.6351111,25.712 C48.952441,26.0106682 48.1204494,26.16 47.1391111,26.16 Z M61.4822222,21.776 C61.4822222,21.9146674 61.4715557,22.1119987 61.4502222,22.368 L54.7462222,22.368 C54.8635561,22.9973365 55.1702197,23.4959982 55.6662222,23.864 C56.1622247,24.2320018 56.7782185,24.416 57.5142222,24.416 C58.4528936,24.416 59.2262192,24.1066698 59.8342222,23.488 L60.9062222,24.72 C60.5222203,25.178669 60.0368918,25.5253322 59.4502222,25.76 C58.8635526,25.9946678 58.2022259,26.112 57.4662222,26.112 C56.5275509,26.112 55.7008925,25.9253352 54.9862222,25.552 C54.271552,25.1786648 53.7195575,24.65867 53.3302222,23.992 C52.9408869,23.32533 52.7462222,22.5706709 52.7462222,21.728 C52.7462222,20.8959958 52.9355537,20.14667 53.3142222,19.48 C53.6928908,18.81333 54.2182189,18.2933352 54.8902222,17.92 C55.5622256,17.5466648 56.3195513,17.36 57.1622222,17.36 C57.9942264,17.36 58.7382189,17.5439982 59.3942222,17.912 C60.0502255,18.2800018 60.5622204,18.79733 60.9302222,19.464 C61.2982241,20.13067 61.4822222,20.901329 61.4822222,21.776 Z M57.1622222,18.96 C56.522219,18.96 55.9808911,19.1493314 55.5382222,19.528 C55.0955533,19.9066686 54.8262227,20.4106635 54.7302222,21.04 L59.5782222,21.04 C59.4928885,20.4213302 59.2315577,19.9200019 58.7942222,19.536 C58.3568867,19.1519981 57.8128921,18.96 57.1622222,18.96 Z M67.2333333,26.112 C66.3479956,26.112 65.5533369,25.9253352 64.8493333,25.552 C64.1453298,25.1786648 63.596002,24.65867 63.2013333,23.992 C62.8066647,23.32533 62.6093333,22.5706709 62.6093333,21.728 C62.6093333,20.8853291 62.8066647,20.1333366 63.2013333,19.472 C63.596002,18.8106634 64.1426632,18.2933352 64.8413333,17.92 C65.5400035,17.5466648 66.3373289,17.36 67.2333333,17.36 C68.0760042,17.36 68.8146635,17.530665 69.4493333,17.872 C70.0840032,18.213335 70.5613317,18.7039968 70.8813333,19.344 L69.3453333,20.24 C69.0999988,19.8453314 68.7933352,19.5493343 68.4253333,19.352 C68.0573315,19.1546657 67.6546689,19.056 67.2173333,19.056 C66.4706629,19.056 65.8520025,19.2986642 65.3613333,19.784 C64.8706642,20.2693358 64.6253333,20.9173293 64.6253333,21.728 C64.6253333,22.5386707 64.8679976,23.1866642 65.3533333,23.672 C65.8386691,24.1573358 66.4599962,24.4 67.2173333,24.4 C67.6546689,24.4 68.0573315,24.3013343 68.4253333,24.104 C68.7933352,23.9066657 69.0999988,23.6106686 69.3453333,23.216 L70.8813333,24.112 C70.550665,24.7520032 70.0680032,25.2453316 69.4333333,25.592 C68.7986635,25.9386684 68.0653375,26.112 67.2333333,26.112 Z M76.2324444,26.112 C75.3684401,26.112 74.5897812,25.9253352 73.8964444,25.552 C73.2031076,25.1786648 72.6617797,24.65867 72.2724444,23.992 C71.8831092,23.32533 71.6884444,22.5706709 71.6884444,21.728 C71.6884444,20.8853291 71.8831092,20.1333366 72.2724444,19.472 C72.6617797,18.8106634 73.2031076,18.2933352 73.8964444,17.92 C74.5897812,17.5466648 75.3684401,17.36 76.2324444,17.36 C77.1071155,17.36 77.8911076,17.5466648 78.5844444,17.92 C79.2777812,18.2933352 79.8191092,18.8106634 80.2084444,19.472 C80.5977797,20.1333366 80.7924444,20.8853291 80.7924444,21.728 C80.7924444,22.5706709 80.5977797,23.32533 80.2084444,23.992 C79.8191092,24.65867 79.2777812,25.1786648 78.5844444,25.552 C77.8911076,25.9253352 77.1071155,26.112 76.2324444,26.112 Z M76.2324444,24.4 C76.9684481,24.4 77.576442,24.1546691 78.0564444,23.664 C78.5364468,23.1733309 78.7764444,22.528004 78.7764444,21.728 C78.7764444,20.927996 78.5364468,20.2826691 78.0564444,19.792 C77.576442,19.3013309 76.9684481,19.056 76.2324444,19.056 C75.4964408,19.056 74.8911135,19.3013309 74.4164444,19.792 C73.9417754,20.2826691 73.7044444,20.927996 73.7044444,21.728 C73.7044444,22.528004 73.9417754,23.1733309 74.4164444,23.664 C74.8911135,24.1546691 75.4964408,24.4 76.2324444,24.4 Z M87.4715556,17.36 C88.5488943,17.36 89.4128856,17.6746635 90.0635556,18.304 C90.7142255,18.9333365 91.0395556,19.8666605 91.0395556,21.104 L91.0395556,26 L89.0395556,26 L89.0395556,21.36 C89.0395556,20.6133296 88.8635573,20.0506686 88.5115556,19.672 C88.1595538,19.2933314 87.6582255,19.104 87.0075556,19.104 C86.2715519,19.104 85.6902244,19.3253311 85.2635556,19.768 C84.8368868,20.2106689 84.6235556,20.8479958 84.6235556,21.68 L84.6235556,26 L82.6235556,26 L82.6235556,17.456 L84.5275556,17.456 L84.5275556,18.56 C84.8582239,18.1653314 85.2742197,17.8666677 85.7755556,17.664 C86.2768914,17.4613323 86.8422191,17.36 87.4715556,17.36 Z M101.942667,14.128 L101.942667,26 L100.022667,26 L100.022667,24.896 C99.6919983,25.3013354 99.2840024,25.6053323 98.7986667,25.808 C98.3133309,26.0106677 97.7773363,26.112 97.1906667,26.112 C96.3693292,26.112 95.6306699,25.9306685 94.9746667,25.568 C94.3186634,25.2053315 93.8040019,24.69067 93.4306667,24.024 C93.0573315,23.35733 92.8706667,22.5920043 92.8706667,21.728 C92.8706667,20.8639957 93.0573315,20.1013366 93.4306667,19.44 C93.8040019,18.7786634 94.3186634,18.2666685 94.9746667,17.904 C95.6306699,17.5413315 96.3693292,17.36 97.1906667,17.36 C97.7560028,17.36 98.273331,17.455999 98.7426667,17.648 C99.2120023,17.840001 99.6119983,18.128 99.9426667,18.512 L99.9426667,14.128 L101.942667,14.128 Z M97.4306667,24.4 C97.9106691,24.4 98.3426647,24.2906678 98.7266667,24.072 C99.1106686,23.8533322 99.4146655,23.5413354 99.6386667,23.136 C99.8626678,22.7306646 99.9746667,22.261336 99.9746667,21.728 C99.9746667,21.194664 99.8626678,20.7253354 99.6386667,20.32 C99.4146655,19.9146646 99.1106686,19.6026678 98.7266667,19.384 C98.3426647,19.1653322 97.9106691,19.056 97.4306667,19.056 C96.9506643,19.056 96.5186686,19.1653322 96.1346667,19.384 C95.7506647,19.6026678 95.4466678,19.9146646 95.2226667,20.32 C94.9986655,20.7253354 94.8866667,21.194664 94.8866667,21.728 C94.8866667,22.261336 94.9986655,22.7306646 95.2226667,23.136 C95.4466678,23.5413354 95.7506647,23.8533322 96.1346667,24.072 C96.5186686,24.2906678 96.9506643,24.4 97.4306667,24.4 Z M107.741778,17.36 C109.000451,17.36 109.963108,17.6613303 110.629778,18.264 C111.296448,18.8666697 111.629778,19.7759939 111.629778,20.992 L111.629778,26 L109.741778,26 L109.741778,24.96 C109.496443,25.3333352 109.147113,25.6186657 108.693778,25.816 C108.240442,26.0133343 107.693781,26.112 107.053778,26.112 C106.413775,26.112 105.85378,26.0026678 105.373778,25.784 C104.893775,25.5653322 104.523112,25.2613353 104.261778,24.872 C104.000443,24.4826647 103.869778,24.0426691 103.869778,23.552 C103.869778,22.7839962 104.155108,22.1680023 104.725778,21.704 C105.296447,21.2399977 106.195105,21.008 107.421778,21.008 L109.629778,21.008 L109.629778,20.88 C109.629778,20.2826637 109.451113,19.8240016 109.093778,19.504 C108.736443,19.1839984 108.205781,19.024 107.501778,19.024 C107.021775,19.024 106.54978,19.0986659 106.085778,19.248 C105.621775,19.3973341 105.229779,19.605332 104.909778,19.872 L104.125778,18.416 C104.57378,18.074665 105.112441,17.8133342 105.741778,17.632 C106.371114,17.4506658 107.037774,17.36 107.741778,17.36 Z M107.469778,24.656 C107.971114,24.656 108.416442,24.5413345 108.805778,24.312 C109.195113,24.0826655 109.469777,23.7546688 109.629778,23.328 L109.629778,22.336 L107.565778,22.336 C106.413772,22.336 105.837778,22.7146629 105.837778,23.472 C105.837778,23.8346685 105.981776,24.1226656 106.269778,24.336 C106.557779,24.5493344 106.957775,24.656 107.469778,24.656 Z M116.004889,18.704 C116.580892,17.8079955 117.594215,17.36 119.044889,17.36 L119.044889,19.264 C118.874221,19.2319998 118.719556,19.216 118.580889,19.216 C117.802218,19.216 117.194224,19.4426644 116.756889,19.896 C116.319553,20.3493356 116.100889,21.0026624 116.100889,21.856 L116.100889,26 L114.100889,26 L114.100889,17.456 L116.004889,17.456 L116.004889,18.704 Z M128.972,17.456 L124.972,26.688 C124.598665,27.6160046 124.145336,28.2693314 123.612,28.648 C123.078664,29.0266686 122.433337,29.216 121.676,29.216 C121.249331,29.216 120.828002,29.1466674 120.412,29.008 C119.995998,28.8693326 119.654668,28.6773346 119.388,28.432 L120.188,26.96 C120.380001,27.1413342 120.606665,27.2853328 120.868,27.392 C121.129335,27.4986672 121.393332,27.552 121.66,27.552 C122.012002,27.552 122.302666,27.4613342 122.532,27.28 C122.761334,27.0986658 122.971999,26.7946688 123.164,26.368 L123.308,26.032 L119.58,17.456 L121.66,17.456 L124.348,23.776 L127.052,17.456 L128.972,17.456 Z M139.194222,17.36 C140.026226,17.36 140.770219,17.5413315 141.426222,17.904 C142.082226,18.2666685 142.596887,18.7786634 142.970222,19.44 C143.343557,20.1013366 143.530222,20.8639957 143.530222,21.728 C143.530222,22.5920043 143.343557,23.35733 142.970222,24.024 C142.596887,24.69067 142.082226,25.2053315 141.426222,25.568 C140.770219,25.9306685 140.026226,26.112 139.194222,26.112 C138.607553,26.112 138.071558,26.0106677 137.586222,25.808 C137.100886,25.6053323 136.692891,25.3013354 136.362222,24.896 L136.362222,26 L134.458222,26 L134.458222,14.128 L136.458222,14.128 L136.458222,18.496 C136.799557,18.1226648 137.20222,17.840001 137.666222,17.648 C138.130225,17.455999 138.639553,17.36 139.194222,17.36 Z M138.970222,24.4 C139.706226,24.4 140.311553,24.1546691 140.786222,23.664 C141.260891,23.1733309 141.498222,22.528004 141.498222,21.728 C141.498222,20.927996 141.260891,20.2826691 140.786222,19.792 C140.311553,19.3013309 139.706226,19.056 138.970222,19.056 C138.49022,19.056 138.058224,19.1653322 137.674222,19.384 C137.29022,19.6026678 136.986223,19.9146646 136.762222,20.32 C136.538221,20.7253354 136.426222,21.194664 136.426222,21.728 C136.426222,22.261336 136.538221,22.7306646 136.762222,23.136 C136.986223,23.5413354 137.29022,23.8533322 137.674222,24.072 C138.058224,24.2906678 138.49022,24.4 138.970222,24.4 Z M153.617333,17.456 L153.617333,26 L151.713333,26 L151.713333,24.912 C151.393332,25.2960019 150.993336,25.591999 150.513333,25.8 C150.033331,26.008001 149.516003,26.112 148.961333,26.112 C147.819994,26.112 146.921337,25.7946698 146.265333,25.16 C145.60933,24.5253302 145.281333,23.5840062 145.281333,22.336 L145.281333,17.456 L147.281333,17.456 L147.281333,22.064 C147.281333,22.8320038 147.454665,23.4053314 147.801333,23.784 C148.148002,24.1626686 148.64133,24.352 149.281333,24.352 C149.996004,24.352 150.563998,24.1306689 150.985333,23.688 C151.406669,23.2453311 151.617333,22.6080042 151.617333,21.776 L151.617333,17.456 L153.617333,17.456 Z M161.288444,25.536 C161.053777,25.728001 160.768446,25.8719995 160.432444,25.968 C160.096443,26.0640005 159.74178,26.112 159.368444,26.112 C158.429773,26.112 157.704447,25.8666691 157.192444,25.376 C156.680442,24.8853309 156.424444,24.1706714 156.424444,23.232 L156.424444,19.12 L155.016444,19.12 L155.016444,17.52 L156.424444,17.52 L156.424444,15.568 L158.424444,15.568 L158.424444,17.52 L160.712444,17.52 L160.712444,19.12 L158.424444,19.12 L158.424444,23.184 C158.424444,23.6000021 158.525777,23.9173322 158.728444,24.136 C158.931112,24.3546678 159.224443,24.464 159.608444,24.464 C160.056447,24.464 160.429776,24.3466678 160.728444,24.112 L161.288444,25.536 Z M167.775556,25.536 C167.540888,25.728001 167.255557,25.8719995 166.919556,25.968 C166.583554,26.0640005 166.228891,26.112 165.855556,26.112 C164.916884,26.112 164.191558,25.8666691 163.679556,25.376 C163.167553,24.8853309 162.911556,24.1706714 162.911556,23.232 L162.911556,19.12 L161.503556,19.12 L161.503556,17.52 L162.911556,17.52 L162.911556,15.568 L164.911556,15.568 L164.911556,17.52 L167.199556,17.52 L167.199556,19.12 L164.911556,19.12 L164.911556,23.184 C164.911556,23.6000021 165.012888,23.9173322 165.215556,24.136 C165.418223,24.3546678 165.711554,24.464 166.095556,24.464 C166.543558,24.464 166.916887,24.3466678 167.215556,24.112 L167.775556,25.536 Z M172.886667,26.112 C172.022662,26.112 171.244003,25.9253352 170.550667,25.552 C169.85733,25.1786648 169.316002,24.65867 168.926667,23.992 C168.537331,23.32533 168.342667,22.5706709 168.342667,21.728 C168.342667,20.8853291 168.537331,20.1333366 168.926667,19.472 C169.316002,18.8106634 169.85733,18.2933352 170.550667,17.92 C171.244003,17.5466648 172.022662,17.36 172.886667,17.36 C173.761338,17.36 174.54533,17.5466648 175.238667,17.92 C175.932003,18.2933352 176.473331,18.8106634 176.862667,19.472 C177.252002,20.1333366 177.446667,20.8853291 177.446667,21.728 C177.446667,22.5706709 177.252002,23.32533 176.862667,23.992 C176.473331,24.65867 175.932003,25.1786648 175.238667,25.552 C174.54533,25.9253352 173.761338,26.112 172.886667,26.112 Z M172.886667,24.4 C173.62267,24.4 174.230664,24.1546691 174.710667,23.664 C175.190669,23.1733309 175.430667,22.528004 175.430667,21.728 C175.430667,20.927996 175.190669,20.2826691 174.710667,19.792 C174.230664,19.3013309 173.62267,19.056 172.886667,19.056 C172.150663,19.056 171.545336,19.3013309 171.070667,19.792 C170.595998,20.2826691 170.358667,20.927996 170.358667,21.728 C170.358667,22.528004 170.595998,23.1733309 171.070667,23.664 C171.545336,24.1546691 172.150663,24.4 172.886667,24.4 Z M184.125778,17.36 C185.203116,17.36 186.067108,17.6746635 186.717778,18.304 C187.368448,18.9333365 187.693778,19.8666605 187.693778,21.104 L187.693778,26 L185.693778,26 L185.693778,21.36 C185.693778,20.6133296 185.51778,20.0506686 185.165778,19.672 C184.813776,19.2933314 184.312448,19.104 183.661778,19.104 C182.925774,19.104 182.344447,19.3253311 181.917778,19.768 C181.491109,20.2106689 181.277778,20.8479958 181.277778,21.68 L181.277778,26 L179.277778,26 L179.277778,17.456 L181.181778,17.456 L181.181778,18.56 C181.512446,18.1653314 181.928442,17.8666677 182.429778,17.664 C182.931114,17.4613323 183.496441,17.36 184.125778,17.36 Z" id="Secondarybutton" fill="#0847FF" fill-rule="nonzero"></path>
                    </g>
                    <polygon id="Line-7-Copy-2" fill="#0847FF" fill-rule="nonzero" points="250.15 29.67 250.15 85.37 250.85 85.37 250.85 29.67"></polygon>
                    <polygon id="Line-7-Copy-3" fill="#0847FF" fill-rule="nonzero" points="250.65 152.67 250.65 189.37 251.35 189.37 251.35 152.67"></polygon>
                    <polygon id="Line-8-Copy-4" fill="#0847FF" fill-rule="nonzero" points="247.65 28.37 253.35 28.37 253.35 27.67 247.65 27.67"></polygon>
                    <polygon id="Line-8-Copy-5" fill="#0847FF" fill-rule="nonzero" points="247.65 151.37 253.35 151.37 253.35 150.67 247.65 150.67"></polygon>
                    <polygon id="Line-8-Copy-6" fill="#0847FF" fill-rule="nonzero" points="247.65 87.37 253.35 87.37 253.35 86.67 247.65 86.67"></polygon>
                    <polygon id="Line-8-Copy-7" fill="#0847FF" fill-rule="nonzero" points="247.65 190.37 253.35 190.37 253.35 189.67 247.65 189.67"></polygon>
                    <path d="M263.328667,57.42 C263.880669,57.42 264.374664,57.524 264.810667,57.732 C265.246669,57.940001 265.588665,58.2379981 265.836667,58.626 C266.084668,59.0140019 266.208667,59.4599975 266.208667,59.964 C266.208667,60.4920026 266.078668,60.955998 265.818667,61.356 C265.558665,61.756002 265.202669,62.0659989 264.750667,62.286 C264.298664,62.5060011 263.792669,62.616 263.232667,62.616 C262.104661,62.616 261.23467,62.2520036 260.622667,61.524 C260.010664,60.7959964 259.704667,59.7640067 259.704667,58.428 C259.704667,57.4919953 259.870665,56.6940033 260.202667,56.034 C260.534668,55.3739967 260.998664,54.8740017 261.594667,54.534 C262.19067,54.1939983 262.884663,54.024 263.676667,54.024 C264.084669,54.024 264.468665,54.0659996 264.828667,54.15 C265.188668,54.2340004 265.500665,54.3559992 265.764667,54.516 L265.308667,55.452 C264.908665,55.1879987 264.37267,55.056 263.700667,55.056 C262.828662,55.056 262.144669,55.3259973 261.648667,55.866 C261.152664,56.4060027 260.904667,57.1919948 260.904667,58.224 C260.904667,58.3520006 260.908667,58.4519996 260.916667,58.524 C261.156668,58.1639982 261.486665,57.8900009 261.906667,57.702 C262.326669,57.5139991 262.800664,57.42 263.328667,57.42 Z M263.184667,61.644 C263.736669,61.644 264.184665,61.4960015 264.528667,61.2 C264.872668,60.9039985 265.044667,60.5080025 265.044667,60.012 C265.044667,59.5159975 264.870668,59.1220015 264.522667,58.83 C264.174665,58.5379985 263.70867,58.392 263.124667,58.392 C262.748665,58.392 262.414668,58.4639993 262.122667,58.608 C261.830665,58.7520007 261.602667,58.9479988 261.438667,59.196 C261.274666,59.4440012 261.192667,59.7199985 261.192667,60.024 C261.192667,60.3200015 261.270666,60.5899988 261.426667,60.834 C261.582667,61.0780012 261.810665,61.2739993 262.110667,61.422 C262.410668,61.5700007 262.768665,61.644 263.184667,61.644 Z M270.474,62.616 C269.809997,62.616 269.220003,62.4460017 268.704,62.106 C268.187997,61.7659983 267.782001,61.2720032 267.486,60.624 C267.189999,59.9759968 267.042,59.2080044 267.042,58.32 C267.042,57.4319956 267.189999,56.6640032 267.486,56.016 C267.782001,55.3679968 268.187997,54.8740017 268.704,54.534 C269.220003,54.1939983 269.809997,54.024 270.474,54.024 C271.130003,54.024 271.715997,54.1939983 272.232,54.534 C272.748003,54.8740017 273.153999,55.3679968 273.45,56.016 C273.746001,56.6640032 273.894,57.4319956 273.894,58.32 C273.894,59.2080044 273.746001,59.9759968 273.45,60.624 C273.153999,61.2720032 272.748003,61.7659983 272.232,62.106 C271.715997,62.4460017 271.130003,62.616 270.474,62.616 Z M270.474,61.548 C271.146003,61.548 271.683998,61.2720028 272.088,60.72 C272.492002,60.1679972 272.694,59.3680052 272.694,58.32 C272.694,57.2719948 272.492002,56.4720028 272.088,55.92 C271.683998,55.3679972 271.146003,55.092 270.474,55.092 C269.793997,55.092 269.252002,55.3679972 268.848,55.92 C268.443998,56.4720028 268.242,57.2719948 268.242,58.32 C268.242,59.3680052 268.443998,60.1679972 268.848,60.72 C269.252002,61.2720028 269.793997,61.548 270.474,61.548 Z M282.100667,54.12 C283.188672,54.12 284.044664,54.3799974 284.668667,54.9 C285.29267,55.4200026 285.604667,56.1359954 285.604667,57.048 C285.604667,57.9600046 285.29267,58.6759974 284.668667,59.196 C284.044664,59.7160026 283.188672,59.976 282.100667,59.976 L280.024667,59.976 L280.024667,62.52 L278.824667,62.52 L278.824667,54.12 L282.100667,54.12 Z M282.064667,58.932 C282.82467,58.932 283.404665,58.7700016 283.804667,58.446 C284.204669,58.1219984 284.404667,57.656003 284.404667,57.048 C284.404667,56.439997 284.204669,55.9740016 283.804667,55.65 C283.404665,55.3259984 282.82467,55.164 282.064667,55.164 L280.024667,55.164 L280.024667,58.932 L282.064667,58.932 Z M292.402,62.52 L289.882,59.052 L287.398,62.52 L286.018,62.52 L289.174,58.212 L286.21,54.12 L287.578,54.12 L289.93,57.348 L292.258,54.12 L293.566,54.12 L290.602,58.176 L293.782,62.52 L292.402,62.52 Z" id="60PX" fill-opacity="0.5" fill="#44444E" fill-rule="nonzero"></path>
                    <path d="M267.200667,173.456 L265.604667,173.456 L265.604667,175.52 L264.440667,175.52 L264.440667,173.456 L259.772667,173.456 L259.772667,172.616 L264.068667,167.12 L265.364667,167.12 L261.248667,172.424 L264.476667,172.424 L264.476667,170.6 L265.604667,170.6 L265.604667,172.424 L267.200667,172.424 L267.200667,173.456 Z M271.286,175.616 C270.621997,175.616 270.032003,175.446002 269.516,175.106 C268.999997,174.765998 268.594001,174.272003 268.298,173.624 C268.001999,172.975997 267.854,172.208004 267.854,171.32 C267.854,170.431996 268.001999,169.664003 268.298,169.016 C268.594001,168.367997 268.999997,167.874002 269.516,167.534 C270.032003,167.193998 270.621997,167.024 271.286,167.024 C271.942003,167.024 272.527997,167.193998 273.044,167.534 C273.560003,167.874002 273.965999,168.367997 274.262,169.016 C274.558001,169.664003 274.706,170.431996 274.706,171.32 C274.706,172.208004 274.558001,172.975997 274.262,173.624 C273.965999,174.272003 273.560003,174.765998 273.044,175.106 C272.527997,175.446002 271.942003,175.616 271.286,175.616 Z M271.286,174.548 C271.958003,174.548 272.495998,174.272003 272.9,173.72 C273.304002,173.167997 273.506,172.368005 273.506,171.32 C273.506,170.271995 273.304002,169.472003 272.9,168.92 C272.495998,168.367997 271.958003,168.092 271.286,168.092 C270.605997,168.092 270.064002,168.367997 269.66,168.92 C269.255998,169.472003 269.054,170.271995 269.054,171.32 C269.054,172.368005 269.255998,173.167997 269.66,173.72 C270.064002,174.272003 270.605997,174.548 271.286,174.548 Z M282.912667,167.12 C284.000672,167.12 284.856664,167.379997 285.480667,167.9 C286.10467,168.420003 286.416667,169.135995 286.416667,170.048 C286.416667,170.960005 286.10467,171.675997 285.480667,172.196 C284.856664,172.716003 284.000672,172.976 282.912667,172.976 L280.836667,172.976 L280.836667,175.52 L279.636667,175.52 L279.636667,167.12 L282.912667,167.12 Z M282.876667,171.932 C283.63667,171.932 284.216665,171.770002 284.616667,171.446 C285.016669,171.121998 285.216667,170.656003 285.216667,170.048 C285.216667,169.439997 285.016669,168.974002 284.616667,168.65 C284.216665,168.325998 283.63667,168.164 282.876667,168.164 L280.836667,168.164 L280.836667,171.932 L282.876667,171.932 Z M293.214,175.52 L290.694,172.052 L288.21,175.52 L286.83,175.52 L289.986,171.212 L287.022,167.12 L288.39,167.12 L290.742,170.348 L293.07,167.12 L294.378,167.12 L291.414,171.176 L294.594,175.52 L293.214,175.52 Z" id="40PX" fill-opacity="0.5" fill="#44444E" fill-rule="nonzero"></path>
                    <path d="M67.358,0.12 L68.918,0.12 L68.918,7.2 L73.31,7.2 L73.31,8.52 L67.358,8.52 L67.358,0.12 Z M79.9873333,6.576 L75.7873333,6.576 L74.9593333,8.52 L73.3513333,8.52 L77.1313333,0.12 L78.6673333,0.12 L82.4593333,8.52 L80.8273333,8.52 L79.9873333,6.576 Z M79.4713333,5.352 L77.8873333,1.68 L76.3153333,5.352 L79.4713333,5.352 Z M88.9566667,8.52 L87.2406667,6.06 C87.1686663,6.06800004 87.0606674,6.072 86.9166667,6.072 L85.0206667,6.072 L85.0206667,8.52 L83.4606667,8.52 L83.4606667,0.12 L86.9166667,0.12 C87.6446703,0.12 88.278664,0.2399988 88.8186667,0.48 C89.3586694,0.7200012 89.7726652,1.06399776 90.0606667,1.512 C90.3486681,1.96000224 90.4926667,2.49199692 90.4926667,3.108 C90.4926667,3.74000316 90.3386682,4.28399772 90.0306667,4.74 C89.7226651,5.19600228 89.2806695,5.53599888 88.7046667,5.76 L90.6366667,8.52 L88.9566667,8.52 Z M88.9206667,3.108 C88.9206667,2.57199732 88.7446684,2.16000144 88.3926667,1.872 C88.0406649,1.58399856 87.5246701,1.44 86.8446667,1.44 L85.0206667,1.44 L85.0206667,4.788 L86.8446667,4.788 C87.5246701,4.788 88.0406649,4.64200146 88.3926667,4.35 C88.7446684,4.05799854 88.9206667,3.64400268 88.9206667,3.108 Z M97.902,4.224 L99.378,4.224 L99.378,7.572 C98.9459978,7.91600172 98.4420029,8.17999908 97.866,8.364 C97.2899971,8.54800092 96.698003,8.64 96.09,8.64 C95.2339957,8.64 94.4620034,8.45400186 93.774,8.082 C93.0859966,7.70999814 92.546002,7.19600328 92.154,6.54 C91.761998,5.88399672 91.566,5.14400412 91.566,4.32 C91.566,3.49599588 91.761998,2.75600328 92.154,2.1 C92.546002,1.44399672 93.0879965,0.93000186 93.78,0.558 C94.4720035,0.18599814 95.2499957,-4.54747351e-13 96.114,-4.54747351e-13 C96.8180035,-4.54747351e-13 97.4579971,0.11599884 98.034,0.348 C98.6100029,0.58000116 99.093998,0.91999776 99.486,1.368 L98.502,2.328 C97.8619968,1.6879968 97.0900045,1.368 96.186,1.368 C95.593997,1.368 95.0680023,1.49199876 94.608,1.74 C94.1479977,1.98800124 93.7880013,2.33599776 93.528,2.784 C93.2679987,3.23200224 93.138,3.74399712 93.138,4.32 C93.138,4.8800028 93.2679987,5.38399776 93.528,5.832 C93.7880013,6.28000224 94.1479977,6.63199872 94.608,6.888 C95.0680023,7.14400128 95.5899971,7.272 96.174,7.272 C96.8300033,7.272 97.4059975,7.12800144 97.902,6.84 L97.902,4.224 Z M107.663333,7.212 L107.663333,8.52 L101.363333,8.52 L101.363333,0.12 L107.495333,0.12 L107.495333,1.428 L102.923333,1.428 L102.923333,3.612 L106.979333,3.612 L106.979333,4.896 L102.923333,4.896 L102.923333,7.212 L107.663333,7.212 Z M118.534,4.152 C118.998002,4.30400076 119.365999,4.55799822 119.638,4.914 C119.910001,5.27000178 120.046,5.71199736 120.046,6.24 C120.046,6.96800364 119.766003,7.52999802 119.206,7.926 C118.645997,8.32200198 117.830005,8.52 116.758,8.52 L112.582,8.52 L112.582,0.12 L116.518,0.12 C117.510005,0.12 118.273997,0.31399806 118.81,0.702 C119.346003,1.09000194 119.614,1.6239966 119.614,2.304 C119.614,2.72000208 119.518001,3.0879984 119.326,3.408 C119.133999,3.7280016 118.870002,3.97599912 118.534,4.152 Z M114.142,1.344 L114.142,3.66 L116.35,3.66 C116.894003,3.66 117.311999,3.56200098 117.604,3.366 C117.896001,3.16999902 118.042,2.88400188 118.042,2.508 C118.042,2.12399808 117.896001,1.83400098 117.604,1.638 C117.311999,1.44199902 116.894003,1.344 116.35,1.344 L114.142,1.344 Z M116.662,7.296 C117.870006,7.296 118.474,6.89200404 118.474,6.084 C118.474,5.27599596 117.870006,4.872 116.662,4.872 L114.142,4.872 L114.142,7.296 L116.662,7.296 Z M125.259333,8.64 C124.099328,8.64 123.195337,8.31400326 122.547333,7.662 C121.89933,7.00999674 121.575333,6.07600608 121.575333,4.86 L121.575333,0.12 L123.135333,0.12 L123.135333,4.8 C123.135333,6.44800824 123.847326,7.272 125.271333,7.272 C126.68734,7.272 127.395333,6.44800824 127.395333,4.8 L127.395333,0.12 L128.931333,0.12 L128.931333,4.86 C128.931333,6.07600608 128.609337,7.00999674 127.965333,7.662 C127.32133,8.31400326 126.419339,8.64 125.259333,8.64 Z M132.596667,1.44 L129.812667,1.44 L129.812667,0.12 L136.940667,0.12 L136.940667,1.44 L134.156667,1.44 L134.156667,8.52 L132.596667,8.52 L132.596667,1.44 Z M139.874,1.44 L137.09,1.44 L137.09,0.12 L144.218,0.12 L144.218,1.44 L141.434,1.44 L141.434,8.52 L139.874,8.52 L139.874,1.44 Z M149.131333,8.64 C148.275329,8.64 147.503337,8.45400186 146.815333,8.082 C146.12733,7.70999814 145.587335,7.1940033 145.195333,6.534 C144.803331,5.8739967 144.607333,5.13600408 144.607333,4.32 C144.607333,3.50399592 144.803331,2.7660033 145.195333,2.106 C145.587335,1.4459967 146.12733,0.93000186 146.815333,0.558 C147.503337,0.18599814 148.275329,-4.54747351e-13 149.131333,-4.54747351e-13 C149.987338,-4.54747351e-13 150.75933,0.18599814 151.447333,0.558 C152.135337,0.93000186 152.675331,1.44399672 153.067333,2.1 C153.459335,2.75600328 153.655333,3.49599588 153.655333,4.32 C153.655333,5.14400412 153.459335,5.88399672 153.067333,6.54 C152.675331,7.19600328 152.135337,7.70999814 151.447333,8.082 C150.75933,8.45400186 149.987338,8.64 149.131333,8.64 Z M149.131333,7.272 C149.691336,7.272 150.195331,7.14600126 150.643333,6.894 C151.091336,6.64199874 151.443332,6.29000226 151.699333,5.838 C151.955335,5.38599774 152.083333,4.8800028 152.083333,4.32 C152.083333,3.7599972 151.955335,3.25400226 151.699333,2.802 C151.443332,2.34999774 151.091336,1.99800126 150.643333,1.746 C150.195331,1.49399874 149.691336,1.368 149.131333,1.368 C148.571331,1.368 148.067336,1.49399874 147.619333,1.746 C147.171331,1.99800126 146.819335,2.34999774 146.563333,2.802 C146.307332,3.25400226 146.179333,3.7599972 146.179333,4.32 C146.179333,4.8800028 146.307332,5.38599774 146.563333,5.838 C146.819335,6.29000226 147.171331,6.64199874 147.619333,6.894 C148.067336,7.14600126 148.571331,7.272 149.131333,7.272 Z M162.708667,0.12 L162.708667,8.52 L161.424667,8.52 L156.792667,2.832 L156.792667,8.52 L155.244667,8.52 L155.244667,0.12 L156.528667,0.12 L161.160667,5.808 L161.160667,0.12 L162.708667,0.12 Z" id="LARGEBUTTON" fill-opacity="0.5" fill="#44444E" fill-rule="nonzero"></path>
                    <path d="M69.932,131.64 C69.2839968,131.64 68.658003,131.548001 68.054,131.364 C67.449997,131.179999 66.9720018,130.936002 66.62,130.632 L67.16,129.42 C67.5040017,129.692001 67.9259975,129.913999 68.426,130.086 C68.9260025,130.258001 69.4279975,130.344 69.932,130.344 C70.5560031,130.344 71.0219985,130.244001 71.33,130.044 C71.6380015,129.843999 71.792,129.580002 71.792,129.252 C71.792,129.011999 71.7060009,128.814001 71.534,128.658 C71.3619991,128.501999 71.1440013,128.38 70.88,128.292 C70.6159987,128.204 70.2560023,128.104001 69.8,127.992 C69.1599968,127.839999 68.642002,127.688001 68.246,127.536 C67.849998,127.383999 67.5100014,127.146002 67.226,126.822 C66.9419986,126.497998 66.8,126.060003 66.8,125.508 C66.8,125.043998 66.9259987,124.622002 67.178,124.242 C67.4300013,123.861998 67.8099975,123.560001 68.318,123.336 C68.8260025,123.111999 69.4479963,123 70.184,123 C70.6960026,123 71.1999975,123.063999 71.696,123.192 C72.1920025,123.320001 72.62,123.503999 72.98,123.744 L72.488,124.956 C72.12,124.739999 71.736002,124.576001 71.336,124.464 C70.935998,124.351999 70.5480019,124.296 70.172,124.296 C69.5559969,124.296 69.0980015,124.399999 68.798,124.608 C68.4979985,124.816001 68.348,125.091998 68.348,125.436 C68.348,125.676001 68.4339991,125.871999 68.606,126.024 C68.7780009,126.176001 68.9959987,126.296 69.26,126.384 C69.5240013,126.472 69.8839977,126.571999 70.34,126.684 C70.9640031,126.828001 71.475998,126.977999 71.876,127.134 C72.276002,127.290001 72.6179986,127.527998 72.902,127.848 C73.1860014,128.168002 73.328,128.599997 73.328,129.144 C73.328,129.608002 73.2020013,130.027998 72.95,130.404 C72.6979987,130.780002 72.3160026,131.079999 71.804,131.304 C71.2919974,131.528001 70.6680037,131.64 69.932,131.64 Z M82.5253333,131.52 L82.5133333,125.952 L79.7533333,130.56 L79.0573333,130.56 L76.2973333,126.024 L76.2973333,131.52 L74.8093333,131.52 L74.8093333,123.12 L76.0933333,123.12 L79.4293333,128.688 L82.7053333,123.12 L83.9893333,123.12 L84.0013333,131.52 L82.5253333,131.52 Z M91.6506667,129.576 L87.4506667,129.576 L86.6226667,131.52 L85.0146667,131.52 L88.7946667,123.12 L90.3306667,123.12 L94.1226667,131.52 L92.4906667,131.52 L91.6506667,129.576 Z M91.1346667,128.352 L89.5506667,124.68 L87.9786667,128.352 L91.1346667,128.352 Z M95.124,123.12 L96.684,123.12 L96.684,130.2 L101.076,130.2 L101.076,131.52 L95.124,131.52 L95.124,123.12 Z M102.245333,123.12 L103.805333,123.12 L103.805333,130.2 L108.197333,130.2 L108.197333,131.52 L102.245333,131.52 L102.245333,123.12 Z M118.564,127.152 C119.028002,127.304001 119.395999,127.557998 119.668,127.914 C119.940001,128.270002 120.076,128.711997 120.076,129.24 C120.076,129.968004 119.796003,130.529998 119.236,130.926 C118.675997,131.322002 117.860005,131.52 116.788,131.52 L112.612,131.52 L112.612,123.12 L116.548,123.12 C117.540005,123.12 118.303997,123.313998 118.84,123.702 C119.376003,124.090002 119.644,124.623997 119.644,125.304 C119.644,125.720002 119.548001,126.087998 119.356,126.408 C119.163999,126.728002 118.900002,126.975999 118.564,127.152 Z M114.172,124.344 L114.172,126.66 L116.38,126.66 C116.924003,126.66 117.341999,126.562001 117.634,126.366 C117.926001,126.169999 118.072,125.884002 118.072,125.508 C118.072,125.123998 117.926001,124.834001 117.634,124.638 C117.341999,124.441999 116.924003,124.344 116.38,124.344 L114.172,124.344 Z M116.692,130.296 C117.900006,130.296 118.504,129.892004 118.504,129.084 C118.504,128.275996 117.900006,127.872 116.692,127.872 L114.172,127.872 L114.172,130.296 L116.692,130.296 Z M125.289333,131.64 C124.129328,131.64 123.225337,131.314003 122.577333,130.662 C121.92933,130.009997 121.605333,129.076006 121.605333,127.86 L121.605333,123.12 L123.165333,123.12 L123.165333,127.8 C123.165333,129.448008 123.877326,130.272 125.301333,130.272 C126.71734,130.272 127.425333,129.448008 127.425333,127.8 L127.425333,123.12 L128.961333,123.12 L128.961333,127.86 C128.961333,129.076006 128.639337,130.009997 127.995333,130.662 C127.35133,131.314003 126.449339,131.64 125.289333,131.64 Z M132.626667,124.44 L129.842667,124.44 L129.842667,123.12 L136.970667,123.12 L136.970667,124.44 L134.186667,124.44 L134.186667,131.52 L132.626667,131.52 L132.626667,124.44 Z M139.904,124.44 L137.12,124.44 L137.12,123.12 L144.248,123.12 L144.248,124.44 L141.464,124.44 L141.464,131.52 L139.904,131.52 L139.904,124.44 Z M149.161333,131.64 C148.305329,131.64 147.533337,131.454002 146.845333,131.082 C146.15733,130.709998 145.617335,130.194003 145.225333,129.534 C144.833331,128.873997 144.637333,128.136004 144.637333,127.32 C144.637333,126.503996 144.833331,125.766003 145.225333,125.106 C145.617335,124.445997 146.15733,123.930002 146.845333,123.558 C147.533337,123.185998 148.305329,123 149.161333,123 C150.017338,123 150.78933,123.185998 151.477333,123.558 C152.165337,123.930002 152.705331,124.443997 153.097333,125.1 C153.489335,125.756003 153.685333,126.495996 153.685333,127.32 C153.685333,128.144004 153.489335,128.883997 153.097333,129.54 C152.705331,130.196003 152.165337,130.709998 151.477333,131.082 C150.78933,131.454002 150.017338,131.64 149.161333,131.64 Z M149.161333,130.272 C149.721336,130.272 150.225331,130.146001 150.673333,129.894 C151.121336,129.641999 151.473332,129.290002 151.729333,128.838 C151.985335,128.385998 152.113333,127.880003 152.113333,127.32 C152.113333,126.759997 151.985335,126.254002 151.729333,125.802 C151.473332,125.349998 151.121336,124.998001 150.673333,124.746 C150.225331,124.493999 149.721336,124.368 149.161333,124.368 C148.601331,124.368 148.097336,124.493999 147.649333,124.746 C147.201331,124.998001 146.849335,125.349998 146.593333,125.802 C146.337332,126.254002 146.209333,126.759997 146.209333,127.32 C146.209333,127.880003 146.337332,128.385998 146.593333,128.838 C146.849335,129.290002 147.201331,129.641999 147.649333,129.894 C148.097336,130.146001 148.601331,130.272 149.161333,130.272 Z M162.738667,123.12 L162.738667,131.52 L161.454667,131.52 L156.822667,125.832 L156.822667,131.52 L155.274667,131.52 L155.274667,123.12 L156.558667,123.12 L161.190667,128.808 L161.190667,123.12 L162.738667,123.12 Z" id="SMALLBUTTON" fill-opacity="0.5" fill="#44444E" fill-rule="nonzero"></path>
                </g>
            </g>
        </g>
    </g>
</svg>