<?xml version="1.0" encoding="UTF-8"?>
<svg width="196px" height="213px" viewBox="0 0 196 213" version="1.1" xmlns="http://www.w3.org/2000/svg" xmlns:xlink="http://www.w3.org/1999/xlink">
    <!-- Generator: Sketch 55.2 (78181) - https://sketchapp.com -->
    <title>Group 18</title>
    <desc>Created with Sketch.</desc>
    <g id="the-brand" stroke="none" stroke-width="1" fill="none" fill-rule="evenodd">
        <g id="OnBrand-brand-guidelines-Copy" transform="translate(-993.000000, -5352.000000)">
            <g id="Group-18" transform="translate(993.000000, 5352.000000)">
                <path d="M68.0586667,23.92 L65.2746667,23.92 L65.2746667,22.6 L72.4026667,22.6 L72.4026667,23.92 L69.6186667,23.92 L69.6186667,31 L68.0586667,31 L68.0586667,23.92 Z M79.812,29.692 L79.812,31 L73.512,31 L73.512,22.6 L79.644,22.6 L79.644,23.908 L75.072,23.908 L75.072,26.092 L79.128,26.092 L79.128,27.376 L75.072,27.376 L75.072,29.692 L79.812,29.692 Z M86.6813333,31 L84.4013333,27.808 L82.1453333,31 L80.3693333,31 L83.4893333,26.716 L80.5373333,22.6 L82.3013333,22.6 L84.4493333,25.588 L86.5733333,22.6 L88.2653333,22.6 L85.3253333,26.656 L88.4813333,31 L86.6813333,31 Z M90.9826667,23.92 L88.1986667,23.92 L88.1986667,22.6 L95.3266667,22.6 L95.3266667,23.92 L92.5426667,23.92 L92.5426667,31 L90.9826667,31 L90.9826667,23.92 Z M103.569333,31.12 C102.721329,31.12 101.955337,30.9340019 101.271333,30.562 C100.58733,30.1899981 100.051335,29.6760033 99.6633333,29.02 C99.2753314,28.3639967 99.0813333,27.6240041 99.0813333,26.8 C99.0813333,25.9759959 99.2773314,25.2360033 99.6693333,24.58 C100.061335,23.9239967 100.59933,23.4100019 101.283333,23.038 C101.967337,22.6659981 102.733329,22.48 103.581333,22.48 C104.269337,22.48 104.89733,22.5999988 105.465333,22.84 C106.033336,23.0800012 106.513331,23.4279977 106.905333,23.884 L105.897333,24.832 C105.28933,24.1759967 104.541338,23.848 103.653333,23.848 C103.07733,23.848 102.561336,23.9739987 102.105333,24.226 C101.649331,24.4780013 101.293335,24.8279978 101.037333,25.276 C100.781332,25.7240022 100.653333,26.2319972 100.653333,26.8 C100.653333,27.3680028 100.781332,27.8759978 101.037333,28.324 C101.293335,28.7720022 101.649331,29.1219987 102.105333,29.374 C102.561336,29.6260013 103.07733,29.752 103.653333,29.752 C104.541338,29.752 105.28933,29.4200033 105.897333,28.756 L106.905333,29.716 C106.513331,30.1720023 106.031336,30.5199988 105.459333,30.76 C104.88733,31.0000012 104.257337,31.12 103.569333,31.12 Z M109.946667,23.92 L107.162667,23.92 L107.162667,22.6 L114.290667,22.6 L114.290667,23.92 L111.506667,23.92 L111.506667,31 L109.946667,31 L109.946667,23.92 Z M120.428,29.056 L116.228,29.056 L115.4,31 L113.792,31 L117.572,22.6 L119.108,22.6 L122.9,31 L121.268,31 L120.428,29.056 Z M119.912,27.832 L118.328,24.16 L116.756,27.832 L119.912,27.832 Z" id="TEXTCTA" fill-opacity="0.5" fill="#44444E" fill-rule="nonzero"></path>
                <path d="M24.104,56.776 L20.072,56.776 L20.072,54.4 L31.052,54.4 L31.052,56.776 L27.02,56.776 L27.02,67 L24.104,67 L24.104,56.776 Z M38.206,57.172 C39.406006,57.172 40.3749963,57.5319964 41.113,58.252 C41.8510037,58.9720036 42.22,60.0399929 42.22,61.456 L42.22,67 L39.412,67 L39.412,61.888 C39.412,61.1199962 39.2440017,60.5470019 38.908,60.169 C38.5719983,59.7909981 38.0860032,59.602 37.45,59.602 C36.7419965,59.602 36.1780021,59.8209978 35.758,60.259 C35.3379979,60.6970022 35.128,61.3479957 35.128,62.212 L35.128,67 L32.32,67 L32.32,53.644 L35.128,53.644 L35.128,58.324 C35.5000019,57.9519981 35.9499974,57.667001 36.478,57.469 C37.0060026,57.270999 37.5819969,57.172 38.206,57.172 Z M44.658,57.316 L47.466,57.316 L47.466,67 L44.658,67 L44.658,57.316 Z M46.062,55.966 C45.5459974,55.966 45.1260016,55.8160015 44.802,55.516 C44.4779984,55.2159985 44.316,54.8440022 44.316,54.4 C44.316,53.9559978 44.4779984,53.5840015 44.802,53.284 C45.1260016,52.9839985 45.5459974,52.834 46.062,52.834 C46.5780026,52.834 46.9979984,52.9779986 47.322,53.266 C47.6460016,53.5540014 47.808,53.9139978 47.808,54.346 C47.808,54.8140023 47.6460016,55.2009985 47.322,55.507 C46.9979984,55.8130015 46.5780026,55.966 46.062,55.966 Z M53.234,67.144 C52.429996,67.144 51.6440038,67.045001 50.876,66.847 C50.1079962,66.648999 49.4960023,66.4000015 49.04,66.1 L49.976,64.084 C50.4080022,64.3600014 50.9299969,64.5849991 51.542,64.759 C52.1540031,64.9330009 52.7539971,65.02 53.342,65.02 C54.5300059,65.02 55.124,64.7260029 55.124,64.138 C55.124,63.8619986 54.9620016,63.6640006 54.638,63.544 C54.3139984,63.4239994 53.8160034,63.3220004 53.144,63.238 C52.351996,63.1179994 51.6980026,62.9800008 51.182,62.824 C50.6659974,62.6679992 50.2190019,62.392002 49.841,61.996 C49.4629981,61.599998 49.274,61.0360037 49.274,60.304 C49.274,59.6919969 49.4509982,59.1490024 49.805,58.675 C50.1590018,58.2009976 50.6749966,57.8320013 51.353,57.568 C52.0310034,57.3039987 52.8319954,57.172 53.756,57.172 C54.4400034,57.172 55.1209966,57.2469993 55.799,57.397 C56.4770034,57.5470007 57.0379978,57.7539987 57.482,58.018 L56.546,60.016 C55.6939957,59.5359976 54.764005,59.296 53.756,59.296 C53.155997,59.296 52.7060015,59.3799992 52.406,59.548 C52.1059985,59.7160008 51.956,59.9319987 51.956,60.196 C51.956,60.4960015 52.1179984,60.7059994 52.442,60.826 C52.7660016,60.9460006 53.2819965,61.0599995 53.99,61.168 C54.782004,61.3000007 55.4299975,61.4409992 55.934,61.591 C56.4380025,61.7410007 56.8759981,62.013998 57.248,62.41 C57.6200019,62.806002 57.806,63.3579965 57.806,64.066 C57.806,64.666003 57.6260018,65.1999977 57.266,65.668 C56.9059982,66.1360023 56.3810035,66.4989987 55.691,66.757 C55.0009966,67.0150013 54.1820047,67.144 53.234,67.144 Z M64.428,57.316 L67.236,57.316 L67.236,67 L64.428,67 L64.428,57.316 Z M65.832,55.966 C65.3159974,55.966 64.8960016,55.8160015 64.572,55.516 C64.2479984,55.2159985 64.086,54.8440022 64.086,54.4 C64.086,53.9559978 64.2479984,53.5840015 64.572,53.284 C64.8960016,52.9839985 65.3159974,52.834 65.832,52.834 C66.3480026,52.834 66.7679984,52.9779986 67.092,53.266 C67.4160016,53.5540014 67.578,53.9139978 67.578,54.346 C67.578,54.8140023 67.4160016,55.2009985 67.092,55.507 C66.7679984,55.8130015 66.3480026,55.966 65.832,55.966 Z M73.004,67.144 C72.199996,67.144 71.4140038,67.045001 70.646,66.847 C69.8779962,66.648999 69.2660023,66.4000015 68.81,66.1 L69.746,64.084 C70.1780022,64.3600014 70.6999969,64.5849991 71.312,64.759 C71.9240031,64.9330009 72.5239971,65.02 73.112,65.02 C74.3000059,65.02 74.894,64.7260029 74.894,64.138 C74.894,63.8619986 74.7320016,63.6640006 74.408,63.544 C74.0839984,63.4239994 73.5860034,63.3220004 72.914,63.238 C72.121996,63.1179994 71.4680026,62.9800008 70.952,62.824 C70.4359974,62.6679992 69.9890019,62.392002 69.611,61.996 C69.2329981,61.599998 69.044,61.0360037 69.044,60.304 C69.044,59.6919969 69.2209982,59.1490024 69.575,58.675 C69.9290018,58.2009976 70.4449966,57.8320013 71.123,57.568 C71.8010034,57.3039987 72.6019954,57.172 73.526,57.172 C74.2100034,57.172 74.8909966,57.2469993 75.569,57.397 C76.2470034,57.5470007 76.8079978,57.7539987 77.252,58.018 L76.316,60.016 C75.4639957,59.5359976 74.534005,59.296 73.526,59.296 C72.925997,59.296 72.4760015,59.3799992 72.176,59.548 C71.8759985,59.7160008 71.726,59.9319987 71.726,60.196 C71.726,60.4960015 71.8879984,60.7059994 72.212,60.826 C72.5360016,60.9460006 73.0519965,61.0599995 73.76,61.168 C74.552004,61.3000007 75.1999975,61.4409992 75.704,61.591 C76.2080025,61.7410007 76.6459981,62.013998 77.018,62.41 C77.3900019,62.806002 77.576,63.3579965 77.576,64.066 C77.576,64.666003 77.3960018,65.1999977 77.036,65.668 C76.6759982,66.1360023 76.1510035,66.4989987 75.461,66.757 C74.7709966,67.0150013 73.9520047,67.144 73.004,67.144 Z M88.104,57.172 C89.6040075,57.172 90.755996,57.5289964 91.56,58.243 C92.364004,58.9570036 92.766,60.0339928 92.766,61.474 L92.766,67 L90.138,67 L90.138,65.794 C89.6099974,66.6940045 88.6260072,67.144 87.186,67.144 C86.4419963,67.144 85.7970027,67.0180013 85.251,66.766 C84.7049973,66.5139987 84.2880014,66.1660022 84,65.722 C83.7119986,65.2779978 83.568,64.7740028 83.568,64.21 C83.568,63.3099955 83.9069966,62.6020026 84.585,62.086 C85.2630034,61.5699974 86.3099929,61.312 87.726,61.312 L89.958,61.312 C89.958,60.6999969 89.7720019,60.2290017 89.4,59.899 C89.0279981,59.5689984 88.4700037,59.404 87.726,59.404 C87.2099974,59.404 86.7030025,59.4849992 86.205,59.647 C85.7069975,59.8090008 85.2840017,60.0279986 84.936,60.304 L83.928,58.342 C84.4560026,57.9699981 85.0889963,57.682001 85.827,57.478 C86.5650037,57.273999 87.3239961,57.172 88.104,57.172 Z M87.888,65.254 C88.3680024,65.254 88.7939981,65.1430011 89.166,64.921 C89.5380019,64.6989989 89.8019992,64.3720022 89.958,63.94 L89.958,62.95 L88.032,62.95 C86.8799942,62.95 86.304,63.3279962 86.304,64.084 C86.304,64.4440018 86.4449986,64.728999 86.727,64.939 C87.0090014,65.149001 87.3959975,65.254 87.888,65.254 Z M106.444,66.532 C106.167999,66.736001 105.829002,66.8889995 105.427,66.991 C105.024998,67.0930005 104.602002,67.144 104.158,67.144 C103.005994,67.144 102.115003,66.8500029 101.485,66.262 C100.854997,65.674 100.54,64.8100057 100.54,63.67 L100.54,59.692 L99.046,59.692 L99.046,57.532 L100.54,57.532 L100.54,55.174 L103.348,55.174 L103.348,57.532 L105.76,57.532 L105.76,59.692 L103.348,59.692 L103.348,63.634 C103.348,64.042002 103.452999,64.3569989 103.663,64.579 C103.873001,64.8010011 104.169998,64.912 104.554,64.912 C104.998002,64.912 105.375998,64.7920012 105.688,64.552 L106.444,66.532 Z M117.108,62.194 C117.108,62.2300002 117.09,62.4819977 117.054,62.95 L109.728,62.95 C109.860001,63.550003 110.171998,64.0239983 110.664,64.372 C111.156002,64.7200017 111.767996,64.894 112.5,64.894 C113.004003,64.894 113.450998,64.8190008 113.841,64.669 C114.231002,64.5189993 114.593998,64.2820016 114.93,63.958 L116.424,65.578 C115.511995,66.6220052 114.180009,67.144 112.428,67.144 C111.335995,67.144 110.370004,66.9310021 109.53,66.505 C108.689996,66.0789979 108.042002,65.4880038 107.586,64.732 C107.129998,63.9759962 106.902,63.1180048 106.902,62.158 C106.902,61.2099953 107.126998,60.3550038 107.577,59.593 C108.027002,58.8309962 108.644996,58.2370021 109.431,57.811 C110.217004,57.3849979 111.095995,57.172 112.068,57.172 C113.016005,57.172 113.873996,57.375998 114.642,57.784 C115.410004,58.192002 116.012998,58.7769962 116.451,59.539 C116.889002,60.3010038 117.108,61.185995 117.108,62.194 Z M112.086,59.296 C111.449997,59.296 110.916002,59.4759982 110.484,59.836 C110.051998,60.1960018 109.788,60.6879969 109.692,61.312 L114.462,61.312 C114.366,60.6999969 114.102002,60.2110018 113.67,59.845 C113.237998,59.4789982 112.710003,59.296 112.086,59.296 Z M124.766,67 L122.642,64.03 L120.446,67 L117.386,67 L121.112,62.122 L117.512,57.316 L120.662,57.316 L122.714,60.142 L124.82,57.316 L127.808,57.316 L124.208,62.05 L127.952,67 L124.766,67 Z M135.466,66.532 C135.189999,66.736001 134.851002,66.8889995 134.449,66.991 C134.046998,67.0930005 133.624002,67.144 133.18,67.144 C132.027994,67.144 131.137003,66.8500029 130.507,66.262 C129.876997,65.674 129.562,64.8100057 129.562,63.67 L129.562,59.692 L128.068,59.692 L128.068,57.532 L129.562,57.532 L129.562,55.174 L132.37,55.174 L132.37,57.532 L134.782,57.532 L134.782,59.692 L132.37,59.692 L132.37,63.634 C132.37,64.042002 132.474999,64.3569989 132.685,64.579 C132.895001,64.8010011 133.191998,64.912 133.576,64.912 C134.020002,64.912 134.397998,64.7920012 134.71,64.552 L135.466,66.532 Z M141.944,53.644 L144.752,53.644 L144.752,67 L141.944,67 L141.944,53.644 Z M147.262,57.316 L150.07,57.316 L150.07,67 L147.262,67 L147.262,57.316 Z M148.666,55.966 C148.149997,55.966 147.730002,55.8160015 147.406,55.516 C147.081998,55.2159985 146.92,54.8440022 146.92,54.4 C146.92,53.9559978 147.081998,53.5840015 147.406,53.284 C147.730002,52.9839985 148.149997,52.834 148.666,52.834 C149.182003,52.834 149.601998,52.9779986 149.926,53.266 C150.250002,53.5540014 150.412,53.9139978 150.412,54.346 C150.412,54.8140023 150.250002,55.2009985 149.926,55.507 C149.601998,55.8130015 149.182003,55.966 148.666,55.966 Z M158.466,57.172 C159.666006,57.172 160.634996,57.5319964 161.373,58.252 C162.111004,58.9720036 162.48,60.0399929 162.48,61.456 L162.48,67 L159.672,67 L159.672,61.888 C159.672,61.1199962 159.504002,60.5470019 159.168,60.169 C158.831998,59.7909981 158.346003,59.602 157.71,59.602 C157.001996,59.602 156.438002,59.8209978 156.018,60.259 C155.597998,60.6970022 155.388,61.3479957 155.388,62.212 L155.388,67 L152.58,67 L152.58,57.316 L155.262,57.316 L155.262,58.45 C155.634002,58.041998 156.095997,57.7270011 156.648,57.505 C157.200003,57.2829989 157.805997,57.172 158.466,57.172 Z M169.076,63.202 L167.726,64.534 L167.726,67 L164.918,67 L164.918,53.644 L167.726,53.644 L167.726,61.204 L171.83,57.316 L175.178,57.316 L171.146,61.42 L175.538,67 L172.136,67 L169.076,63.202 Z" id="Thisisatextlink" fill="#0847FF" fill-rule="nonzero"></path>
                <rect id="Rectangle-Copy-16" fill="#0847FF" x="0" y="122" width="196" height="91"></rect>
                <path d="M68.0586667,145.92 L65.2746667,145.92 L65.2746667,144.6 L72.4026667,144.6 L72.4026667,145.92 L69.6186667,145.92 L69.6186667,153 L68.0586667,153 L68.0586667,145.92 Z M79.812,151.692 L79.812,153 L73.512,153 L73.512,144.6 L79.644,144.6 L79.644,145.908 L75.072,145.908 L75.072,148.092 L79.128,148.092 L79.128,149.376 L75.072,149.376 L75.072,151.692 L79.812,151.692 Z M86.6813333,153 L84.4013333,149.808 L82.1453333,153 L80.3693333,153 L83.4893333,148.716 L80.5373333,144.6 L82.3013333,144.6 L84.4493333,147.588 L86.5733333,144.6 L88.2653333,144.6 L85.3253333,148.656 L88.4813333,153 L86.6813333,153 Z M90.9826667,145.92 L88.1986667,145.92 L88.1986667,144.6 L95.3266667,144.6 L95.3266667,145.92 L92.5426667,145.92 L92.5426667,153 L90.9826667,153 L90.9826667,145.92 Z M103.569333,153.12 C102.721329,153.12 101.955337,152.934002 101.271333,152.562 C100.58733,152.189998 100.051335,151.676003 99.6633333,151.02 C99.2753314,150.363997 99.0813333,149.624004 99.0813333,148.8 C99.0813333,147.975996 99.2773314,147.236003 99.6693333,146.58 C100.061335,145.923997 100.59933,145.410002 101.283333,145.038 C101.967337,144.665998 102.733329,144.48 103.581333,144.48 C104.269337,144.48 104.89733,144.599999 105.465333,144.84 C106.033336,145.080001 106.513331,145.427998 106.905333,145.884 L105.897333,146.832 C105.28933,146.175997 104.541338,145.848 103.653333,145.848 C103.07733,145.848 102.561336,145.973999 102.105333,146.226 C101.649331,146.478001 101.293335,146.827998 101.037333,147.276 C100.781332,147.724002 100.653333,148.231997 100.653333,148.8 C100.653333,149.368003 100.781332,149.875998 101.037333,150.324 C101.293335,150.772002 101.649331,151.121999 102.105333,151.374 C102.561336,151.626001 103.07733,151.752 103.653333,151.752 C104.541338,151.752 105.28933,151.420003 105.897333,150.756 L106.905333,151.716 C106.513331,152.172002 106.031336,152.519999 105.459333,152.76 C104.88733,153.000001 104.257337,153.12 103.569333,153.12 Z M109.946667,145.92 L107.162667,145.92 L107.162667,144.6 L114.290667,144.6 L114.290667,145.92 L111.506667,145.92 L111.506667,153 L109.946667,153 L109.946667,145.92 Z M120.428,151.056 L116.228,151.056 L115.4,153 L113.792,153 L117.572,144.6 L119.108,144.6 L122.9,153 L121.268,153 L120.428,151.056 Z M119.912,149.832 L118.328,146.16 L116.756,149.832 L119.912,149.832 Z" id="TEXTCTA" fill="#FFFFFF" fill-rule="nonzero"></path>
                <g id="This-is-a-text-link-Copy" transform="translate(20.000000, 174.834000)" fill="#F7EDF0" fill-rule="nonzero">
                    <path d="M4.104,3.942 L0.072,3.942 L0.072,1.566 L11.052,1.566 L11.052,3.942 L7.02,3.942 L7.02,14.166 L4.104,14.166 L4.104,3.942 Z M18.206,4.338 C19.406006,4.338 20.3749963,4.6979964 21.113,5.418 C21.8510037,6.1380036 22.22,7.20599292 22.22,8.622 L22.22,14.166 L19.412,14.166 L19.412,9.054 C19.412,8.28599616 19.2440017,7.71300189 18.908,7.335 C18.5719983,6.95699811 18.0860032,6.768 17.45,6.768 C16.7419965,6.768 16.1780021,6.98699781 15.758,7.425 C15.3379979,7.86300219 15.128,8.51399568 15.128,9.378 L15.128,14.166 L12.32,14.166 L12.32,0.81 L15.128,0.81 L15.128,5.49 C15.5000019,5.11799814 15.9499974,4.83300099 16.478,4.635 C17.0060026,4.43699901 17.5819969,4.338 18.206,4.338 Z M24.658,4.482 L27.466,4.482 L27.466,14.166 L24.658,14.166 L24.658,4.482 Z M26.062,3.132 C25.5459974,3.132 25.1260016,2.9820015 24.802,2.682 C24.4779984,2.3819985 24.316,2.01000222 24.316,1.566 C24.316,1.12199778 24.4779984,0.7500015 24.802,0.45 C25.1260016,0.1499985 25.5459974,-2.55795385e-13 26.062,-2.55795385e-13 C26.5780026,-2.55795385e-13 26.9979984,0.14399856 27.322,0.432 C27.6460016,0.72000144 27.808,1.07999784 27.808,1.512 C27.808,1.98000234 27.6460016,2.36699847 27.322,2.673 C26.9979984,2.97900153 26.5780026,3.132 26.062,3.132 Z M33.234,14.31 C32.429996,14.31 31.6440038,14.211001 30.876,14.013 C30.1079962,13.814999 29.4960023,13.5660015 29.04,13.266 L29.976,11.25 C30.4080022,11.5260014 30.9299969,11.7509991 31.542,11.925 C32.1540031,12.0990009 32.7539971,12.186 33.342,12.186 C34.5300059,12.186 35.124,11.8920029 35.124,11.304 C35.124,11.0279986 34.9620016,10.8300006 34.638,10.71 C34.3139984,10.5899994 33.8160034,10.4880004 33.144,10.404 C32.351996,10.2839994 31.6980026,10.1460008 31.182,9.99 C30.6659974,9.83399922 30.2190019,9.55800198 29.841,9.162 C29.4629981,8.76599802 29.274,8.20200366 29.274,7.47 C29.274,6.85799694 29.4509982,6.31500237 29.805,5.841 C30.1590018,5.36699763 30.6749966,4.99800132 31.353,4.734 C32.0310034,4.46999868 32.8319954,4.338 33.756,4.338 C34.4400034,4.338 35.1209966,4.41299925 35.799,4.563 C36.4770034,4.71300075 37.0379978,4.91999868 37.482,5.184 L36.546,7.182 C35.6939957,6.7019976 34.764005,6.462 33.756,6.462 C33.155997,6.462 32.7060015,6.54599916 32.406,6.714 C32.1059985,6.88200084 31.956,7.09799868 31.956,7.362 C31.956,7.6620015 32.1179984,7.8719994 32.442,7.992 C32.7660016,8.1120006 33.2819965,8.22599946 33.99,8.334 C34.782004,8.46600066 35.4299975,8.60699925 35.934,8.757 C36.4380025,8.90700075 36.8759981,9.17999802 37.248,9.576 C37.6200019,9.97200198 37.806,10.5239965 37.806,11.232 C37.806,11.832003 37.6260018,12.3659977 37.266,12.834 C36.9059982,13.3020023 36.3810035,13.6649987 35.691,13.923 C35.0009966,14.1810013 34.1820047,14.31 33.234,14.31 Z M44.428,4.482 L47.236,4.482 L47.236,14.166 L44.428,14.166 L44.428,4.482 Z M45.832,3.132 C45.3159974,3.132 44.8960016,2.9820015 44.572,2.682 C44.2479984,2.3819985 44.086,2.01000222 44.086,1.566 C44.086,1.12199778 44.2479984,0.7500015 44.572,0.45 C44.8960016,0.1499985 45.3159974,-2.55795385e-13 45.832,-2.55795385e-13 C46.3480026,-2.55795385e-13 46.7679984,0.14399856 47.092,0.432 C47.4160016,0.72000144 47.578,1.07999784 47.578,1.512 C47.578,1.98000234 47.4160016,2.36699847 47.092,2.673 C46.7679984,2.97900153 46.3480026,3.132 45.832,3.132 Z M53.004,14.31 C52.199996,14.31 51.4140038,14.211001 50.646,14.013 C49.8779962,13.814999 49.2660023,13.5660015 48.81,13.266 L49.746,11.25 C50.1780022,11.5260014 50.6999969,11.7509991 51.312,11.925 C51.9240031,12.0990009 52.5239971,12.186 53.112,12.186 C54.3000059,12.186 54.894,11.8920029 54.894,11.304 C54.894,11.0279986 54.7320016,10.8300006 54.408,10.71 C54.0839984,10.5899994 53.5860034,10.4880004 52.914,10.404 C52.121996,10.2839994 51.4680026,10.1460008 50.952,9.99 C50.4359974,9.83399922 49.9890019,9.55800198 49.611,9.162 C49.2329981,8.76599802 49.044,8.20200366 49.044,7.47 C49.044,6.85799694 49.2209982,6.31500237 49.575,5.841 C49.9290018,5.36699763 50.4449966,4.99800132 51.123,4.734 C51.8010034,4.46999868 52.6019954,4.338 53.526,4.338 C54.2100034,4.338 54.8909966,4.41299925 55.569,4.563 C56.2470034,4.71300075 56.8079978,4.91999868 57.252,5.184 L56.316,7.182 C55.4639957,6.7019976 54.534005,6.462 53.526,6.462 C52.925997,6.462 52.4760015,6.54599916 52.176,6.714 C51.8759985,6.88200084 51.726,7.09799868 51.726,7.362 C51.726,7.6620015 51.8879984,7.8719994 52.212,7.992 C52.5360016,8.1120006 53.0519965,8.22599946 53.76,8.334 C54.552004,8.46600066 55.1999975,8.60699925 55.704,8.757 C56.2080025,8.90700075 56.6459981,9.17999802 57.018,9.576 C57.3900019,9.97200198 57.576,10.5239965 57.576,11.232 C57.576,11.832003 57.3960018,12.3659977 57.036,12.834 C56.6759982,13.3020023 56.1510035,13.6649987 55.461,13.923 C54.7709966,14.1810013 53.9520047,14.31 53.004,14.31 Z M68.104,4.338 C69.6040075,4.338 70.755996,4.69499643 71.56,5.409 C72.364004,6.12300357 72.766,7.1999928 72.766,8.64 L72.766,14.166 L70.138,14.166 L70.138,12.96 C69.6099974,13.8600045 68.6260072,14.31 67.186,14.31 C66.4419963,14.31 65.7970027,14.1840013 65.251,13.932 C64.7049973,13.6799987 64.2880014,13.3320022 64,12.888 C63.7119986,12.4439978 63.568,11.9400028 63.568,11.376 C63.568,10.4759955 63.9069966,9.76800258 64.585,9.252 C65.2630034,8.73599742 66.3099929,8.478 67.726,8.478 L69.958,8.478 C69.958,7.86599694 69.7720019,7.39500165 69.4,7.065 C69.0279981,6.73499835 68.4700037,6.57 67.726,6.57 C67.2099974,6.57 66.7030025,6.65099919 66.205,6.813 C65.7069975,6.97500081 65.2840017,7.19399862 64.936,7.47 L63.928,5.508 C64.4560026,5.13599814 65.0889963,4.84800102 65.827,4.644 C66.5650037,4.43999898 67.3239961,4.338 68.104,4.338 Z M67.888,12.42 C68.3680024,12.42 68.7939981,12.3090011 69.166,12.087 C69.5380019,11.8649989 69.8019992,11.5380022 69.958,11.106 L69.958,10.116 L68.032,10.116 C66.8799942,10.116 66.304,10.4939962 66.304,11.25 C66.304,11.6100018 66.4449986,11.8949989 66.727,12.105 C67.0090014,12.315001 67.3959975,12.42 67.888,12.42 Z M86.444,13.698 C86.1679986,13.902001 85.829002,14.0549995 85.427,14.157 C85.024998,14.2590005 84.6020022,14.31 84.158,14.31 C83.0059942,14.31 82.1150032,14.0160029 81.485,13.428 C80.8549969,12.84 80.54,11.9760057 80.54,10.836 L80.54,6.858 L79.046,6.858 L79.046,4.698 L80.54,4.698 L80.54,2.34 L83.348,2.34 L83.348,4.698 L85.76,4.698 L85.76,6.858 L83.348,6.858 L83.348,10.8 C83.348,11.208002 83.452999,11.5229989 83.663,11.745 C83.8730011,11.9670011 84.1699981,12.078 84.554,12.078 C84.9980022,12.078 85.3759984,11.9580012 85.688,11.718 L86.444,13.698 Z M97.108,9.36 C97.108,9.39600018 97.0900002,9.64799766 97.054,10.116 L89.728,10.116 C89.8600007,10.716003 90.1719975,11.1899983 90.664,11.538 C91.1560025,11.8860017 91.7679963,12.06 92.5,12.06 C93.0040025,12.06 93.4509981,11.9850007 93.841,11.835 C94.231002,11.6849992 94.5939983,11.4480016 94.93,11.124 L96.424,12.744 C95.5119954,13.7880052 94.1800088,14.31 92.428,14.31 C91.3359945,14.31 90.3700042,14.0970021 89.53,13.671 C88.6899958,13.2449979 88.0420023,12.6540038 87.586,11.898 C87.1299977,11.1419962 86.902,10.2840048 86.902,9.324 C86.902,8.37599526 87.1269978,7.52100381 87.577,6.759 C88.0270023,5.99699619 88.6449961,5.40300213 89.431,4.977 C90.2170039,4.55099787 91.0959951,4.338 92.068,4.338 C93.0160047,4.338 93.8739962,4.54199796 94.642,4.95 C95.4100038,5.35800204 96.0129978,5.94299619 96.451,6.705 C96.8890022,7.46700381 97.108,8.35199496 97.108,9.36 Z M92.086,6.462 C91.4499968,6.462 90.9160022,6.6419982 90.484,7.002 C90.0519978,7.3620018 89.7880005,7.85399688 89.692,8.478 L94.462,8.478 C94.3659995,7.86599694 94.1020022,7.37700183 93.67,7.011 C93.2379978,6.64499817 92.7100031,6.462 92.086,6.462 Z M104.766,14.166 L102.642,11.196 L100.446,14.166 L97.386,14.166 L101.112,9.288 L97.512,4.482 L100.662,4.482 L102.714,7.308 L104.82,4.482 L107.808,4.482 L104.208,9.216 L107.952,14.166 L104.766,14.166 Z M115.466,13.698 C115.189999,13.902001 114.851002,14.0549995 114.449,14.157 C114.046998,14.2590005 113.624002,14.31 113.18,14.31 C112.027994,14.31 111.137003,14.0160029 110.507,13.428 C109.876997,12.84 109.562,11.9760057 109.562,10.836 L109.562,6.858 L108.068,6.858 L108.068,4.698 L109.562,4.698 L109.562,2.34 L112.37,2.34 L112.37,4.698 L114.782,4.698 L114.782,6.858 L112.37,6.858 L112.37,10.8 C112.37,11.208002 112.474999,11.5229989 112.685,11.745 C112.895001,11.9670011 113.191998,12.078 113.576,12.078 C114.020002,12.078 114.397998,11.9580012 114.71,11.718 L115.466,13.698 Z M121.944,0.81 L124.752,0.81 L124.752,14.166 L121.944,14.166 L121.944,0.81 Z M127.262,4.482 L130.07,4.482 L130.07,14.166 L127.262,14.166 L127.262,4.482 Z M128.666,3.132 C128.149997,3.132 127.730002,2.9820015 127.406,2.682 C127.081998,2.3819985 126.92,2.01000222 126.92,1.566 C126.92,1.12199778 127.081998,0.7500015 127.406,0.45 C127.730002,0.1499985 128.149997,-2.55795385e-13 128.666,-2.55795385e-13 C129.182003,-2.55795385e-13 129.601998,0.14399856 129.926,0.432 C130.250002,0.72000144 130.412,1.07999784 130.412,1.512 C130.412,1.98000234 130.250002,2.36699847 129.926,2.673 C129.601998,2.97900153 129.182003,3.132 128.666,3.132 Z M138.466,4.338 C139.666006,4.338 140.634996,4.6979964 141.373,5.418 C142.111004,6.1380036 142.48,7.20599292 142.48,8.622 L142.48,14.166 L139.672,14.166 L139.672,9.054 C139.672,8.28599616 139.504002,7.71300189 139.168,7.335 C138.831998,6.95699811 138.346003,6.768 137.71,6.768 C137.001996,6.768 136.438002,6.98699781 136.018,7.425 C135.597998,7.86300219 135.388,8.51399568 135.388,9.378 L135.388,14.166 L132.58,14.166 L132.58,4.482 L135.262,4.482 L135.262,5.616 C135.634002,5.20799796 136.095997,4.89300111 136.648,4.671 C137.200003,4.44899889 137.805997,4.338 138.466,4.338 Z M149.076,10.368 L147.726,11.7 L147.726,14.166 L144.918,14.166 L144.918,0.81 L147.726,0.81 L147.726,8.37 L151.83,4.482 L155.178,4.482 L151.146,8.586 L155.538,14.166 L152.136,14.166 L149.076,10.368 Z" id="Thisisatextlink"></path>
                    <polygon id="Decoration" points="2.98427949e-13 14.616 154.262 14.616 154.262 15.516 2.98427949e-13 15.516"></polygon>
                </g>
                <path d="M0,0 L196,0 L196,91 L0,91 L0,0 Z M1,1 L1,90 L195,90 L195,1 L1,1 Z" id="Rectangle" fill="#0847FF" fill-rule="nonzero"></path>
            </g>
        </g>
    </g>
</svg>