<?xml version="1.0" encoding="UTF-8"?>
<svg width="459px" height="269px" viewBox="0 0 459 269" version="1.1" xmlns="http://www.w3.org/2000/svg" xmlns:xlink="http://www.w3.org/1999/xlink">
    <!-- Generator: Sketch 55.2 (78181) - https://sketchapp.com -->
    <title>Group 20</title>
    <desc>Created with Sketch.</desc>
    <g id="the-brand" stroke="none" stroke-width="1" fill="none" fill-rule="evenodd">
        <g id="OnBrand-brand-guidelines" transform="translate(-251.000000, -1238.000000)">
            <g id="Group-20" transform="translate(251.000000, 1238.000000)">
                <rect id="Rectangle" fill="#000000" x="0" y="0" width="459" height="269"></rect>
                <g id="onbrand-logo-white-copy" transform="translate(69.000000, 107.000000)" fill="#FFFFFF" fill-rule="nonzero">
                    <g id="Group">
                        <path d="M4.26325641e-14,21.8804348 C4.26325641e-14,8.9076087 10.1526119,-7.10542736e-15 23.2488806,-7.10542736e-15 C36.3451493,-7.10542736e-15 46.4977612,8.9076087 46.4977612,21.8804348 C46.4977612,34.8532609 36.4052239,43.7608696 23.2488806,43.7608696 C10.0925373,43.7608696 4.26325641e-14,34.9130435 4.26325641e-14,21.8804348 Z M33.4615672,21.8804348 C33.4615672,15.9619565 29.4365672,11.298913 23.2488806,11.298913 C17.061194,11.298913 13.036194,16.0217391 13.036194,21.8804348 C13.036194,27.7391304 17.061194,32.4619565 23.2488806,32.4619565 C29.4365672,32.4619565 33.4615672,27.798913 33.4615672,21.8804348 Z" id="Shape"></path>
                        <rect id="Rectangle" x="2.82350746" y="47.1684783" width="40.9108209" height="7.65217391"></rect>
                    </g>
                    <polygon id="Path" points="79.7190299 43.0434783 64.0395522 21.5815217 64.0395522 43.0434783 51.1235075 43.0434783 51.1235075 0.717391304 64.4 0.717391304 79.1783582 20.7445652 79.1783582 0.717391304 92.0343284 0.717391304 92.0343284 43.0434783"></polygon>
                    <path d="M98.9429104,43.0434783 L98.9429104,0.717391304 L124.775,0.717391304 C133.545896,0.717391304 137.390672,6.57608696 137.390672,11.4782609 C137.390672,16.7391304 134.266791,20.326087 130.121642,21.1630435 C134.687313,21.8804348 138.231716,26.0652174 138.231716,31.5054348 C138.231716,37.423913 134.206716,42.9836957 125.676119,42.9836957 L98.9429104,42.9836957 L98.9429104,43.0434783 Z M124.294403,13.75 C124.286756,13.0972177 124.014538,12.4751697 123.539492,12.0249444 C123.064447,11.5747191 122.426832,11.3344725 121.771269,11.3586957 L111.798881,11.3586957 L111.798881,16.320686 L121.771269,16.320686 C122.452021,16.3241731 123.105039,16.0524958 123.580715,15.5678622 C124.05639,15.0832286 124.313956,14.4271733 124.294403,13.75 L124.294403,13.75 Z M125.135448,29.7119565 C125.135448,28.2173913 123.99403,26.9619565 122.131716,26.9619565 L111.798881,26.9619565 L111.798881,32.3423913 L122.131716,32.3423913 C123.99403,32.3423913 125.135448,31.2663043 125.135448,29.7119565 L125.135448,29.7119565 Z" id="Shape"></path>
                    <path d="M166.767164,43.0434783 L160.879851,29.7119565 L156.254104,29.7119565 L156.254104,43.0434783 L143.398134,43.0434783 L143.398134,0.717391304 L166.106343,0.717391304 C176.078731,0.717391304 181.425373,7.29347826 181.425373,15.2445652 C181.425373,22.5380435 177.160075,26.423913 173.795896,28.0380435 L181.425373,43.0434783 L166.767164,43.0434783 Z M168.329104,15.1847826 C168.329104,12.9130435 166.286567,11.8967391 164.123881,11.8967391 L156.254104,11.8967391 L156.254104,18.5326087 L164.123881,18.5326087 C166.286567,18.5326087 168.329104,17.5163043 168.329104,15.1847826 L168.329104,15.1847826 Z" id="Shape"></path>
                    <path d="M215.00709,43.0434783 L213.505224,38.0815217 L198.186194,38.0815217 L196.684328,43.0434783 L182.026119,43.0434783 L197.705597,0.717391304 L213.925746,0.717391304 L229.605224,43.0434783 L215.00709,43.0434783 Z M205.815672,13.2717391 L201.610448,26.9021739 L210.020896,26.9021739 L205.815672,13.2717391 Z" id="Shape"></path>
                    <polygon id="Path" points="231.88806 43.0434783 231.88806 0.717391304 244.74403 0.717391304 244.74403 20.7445652 259.522388 0.717391304 272.798881 0.717391304 272.798881 43.0434783 259.94291 43.0434783 259.94291 21.5815217 244.263433 43.0434783"></polygon>
                    <path d="M279.707463,43.0434783 L279.707463,0.717391304 L298.691045,0.717391304 C312.087687,0.717391304 322,8.30978261 322,21.8206522 C322,35.3315217 312.027612,42.9836957 298.751119,42.9836957 L279.707463,42.9836957 L279.707463,43.0434783 Z M308.963806,21.8206522 C308.963806,16.0815217 305.659701,11.8369565 298.751119,11.8369565 L292.563433,11.8369565 L292.563433,31.8043478 L298.691045,31.8043478 C305.11903,31.8641304 308.963806,27.1413043 308.963806,21.8206522 L308.963806,21.8206522 Z" id="Shape"></path>
                </g>
            </g>
        </g>
    </g>
</svg>