<?xml version="1.0" encoding="UTF-8"?>
<svg width="941px" height="192px" viewBox="0 0 941 192" version="1.1" xmlns="http://www.w3.org/2000/svg" xmlns:xlink="http://www.w3.org/1999/xlink">
    <!-- Generator: Sketch 55.2 (78181) - https://sketchapp.com -->
    <title>Group 7</title>
    <desc>Created with Sketch.</desc>
    <g id="the-brand" stroke="none" stroke-width="1" fill="none" fill-rule="evenodd">
        <g id="OnBrand-brand-guidelines-Copy" transform="translate(-249.000000, -4214.000000)" fill-rule="nonzero">
            <g id="Group-7" transform="translate(249.500000, 4214.800000)">
                <path d="M19.662,18.2 L19.636,6.136 L13.656,16.12 L12.148,16.12 L6.168,6.292 L6.168,18.2 L2.944,18.2 L2.944,0 L5.726,0 L12.954,12.064 L20.052,0 L22.834,0 L22.86,18.2 L19.662,18.2 Z M33.102,18.382 C31.697993,18.382 30.4326723,18.0786697 29.306,17.472 C28.1793277,16.8653303 27.2996698,16.0203387 26.667,14.937 C26.0343302,13.8536613 25.718,12.6273402 25.718,11.258 C25.718,9.88865982 26.0343302,8.66667204 26.667,7.592 C27.2996698,6.51732796 28.1793277,5.6766697 29.306,5.07 C30.4326723,4.4633303 31.697993,4.16 33.102,4.16 C34.5233404,4.16 35.7973277,4.4633303 36.924,5.07 C38.0506723,5.6766697 38.9303302,6.51732796 39.563,7.592 C40.1956698,8.66667204 40.512,9.88865982 40.512,11.258 C40.512,12.6273402 40.1956698,13.8536613 39.563,14.937 C38.9303302,16.0203387 38.0506723,16.8653303 36.924,17.472 C35.7973277,18.0786697 34.5233404,18.382 33.102,18.382 Z M33.102,15.6 C34.298006,15.6 35.2859961,15.2013373 36.066,14.404 C36.8460039,13.6066627 37.236,12.5580065 37.236,11.258 C37.236,9.9579935 36.8460039,8.90933732 36.066,8.112 C35.2859961,7.31466268 34.298006,6.916 33.102,6.916 C31.905994,6.916 30.9223372,7.31466268 30.151,8.112 C29.3796628,8.90933732 28.994,9.9579935 28.994,11.258 C28.994,12.5580065 29.3796628,13.6066627 30.151,14.404 C30.9223372,15.2013373 31.905994,15.6 33.102,15.6 Z M50.91,4.16 C52.6606754,4.16 54.0646614,4.67132822 55.122,5.694 C56.1793386,6.71667178 56.708,8.23332328 56.708,10.244 L56.708,18.2 L53.458,18.2 L53.458,10.66 C53.458,9.4466606 53.1720029,8.53233641 52.6,7.917 C52.0279971,7.30166359 51.2133386,6.994 50.156,6.994 C48.959994,6.994 48.0153368,7.35366307 47.322,8.073 C46.6286632,8.79233693 46.282,9.82799324 46.282,11.18 L46.282,18.2 L43.032,18.2 L43.032,4.316 L46.126,4.316 L46.126,6.11 C46.663336,5.46866346 47.3393293,4.98333498 48.154,4.654 C48.9686707,4.32466502 49.8873282,4.16 50.91,4.16 Z M64.532,18.382 C63.4053277,18.382 62.304672,18.2346681 61.23,17.94 C60.155328,17.6453319 59.2973365,17.2726689 58.656,16.822 L59.904,14.352 C60.5280031,14.7680021 61.2776623,15.1016654 62.153,15.353 C63.0283377,15.6043346 63.8906624,15.73 64.74,15.73 C66.681343,15.73 67.652,15.2186718 67.652,14.196 C67.652,13.7106642 67.4050025,13.3726676 66.911,13.182 C66.4169975,12.9913324 65.6240055,12.8093342 64.532,12.636 C63.3879943,12.4626658 62.4563369,12.2633345 61.737,12.038 C61.0176631,11.8126655 60.3936693,11.4183361 59.865,10.855 C59.3363307,10.2916639 59.072,9.50733836 59.072,8.502 C59.072,7.18466008 59.6223278,6.13167061 60.723,5.343 C61.8236722,4.55432939 63.3099906,4.16 65.182,4.16 C66.1353381,4.16 67.0886619,4.26833225 68.042,4.485 C68.9953381,4.70166775 69.7753303,4.99199818 70.382,5.356 L69.134,7.826 C67.9553274,7.1326632 66.6293407,6.786 65.156,6.786 C64.2026619,6.786 63.4790025,6.92899857 62.985,7.215 C62.4909975,7.50100143 62.244,7.87799766 62.244,8.346 C62.244,8.8660026 62.5083307,9.23433225 63.037,9.451 C63.5656693,9.66766775 64.3846611,9.87133238 65.494,10.062 C66.6033389,10.2353342 67.5133298,10.4346655 68.224,10.66 C68.9346702,10.8853345 69.5456641,11.266664 70.057,11.804 C70.5683359,12.341336 70.824,13.1039951 70.824,14.092 C70.824,15.3920065 70.2606723,16.4319961 69.134,17.212 C68.0073277,17.9920039 66.473343,18.382 64.532,18.382 Z M81.378,17.446 C80.9966648,17.7580016 80.5330027,17.9919992 79.987,18.148 C79.4409973,18.3040008 78.8646697,18.382 78.258,18.382 C76.732659,18.382 75.5540042,17.9833373 74.722,17.186 C73.8899958,16.3886627 73.474,15.227341 73.474,13.702 L73.474,7.02 L71.186,7.02 L71.186,4.42 L73.474,4.42 L73.474,1.248 L76.724,1.248 L76.724,4.42 L80.442,4.42 L80.442,7.02 L76.724,7.02 L76.724,13.624 C76.724,14.3000034 76.888665,14.8156649 77.218,15.171 C77.547335,15.5263351 78.0239969,15.704 78.648,15.704 C79.3760036,15.704 79.9826642,15.5133352 80.468,15.132 L81.378,17.446 Z M96.04,11.336 C96.04,11.5613345 96.0226668,11.8819979 95.988,12.298 L85.094,12.298 C85.2846676,13.3206718 85.782996,14.130997 86.589,14.729 C87.395004,15.327003 88.395994,15.626 89.592,15.626 C91.117341,15.626 92.3739951,15.1233384 93.362,14.118 L95.104,16.12 C94.4799969,16.8653371 93.6913381,17.4286648 92.738,17.81 C91.7846619,18.1913352 90.710006,18.382 89.514,18.382 C87.988659,18.382 86.6453391,18.0786697 85.484,17.472 C84.3226609,16.8653303 83.4256698,16.0203387 82.793,14.937 C82.1603302,13.8536613 81.844,12.6273402 81.844,11.258 C81.844,9.90599324 82.1516636,8.68833875 82.767,7.605 C83.3823364,6.52166125 84.2359945,5.6766697 85.328,5.07 C86.4200055,4.4633303 87.6506598,4.16 89.02,4.16 C90.3720068,4.16 91.5809947,4.45899701 92.647,5.057 C93.7130053,5.65500299 94.544997,6.49566125 95.143,7.579 C95.741003,8.66233875 96.04,9.91465956 96.04,11.336 Z M89.02,6.76 C87.9799948,6.76 87.1003369,7.06766359 86.381,7.683 C85.6616631,8.29833641 85.2240008,9.11732822 85.068,10.14 L92.946,10.14 C92.8073326,9.13466164 92.3826702,8.32000312 91.672,7.696 C90.9613298,7.07199688 90.0773386,6.76 89.02,6.76 Z M101.654,6.344 C102.590005,4.88799272 104.236655,4.16 106.594,4.16 L106.594,7.254 C106.316665,7.20199974 106.065334,7.176 105.84,7.176 C104.57466,7.176 103.58667,7.54432965 102.876,8.281 C102.16533,9.01767035 101.81,10.0793264 101.81,11.466 L101.81,18.2 L98.56,18.2 L98.56,4.316 L101.654,4.316 L101.654,6.344 Z M111.844,6.344 C112.780005,4.88799272 114.426655,4.16 116.784,4.16 L116.784,7.254 C116.506665,7.20199974 116.255334,7.176 116.03,7.176 C114.76466,7.176 113.77667,7.54432965 113.066,8.281 C112.35533,9.01767035 112,10.0793264 112,11.466 L112,18.2 L108.75,18.2 L108.75,4.316 L111.844,4.316 L111.844,6.344 Z M124.166,4.16 C126.211344,4.16 127.775661,4.64966177 128.859,5.629 C129.942339,6.60833823 130.484,8.08599012 130.484,10.062 L130.484,18.2 L127.416,18.2 L127.416,16.51 C127.017331,17.1166697 126.44967,17.5803317 125.713,17.901 C124.97633,18.2216683 124.088005,18.382 123.048,18.382 C122.007995,18.382 121.098004,18.2043351 120.318,17.849 C119.537996,17.4936649 118.935669,16.9996698 118.511,16.367 C118.086331,15.7343302 117.874,15.0193373 117.874,14.222 C117.874,12.9739938 118.337662,11.9730038 119.265,11.219 C120.192338,10.4649962 121.652657,10.088 123.646,10.088 L127.234,10.088 L127.234,9.88 C127.234,8.90932848 126.94367,8.1640026 126.363,7.644 C125.78233,7.1239974 124.920006,6.864 123.776,6.864 C122.995996,6.864 122.229004,6.98533212 121.475,7.228 C120.720996,7.47066788 120.084003,7.8086645 119.564,8.242 L118.29,5.876 C119.018004,5.32133056 119.893328,4.89666814 120.916,4.602 C121.938672,4.30733186 123.021994,4.16 124.166,4.16 Z M123.724,16.016 C124.538671,16.016 125.26233,15.8296685 125.895,15.457 C126.52767,15.0843315 126.973999,14.5513368 127.234,13.858 L127.234,12.246 L123.88,12.246 C122.007991,12.246 121.072,12.8613272 121.072,14.092 C121.072,14.6813363 121.305998,15.1493316 121.774,15.496 C122.242002,15.8426684 122.891996,16.016 123.724,16.016 Z M142.39,17.446 C142.008665,17.7580016 141.545003,17.9919992 140.999,18.148 C140.452997,18.3040008 139.87667,18.382 139.27,18.382 C137.744659,18.382 136.566004,17.9833373 135.734,17.186 C134.901996,16.3886627 134.486,15.227341 134.486,13.702 L134.486,7.02 L132.198,7.02 L132.198,4.42 L134.486,4.42 L134.486,1.248 L137.736,1.248 L137.736,4.42 L141.454,4.42 L141.454,7.02 L137.736,7.02 L137.736,13.624 C137.736,14.3000034 137.900665,14.8156649 138.23,15.171 C138.559335,15.5263351 139.035997,15.704 139.66,15.704 C140.388004,15.704 140.994664,15.5133352 141.48,15.132 L142.39,17.446 Z" id="Monsterrat" fill="#44444E"></path>
                <path d="M11.12,91.828 L12.848,91.828 L12.848,96.742 C12.2239969,97.2580026 11.4980041,97.6539986 10.67,97.93 C9.84199586,98.2060014 8.9780045,98.344 8.078,98.344 C6.80599364,98.344 5.6600051,98.0650028 4.64,97.507 C3.6199949,96.9489972 2.81900291,96.1810049 2.237,95.203 C1.65499709,94.2249951 1.364,93.1240061 1.364,91.9 C1.364,90.6759939 1.65499709,89.5720049 2.237,88.588 C2.81900291,87.6039951 3.62299487,86.8360028 4.649,86.284 C5.67500513,85.7319972 6.82999358,85.456 8.114,85.456 C9.12200504,85.456 10.0369959,85.6209984 10.859,85.951 C11.6810041,86.2810016 12.3799971,86.7639968 12.956,87.4 L11.84,88.516 C10.831995,87.5439951 9.61400714,87.058 8.186,87.058 C7.2259952,87.058 6.36500381,87.2649979 5.603,87.679 C4.84099619,88.0930021 4.24400216,88.6689963 3.812,89.407 C3.37999784,90.1450037 3.164,90.9759954 3.164,91.9 C3.164,92.8120046 3.37999784,93.6369963 3.812,94.375 C4.24400216,95.1130037 4.84099619,95.6919979 5.603,96.112 C6.36500381,96.5320021 7.21999526,96.742 8.168,96.742 C9.29600564,96.742 10.2799958,96.4720027 11.12,95.932 L11.12,91.828 Z M15.6186154,84.844 L17.3466154,84.844 L17.3466154,98.2 L15.6186154,98.2 L15.6186154,84.844 Z M28.6672308,88.66 L24.0412308,99.154 C23.6332287,100.126005 23.1562335,100.809998 22.6102308,101.206 C22.064228,101.602002 21.4072346,101.8 20.6392308,101.8 C20.1712284,101.8 19.718233,101.725001 19.2802308,101.575 C18.8422286,101.424999 18.4792322,101.206001 18.1912308,100.918 L18.9292308,99.622 C19.4212332,100.090002 19.9912275,100.324 20.6392308,100.324 C21.0592329,100.324 21.4102294,100.213001 21.6922308,99.991 C21.9742322,99.7689989 22.2292296,99.3880027 22.4572308,98.848 L22.7632308,98.182 L18.5512308,88.66 L20.3512308,88.66 L23.6812308,96.292 L26.9752308,88.66 L28.6672308,88.66 Z M34.9298462,88.57 C35.8538508,88.57 36.6818425,88.773998 37.4138462,89.182 C38.1458498,89.590002 38.7188441,90.1599963 39.1328462,90.892 C39.5468482,91.6240037 39.7538462,92.4699952 39.7538462,93.43 C39.7538462,94.3900048 39.5468482,95.2389963 39.1328462,95.977 C38.7188441,96.7150037 38.1458498,97.287998 37.4138462,97.696 C36.6818425,98.104002 35.8538508,98.308 34.9298462,98.308 C34.2458427,98.308 33.618849,98.1760013 33.0488462,97.912 C32.4788433,97.6479987 31.9958481,97.2640025 31.5998462,96.76 L31.5998462,101.692 L29.8718462,101.692 L29.8718462,88.66 L31.5278462,88.66 L31.5278462,90.172 C31.9118481,89.6439974 32.3978432,89.2450014 32.9858462,88.975 C33.5738491,88.7049986 34.2218426,88.57 34.9298462,88.57 Z M34.7858462,96.796 C35.3978492,96.796 35.9468437,96.6550014 36.4328462,96.373 C36.9188486,96.0909986 37.3028447,95.6950026 37.5848462,95.185 C37.8668476,94.6749974 38.0078462,94.0900033 38.0078462,93.43 C38.0078462,92.7699967 37.8668476,92.1850025 37.5848462,91.675 C37.3028447,91.1649974 36.9188486,90.7720014 36.4328462,90.496 C35.9468437,90.2199986 35.3978492,90.082 34.7858462,90.082 C34.1858432,90.082 33.6428486,90.2229986 33.1568462,90.505 C32.6708437,90.7870014 32.2868476,91.1799975 32.0048462,91.684 C31.7228447,92.1880025 31.5818462,92.7699967 31.5818462,93.43 C31.5818462,94.0900033 31.7198448,94.6749974 31.9958462,95.185 C32.2718475,95.6950026 32.6558437,96.0909986 33.1478462,96.373 C33.6398486,96.6550014 34.1858432,96.796 34.7858462,96.796 Z M46.8264615,88.57 C48.0384676,88.57 49.001458,88.9209965 49.7154615,89.623 C50.4294651,90.3250035 50.7864615,91.3539932 50.7864615,92.71 L50.7864615,98.2 L49.0584615,98.2 L49.0584615,92.908 C49.0584615,91.9839954 48.8364638,91.2880023 48.3924615,90.82 C47.9484593,90.3519977 47.3124657,90.118 46.4844615,90.118 C45.5484569,90.118 44.8104642,90.3909973 44.2704615,90.937 C43.7304588,91.4830027 43.4604615,92.2659949 43.4604615,93.286 L43.4604615,98.2 L41.7324615,98.2 L41.7324615,84.844 L43.4604615,84.844 L43.4604615,90.01 C43.8204633,89.5539977 44.2914586,89.2000013 44.8734615,88.948 C45.4554644,88.6959987 46.1064579,88.57 46.8264615,88.57 Z" id="Glyph" fill="#44444E"></path>
                <path d="M329.024,98.344 C327.763994,98.344 326.627005,98.0650028 325.613,97.507 C324.598995,96.9489972 323.804003,96.1810049 323.228,95.203 C322.651997,94.2249951 322.364,93.1240061 322.364,91.9 C322.364,90.6759939 322.651997,89.5750049 323.228,88.597 C323.804003,87.6189951 324.601995,86.8510028 325.622,86.293 C326.642005,85.7349972 327.781994,85.456 329.042,85.456 C330.026005,85.456 330.925996,85.6209984 331.742,85.951 C332.558004,86.2810016 333.253997,86.7699968 333.83,87.418 L332.66,88.552 C331.711995,87.555995 330.530007,87.058 329.114,87.058 C328.177995,87.058 327.332004,87.2679979 326.576,87.688 C325.819996,88.1080021 325.229002,88.6869963 324.803,89.425 C324.376998,90.1630037 324.164,90.9879954 324.164,91.9 C324.164,92.8120046 324.376998,93.6369963 324.803,94.375 C325.229002,95.1130037 325.819996,95.6919979 326.576,96.112 C327.332004,96.5320021 328.177995,96.742 329.114,96.742 C330.518007,96.742 331.699995,96.238005 332.66,95.23 L333.83,96.364 C333.253997,97.0120032 332.555004,97.5039983 331.733,97.84 C330.910996,98.1760017 330.008005,98.344 329.024,98.344 Z M340.830615,88.57 C342.042621,88.57 343.005612,88.9209965 343.719615,89.623 C344.433619,90.3250035 344.790615,91.3539932 344.790615,92.71 L344.790615,98.2 L343.062615,98.2 L343.062615,92.908 C343.062615,91.9839954 342.840618,91.2880023 342.396615,90.82 C341.952613,90.3519977 341.31662,90.118 340.488615,90.118 C339.552611,90.118 338.814618,90.3909973 338.274615,90.937 C337.734613,91.4830027 337.464615,92.2659949 337.464615,93.286 L337.464615,98.2 L335.736615,98.2 L335.736615,84.844 L337.464615,84.844 L337.464615,90.01 C337.824617,89.5539977 338.295612,89.2000013 338.877615,88.948 C339.459618,88.6959987 340.110612,88.57 340.830615,88.57 Z M351.053231,88.57 C352.373237,88.57 353.384227,88.8939968 354.086231,89.542 C354.788234,90.1900032 355.139231,91.1559936 355.139231,92.44 L355.139231,98.2 L353.501231,98.2 L353.501231,96.94 C353.213229,97.3840022 352.802233,97.7229988 352.268231,97.957 C351.734228,98.1910012 351.101234,98.308 350.369231,98.308 C349.301225,98.308 348.446234,98.0500026 347.804231,97.534 C347.162228,97.0179974 346.841231,96.3400042 346.841231,95.5 C346.841231,94.6599958 347.147228,93.9850025 347.759231,93.475 C348.371234,92.9649974 349.343224,92.71 350.675231,92.71 L353.411231,92.71 L353.411231,92.368 C353.411231,91.6239963 353.195233,91.054002 352.763231,90.658 C352.331229,90.261998 351.695235,90.064 350.855231,90.064 C350.291228,90.064 349.739233,90.1569991 349.199231,90.343 C348.659228,90.5290009 348.203233,90.7779984 347.831231,91.09 L347.111231,89.794 C347.603233,89.397998 348.191227,89.0950011 348.875231,88.885 C349.559234,88.6749989 350.285227,88.57 351.053231,88.57 Z M350.657231,96.976 C351.317234,96.976 351.887228,96.8290015 352.367231,96.535 C352.847233,96.2409985 353.19523,95.8240027 353.411231,95.284 L353.411231,93.952 L350.747231,93.952 C349.283223,93.952 348.551231,94.4439951 348.551231,95.428 C348.551231,95.9080024 348.737229,96.2859986 349.109231,96.562 C349.481233,96.8380014 349.997227,96.976 350.657231,96.976 Z M359.583846,90.262 C359.883848,89.7099972 360.327843,89.2900014 360.915846,89.002 C361.503849,88.7139986 362.217842,88.57 363.057846,88.57 L363.057846,90.244 C362.961846,90.2319999 362.829847,90.226 362.661846,90.226 C361.725841,90.226 360.990849,90.5049972 360.456846,91.063 C359.922843,91.6210028 359.655846,92.4159948 359.655846,93.448 L359.655846,98.2 L357.927846,98.2 L357.927846,88.66 L359.583846,88.66 L359.583846,90.262 Z M368.222462,88.57 C369.542468,88.57 370.553458,88.8939968 371.255462,89.542 C371.957465,90.1900032 372.308462,91.1559936 372.308462,92.44 L372.308462,98.2 L370.670462,98.2 L370.670462,96.94 C370.38246,97.3840022 369.971464,97.7229988 369.437462,97.957 C368.903459,98.1910012 368.270465,98.308 367.538462,98.308 C366.470456,98.308 365.615465,98.0500026 364.973462,97.534 C364.331458,97.0179974 364.010462,96.3400042 364.010462,95.5 C364.010462,94.6599958 364.316458,93.9850025 364.928462,93.475 C365.540465,92.9649974 366.512455,92.71 367.844462,92.71 L370.580462,92.71 L370.580462,92.368 C370.580462,91.6239963 370.364464,91.054002 369.932462,90.658 C369.500459,90.261998 368.864466,90.064 368.024462,90.064 C367.460459,90.064 366.908464,90.1569991 366.368462,90.343 C365.828459,90.5290009 365.372463,90.7779984 365.000462,91.09 L364.280462,89.794 C364.772464,89.397998 365.360458,89.0950011 366.044462,88.885 C366.728465,88.6749989 367.454458,88.57 368.222462,88.57 Z M367.826462,96.976 C368.486465,96.976 369.056459,96.8290015 369.536462,96.535 C370.016464,96.2409985 370.36446,95.8240027 370.580462,95.284 L370.580462,93.952 L367.916462,93.952 C366.452454,93.952 365.720462,94.4439951 365.720462,95.428 C365.720462,95.9080024 365.90646,96.2859986 366.278462,96.562 C366.650463,96.8380014 367.166458,96.976 367.826462,96.976 Z M379.309077,98.308 C378.337072,98.308 377.470081,98.0980021 376.708077,97.678 C375.946073,97.2579979 375.349079,96.6790037 374.917077,95.941 C374.485075,95.2029963 374.269077,94.3660047 374.269077,93.43 C374.269077,92.4939953 374.485075,91.6570037 374.917077,90.919 C375.349079,90.1809963 375.946073,89.6050021 376.708077,89.191 C377.470081,88.7769979 378.337072,88.57 379.309077,88.57 C380.173081,88.57 380.944074,88.7439983 381.622077,89.092 C382.30008,89.4400017 382.825075,89.9439967 383.197077,90.604 L381.883077,91.45 C381.583075,90.9939977 381.211079,90.6520011 380.767077,90.424 C380.323075,90.1959989 379.83108,90.082 379.291077,90.082 C378.667074,90.082 378.106079,90.2199986 377.608077,90.496 C377.110074,90.7720014 376.720078,91.1649974 376.438077,91.675 C376.156076,92.1850025 376.015077,92.7699967 376.015077,93.43 C376.015077,94.1020034 376.156076,94.6929974 376.438077,95.203 C376.720078,95.7130026 377.110074,96.1059986 377.608077,96.382 C378.106079,96.6580014 378.667074,96.796 379.291077,96.796 C379.83108,96.796 380.323075,96.6820011 380.767077,96.454 C381.211079,96.2259989 381.583075,95.8840023 381.883077,95.428 L383.197077,96.256 C382.825075,96.9160033 382.30008,97.4229982 381.622077,97.777 C380.944074,98.1310018 380.173081,98.308 379.309077,98.308 Z M390.503692,97.642 C390.251691,97.8580011 389.939694,98.0229994 389.567692,98.137 C389.19569,98.2510006 388.811694,98.308 388.415692,98.308 C387.455688,98.308 386.711695,98.0500026 386.183692,97.534 C385.65569,97.0179974 385.391692,96.2800048 385.391692,95.32 L385.391692,90.082 L383.771692,90.082 L383.771692,88.66 L385.391692,88.66 L385.391692,86.572 L387.119692,86.572 L387.119692,88.66 L389.855692,88.66 L389.855692,90.082 L387.119692,90.082 L387.119692,95.248 C387.119692,95.7640026 387.248691,96.1599986 387.506692,96.436 C387.764694,96.7120014 388.13369,96.85 388.613692,96.85 C389.141695,96.85 389.59169,96.7000015 389.963692,96.4 L390.503692,97.642 Z M400.474308,93.484 C400.474308,93.6160007 400.462308,93.7899989 400.438308,94.006 L392.698308,94.006 C392.806308,94.8460042 393.175305,95.5209974 393.805308,96.031 C394.435311,96.5410025 395.218303,96.796 396.154308,96.796 C397.294313,96.796 398.212304,96.4120038 398.908308,95.644 L399.862308,96.76 C399.430306,97.2640025 398.893311,97.6479987 398.251308,97.912 C397.609304,98.1760013 396.892312,98.308 396.100308,98.308 C395.092303,98.308 394.198312,98.1010021 393.418308,97.687 C392.638304,97.2729979 392.03531,96.6940037 391.609308,95.95 C391.183306,95.2059963 390.970308,94.3660047 390.970308,93.43 C390.970308,92.5059954 391.177306,91.6720037 391.591308,90.928 C392.00531,90.1839963 392.575304,89.6050021 393.301308,89.191 C394.027311,88.7769979 394.846303,88.57 395.758308,88.57 C396.670312,88.57 397.483304,88.7769979 398.197308,89.191 C398.911311,89.6050021 399.469306,90.1839963 399.871308,90.928 C400.27331,91.6720037 400.474308,92.5239952 400.474308,93.484 Z M395.758308,90.028 C394.930304,90.028 394.23731,90.2799975 393.679308,90.784 C393.121305,91.2880025 392.794308,91.9479959 392.698308,92.764 L398.818308,92.764 C398.722307,91.959996 398.39531,91.3030026 397.837308,90.793 C397.279305,90.2829975 396.586312,90.028 395.758308,90.028 Z M404.108923,90.262 C404.408925,89.7099972 404.85292,89.2900014 405.440923,89.002 C406.028926,88.7139986 406.742919,88.57 407.582923,88.57 L407.582923,90.244 C407.486923,90.2319999 407.354924,90.226 407.186923,90.226 C406.250918,90.226 405.515926,90.5049972 404.981923,91.063 C404.44792,91.6210028 404.180923,92.4159948 404.180923,93.448 L404.180923,98.2 L402.452923,98.2 L402.452923,88.66 L404.108923,88.66 L404.108923,90.262 Z M412.099538,98.308 C411.319535,98.308 410.569542,98.2030011 409.849538,97.993 C409.129535,97.7829989 408.565541,97.5160016 408.157538,97.192 L408.877538,95.824 C409.297541,96.1240015 409.807535,96.3639991 410.407538,96.544 C411.007541,96.7240009 411.613535,96.814 412.225538,96.814 C413.737546,96.814 414.493538,96.3820043 414.493538,95.518 C414.493538,95.2299986 414.391539,95.0020008 414.187538,94.834 C413.983537,94.6659992 413.72854,94.5430004 413.422538,94.465 C413.116537,94.3869996 412.681541,94.3000005 412.117538,94.204 C411.349535,94.0839994 410.722541,93.9460008 410.236538,93.79 C409.750536,93.6339992 409.33354,93.3700019 408.985538,92.998 C408.637537,92.6259981 408.463538,92.1040034 408.463538,91.432 C408.463538,90.5679957 408.823535,89.8750026 409.543538,89.353 C410.263542,88.8309974 411.229532,88.57 412.441538,88.57 C413.077542,88.57 413.713535,88.6479992 414.349538,88.804 C414.985542,88.9600008 415.507536,89.1699987 415.915538,89.434 L415.177538,90.802 C414.397535,90.2979975 413.479544,90.046 412.423538,90.046 C411.691535,90.046 411.13354,90.1659988 410.749538,90.406 C410.365537,90.6460012 410.173538,90.963998 410.173538,91.36 C410.173538,91.6720016 410.281537,91.9179991 410.497538,92.098 C410.71354,92.2780009 410.980537,92.4099996 411.298538,92.494 C411.61654,92.5780004 412.063536,92.6739995 412.639538,92.782 C413.407542,92.9140007 414.028536,93.0549993 414.502538,93.205 C414.976541,93.3550007 415.381537,93.6099982 415.717538,93.97 C416.05354,94.3300018 416.221538,94.8339968 416.221538,95.482 C416.221538,96.3460043 415.852542,97.0329975 415.114538,97.543 C414.376535,98.0530026 413.371545,98.308 412.099538,98.308 Z" id="Characters" fill="#44444E"></path>
                <polygon id="Line-6" fill="#979797" points="0 65.2 246 65.2 246 64.2 0 64.2"></polygon>
                <polygon id="Line-6-Copy" fill="#979797" points="320 65.2 940.25 65.2 940.25 64.2 320 64.2"></polygon>
                <polygon id="M" fill="#44444E" points="53.7684564 190.2 53.6879195 149.4 33.3120805 183.4 29.6073826 183.4 9.23154362 149.64 9.23154362 190.2 1.5 190.2 1.5 134.2 8.10402685 134.2 31.6208054 173.56 54.8154362 134.2 61.4194631 134.2 61.5 190.2"></polygon>
                <path d="M154.238636,147.2 C159.541693,147.2 163.744303,148.753879 166.846591,151.861682 C169.948879,154.969486 171.5,159.57754 171.5,165.685981 L171.5,190.2 L163.863636,190.2 L163.863636,166.570093 C163.863636,162.444216 162.922358,159.336459 161.039773,157.246729 C159.157188,155.156999 156.465927,154.11215 152.965909,154.11215 C149.094678,154.11215 146.018951,155.33114 143.738636,157.769159 C141.458322,160.207177 140.318182,163.703404 140.318182,168.257944 L140.318182,190.2 L132.681818,190.2 L132.681818,166.570093 C132.681818,162.444216 131.74054,159.336459 129.857955,157.246729 C127.975369,155.156999 125.284108,154.11215 121.784091,154.11215 C117.912859,154.11215 114.837133,155.33114 112.556818,157.769159 C110.276504,160.207177 109.136364,163.703404 109.136364,168.257944 L109.136364,190.2 L101.5,190.2 L101.5,147.601869 L108.818182,147.601869 L108.818182,153.951402 C110.356068,151.754506 112.3712,150.080068 114.863636,148.928037 C117.356073,147.776007 120.193166,147.2 123.375,147.2 C126.662895,147.2 129.579533,147.869775 132.125,149.209346 C134.670467,150.548916 136.632569,152.50466 138.011364,155.076636 C139.602281,152.611826 141.816274,150.682873 144.653409,149.28972 C147.490544,147.896566 150.685588,147.2 154.238636,147.2 Z" id="m" fill="#44444E"></path>
                <path d="M333.772,149.712 L324.412,149.712 L322.396,154.2 L320.548,154.2 L328.228,137.4 L329.98,137.4 L337.66,154.2 L335.788,154.2 L333.772,149.712 Z M333.124,148.272 L329.092,139.248 L325.06,148.272 L333.124,148.272 Z M344.5,141.48 C346.148008,141.48 347.411996,141.891996 348.292,142.716 C349.172004,143.540004 349.612,144.759992 349.612,146.376 L349.612,154.2 L347.98,154.2 L347.98,152.232 C347.595998,152.888003 347.032004,153.399998 346.288,153.768 C345.543996,154.136002 344.660005,154.32 343.636,154.32 C342.227993,154.32 341.108004,153.984003 340.276,153.312 C339.443996,152.639997 339.028,151.752006 339.028,150.648 C339.028,149.575995 339.415996,148.712003 340.192,148.056 C340.968004,147.399997 342.203992,147.072 343.9,147.072 L347.908,147.072 L347.908,146.304 C347.908,145.215995 347.604003,144.388003 346.996,143.82 C346.387997,143.251997 345.500006,142.968 344.332,142.968 C343.531996,142.968 342.764004,143.099999 342.028,143.364 C341.291996,143.628001 340.660003,143.991998 340.132,144.456 L339.364,143.184 C340.004003,142.639997 340.771996,142.220001 341.668,141.924 C342.564004,141.627999 343.507995,141.48 344.5,141.48 Z M343.9,152.976 C344.860005,152.976 345.683997,152.756002 346.372,152.316 C347.060003,151.875998 347.571998,151.240004 347.908,150.408 L347.908,148.344 L343.948,148.344 C341.787989,148.344 340.708,149.095992 340.708,150.6 C340.708,151.336004 340.987997,151.915998 341.548,152.34 C342.108003,152.764002 342.891995,152.976 343.9,152.976 Z M365.188,145.536 C366.292006,145.776001 367.143997,146.251996 367.744,146.964 C368.344003,147.676004 368.644,148.591994 368.644,149.712 C368.644,151.152007 368.112005,152.259996 367.048,153.036 C365.983995,153.812004 364.41201,154.2 362.332,154.2 L354.604,154.2 L354.604,137.4 L361.852,137.4 C363.724009,137.4 365.175995,137.775996 366.208,138.528 C367.240005,139.280004 367.756,140.343993 367.756,141.72 C367.756,142.648005 367.528002,143.435997 367.072,144.084 C366.615998,144.732003 365.988004,145.215998 365.188,145.536 Z M356.38,138.864 L356.38,144.96 L361.732,144.96 C363.092007,144.96 364.139996,144.700003 364.876,144.18 C365.612004,143.659997 365.98,142.904005 365.98,141.912 C365.98,140.919995 365.612004,140.164003 364.876,139.644 C364.139996,139.123997 363.092007,138.864 361.732,138.864 L356.38,138.864 Z M362.308,152.736 C363.812008,152.736 364.947996,152.480003 365.716,151.968 C366.484004,151.455997 366.868,150.656005 366.868,149.568 C366.868,147.47199 365.348015,146.424 362.308,146.424 L356.38,146.424 L356.38,152.736 L362.308,152.736 Z M378.844,141.48 C380.028006,141.48 381.099995,141.747997 382.06,142.284 C383.020005,142.820003 383.771997,143.575995 384.316,144.552 C384.860003,145.528005 385.132,146.639994 385.132,147.888 C385.132,149.136006 384.860003,150.247995 384.316,151.224 C383.771997,152.200005 383.020005,152.959997 382.06,153.504 C381.099995,154.048003 380.028006,154.32 378.844,154.32 C377.787995,154.32 376.84,154.096002 376,153.648 C375.159996,153.199998 374.484003,152.552004 373.972,151.704 L373.972,154.2 L372.34,154.2 L372.34,136.392 L374.044,136.392 L374.044,143.976 C374.572003,143.159996 375.247996,142.540002 376.072,142.116 C376.896004,141.691998 377.819995,141.48 378.844,141.48 Z M378.724,152.808 C379.604004,152.808 380.403996,152.604002 381.124,152.196 C381.844004,151.787998 382.407998,151.208004 382.816,150.456 C383.224002,149.703996 383.428,148.848005 383.428,147.888 C383.428,146.927995 383.224002,146.072004 382.816,145.32 C382.407998,144.567996 381.844004,143.988002 381.124,143.58 C380.403996,143.171998 379.604004,142.968 378.724,142.968 C377.827996,142.968 377.024004,143.171998 376.312,143.58 C375.599996,143.988002 375.040002,144.567996 374.632,145.32 C374.223998,146.072004 374.02,146.927995 374.02,147.888 C374.02,148.848005 374.223998,149.703996 374.632,150.456 C375.040002,151.208004 375.599996,151.787998 376.312,152.196 C377.024004,152.604002 377.827996,152.808 378.724,152.808 Z M396.268,154.344 C394.603992,154.344 393.104007,153.976004 391.768,153.24 C390.431993,152.503996 389.384004,151.484007 388.624,150.18 C387.863996,148.875993 387.484,147.416008 387.484,145.8 C387.484,144.183992 387.863996,142.724007 388.624,141.42 C389.384004,140.115993 390.435993,139.096004 391.78,138.36 C393.124007,137.623996 394.627992,137.256 396.292,137.256 C397.540006,137.256 398.691995,137.463998 399.748,137.88 C400.804005,138.296002 401.699996,138.903996 402.436,139.704 L401.308,140.832 C399.995993,139.503993 398.34001,138.84 396.34,138.84 C395.011993,138.84 393.804005,139.143997 392.716,139.752 C391.627995,140.360003 390.776003,141.191995 390.16,142.248 C389.543997,143.304005 389.236,144.487993 389.236,145.8 C389.236,147.112007 389.543997,148.295995 390.16,149.352 C390.776003,150.408005 391.627995,151.239997 392.716,151.848 C393.804005,152.456003 395.011993,152.76 396.34,152.76 C398.35601,152.76 400.011994,152.088007 401.308,150.744 L402.436,151.872 C401.699996,152.672004 400.800005,153.283998 399.736,153.708 C398.671995,154.132002 397.516006,154.344 396.268,154.344 Z M411.1,154.32 C409.851994,154.32 408.736005,154.048003 407.752,153.504 C406.767995,152.959997 405.996003,152.196005 405.436,151.212 C404.875997,150.227995 404.596,149.120006 404.596,147.888 C404.596,146.655994 404.875997,145.552005 405.436,144.576 C405.996003,143.599995 406.767995,142.840003 407.752,142.296 C408.736005,141.751997 409.851994,141.48 411.1,141.48 C412.188005,141.48 413.159996,141.691998 414.016,142.116 C414.872004,142.540002 415.547998,143.159996 416.044,143.976 L414.772,144.84 C414.355998,144.215997 413.828003,143.748002 413.188,143.436 C412.547997,143.123998 411.852004,142.968 411.1,142.968 C410.187995,142.968 409.368004,143.171998 408.64,143.58 C407.911996,143.988002 407.344002,144.567996 406.936,145.32 C406.527998,146.072004 406.324,146.927995 406.324,147.888 C406.324,148.864005 406.527998,149.723996 406.936,150.468 C407.344002,151.212004 407.911996,151.787998 408.64,152.196 C409.368004,152.604002 410.187995,152.808 411.1,152.808 C411.852004,152.808 412.547997,152.656002 413.188,152.352 C413.828003,152.047998 414.355998,151.584003 414.772,150.96 L416.044,151.824 C415.547998,152.640004 414.868004,153.259998 414.004,153.684 C413.139996,154.108002 412.172005,154.32 411.1,154.32 Z M419.74,137.4 L426.58,137.4 C428.356009,137.4 429.923993,137.755996 431.284,138.468 C432.644007,139.180004 433.699996,140.171994 434.452,141.444 C435.204004,142.716006 435.58,144.167992 435.58,145.8 C435.58,147.432008 435.204004,148.883994 434.452,150.156 C433.699996,151.428006 432.644007,152.419996 431.284,153.132 C429.923993,153.844004 428.356009,154.2 426.58,154.2 L419.74,154.2 L419.74,137.4 Z M426.484,152.664 C427.956007,152.664 429.243994,152.372003 430.348,151.788 C431.452006,151.203997 432.307997,150.396005 432.916,149.364 C433.524003,148.331995 433.828,147.144007 433.828,145.8 C433.828,144.455993 433.524003,143.268005 432.916,142.236 C432.307997,141.203995 431.452006,140.396003 430.348,139.812 C429.243994,139.227997 427.956007,138.936 426.484,138.936 L421.516,138.936 L421.516,152.664 L426.484,152.664 Z M450.724,136.392 L450.724,154.2 L449.092,154.2 L449.092,151.704 C448.579997,152.552004 447.904004,153.199998 447.064,153.648 C446.223996,154.096002 445.276005,154.32 444.22,154.32 C443.035994,154.32 441.964005,154.048003 441.004,153.504 C440.043995,152.959997 439.292003,152.200005 438.748,151.224 C438.203997,150.247995 437.932,149.136006 437.932,147.888 C437.932,146.639994 438.203997,145.528005 438.748,144.552 C439.292003,143.575995 440.043995,142.820003 441.004,142.284 C441.964005,141.747997 443.035994,141.48 444.22,141.48 C445.244005,141.48 446.167996,141.691998 446.992,142.116 C447.816004,142.540002 448.491997,143.159996 449.02,143.976 L449.02,136.392 L450.724,136.392 Z M444.364,152.808 C445.244004,152.808 446.039996,152.604002 446.752,152.196 C447.464004,151.787998 448.023998,151.208004 448.432,150.456 C448.840002,149.703996 449.044,148.848005 449.044,147.888 C449.044,146.927995 448.840002,146.072004 448.432,145.32 C448.023998,144.567996 447.464004,143.988002 446.752,143.58 C446.039996,143.171998 445.244004,142.968 444.364,142.968 C443.467996,142.968 442.664004,143.171998 441.952,143.58 C441.239996,143.988002 440.680002,144.567996 440.272,145.32 C439.863998,146.072004 439.66,146.927995 439.66,147.888 C439.66,148.848005 439.863998,149.703996 440.272,150.456 C440.680002,151.208004 441.239996,151.787998 441.952,152.196 C442.664004,152.604002 443.467996,152.808 444.364,152.808 Z M467.716,152.664 L467.716,154.2 L455.836,154.2 L455.836,137.4 L467.356,137.4 L467.356,138.936 L457.612,138.936 L457.612,144.912 L466.3,144.912 L466.3,146.424 L457.612,146.424 L457.612,152.664 L467.716,152.664 Z M482.524,148.416 L471.964,148.416 C472.06,149.728007 472.563995,150.787996 473.476,151.596 C474.388005,152.404004 475.539993,152.808 476.932,152.808 C477.716004,152.808 478.435997,152.668001 479.092,152.388 C479.748003,152.107999 480.315998,151.696003 480.796,151.152 L481.756,152.256 C481.195997,152.928003 480.496004,153.439998 479.656,153.792 C478.815996,154.144002 477.892005,154.32 476.884,154.32 C475.587994,154.32 474.440005,154.044003 473.44,153.492 C472.439995,152.939997 471.660003,152.176005 471.1,151.2 C470.539997,150.223995 470.26,149.120006 470.26,147.888 C470.26,146.655994 470.527997,145.552005 471.064,144.576 C471.600003,143.599995 472.335995,142.840003 473.272,142.296 C474.208005,141.751997 475.26,141.48 476.428,141.48 C477.596006,141.48 478.643995,141.751997 479.572,142.296 C480.500005,142.840003 481.227997,143.595995 481.756,144.564 C482.284003,145.532005 482.548,146.639994 482.548,147.888 L482.524,148.416 Z M476.428,142.944 C475.211994,142.944 474.192004,143.331996 473.368,144.108 C472.543996,144.884004 472.076001,145.895994 471.964,147.144 L480.916,147.144 C480.803999,145.895994 480.336004,144.884004 479.512,144.108 C478.687996,143.331996 477.660006,142.944 476.428,142.944 Z M488.164,138.936 L488.164,145.536 L496.852,145.536 L496.852,147.072 L488.164,147.072 L488.164,154.2 L486.388,154.2 L486.388,137.4 L497.908,137.4 L497.908,138.936 L488.164,138.936 Z M505.396,137.712 C504.659996,137.712 504.104002,137.911998 503.728,138.312 C503.351998,138.712002 503.164,139.303996 503.164,140.088 L503.164,141.576 L507.052,141.576 L507.052,143.016 L503.212,143.016 L503.212,154.2 L501.508,154.2 L501.508,143.016 L499.252,143.016 L499.252,141.576 L501.508,141.576 L501.508,140.016 C501.508,138.863994 501.839997,137.952003 502.504,137.28 C503.168003,136.607997 504.107994,136.272 505.324,136.272 C505.804002,136.272 506.267998,136.339999 506.716,136.476 C507.164002,136.612001 507.539998,136.807999 507.844,137.064 L507.268,138.336 C506.771998,137.919998 506.148004,137.712 505.396,137.712 Z M521.548,145.8 L523.252,145.8 L523.252,152.208 C522.467996,152.896003 521.540005,153.423998 520.468,153.792 C519.395995,154.160002 518.268006,154.344 517.084,154.344 C515.403992,154.344 513.892007,153.976004 512.548,153.24 C511.203993,152.503996 510.148004,151.484007 509.38,150.18 C508.611996,148.875993 508.228,147.416008 508.228,145.8 C508.228,144.183992 508.611996,142.724007 509.38,141.42 C510.148004,140.115993 511.203993,139.096004 512.548,138.36 C513.892007,137.623996 515.411992,137.256 517.108,137.256 C518.388006,137.256 519.563995,137.459998 520.636,137.868 C521.708005,138.276002 522.611996,138.879996 523.348,139.68 L522.244,140.808 C520.915993,139.495993 519.22801,138.84 517.18,138.84 C515.819993,138.84 514.592005,139.139997 513.496,139.74 C512.399995,140.340003 511.540003,141.171995 510.916,142.236 C510.291997,143.300005 509.98,144.487993 509.98,145.8 C509.98,147.112007 510.291997,148.295995 510.916,149.352 C511.540003,150.408005 512.395995,151.239997 513.484,151.848 C514.572005,152.456003 515.795993,152.76 517.156,152.76 C518.884009,152.76 520.347994,152.328004 521.548,151.464 L521.548,145.8 Z M539.596,141.576 L539.596,152.664 C539.596,154.808011 539.072005,156.395995 538.024,157.428 C536.975995,158.460005 535.396011,158.976 533.284,158.976 C532.115994,158.976 531.008005,158.804002 529.96,158.46 C528.911995,158.115998 528.060003,157.640003 527.404,157.032 L528.268,155.736 C528.876003,156.280003 529.615996,156.703998 530.488,157.008 C531.360004,157.312002 532.275995,157.464 533.236,157.464 C534.836008,157.464 536.011996,157.092004 536.764,156.348 C537.516004,155.603996 537.892,154.448008 537.892,152.88 L537.892,151.272 C537.363997,152.072004 536.672004,152.679998 535.816,153.096 C534.959996,153.512002 534.012005,153.72 532.972,153.72 C531.787994,153.72 530.712005,153.460003 529.744,152.94 C528.775995,152.419997 528.016003,151.692005 527.464,150.756 C526.911997,149.819995 526.636,148.760006 526.636,147.576 C526.636,146.391994 526.911997,145.336005 527.464,144.408 C528.016003,143.48 528.771995,142.760003 529.732,142.248 C530.692005,141.735997 531.771994,141.48 532.972,141.48 C534.044005,141.48 535.011996,141.695998 535.876,142.128 C536.740004,142.560002 537.435997,143.183996 537.964,144 L537.964,141.576 L539.596,141.576 Z M533.14,152.208 C534.052005,152.208 534.875996,152.012002 535.612,151.62 C536.348004,151.227998 536.919998,150.680004 537.328,149.976 C537.736002,149.271996 537.94,148.472004 537.94,147.576 C537.94,146.679996 537.736002,145.884003 537.328,145.188 C536.919998,144.491997 536.352004,143.948002 535.624,143.556 C534.895996,143.163998 534.068005,142.968 533.14,142.968 C532.227995,142.968 531.408004,143.159998 530.68,143.544 C529.951996,143.928002 529.384002,144.471996 528.976,145.176 C528.567998,145.880004 528.364,146.679996 528.364,147.576 C528.364,148.472004 528.567998,149.271996 528.976,149.976 C529.384002,150.680004 529.951996,151.227998 530.68,151.62 C531.408004,152.012002 532.227995,152.208 533.14,152.208 Z M558.772,137.4 L558.772,154.2 L557.02,154.2 L557.02,146.448 L546.508,146.448 L546.508,154.2 L544.732,154.2 L544.732,137.4 L546.508,137.4 L546.508,144.888 L557.02,144.888 L557.02,137.4 L558.772,137.4 Z M570.316,141.48 C571.900008,141.48 573.159995,141.939995 574.096,142.86 C575.032005,143.780005 575.5,145.119991 575.5,146.88 L575.5,154.2 L573.796,154.2 L573.796,147.048 C573.796,145.735993 573.468003,144.736003 572.812,144.048 C572.155997,143.359997 571.220006,143.016 570.004,143.016 C568.643993,143.016 567.568004,143.419996 566.776,144.228 C565.983996,145.036004 565.588,146.151993 565.588,147.576 L565.588,154.2 L563.884,154.2 L563.884,136.392 L565.588,136.392 L565.588,143.784 C566.052002,143.047996 566.691996,142.480002 567.508,142.08 C568.324004,141.679998 569.259995,141.48 570.316,141.48 Z M580.492,137.4 L582.268,137.4 L582.268,154.2 L580.492,154.2 L580.492,137.4 Z M587.38,141.576 L589.084,141.576 L589.084,154.2 L587.38,154.2 L587.38,141.576 Z M588.244,138.816 C587.891998,138.816 587.596001,138.696001 587.356,138.456 C587.115999,138.215999 586.996,137.928002 586.996,137.592 C586.996,137.271998 587.115999,136.992001 587.356,136.752 C587.596001,136.511999 587.891998,136.392 588.244,136.392 C588.596002,136.392 588.891999,136.507999 589.132,136.74 C589.372001,136.972001 589.492,137.247998 589.492,137.568 C589.492,137.920002 589.372001,138.215999 589.132,138.456 C588.891999,138.696001 588.596002,138.816 588.244,138.816 Z M595.996,154.344 C595.035995,154.344 594.148004,154.136002 593.332,153.72 C592.515996,153.303998 591.852003,152.712004 591.34,151.944 L592.396,150.744 C593.324005,152.120007 594.531993,152.808 596.02,152.808 C598.10001,152.808 599.14,151.576012 599.14,149.112 L599.14,138.936 L592.996,138.936 L592.996,137.4 L600.892,137.4 L600.892,149.04 C600.892,150.800009 600.480004,152.123996 599.656,153.012 C598.831996,153.9 597.612008,154.344 595.996,154.344 Z M603.988,158.976 C603.459997,158.976 602.960002,158.908001 602.488,158.772 C602.015998,158.635999 601.628002,158.432001 601.324,158.16 L601.924,156.864 C602.420002,157.296002 603.075996,157.512 603.892,157.512 C604.564003,157.512 605.079998,157.312002 605.44,156.912 C605.800002,156.511998 605.98,155.920004 605.98,155.136 L605.98,141.576 L607.684,141.576 L607.684,155.136 C607.684,156.320006 607.364003,157.255997 606.724,157.944 C606.083997,158.632003 605.172006,158.976 603.988,158.976 Z M606.844,138.792 C606.491998,138.792 606.196001,138.672001 605.956,138.432 C605.715999,138.191999 605.596,137.904002 605.596,137.568 C605.596,137.247998 605.715999,136.968001 605.956,136.728 C606.196001,136.487999 606.491998,136.368 606.844,136.368 C607.196002,136.368 607.491999,136.483999 607.732,136.716 C607.972001,136.948001 608.092,137.223998 608.092,137.544 C608.092,137.896002 607.972001,138.191999 607.732,138.432 C607.491999,138.672001 607.196002,138.792 606.844,138.792 Z M618.004,146.304 L614.572,149.784 L614.572,154.2 L612.796,154.2 L612.796,137.4 L614.572,137.4 L614.572,147.552 L624.436,137.4 L626.476,137.4 L619.204,145.008 L626.98,154.2 L624.868,154.2 L618.004,146.304 Z M634.18,147.864 L631.204,150.6 L631.204,154.2 L629.5,154.2 L629.5,136.392 L631.204,136.392 L631.204,148.464 L638.74,141.576 L640.852,141.576 L635.452,146.736 L641.356,154.2 L639.268,154.2 L634.18,147.864 Z M644.284,137.4 L646.06,137.4 L646.06,152.664 L655.468,152.664 L655.468,154.2 L644.284,154.2 L644.284,137.4 Z M658.06,136.392 L659.764,136.392 L659.764,154.2 L658.06,154.2 L658.06,136.392 Z M682.324,137.4 L682.324,154.2 L680.62,154.2 L680.62,140.76 L674.02,152.064 L673.18,152.064 L666.58,140.832 L666.58,154.2 L664.876,154.2 L664.876,137.4 L666.34,137.4 L673.636,149.856 L680.86,137.4 L682.324,137.4 Z M703.18,141.48 C704.764008,141.48 706.007995,141.935995 706.912,142.848 C707.816005,143.760005 708.268,145.103991 708.268,146.88 L708.268,154.2 L706.564,154.2 L706.564,147.048 C706.564,145.735993 706.248003,144.736003 705.616,144.048 C704.983997,143.359997 704.092006,143.016 702.94,143.016 C701.627993,143.016 700.596004,143.419996 699.844,144.228 C699.091996,145.036004 698.716,146.151993 698.716,147.576 L698.716,154.2 L697.012,154.2 L697.012,147.048 C697.012,145.735993 696.696003,144.736003 696.064,144.048 C695.431997,143.359997 694.532006,143.016 693.364,143.016 C692.067994,143.016 691.040004,143.419996 690.28,144.228 C689.519996,145.036004 689.14,146.151993 689.14,147.576 L689.14,154.2 L687.436,154.2 L687.436,141.576 L689.068,141.576 L689.068,143.88 C689.516002,143.111996 690.139996,142.520002 690.94,142.104 C691.740004,141.687998 692.659995,141.48 693.7,141.48 C694.756005,141.48 695.671996,141.703998 696.448,142.152 C697.224004,142.600002 697.803998,143.263996 698.188,144.144 C698.652002,143.311996 699.319996,142.660002 700.192,142.188 C701.064004,141.715998 702.059994,141.48 703.18,141.48 Z M727.3,137.4 L727.3,154.2 L725.836,154.2 L715.036,140.568 L715.036,154.2 L713.26,154.2 L713.26,137.4 L714.724,137.4 L725.548,151.032 L725.548,137.4 L727.3,137.4 Z M738.844,141.48 C740.428008,141.48 741.687995,141.939995 742.624,142.86 C743.560005,143.780005 744.028,145.119991 744.028,146.88 L744.028,154.2 L742.324,154.2 L742.324,147.048 C742.324,145.735993 741.996003,144.736003 741.34,144.048 C740.683997,143.359997 739.748006,143.016 738.532,143.016 C737.171993,143.016 736.096004,143.419996 735.304,144.228 C734.511996,145.036004 734.116,146.151993 734.116,147.576 L734.116,154.2 L732.412,154.2 L732.412,141.576 L734.044,141.576 L734.044,143.904 C734.508002,143.135996 735.151996,142.540002 735.976,142.116 C736.800004,141.691998 737.755995,141.48 738.844,141.48 Z M756.364,154.344 C754.699992,154.344 753.192007,153.972004 751.84,153.228 C750.487993,152.483996 749.432004,151.464006 748.672,150.168 C747.911996,148.871994 747.532,147.416008 747.532,145.8 C747.532,144.183992 747.911996,142.728006 748.672,141.432 C749.432004,140.135994 750.487993,139.116004 751.84,138.372 C753.192007,137.627996 754.699992,137.256 756.364,137.256 C758.028008,137.256 759.527993,137.623996 760.864,138.36 C762.200007,139.096004 763.251996,140.115993 764.02,141.42 C764.788004,142.724007 765.172,144.183992 765.172,145.8 C765.172,147.416008 764.788004,148.875993 764.02,150.18 C763.251996,151.484007 762.200007,152.503996 760.864,153.24 C759.527993,153.976004 758.028008,154.344 756.364,154.344 Z M756.364,152.76 C757.692007,152.76 758.891995,152.460003 759.964,151.86 C761.036005,151.259997 761.875997,150.428005 762.484,149.364 C763.092003,148.299995 763.396,147.112007 763.396,145.8 C763.396,144.487993 763.092003,143.300005 762.484,142.236 C761.875997,141.171995 761.036005,140.34 759.964,139.74 C758.891995,139.139997 757.692007,138.84 756.364,138.84 C755.035993,138.84 753.832005,139.139997 752.752,139.74 C751.671995,140.34 750.824003,141.171995 750.208,142.236 C749.591997,143.300005 749.284,144.487993 749.284,145.8 C749.284,147.112007 749.591997,148.299995 750.208,149.364 C750.824003,150.428005 751.671995,151.259997 752.752,151.86 C753.832005,152.460003 755.035993,152.76 756.364,152.76 Z M773.956,154.32 C772.739994,154.32 771.644005,154.044003 770.668,153.492 C769.691995,152.939997 768.924003,152.176005 768.364,151.2 C767.803997,150.223995 767.524,149.120006 767.524,147.888 C767.524,146.655994 767.803997,145.552005 768.364,144.576 C768.924003,143.599995 769.691995,142.840003 770.668,142.296 C771.644005,141.751997 772.739994,141.48 773.956,141.48 C775.172006,141.48 776.267995,141.751997 777.244,142.296 C778.220005,142.840003 778.983997,143.599995 779.536,144.576 C780.088003,145.552005 780.364,146.655994 780.364,147.888 C780.364,149.120006 780.088003,150.223995 779.536,151.2 C778.983997,152.176005 778.220005,152.939997 777.244,153.492 C776.267995,154.044003 775.172006,154.32 773.956,154.32 Z M773.956,152.808 C774.852004,152.808 775.655996,152.604002 776.368,152.196 C777.080004,151.787998 777.635998,151.208004 778.036,150.456 C778.436002,149.703996 778.636,148.848005 778.636,147.888 C778.636,146.927995 778.436002,146.072004 778.036,145.32 C777.635998,144.567996 777.080004,143.988002 776.368,143.58 C775.655996,143.171998 774.852004,142.968 773.956,142.968 C773.059996,142.968 772.256004,143.171998 771.544,143.58 C770.831996,143.988002 770.272002,144.567996 769.864,145.32 C769.455998,146.072004 769.252,146.927995 769.252,147.888 C769.252,148.848005 769.455998,149.703996 769.864,150.456 C770.272002,151.208004 770.831996,151.787998 771.544,152.196 C772.256004,152.604002 773.059996,152.808 773.956,152.808 Z M790.492,137.4 C792.636011,137.4 794.315994,137.911995 795.532,138.936 C796.748006,139.960005 797.356,141.367991 797.356,143.16 C797.356,144.952009 796.748006,146.355995 795.532,147.372 C794.315994,148.388005 792.636011,148.896 790.492,148.896 L785.98,148.896 L785.98,154.2 L784.204,154.2 L784.204,137.4 L790.492,137.4 Z M790.444,147.336 C792.108008,147.336 793.379996,146.972004 794.26,146.244 C795.140004,145.515996 795.58,144.488007 795.58,143.16 C795.58,141.799993 795.140004,140.756004 794.26,140.028 C793.379996,139.299996 792.108008,138.936 790.444,138.936 L785.98,138.936 L785.98,147.336 L790.444,147.336 Z M807.58,141.48 C808.764006,141.48 809.835995,141.747997 810.796,142.284 C811.756005,142.820003 812.507997,143.575995 813.052,144.552 C813.596003,145.528005 813.868,146.639994 813.868,147.888 C813.868,149.152006 813.596003,150.271995 813.052,151.248 C812.507997,152.224005 811.760005,152.98 810.808,153.516 C809.855995,154.052003 808.780006,154.32 807.58,154.32 C806.555995,154.32 805.632004,154.108002 804.808,153.684 C803.983996,153.259998 803.308003,152.640004 802.78,151.824 L802.78,158.856 L801.076,158.856 L801.076,141.576 L802.708,141.576 L802.708,144.072 C803.220003,143.239996 803.895996,142.600002 804.736,142.152 C805.576,141.703998 806.523995,141.48 807.58,141.48 Z M807.46,152.808 C808.340004,152.808 809.139996,152.604002 809.86,152.196 C810.580004,151.787998 811.143998,151.208004 811.552,150.456 C811.960002,149.703996 812.164,148.848005 812.164,147.888 C812.164,146.927995 811.960002,146.076004 811.552,145.332 C811.143998,144.587996 810.580004,144.008002 809.86,143.592 C809.139996,143.175998 808.340004,142.968 807.46,142.968 C806.563996,142.968 805.760004,143.175998 805.048,143.592 C804.335996,144.008002 803.776002,144.587996 803.368,145.332 C802.959998,146.076004 802.756,146.927995 802.756,147.888 C802.756,148.848005 802.959998,149.703996 803.368,150.456 C803.776002,151.208004 804.335996,151.787998 805.048,152.196 C805.760004,152.604002 806.563996,152.808 807.46,152.808 Z M834.628,155.616 C834.115997,156.240003 833.512003,156.715998 832.816,157.044 C832.119997,157.372002 831.364004,157.536 830.548,157.536 C829.555995,157.536 828.616004,157.292002 827.728,156.804 C826.839996,156.315998 825.844006,155.496006 824.74,154.344 C823.123992,154.296 821.668006,153.896004 820.372,153.144 C819.075994,152.391996 818.060004,151.376006 817.324,150.096 C816.587996,148.815994 816.22,147.384008 816.22,145.8 C816.22,144.183992 816.599996,142.728006 817.36,141.432 C818.120004,140.135994 819.175993,139.116004 820.528,138.372 C821.880007,137.627996 823.387992,137.256 825.052,137.256 C826.716008,137.256 828.215993,137.623996 829.552,138.36 C830.888007,139.096004 831.939996,140.115993 832.708,141.42 C833.476004,142.724007 833.86,144.183992 833.86,145.8 C833.86,147.208007 833.568003,148.499994 832.984,149.676 C832.399997,150.852006 831.584005,151.831996 830.536,152.616 C829.487995,153.400004 828.284007,153.919999 826.924,154.176 C828.156006,155.472006 829.371994,156.12 830.572,156.12 C831.820006,156.12 832.883996,155.608005 833.764,154.584 L834.628,155.616 Z M817.972,145.8 C817.972,147.112007 818.279997,148.295995 818.896,149.352 C819.512003,150.408005 820.359995,151.239997 821.44,151.848 C822.520005,152.456003 823.723993,152.76 825.052,152.76 C826.380007,152.76 827.579995,152.456003 828.652,151.848 C829.724005,151.239997 830.563997,150.408005 831.172,149.352 C831.780003,148.295995 832.084,147.112007 832.084,145.8 C832.084,144.487993 831.780003,143.304005 831.172,142.248 C830.563997,141.191995 829.724005,140.360003 828.652,139.752 C827.579995,139.143997 826.380007,138.84 825.052,138.84 C823.723993,138.84 822.520005,139.143997 821.44,139.752 C820.359995,140.360003 819.512003,141.191995 818.896,142.248 C818.279997,143.304005 817.972,144.487993 817.972,145.8 Z M849.004,141.576 L849.004,158.856 L847.3,158.856 L847.3,151.824 C846.771997,152.640004 846.096004,153.259998 845.272,153.684 C844.447996,154.108002 843.524005,154.32 842.5,154.32 C841.299994,154.32 840.224005,154.052003 839.272,153.516 C838.319995,152.98 837.572003,152.224005 837.028,151.248 C836.483997,150.271995 836.212,149.152006 836.212,147.888 C836.212,146.639994 836.483997,145.528005 837.028,144.552 C837.572003,143.575995 838.323995,142.820003 839.284,142.284 C840.244005,141.747997 841.315994,141.48 842.5,141.48 C843.556005,141.48 844.503996,141.703998 845.344,142.152 C846.184004,142.600002 846.859997,143.239996 847.372,144.072 L847.372,141.576 L849.004,141.576 Z M842.644,152.808 C843.524004,152.808 844.319996,152.604002 845.032,152.196 C845.744004,151.787998 846.303998,151.208004 846.712,150.456 C847.120002,149.703996 847.324,148.848005 847.324,147.888 C847.324,146.927995 847.120002,146.076004 846.712,145.332 C846.303998,144.587996 845.744004,144.008002 845.032,143.592 C844.319996,143.175998 843.524004,142.968 842.644,142.968 C841.747996,142.968 840.944004,143.175998 840.232,143.592 C839.519996,144.008002 838.960002,144.587996 838.552,145.332 C838.143998,146.076004 837.94,146.927995 837.94,147.888 C837.94,148.848005 838.143998,149.703996 838.552,150.456 C838.960002,151.208004 839.519996,151.787998 840.232,152.196 C840.944004,152.604002 841.747996,152.808 842.644,152.808 Z M865.588,154.2 L861.748,148.8 C861.315998,148.848 860.868002,148.872 860.404,148.872 L855.892,148.872 L855.892,154.2 L854.116,154.2 L854.116,137.4 L860.404,137.4 C862.548011,137.4 864.227994,137.911995 865.444,138.936 C866.660006,139.960005 867.268,141.367991 867.268,143.16 C867.268,144.472007 866.936003,145.579995 866.272,146.484 C865.607997,147.388005 864.660006,148.039998 863.428,148.44 L867.532,154.2 L865.588,154.2 Z M860.356,147.36 C862.020008,147.36 863.291996,146.992004 864.172,146.256 C865.052004,145.519996 865.492,144.488007 865.492,143.16 C865.492,141.799993 865.052004,140.756004 864.172,140.028 C863.291996,139.299996 862.020008,138.936 860.356,138.936 L855.892,138.936 L855.892,147.36 L860.356,147.36 Z M872.74,144.048 C873.140002,143.199996 873.735996,142.560002 874.528,142.128 C875.320004,141.695998 876.299994,141.48 877.468,141.48 L877.468,143.136 L877.06,143.112 C875.731993,143.112 874.692004,143.519996 873.94,144.336 C873.187996,145.152004 872.812,146.295993 872.812,147.768 L872.812,154.2 L871.108,154.2 L871.108,141.576 L872.74,141.576 L872.74,144.048 Z M885.724,154.344 C884.475994,154.344 883.280006,154.144002 882.136,153.744 C880.991994,153.343998 880.108003,152.816003 879.484,152.16 L880.18,150.792 C880.788003,151.400003 881.595995,151.891998 882.604,152.268 C883.612005,152.644002 884.651995,152.832 885.724,152.832 C887.228008,152.832 888.355996,152.556003 889.108,152.004 C889.860004,151.451997 890.236,150.736004 890.236,149.856 C890.236,149.183997 890.032002,148.648002 889.624,148.248 C889.215998,147.847998 888.716003,147.540001 888.124,147.324 C887.531997,147.107999 886.708005,146.872001 885.652,146.616 C884.387994,146.295998 883.380004,145.988001 882.628,145.692 C881.875996,145.395999 881.232003,144.944003 880.696,144.336 C880.159997,143.727997 879.892,142.904005 879.892,141.864 C879.892,141.015996 880.115998,140.244003 880.564,139.548 C881.012002,138.851997 881.699995,138.296002 882.628,137.88 C883.556005,137.463998 884.707993,137.256 886.084,137.256 C887.044005,137.256 887.984,137.387999 888.904,137.652 C889.824005,137.916001 890.619997,138.279998 891.292,138.744 L890.692,140.16 C889.987996,139.695998 889.236004,139.348001 888.436,139.116 C887.635996,138.883999 886.852004,138.768 886.084,138.768 C884.611993,138.768 883.504004,139.051997 882.76,139.62 C882.015996,140.188003 881.644,140.919996 881.644,141.816 C881.644,142.488003 881.847998,143.027998 882.256,143.436 C882.664002,143.844002 883.175997,144.155999 883.792,144.372 C884.408003,144.588001 885.235995,144.823999 886.276,145.08 C887.508006,145.384002 888.503996,145.683999 889.264,145.98 C890.024004,146.276001 890.667997,146.723997 891.196,147.324 C891.724003,147.924003 891.988,148.735995 891.988,149.76 C891.988,150.608004 891.760002,151.379997 891.304,152.076 C890.847998,152.772003 890.148005,153.323998 889.204,153.732 C888.259995,154.140002 887.100007,154.344 885.724,154.344 Z M898.876,154.32 C897.851995,154.32 896.872005,154.172001 895.936,153.876 C894.999995,153.579999 894.268003,153.208002 893.74,152.76 L894.508,151.416 C895.036003,151.832002 895.699996,152.171999 896.5,152.436 C897.300004,152.700001 898.131996,152.832 898.996,152.832 C900.148006,152.832 900.999997,152.652002 901.552,152.292 C902.104003,151.931998 902.38,151.424003 902.38,150.768 C902.38,150.303998 902.228002,149.940001 901.924,149.676 C901.619998,149.411999 901.236002,149.212001 900.772,149.076 C900.307998,148.939999 899.692004,148.808001 898.924,148.68 C897.899995,148.487999 897.076003,148.292001 896.452,148.092 C895.827997,147.891999 895.296002,147.552002 894.856,147.072 C894.415998,146.591998 894.196,145.928004 894.196,145.08 C894.196,144.023995 894.635996,143.160003 895.516,142.488 C896.396004,141.815997 897.619992,141.48 899.188,141.48 C900.004004,141.48 900.819996,141.587999 901.636,141.804 C902.452004,142.020001 903.123997,142.303998 903.652,142.656 L902.908,144.024 C901.867995,143.303996 900.628007,142.944 899.188,142.944 C898.099995,142.944 897.280003,143.135998 896.728,143.52 C896.175997,143.904002 895.9,144.407997 895.9,145.032 C895.9,145.512002 896.055998,145.895999 896.368,146.184 C896.680002,146.472001 897.067998,146.683999 897.532,146.82 C897.996002,146.956001 898.635996,147.095999 899.452,147.24 C900.460005,147.432001 901.267997,147.623999 901.876,147.816 C902.484003,148.008001 903.003998,148.335998 903.436,148.8 C903.868002,149.264002 904.084,149.903996 904.084,150.72 C904.084,151.824006 903.624005,152.699997 902.704,153.348 C901.783995,153.996003 900.508008,154.32 898.876,154.32 Z M326.5,170.936 L320.596,170.936 L320.596,169.4 L334.18,169.4 L334.18,170.936 L328.276,170.936 L328.276,186.2 L326.5,186.2 L326.5,170.936 Z M343.3,185.432 C342.979998,185.720001 342.584002,185.939999 342.112,186.092 C341.639998,186.244001 341.148003,186.32 340.636,186.32 C339.451994,186.32 338.540003,186.000003 337.9,185.36 C337.259997,184.719997 336.94,183.816 336.94,182.648 L336.94,175.016 L334.684,175.016 L334.684,173.576 L336.94,173.576 L336.94,170.816 L338.644,170.816 L338.644,173.576 L342.484,173.576 L342.484,175.016 L338.644,175.016 L338.644,182.552 C338.644,183.304004 338.831998,183.875998 339.208,184.268 C339.584002,184.660002 340.123996,184.856 340.828,184.856 C341.180002,184.856 341.519998,184.800001 341.848,184.688 C342.176002,184.575999 342.459999,184.416001 342.7,184.208 L343.3,185.432 Z M353.524,186.344 C351.347989,186.344 349.652006,185.720006 348.436,184.472 C347.219994,183.223994 346.612,181.408012 346.612,179.024 L346.612,169.4 L348.388,169.4 L348.388,178.952 C348.388,180.90401 348.827996,182.359995 349.708,183.32 C350.588004,184.280005 351.859992,184.76 353.524,184.76 C355.204008,184.76 356.483996,184.280005 357.364,183.32 C358.244004,182.359995 358.684,180.90401 358.684,178.952 L358.684,169.4 L360.412,169.4 L360.412,179.024 C360.412,181.408012 359.808006,183.223994 358.6,184.472 C357.391994,185.720006 355.700011,186.344 353.524,186.344 Z M376.78,173.576 L376.78,186.2 L375.148,186.2 L375.148,183.896 C374.699998,184.664004 374.084004,185.259998 373.3,185.684 C372.515996,186.108002 371.620005,186.32 370.612,186.32 C368.963992,186.32 367.664005,185.860005 366.712,184.94 C365.759995,184.019995 365.284,182.672009 365.284,180.896 L365.284,173.576 L366.988,173.576 L366.988,180.728 C366.988,182.056007 367.315997,183.063997 367.972,183.752 C368.628003,184.440003 369.563994,184.784 370.78,184.784 C372.108007,184.784 373.155996,184.380004 373.924,183.572 C374.692004,182.763996 375.076,181.640007 375.076,180.2 L375.076,173.576 L376.78,173.576 Z M395.884,169.4 L388.444,186.2 L386.692,186.2 L379.252,169.4 L381.172,169.4 L387.604,183.992 L394.084,169.4 L395.884,169.4 Z M408.916,173.576 L403.3,186.2 L401.548,186.2 L395.956,173.576 L397.732,173.576 L402.46,184.328 L407.236,173.576 L408.916,173.576 Z M434.74,169.4 L429.076,186.2 L427.204,186.2 L422.284,171.872 L417.34,186.2 L415.492,186.2 L409.828,169.4 L411.652,169.4 L416.5,183.848 L421.516,169.4 L423.172,169.4 L428.116,183.92 L433.036,169.4 L434.74,169.4 Z M456.508,173.576 L451.732,186.2 L450.124,186.2 L446.14,175.856 L442.156,186.2 L440.548,186.2 L435.796,173.576 L437.428,173.576 L441.388,184.304 L445.444,173.576 L446.908,173.576 L450.94,184.304 L454.948,173.576 L456.508,173.576 Z M469.972,186.2 L464.548,178.808 L459.148,186.2 L457.108,186.2 L463.492,177.56 L457.516,169.4 L459.556,169.4 L464.62,176.264 L469.66,169.4 L471.58,169.4 L465.628,177.512 L472.036,186.2 L469.972,186.2 Z M482.86,186.2 L478.852,180.92 L474.82,186.2 L472.9,186.2 L477.892,179.72 L473.14,173.576 L475.06,173.576 L478.852,178.52 L482.644,173.576 L484.516,173.576 L479.764,179.72 L484.804,186.2 L482.86,186.2 Z M493.756,180.392 L493.756,186.2 L492.004,186.2 L492.004,180.392 L485.284,169.4 L487.18,169.4 L492.94,178.832 L498.7,169.4 L500.476,169.4 L493.756,180.392 Z M513.484,173.576 L507.172,187.712 C506.659997,188.896006 506.068003,189.735998 505.396,190.232 C504.723997,190.728002 503.916005,190.976 502.972,190.976 C502.363997,190.976 501.796003,190.880001 501.268,190.688 C500.739997,190.495999 500.284002,190.208002 499.9,189.824 L500.692,188.552 C501.332003,189.192003 502.099996,189.512 502.996,189.512 C503.572003,189.512 504.063998,189.352002 504.472,189.032 C504.880002,188.711998 505.259998,188.168004 505.612,187.4 L506.164,186.176 L500.524,173.576 L502.3,173.576 L507.052,184.304 L511.804,173.576 L513.484,173.576 Z M528.364,184.664 L528.364,186.2 L514.588,186.2 L514.588,184.976 L525.724,170.936 L514.756,170.936 L514.756,169.4 L528.076,169.4 L528.076,170.624 L516.964,184.664 L528.364,184.664 Z M540.412,184.784 L540.412,186.2 L530.14,186.2 L530.14,185.072 L538.084,175.016 L530.284,175.016 L530.284,173.576 L540.268,173.576 L540.268,174.704 L532.324,184.784 L540.412,184.784 Z M547.3,169.4 L547.3,186.2 L545.572,186.2 L545.572,170.936 L541.612,170.936 L541.612,169.4 L547.3,169.4 Z M562.78,184.664 L562.78,186.2 L550.996,186.2 L550.996,184.976 L557.98,178.136 C558.860004,177.271996 559.455998,176.524003 559.768,175.892 C560.080002,175.259997 560.236,174.624003 560.236,173.984 C560.236,172.991995 559.896003,172.220003 559.216,171.668 C558.535997,171.115997 557.564006,170.84 556.3,170.84 C554.33199,170.84 552.804005,171.463994 551.716,172.712 L550.492,171.656 C551.148003,170.887996 551.983995,170.296002 553,169.88 C554.016005,169.463998 555.163994,169.256 556.444,169.256 C558.156009,169.256 559.511995,169.659996 560.512,170.468 C561.512005,171.276004 562.012,172.383993 562.012,173.792 C562.012,174.656004 561.820002,175.487996 561.436,176.288 C561.051998,177.088004 560.324005,178.007995 559.252,179.048 L553.54,184.664 L562.78,184.664 Z M570.652,176.6 C572.412009,176.696 573.751995,177.171996 574.672,178.028 C575.592005,178.884004 576.052,179.999993 576.052,181.376 C576.052,182.336005 575.820002,183.187996 575.356,183.932 C574.891998,184.676004 574.204005,185.263998 573.292,185.696 C572.379995,186.128002 571.268007,186.344 569.956,186.344 C568.739994,186.344 567.592005,186.148002 566.512,185.756 C565.431995,185.363998 564.564003,184.840003 563.908,184.184 L564.748,182.816 C565.308003,183.392003 566.051995,183.859998 566.98,184.22 C567.908,184.580002 568.899995,184.76 569.956,184.76 C571.332007,184.76 572.395996,184.460003 573.148,183.86 C573.900004,183.259997 574.276,182.432005 574.276,181.376 C574.276,180.335995 573.900004,179.520003 573.148,178.928 C572.395996,178.335997 571.260008,178.04 569.74,178.04 L568.54,178.04 L568.54,176.768 L573.196,170.936 L564.604,170.936 L564.604,169.4 L575.404,169.4 L575.404,170.624 L570.652,176.6 Z M592.756,181.784 L589.396,181.784 L589.396,186.2 L587.668,186.2 L587.668,181.784 L578.188,181.784 L578.188,180.536 L587.092,169.4 L589.012,169.4 L580.42,180.248 L587.716,180.248 L587.716,176.36 L589.396,176.36 L589.396,180.248 L592.756,180.248 L592.756,181.784 Z M598.756,176.288 C601.188012,176.288 602.959994,176.723996 604.072,177.596 C605.184006,178.468004 605.74,179.687992 605.74,181.256 C605.74,182.232005 605.512002,183.103996 605.056,183.872 C604.599998,184.640004 603.916005,185.243998 603.004,185.684 C602.091995,186.124002 600.972007,186.344 599.644,186.344 C598.443994,186.344 597.304005,186.148002 596.224,185.756 C595.143995,185.363998 594.276003,184.840003 593.62,184.184 L594.46,182.816 C595.020003,183.392003 595.755995,183.859998 596.668,184.22 C597.580005,184.580002 598.563995,184.76 599.62,184.76 C601.012007,184.76 602.087996,184.448003 602.848,183.824 C603.608004,183.199997 603.988,182.368005 603.988,181.328 C603.988,180.175994 603.560004,179.304003 602.704,178.712 C601.847996,178.119997 600.40401,177.824 598.372,177.824 L594.796,177.824 L595.66,169.4 L604.852,169.4 L604.852,170.936 L597.172,170.936 L596.596,176.288 L598.756,176.288 Z M614.884,176.144 C615.988006,176.144 616.967996,176.351998 617.824,176.768 C618.680004,177.184002 619.347998,177.771996 619.828,178.532 C620.308002,179.292004 620.548,180.175995 620.548,181.184 C620.548,182.208005 620.300002,183.111996 619.804,183.896 C619.307998,184.680004 618.624004,185.283998 617.752,185.708 C616.879996,186.132002 615.900005,186.344 614.812,186.344 C612.587989,186.344 610.884006,185.612007 609.7,184.148 C608.515994,182.683993 607.924,180.616013 607.924,177.944 C607.924,176.071991 608.243997,174.488006 608.884,173.192 C609.524003,171.895994 610.419994,170.916003 611.572,170.252 C612.724006,169.587997 614.067992,169.256 615.604,169.256 C617.268008,169.256 618.595995,169.559997 619.588,170.168 L618.892,171.56 C618.091996,171.031997 617.004007,170.768 615.628,170.768 C613.771991,170.768 612.316005,171.355994 611.26,172.532 C610.203995,173.708006 609.676,175.415989 609.676,177.656 C609.676,178.056002 609.7,178.511997 609.748,179.024 C610.164002,178.111995 610.827995,177.404003 611.74,176.9 C612.652005,176.395997 613.699994,176.144 614.884,176.144 Z M614.74,184.88 C615.956006,184.88 616.943996,184.548003 617.704,183.884 C618.464004,183.219997 618.844,182.336006 618.844,181.232 C618.844,180.127994 618.464004,179.248003 617.704,178.592 C616.943996,177.935997 615.916006,177.608 614.62,177.608 C613.771996,177.608 613.024003,177.767998 612.376,178.088 C611.727997,178.408002 611.220002,178.847997 610.852,179.408 C610.483998,179.968003 610.3,180.591997 610.3,181.28 C610.3,181.920003 610.471998,182.511997 610.816,183.056 C611.160002,183.600003 611.667997,184.039998 612.34,184.376 C613.012003,184.712002 613.811995,184.88 614.74,184.88 Z M634.396,169.4 L634.396,170.624 L627.364,186.2 L625.492,186.2 L632.404,170.936 L623.764,170.936 L623.764,174.08 L622.06,174.08 L622.06,169.4 L634.396,169.4 Z M646.3,177.392 C647.356005,177.744002 648.167997,178.271996 648.736,178.976 C649.304003,179.680004 649.588,180.527995 649.588,181.52 C649.588,182.496005 649.324003,183.347996 648.796,184.076 C648.267997,184.804004 647.512005,185.363998 646.528,185.756 C645.543995,186.148002 644.388007,186.344 643.06,186.344 C641.04399,186.344 639.460006,185.912004 638.308,185.048 C637.155994,184.183996 636.58,183.008007 636.58,181.52 C636.58,180.511995 636.855997,179.660003 637.408,178.964 C637.960003,178.267997 638.763995,177.744002 639.82,177.392 C638.955996,177.055998 638.300002,176.572003 637.852,175.94 C637.403998,175.307997 637.18,174.560004 637.18,173.696 C637.18,172.335993 637.711995,171.256 638.776,170.456 C639.840005,169.655996 641.267991,169.256 643.06,169.256 C644.244006,169.256 645.279996,169.435998 646.168,169.796 C647.056004,170.156002 647.747998,170.671997 648.244,171.344 C648.740002,172.016003 648.988,172.799996 648.988,173.696 C648.988,174.560004 648.756002,175.307997 648.292,175.94 C647.827998,176.572003 647.164004,177.055998 646.3,177.392 Z M638.908,173.744 C638.908,174.672005 639.275996,175.407997 640.012,175.952 C640.748004,176.496003 641.763994,176.768 643.06,176.768 C644.356006,176.768 645.375996,176.496003 646.12,175.952 C646.864004,175.407997 647.236,174.680005 647.236,173.768 C647.236,172.823995 646.856004,172.080003 646.096,171.536 C645.335996,170.991997 644.324006,170.72 643.06,170.72 C641.779994,170.72 640.768004,170.991997 640.024,171.536 C639.279996,172.080003 638.908,172.815995 638.908,173.744 Z M643.06,184.88 C644.548007,184.88 645.711996,184.576003 646.552,183.968 C647.392004,183.359997 647.812,182.536005 647.812,181.496 C647.812,180.455995 647.392004,179.636 646.552,179.036 C645.711996,178.435997 644.548007,178.136 643.06,178.136 C641.587993,178.136 640.432004,178.435997 639.592,179.036 C638.751996,179.636 638.332,180.455995 638.332,181.496 C638.332,182.552005 638.747996,183.379997 639.58,183.98 C640.412004,184.580003 641.571993,184.88 643.06,184.88 Z M657.22,169.256 C659.444011,169.256 661.147994,169.987993 662.332,171.452 C663.516006,172.916007 664.108,174.983987 664.108,177.656 C664.108,179.528009 663.788003,181.111994 663.148,182.408 C662.507997,183.704006 661.612006,184.683997 660.46,185.348 C659.307994,186.012003 657.964008,186.344 656.428,186.344 C654.763992,186.344 653.436005,186.040003 652.444,185.432 L653.14,184.04 C653.940004,184.568003 655.027993,184.832 656.404,184.832 C658.260009,184.832 659.715995,184.244006 660.772,183.068 C661.828005,181.891994 662.356,180.184011 662.356,177.944 C662.356,177.527998 662.332,177.072002 662.284,176.576 C661.867998,177.488005 661.204005,178.195997 660.292,178.7 C659.379995,179.204003 658.332006,179.456 657.148,179.456 C656.043994,179.456 655.064004,179.248002 654.208,178.832 C653.351996,178.415998 652.684002,177.828004 652.204,177.068 C651.723998,176.307996 651.484,175.424005 651.484,174.416 C651.484,173.391995 651.731998,172.488004 652.228,171.704 C652.724002,170.919996 653.407996,170.316002 654.28,169.892 C655.152004,169.467998 656.131995,169.256 657.22,169.256 Z M657.412,177.992 C658.260004,177.992 659.007997,177.832002 659.656,177.512 C660.304003,177.191998 660.811998,176.752003 661.18,176.192 C661.548002,175.631997 661.732,175.008003 661.732,174.32 C661.732,173.679997 661.560002,173.088003 661.216,172.544 C660.871998,171.999997 660.364003,171.560002 659.692,171.224 C659.019997,170.887998 658.220005,170.72 657.292,170.72 C656.075994,170.72 655.088004,171.051997 654.328,171.716 C653.567996,172.380003 653.188,173.263994 653.188,174.368 C653.188,175.472006 653.567996,176.351997 654.328,177.008 C655.088004,177.664003 656.115994,177.992 657.412,177.992 Z M673.3,186.344 C672.003994,186.344 670.848005,186.000003 669.832,185.312 C668.815995,184.623997 668.024003,183.636006 667.456,182.348 C666.887997,181.059994 666.604,179.544009 666.604,177.8 C666.604,176.055991 666.887997,174.540006 667.456,173.252 C668.024003,171.963994 668.815995,170.976003 669.832,170.288 C670.848005,169.599997 672.003994,169.256 673.3,169.256 C674.596006,169.256 675.751995,169.599997 676.768,170.288 C677.784005,170.976003 678.579997,171.963994 679.156,173.252 C679.732003,174.540006 680.02,176.055991 680.02,177.8 C680.02,179.544009 679.732003,181.059994 679.156,182.348 C678.579997,183.636006 677.784005,184.623997 676.768,185.312 C675.751995,186.000003 674.596006,186.344 673.3,186.344 Z M673.3,184.76 C674.276005,184.76 675.135996,184.488003 675.88,183.944 C676.624004,183.399997 677.203998,182.608005 677.62,181.568 C678.036002,180.527995 678.244,179.272007 678.244,177.8 C678.244,176.327993 678.036002,175.072005 677.62,174.032 C677.203998,172.991995 676.624004,172.200003 675.88,171.656 C675.135996,171.111997 674.276005,170.84 673.3,170.84 C672.323995,170.84 671.464004,171.111997 670.72,171.656 C669.975996,172.200003 669.396002,172.991995 668.98,174.032 C668.563998,175.072005 668.356,176.327993 668.356,177.8 C668.356,179.272007 668.563998,180.527995 668.98,181.568 C669.396002,182.608005 669.975996,183.399997 670.72,183.944 C671.464004,184.488003 672.323995,184.76 673.3,184.76 Z M693.676,175.28 L693.052,180.32 L696.46,180.32 L696.46,181.64 L692.884,181.64 L692.332,186.2 L691.036,186.2 L691.588,181.64 L686.668,181.64 L686.092,186.2 L684.796,186.2 L685.348,181.64 L681.94,181.64 L681.94,180.32 L685.516,180.32 L686.14,175.28 L682.708,175.28 L682.708,173.96 L686.308,173.96 L686.86,169.4 L688.18,169.4 L687.604,173.96 L692.548,173.96 L693.1,169.4 L694.396,169.4 L693.844,173.96 L697.228,173.96 L697.228,175.28 L693.676,175.28 Z M692.38,175.28 L687.46,175.28 L686.812,180.32 L691.756,180.32 L692.38,175.28 Z M710.068,178.52 L705.604,178.52 L705.604,182.888 L704.092,182.888 L704.092,178.52 L699.628,178.52 L699.628,177.104 L704.092,177.104 L704.092,172.712 L705.604,172.712 L705.604,177.104 L710.068,177.104 L710.068,178.52 Z M713.188,178.952 L719.476,178.952 L719.476,180.44 L713.188,180.44 L713.188,178.952 Z M733.372,169.256 C735.516011,169.256 737.431992,169.699996 739.12,170.588 C740.808008,171.476004 742.123995,172.723992 743.068,174.332 C744.012005,175.940008 744.484,177.77599 744.484,179.84 C744.484,181.87201 744.132004,183.459994 743.428,184.604 C742.723996,185.748006 741.748006,186.32 740.5,186.32 C739.715996,186.32 739.080002,186.088002 738.592,185.624 C738.103998,185.159998 737.836,184.520004 737.788,183.704 C737.307998,184.536004 736.652004,185.179998 735.82,185.636 C734.987996,186.092002 734.044005,186.32 732.988,186.32 C731.867994,186.32 730.856005,186.052003 729.952,185.516 C729.047995,184.979997 728.336003,184.240005 727.816,183.296 C727.295997,182.351995 727.036,181.288006 727.036,180.104 C727.036,178.919994 727.295997,177.860005 727.816,176.924 C728.336003,175.987995 729.047995,175.256 729.952,174.728 C730.856005,174.199997 731.867994,173.936 732.988,173.936 C734.012005,173.936 734.935996,174.155998 735.76,174.596 C736.584004,175.036002 737.243998,175.655996 737.74,176.456 L737.74,174.032 L739.3,174.032 L739.3,183.128 C739.3,183.768003 739.435999,184.231999 739.708,184.52 C739.980001,184.808001 740.339998,184.952 740.788,184.952 C741.540004,184.952 742.135998,184.504004 742.576,183.608 C743.016002,182.711996 743.236,181.464008 743.236,179.864 C743.236,178.007991 742.820004,176.372007 741.988,174.956 C741.155996,173.539993 739.992007,172.440004 738.496,171.656 C736.999993,170.871996 735.29201,170.48 733.372,170.48 C731.43599,170.48 729.720007,170.883996 728.224,171.692 C726.727993,172.500004 725.564004,173.635993 724.732,175.1 C723.899996,176.564007 723.484,178.231991 723.484,180.104 C723.484,181.976009 723.895996,183.647993 724.72,185.12 C725.544004,186.592007 726.695993,187.735996 728.176,188.552 C729.656007,189.368004 731.35599,189.776 733.276,189.776 C734.028004,189.776 734.815996,189.688001 735.64,189.512 C736.464004,189.335999 737.211997,189.072002 737.884,188.72 L738.292,189.896 C737.603997,190.248002 736.808005,190.519999 735.904,190.712 C734.999995,190.904001 734.124004,191 733.276,191 C731.099989,191 729.172008,190.536005 727.492,189.608 C725.811992,188.679995 724.504005,187.388008 723.568,185.732 C722.631995,184.075992 722.164,182.20001 722.164,180.104 C722.164,177.991989 722.635995,176.116008 723.58,174.476 C724.524005,172.835992 725.847991,171.556005 727.552,170.636 C729.256009,169.715995 731.195989,169.256 733.372,169.256 Z M733.204,184.928 C734.068004,184.928 734.843997,184.728002 735.532,184.328 C736.220003,183.927998 736.763998,183.364004 737.164,182.636 C737.564002,181.907996 737.764,181.064005 737.764,180.104 C737.764,179.159995 737.564002,178.324004 737.164,177.596 C736.763998,176.867996 736.220003,176.308002 735.532,175.916 C734.843997,175.523998 734.068004,175.328 733.204,175.328 C732.323996,175.328 731.536003,175.527998 730.84,175.928 C730.143997,176.328 729.600002,176.887996 729.208,177.608 C728.815998,178.328 728.62,179.159995 728.62,180.104 C728.62,181.048005 728.815998,181.883996 729.208,182.612 C729.600002,183.340004 730.143997,183.907998 730.84,184.316 C731.536003,184.724002 732.323996,184.928 733.204,184.928 Z M757.828,178.52 L753.364,178.52 L753.364,182.888 L751.852,182.888 L751.852,178.52 L747.388,178.52 L747.388,177.104 L751.852,177.104 L751.852,172.712 L753.364,172.712 L753.364,177.104 L757.828,177.104 L757.828,178.52 Z M765.268,172.736 L768.244,174.416 L767.692,175.424 L764.692,173.672 L764.692,177.08 L763.588,177.08 L763.612,173.672 L760.612,175.424 L760.036,174.416 L763.036,172.736 L760.036,171.056 L760.612,170.024 L763.612,171.8 L763.588,168.392 L764.692,168.392 L764.692,171.8 L767.692,170.024 L768.244,171.056 L765.268,172.736 Z M773.572,178.4 C772.435994,178.4 771.520003,177.980004 770.824,177.14 C770.127997,176.299996 769.78,175.200007 769.78,173.84 C769.78,172.479993 770.127997,171.380004 770.824,170.54 C771.520003,169.699996 772.435994,169.28 773.572,169.28 C774.692006,169.28 775.603996,169.695996 776.308,170.528 C777.012004,171.360004 777.364,172.463993 777.364,173.84 C777.364,175.216007 777.012004,176.319996 776.308,177.152 C775.603996,177.984004 774.692006,178.4 773.572,178.4 Z M783.748,169.4 L785.164,169.4 L773.692,186.2 L772.276,186.2 L783.748,169.4 Z M773.572,177.32 C774.356004,177.32 774.983998,177.012003 775.456,176.396 C775.928002,175.779997 776.164,174.928005 776.164,173.84 C776.164,172.751995 775.928002,171.900003 775.456,171.284 C774.983998,170.667997 774.356004,170.36 773.572,170.36 C772.771996,170.36 772.140002,170.671997 771.676,171.296 C771.211998,171.920003 770.98,172.767995 770.98,173.84 C770.98,174.912005 771.211998,175.759997 771.676,176.384 C772.140002,177.008003 772.771996,177.32 773.572,177.32 Z M783.868,186.32 C782.747994,186.32 781.836004,185.900004 781.132,185.06 C780.427996,184.219996 780.076,183.120007 780.076,181.76 C780.076,180.399993 780.427996,179.300004 781.132,178.46 C781.836004,177.619996 782.747994,177.2 783.868,177.2 C785.004006,177.2 785.919997,177.619996 786.616,178.46 C787.312003,179.300004 787.66,180.399993 787.66,181.76 C787.66,183.120007 787.312003,184.219996 786.616,185.06 C785.919997,185.900004 785.004006,186.32 783.868,186.32 Z M783.868,185.24 C784.668004,185.24 785.299998,184.928003 785.764,184.304 C786.228002,183.679997 786.46,182.832005 786.46,181.76 C786.46,180.687995 786.228002,179.840003 785.764,179.216 C785.299998,178.591997 784.668004,178.28 783.868,178.28 C783.083996,178.28 782.456002,178.587997 781.984,179.204 C781.511998,179.820003 781.276,180.671995 781.276,181.76 C781.276,182.848005 781.511998,183.699997 781.984,184.316 C782.456002,184.932003 783.083996,185.24 783.868,185.24 Z M802.3,181.76 C802.3,182.992006 801.828005,184.035996 800.884,184.892 C799.939995,185.748004 798.556009,186.224 796.732,186.32 L796.732,189.08 L795.532,189.08 L795.532,186.344 C794.363994,186.28 793.264005,186.052002 792.232,185.66 C791.199995,185.267998 790.388003,184.768003 789.796,184.16 L790.492,182.792 C791.052003,183.336003 791.783995,183.791998 792.688,184.16 C793.592005,184.528002 794.539995,184.744 795.532,184.808 L795.532,178.496 C794.427994,178.223999 793.508004,177.932002 792.772,177.62 C792.035996,177.307998 791.424002,176.852003 790.936,176.252 C790.447998,175.651997 790.204,174.856005 790.204,173.864 C790.204,172.631994 790.651996,171.596004 791.548,170.756 C792.444004,169.915996 793.771991,169.424001 795.532,169.28 L795.532,166.52 L796.732,166.52 L796.732,169.256 C797.644005,169.288 798.527996,169.435999 799.384,169.7 C800.240004,169.964001 800.979997,170.311998 801.604,170.744 L801.004,172.16 C800.347997,171.743998 799.652004,171.416001 798.916,171.176 C798.179996,170.935999 797.452004,170.8 796.732,170.768 L796.732,177.128 C797.916006,177.416001 798.883996,177.707999 799.636,178.004 C800.388004,178.300001 801.019997,178.751997 801.532,179.36 C802.044003,179.968003 802.3,180.767995 802.3,181.76 Z M791.956,173.816 C791.956,174.648004 792.263997,175.279998 792.88,175.712 C793.496003,176.144002 794.379994,176.511998 795.532,176.816 L795.532,170.816 C794.347994,170.912 793.456,171.235997 792.856,171.788 C792.255997,172.340003 791.956,173.015996 791.956,173.816 Z M796.732,184.808 C797.996006,184.712 798.947997,184.400003 799.588,183.872 C800.228003,183.343997 800.548,182.672004 800.548,181.856 C800.548,180.991996 800.220003,180.344002 799.564,179.912 C798.907997,179.479998 797.964006,179.112002 796.732,178.808 L796.732,184.808 Z M808.708,190.856 C807.811996,189.383993 807.124002,187.69201 806.644,185.78 C806.163998,183.86799 805.924,181.816011 805.924,179.624 C805.924,177.431989 806.163998,175.37201 806.644,173.444 C807.124002,171.51599 807.811996,169.832007 808.708,168.392 L810.34,168.392 C809.395995,170.008008 808.704002,171.743991 808.264,173.6 C807.823998,175.456009 807.604,177.463989 807.604,179.624 C807.604,181.784011 807.823998,183.791991 808.264,185.648 C808.704002,187.504009 809.395995,189.239992 810.34,190.856 L808.708,190.856 Z M814.06,168.392 L818.452,168.392 L818.452,169.808 L815.764,169.808 L815.764,189.44 L818.452,189.44 L818.452,190.856 L814.06,190.856 L814.06,168.392 Z M823.996,177.656 C823.996,178.248003 823.908001,178.687999 823.732,178.976 C823.555999,179.264001 823.268002,179.479999 822.868,179.624 C823.268002,179.768001 823.555999,179.983999 823.732,180.272 C823.908001,180.560001 823.996,180.999997 823.996,181.592 L823.996,187.52 C823.996,188.800006 824.603994,189.44 825.82,189.44 L826.468,189.44 L826.468,190.856 L825.58,190.856 C823.387989,190.856 822.292,189.792011 822.292,187.664 L822.292,181.568 C822.292,180.751996 821.932004,180.344 821.212,180.344 L820.396,180.344 L820.396,178.904 L821.212,178.904 C821.932004,178.904 822.292,178.496004 822.292,177.68 L822.292,171.584 C822.292,169.455989 823.387989,168.392 825.58,168.392 L826.468,168.392 L826.468,169.808 L825.82,169.808 C824.603994,169.808 823.996,170.447994 823.996,171.728 L823.996,177.656 Z M832.612,181.16 C832.612,180.503997 832.719999,179.928002 832.936,179.432 C833.152001,178.935998 833.419998,178.512002 833.74,178.16 C834.060002,177.807998 834.475997,177.408002 834.988,176.96 C835.676003,176.351997 836.183998,175.820002 836.512,175.364 C836.840002,174.907998 837.004,174.352003 837.004,173.696 C837.004,172.815996 836.660003,172.108003 835.972,171.572 C835.284,171.035997 834.340006,170.768 833.14,170.768 C831.15599,170.768 829.628005,171.415994 828.556,172.712 L827.284,171.752 C828.644007,170.087992 830.635987,169.256 833.26,169.256 C834.940008,169.256 836.279995,169.631996 837.28,170.384 C838.280005,171.136004 838.78,172.151994 838.78,173.432 C838.78,174.088003 838.672001,174.667997 838.456,175.172 C838.239999,175.676003 837.976002,176.103998 837.664,176.456 C837.351998,176.808002 836.940003,177.215998 836.428,177.68 C835.739997,178.304003 835.228002,178.859998 834.892,179.348 C834.555998,179.836002 834.388,180.439996 834.388,181.16 L832.612,181.16 Z M833.5,186.32 C833.147998,186.32 832.852001,186.196001 832.612,185.948 C832.371999,185.699999 832.252,185.408002 832.252,185.072 C832.252,184.719998 832.371999,184.428001 832.612,184.196 C832.852001,183.963999 833.147998,183.848 833.5,183.848 C833.868002,183.848 834.171999,183.963999 834.412,184.196 C834.652001,184.428001 834.772,184.719998 834.772,185.072 C834.772,185.408002 834.648001,185.699999 834.4,185.948 C834.151999,186.196001 833.852002,186.32 833.5,186.32 Z M842.692,169.4 L844.708,169.4 L844.348,181.16 L843.028,181.16 L842.692,169.4 Z M843.7,186.32 C843.347998,186.32 843.048001,186.196001 842.8,185.948 C842.551999,185.699999 842.428,185.408002 842.428,185.072 C842.428,184.719998 842.547999,184.428001 842.788,184.196 C843.028001,183.963999 843.331998,183.848 843.7,183.848 C844.052002,183.848 844.347999,183.963999 844.588,184.196 C844.828001,184.428001 844.948,184.719998 844.948,185.072 C844.948,185.408002 844.828001,185.699999 844.588,185.948 C844.347999,186.196001 844.052002,186.32 843.7,186.32 Z M853.396,178.904 L853.396,180.344 L852.58,180.344 C851.859996,180.344 851.5,180.751996 851.5,181.568 L851.5,187.664 C851.5,189.792011 850.412011,190.856 848.236,190.856 L847.324,190.856 L847.324,189.44 L847.972,189.44 C849.188006,189.44 849.796,188.800006 849.796,187.52 L849.796,181.592 C849.796,180.999997 849.883999,180.560001 850.06,180.272 C850.236001,179.983999 850.523998,179.768001 850.924,179.624 C850.523998,179.479999 850.236001,179.264001 850.06,178.976 C849.883999,178.687999 849.796,178.248003 849.796,177.656 L849.796,171.728 C849.796,170.447994 849.188006,169.808 847.972,169.808 L847.324,169.808 L847.324,168.392 L848.236,168.392 C850.412011,168.392 851.5,169.455989 851.5,171.584 L851.5,177.68 C851.5,178.496004 851.859996,178.904 852.58,178.904 L853.396,178.904 Z M855.34,190.856 L855.34,189.44 L858.028,189.44 L858.028,169.808 L855.34,169.808 L855.34,168.392 L859.732,168.392 L859.732,190.856 L855.34,190.856 Z M863.428,190.856 C864.372005,189.239992 865.067998,187.508009 865.516,185.66 C865.964002,183.811991 866.188,181.800011 866.188,179.624 C866.188,177.447989 865.964002,175.436009 865.516,173.588 C865.067998,171.739991 864.372005,170.008008 863.428,168.392 L865.06,168.392 C865.956004,169.832007 866.647998,171.51599 867.136,173.444 C867.624002,175.37201 867.868,177.431989 867.868,179.624 C867.868,181.816011 867.628002,183.87199 867.148,185.792 C866.667998,187.71201 865.972005,189.399993 865.06,190.856 L863.428,190.856 Z M872.908,186.32 C872.555998,186.32 872.256001,186.192001 872.008,185.936 C871.759999,185.679999 871.636,185.368002 871.636,185 C871.636,184.631998 871.759999,184.324001 872.008,184.076 C872.256001,183.827999 872.555998,183.704 872.908,183.704 C873.260002,183.704 873.563999,183.827999 873.82,184.076 C874.076001,184.324001 874.204,184.631998 874.204,185 C874.204,185.368002 874.076001,185.679999 873.82,185.936 C873.563999,186.192001 873.260002,186.32 872.908,186.32 Z M877.996,176.096 C877.643998,176.096 877.344001,175.968001 877.096,175.712 C876.847999,175.455999 876.724,175.144002 876.724,174.776 C876.724,174.407998 876.847999,174.100001 877.096,173.852 C877.344001,173.603999 877.643998,173.48 877.996,173.48 C878.348002,173.48 878.651999,173.603999 878.908,173.852 C879.164001,174.100001 879.292,174.407998 879.292,174.776 C879.292,175.144002 879.164001,175.455999 878.908,175.712 C878.651999,175.968001 878.348002,176.096 877.996,176.096 Z M878.02,183.704 C878.388002,183.704 878.691999,183.827999 878.932,184.076 C879.172001,184.324001 879.292,184.631998 879.292,185 C879.292,185.192001 879.264,185.399999 879.208,185.624 C879.152,185.848001 879.068001,186.103999 878.956,186.392 L877.948,189.704 L876.796,189.704 L877.612,186.224 C877.355999,186.144 877.148001,185.996001 876.988,185.78 C876.827999,185.563999 876.748,185.304002 876.748,185 C876.748,184.631998 876.867999,184.324001 877.108,184.076 C877.348001,183.827999 877.651998,183.704 878.02,183.704 Z" id="AaBbCcDdEeFfGgHhIiJjKkLlMmNnOoPpQqRrSsTtUuVvWwXxYyZz1234567890#+-@+*%$([{?!}]).;" fill="#44444E"></path>
            </g>
        </g>
    </g>
</svg>