<?xml version="1.0" encoding="UTF-8"?>
<svg width="460px" height="301px" viewBox="0 0 460 301" version="1.1" xmlns="http://www.w3.org/2000/svg" xmlns:xlink="http://www.w3.org/1999/xlink">
    <!-- Generator: Sketch 55.2 (78181) - https://sketchapp.com -->
    <title>Group 6</title>
    <desc>Created with Sketch.</desc>
    <g id="the-brand" stroke="none" stroke-width="1" fill="none" fill-rule="evenodd">
        <g id="OnBrand-brand-guidelines-Copy" transform="translate(-250.000000, -4869.000000)">
            <g id="Group-6" transform="translate(250.000000, 4869.000000)">
                <rect id="Rectangle" stroke="#0847FF" fill="#FFFFFF" x="0.5" y="0.5" width="459" height="300"></rect>
                <path d="M83.144,98 L83.108,79.64 L74,94.94 L72.344,94.94 L63.236,79.748 L63.236,98 L59.78,98 L59.78,72.8 L62.732,72.8 L73.244,90.512 L83.612,72.8 L86.564,72.8 L86.6,98 L83.144,98 Z M110.484615,88.568 C110.484615,88.8320013 110.460616,89.1799978 110.412615,89.612 L94.9326154,89.612 C95.1486165,91.2920084 95.8866091,92.6419949 97.1466154,93.662 C98.4066217,94.6820051 99.972606,95.192 101.844615,95.192 C104.124627,95.192 105.960608,94.4240077 107.352615,92.888 L109.260615,95.12 C108.396611,96.128005 107.322622,96.8959974 106.038615,97.424 C104.754609,97.9520026 103.320623,98.216 101.736615,98.216 C99.7206053,98.216 97.9326232,97.8020041 96.3726154,96.974 C94.8126076,96.1459959 93.6066196,94.9880074 92.7546154,93.5 C91.9026111,92.0119926 91.4766154,90.3320094 91.4766154,88.46 C91.4766154,86.6119908 91.8906112,84.9440074 92.7186154,83.456 C93.5466195,81.9679926 94.6866081,80.8100041 96.1386154,79.982 C97.5906226,79.1539959 99.2286063,78.74 101.052615,78.74 C102.876625,78.74 104.502608,79.1539959 105.930615,79.982 C107.358623,80.8100041 108.474611,81.9679926 109.278615,83.456 C110.082619,84.9440074 110.484615,86.6479904 110.484615,88.568 Z M101.052615,81.656 C99.3966071,81.656 98.010621,82.159995 96.8946154,83.168 C95.7786098,84.176005 95.1246163,85.4959918 94.9326154,87.128 L107.172615,87.128 C106.980614,85.519992 106.326621,84.2060051 105.210615,83.186 C104.09461,82.1659949 102.708624,81.656 101.052615,81.656 Z M132.857231,71.288 L132.857231,98 L129.545231,98 L129.545231,94.976 C128.777227,96.0320053 127.805237,96.8359972 126.629231,97.388 C125.453225,97.9400028 124.157238,98.216 122.741231,98.216 C120.893222,98.216 119.237238,97.8080041 117.773231,96.992 C116.309223,96.1759959 115.163235,95.0300074 114.335231,93.554 C113.507227,92.0779926 113.093231,90.3800096 113.093231,88.46 C113.093231,86.5399904 113.507227,84.8480073 114.335231,83.384 C115.163235,81.9199927 116.309223,80.7800041 117.773231,79.964 C119.237238,79.1479959 120.893222,78.74 122.741231,78.74 C124.109238,78.74 125.369225,78.9979974 126.521231,79.514 C127.673237,80.0300026 128.633227,80.791995 129.401231,81.8 L129.401231,71.288 L132.857231,71.288 Z M123.029231,95.192 C124.229237,95.192 125.321226,94.9100028 126.305231,94.346 C127.289236,93.7819972 128.057228,92.9900051 128.609231,91.97 C129.161234,90.9499949 129.437231,89.7800066 129.437231,88.46 C129.437231,87.1399934 129.161234,85.9700051 128.609231,84.95 C128.057228,83.9299949 127.289236,83.1440028 126.305231,82.592 C125.321226,82.0399972 124.229237,81.764 123.029231,81.764 C121.805225,81.764 120.707236,82.0399972 119.735231,82.592 C118.763226,83.1440028 117.995234,83.9299949 117.431231,84.95 C116.867228,85.9700051 116.585231,87.1399934 116.585231,88.46 C116.585231,89.7800066 116.867228,90.9499949 117.431231,91.97 C117.995234,92.9900051 118.763226,93.7819972 119.735231,94.346 C120.707236,94.9100028 121.805225,95.192 123.029231,95.192 Z M138.993846,78.92 L142.449846,78.92 L142.449846,98 L138.993846,98 L138.993846,78.92 Z M140.721846,75.248 C140.049843,75.248 139.491848,75.0320022 139.047846,74.6 C138.603844,74.1679978 138.381846,73.6400031 138.381846,73.016 C138.381846,72.3919969 138.603844,71.8580022 139.047846,71.414 C139.491848,70.9699978 140.049843,70.748 140.721846,70.748 C141.39385,70.748 141.951844,70.9579979 142.395846,71.378 C142.839848,71.7980021 143.061846,72.3199969 143.061846,72.944 C143.061846,73.5920032 142.839848,74.1379978 142.395846,74.582 C141.951844,75.0260022 141.39385,75.248 140.721846,75.248 Z M166.406462,78.92 L166.406462,98 L163.130462,98 L163.130462,95.12 C162.434458,96.1040049 161.516467,96.8659973 160.376462,97.406 C159.236456,97.9460027 157.994468,98.216 156.650462,98.216 C154.106449,98.216 152.102469,97.514007 150.638462,96.11 C149.174454,94.705993 148.442462,92.6360137 148.442462,89.9 L148.442462,78.92 L151.898462,78.92 L151.898462,89.504 C151.898462,91.3520092 152.342457,92.7499953 153.230462,93.698 C154.118466,94.6460047 155.390453,95.12 157.046462,95.12 C158.870471,95.12 160.310456,94.5680055 161.366462,93.464 C162.422467,92.3599945 162.950462,90.8000101 162.950462,88.784 L162.950462,78.92 L166.406462,78.92 Z M196.447077,78.74 C198.847089,78.74 200.74907,79.435993 202.153077,80.828 C203.557084,82.220007 204.259077,84.2839863 204.259077,87.02 L204.259077,98 L200.803077,98 L200.803077,87.416 C200.803077,85.5679908 200.377081,84.1760047 199.525077,83.24 C198.673073,82.3039953 197.455085,81.836 195.871077,81.836 C194.119068,81.836 192.727082,82.3819945 191.695077,83.474 C190.663072,84.5660055 190.147077,86.1319898 190.147077,88.172 L190.147077,98 L186.691077,98 L186.691077,87.416 C186.691077,85.5679908 186.265081,84.1760047 185.413077,83.24 C184.561073,82.3039953 183.343085,81.836 181.759077,81.836 C180.007068,81.836 178.615082,82.3819945 177.583077,83.474 C176.551072,84.5660055 176.035077,86.1319898 176.035077,88.172 L176.035077,98 L172.579077,98 L172.579077,78.92 L175.891077,78.92 L175.891077,81.764 C176.58708,80.7799951 177.499071,80.0300026 178.627077,79.514 C179.755083,78.9979974 181.03907,78.74 182.479077,78.74 C183.967084,78.74 185.287071,79.039997 186.439077,79.64 C187.591083,80.24 188.479074,81.1159942 189.103077,82.268 C189.823081,81.1639945 190.825071,80.3000031 192.109077,79.676 C193.393083,79.0519969 194.839069,78.74 196.447077,78.74 Z" id="Medium" fill="#44444E" fill-rule="nonzero"></path>
                <path d="M61.948,125 L58.406,125 L58.406,124.594 C58.7793352,124.444666 59.161998,124.332667 59.554,124.258 L59.554,115.956 C59.1153311,115.890666 58.7326683,115.774001 58.406,115.606 L58.406,115.2 L61.948,115.2 L61.948,115.606 C61.7893325,115.69 61.6213342,115.76 61.444,115.816 C61.2666658,115.872 61.0846676,115.918666 60.898,115.956 L60.898,119.61 L65.294,119.61 L65.294,115.956 C65.097999,115.909333 64.9136675,115.858 64.741,115.802 C64.5683325,115.746 64.4026675,115.680667 64.244,115.606 L64.244,115.2 L67.786,115.2 L67.786,115.606 C67.6179992,115.699334 67.4336677,115.771666 67.233,115.823 C67.0323323,115.874334 66.834001,115.918666 66.638,115.956 L66.638,124.258 C66.8526677,124.295334 67.057999,124.342 67.254,124.398 C67.450001,124.454 67.6273325,124.519333 67.786,124.594 L67.786,125 L64.244,125 L64.244,124.594 C64.5800017,124.444666 64.9299982,124.332667 65.294,124.258 L65.294,120.338 L60.898,120.338 L60.898,124.258 C61.0846676,124.295334 61.2666658,124.342 61.444,124.398 C61.6213342,124.454 61.7893325,124.519333 61.948,124.594 L61.948,125 Z M75.2474619,115.2 C75.2381285,115.573335 75.2217953,115.948998 75.1984619,116.327 C75.1751284,116.705002 75.1401288,117.085331 75.0934619,117.468 L74.7294619,117.468 L74.1554619,115.928 L71.1034619,115.928 L71.1034619,119.638 L73.3854619,119.638 L73.9314619,118.602 L74.2814619,118.602 C74.3374622,119.526005 74.3374622,120.468662 74.2814619,121.43 L73.9314619,121.43 L73.3854619,120.366 L71.1034619,120.366 L71.1034619,124.272 L74.3234619,124.272 L75.0094619,122.592 L75.3594619,122.592 C75.4247955,122.984002 75.4714617,123.380665 75.4994619,123.782 C75.527462,124.183335 75.5321286,124.589331 75.5134619,125 L68.6114619,125 L68.6114619,124.594 C68.9381302,124.444666 69.320793,124.332667 69.7594619,124.258 L69.7594619,115.956 C69.5727943,115.918666 69.3814629,115.869667 69.1854619,115.809 C68.9894609,115.748333 68.7981295,115.680667 68.6114619,115.606 L68.6114619,115.2 L75.2474619,115.2 Z M79.4749237,125 L76.3669237,125 L76.3669237,124.594 C76.7029254,124.444666 77.0389221,124.332667 77.3749237,124.258 L80.9169237,115.032 L81.3229237,115.032 L84.8649237,124.258 C85.0515913,124.295334 85.2359228,124.337333 85.4179237,124.384 C85.5999247,124.430667 85.7702563,124.500666 85.9289237,124.594 L85.9289237,125 L82.3449237,125 L82.3449237,124.594 C82.5315913,124.519333 82.7229228,124.454 82.9189237,124.398 C83.1149247,124.342 83.3062561,124.295334 83.4929237,124.258 L82.5409237,121.696 L79.1949237,121.696 L78.2709237,124.258 C78.6629257,124.314 79.064255,124.425999 79.4749237,124.594 L79.4749237,125 Z M79.4749237,120.968 L82.3029237,120.968 L81.1969237,118 L80.9309237,116.796 L80.9029237,116.796 L80.5529237,118.028 L79.4749237,120.968 Z M86.3483856,125 L86.3483856,124.594 C86.6750539,124.444666 87.0577168,124.332667 87.4963856,124.258 L87.4963856,115.956 C87.2817179,115.909333 87.0763866,115.855667 86.8803856,115.795 C86.6843846,115.734333 86.5070531,115.671334 86.3483856,115.606 L86.3483856,115.2 L87.7763856,115.2 C87.9350531,115.2 88.1217179,115.195333 88.3363856,115.186 C88.5510534,115.176667 88.7727178,115.165 89.0013856,115.151 C89.2300534,115.137 89.4493846,115.123 89.6593856,115.109 C89.8693867,115.095 90.0443849,115.088 90.1843856,115.088 C91.7710602,115.088 92.9913814,115.512662 93.8453856,116.362 C94.6993899,117.211338 95.1263856,118.415326 95.1263856,119.974 C95.1263856,120.711337 95.0213867,121.394997 94.8113856,122.025 C94.6013846,122.655003 94.2817211,123.198664 93.8523856,123.656 C93.4230501,124.113336 92.8793889,124.472665 92.2213856,124.734 C91.5633823,124.995335 90.7863901,125.126 89.8903856,125.126 C89.7503849,125.126 89.5917198,125.119 89.4143856,125.105 C89.2370514,125.091 89.0503866,125.077 88.8543856,125.063 C88.6583846,125.049 88.4600533,125.035 88.2593856,125.021 C88.058718,125.007 87.8697198,125 87.6923856,125 L86.3483856,125 Z M89.9883856,115.816 C89.7457177,115.816 89.5123867,115.818333 89.2883856,115.823 C89.0643845,115.827667 88.8870529,115.844 88.7563856,115.872 L88.7563856,124.356 C88.8030525,124.365333 88.8870517,124.372333 89.0083856,124.377 C89.1297196,124.381667 89.2603849,124.386333 89.4003856,124.391 C89.5403863,124.395667 89.673385,124.398 89.7993856,124.398 L90.0723856,124.398 C90.7163888,124.398 91.2623834,124.276668 91.7103856,124.034 C92.1583879,123.791332 92.5247175,123.467002 92.8093856,123.061 C93.0940537,122.654998 93.3017183,122.186003 93.4323856,121.654 C93.5630529,121.121997 93.6283856,120.562003 93.6283856,119.974 C93.6283856,119.516664 93.5653863,119.043002 93.4393856,118.553 C93.313385,118.062998 93.1080537,117.615002 92.8233856,117.209 C92.5387175,116.802998 92.1630546,116.469335 91.6963856,116.208 C91.2297166,115.946665 90.660389,115.816 89.9883856,115.816 Z M102.909847,115.2 C102.900514,115.573335 102.884181,115.948998 102.860847,116.327 C102.837514,116.705002 102.802514,117.085331 102.755847,117.468 L102.391847,117.468 L101.817847,115.928 L98.7658475,115.928 L98.7658475,119.638 L101.047847,119.638 L101.593847,118.602 L101.943847,118.602 C101.999848,119.526005 101.999848,120.468662 101.943847,121.43 L101.593847,121.43 L101.047847,120.366 L98.7658475,120.366 L98.7658475,124.272 L101.985847,124.272 L102.671847,122.592 L103.021847,122.592 C103.087181,122.984002 103.133847,123.380665 103.161847,123.782 C103.189848,124.183335 103.194514,124.589331 103.175847,125 L96.2738475,125 L96.2738475,124.594 C96.6005158,124.444666 96.9831786,124.332667 97.4218475,124.258 L97.4218475,115.956 C97.2351799,115.918666 97.0438485,115.869667 96.8478475,115.809 C96.6518465,115.748333 96.4605151,115.680667 96.2738475,115.606 L96.2738475,115.2 L102.909847,115.2 Z M106.927309,124.258 C107.141977,124.304667 107.347308,124.353666 107.543309,124.405 C107.73931,124.456334 107.930642,124.519333 108.117309,124.594 L108.117309,125 L104.435309,125 L104.435309,124.594 C104.640644,124.500666 104.836642,124.430667 105.023309,124.384 C105.209977,124.337333 105.396642,124.295334 105.583309,124.258 L105.583309,115.956 C105.340641,115.909333 105.125977,115.855667 104.939309,115.795 C104.752642,115.734333 104.584643,115.671334 104.435309,115.606 L104.435309,115.2 L105.667309,115.2 C106.040645,115.2 106.448974,115.181334 106.892309,115.144 C107.335645,115.106666 107.767307,115.088 108.187309,115.088 C108.644645,115.088 109.071641,115.139333 109.468309,115.242 C109.864978,115.344667 110.207975,115.507999 110.497309,115.732 C110.786644,115.956001 111.012975,116.240665 111.176309,116.586 C111.339644,116.931335 111.421309,117.346664 111.421309,117.832 C111.421309,118.513337 111.241645,119.077998 110.882309,119.526 C110.522974,119.974002 110.035312,120.295999 109.419309,120.492 C109.820645,121.12667 110.240641,121.756664 110.679309,122.382 C111.117978,123.007336 111.575307,123.627997 112.051309,124.244 L112.807309,124.65 L112.807309,125 L111.113309,125 L110.581309,124.608 C110.319975,124.281332 110.081977,123.961668 109.867309,123.649 C109.652642,123.336332 109.451977,123.019002 109.265309,122.697 C109.078642,122.374998 108.903644,122.048335 108.740309,121.717 C108.576975,121.385665 108.41131,121.033335 108.243309,120.66 L106.927309,120.66 L106.927309,124.258 Z M107.879309,115.816 C107.655308,115.816 107.470977,115.820667 107.326309,115.83 C107.181642,115.839333 107.048643,115.858 106.927309,115.886 L106.927309,120.072 L107.935309,120.072 C108.579313,120.072 109.090307,119.866669 109.468309,119.456 C109.846311,119.045331 110.035309,118.504003 110.035309,117.832 C110.035309,117.14133 109.834645,116.632668 109.433309,116.306 C109.031974,115.979332 108.513979,115.816 107.879309,115.816 Z" id="HEADER" fill="#0847FF" fill-rule="nonzero"></path>
                <path d="M316.492,84.896 C317.932007,85.3520023 319.059996,86.1139947 319.876,87.182 C320.692004,88.2500053 321.1,89.5639922 321.1,91.124 C321.1,93.332011 320.242009,95.0299941 318.526,96.218 C316.809991,97.4060059 314.308016,98 311.02,98 L297.988,98 L297.988,72.8 L310.3,72.8 C313.372015,72.8 315.729992,73.3879941 317.374,74.564 C319.018008,75.7400059 319.84,77.3359899 319.84,79.352 C319.84,80.5760061 319.546003,81.6679952 318.958,82.628 C318.369997,83.5880048 317.548005,84.3439972 316.492,84.896 Z M303.784,77.192 L303.784,83.132 L309.58,83.132 C311.020007,83.132 312.111996,82.8800025 312.856,82.376 C313.600004,81.8719975 313.972,81.1280049 313.972,80.144 C313.972,79.1599951 313.600004,78.4220025 312.856,77.93 C312.111996,77.4379975 311.020007,77.192 309.58,77.192 L303.784,77.192 Z M310.588,93.608 C312.124008,93.608 313.281996,93.3560025 314.062,92.852 C314.842004,92.3479975 315.232,91.5680053 315.232,90.512 C315.232,88.4239896 313.684015,87.38 310.588,87.38 L303.784,87.38 L303.784,93.608 L310.588,93.608 Z M333.932615,98.288 C331.892605,98.288 330.062623,97.8620043 328.442615,97.01 C326.822607,96.1579957 325.55662,94.9760076 324.644615,93.464 C323.732611,91.9519924 323.276615,90.2360096 323.276615,88.316 C323.276615,86.3959904 323.732611,84.6800076 324.644615,83.168 C325.55662,81.6559924 326.822607,80.4740043 328.442615,79.622 C330.062623,78.7699957 331.892605,78.344 333.932615,78.344 C335.972626,78.344 337.796607,78.7699957 339.404615,79.622 C341.012623,80.4740043 342.272611,81.6559924 343.184615,83.168 C344.09662,84.6800076 344.552615,86.3959904 344.552615,88.316 C344.552615,90.2360096 344.09662,91.9519924 343.184615,93.464 C342.272611,94.9760076 341.012623,96.1579957 339.404615,97.01 C337.796607,97.8620043 335.972626,98.288 333.932615,98.288 Z M333.932615,93.68 C335.372623,93.68 336.554611,93.1940049 337.478615,92.222 C338.40262,91.2499951 338.864615,89.9480082 338.864615,88.316 C338.864615,86.6839918 338.40262,85.3820049 337.478615,84.41 C336.554611,83.4379951 335.372623,82.952 333.932615,82.952 C332.492608,82.952 331.30462,83.4379951 330.368615,84.41 C329.432611,85.3820049 328.964615,86.6839918 328.964615,88.316 C328.964615,89.9480082 329.432611,91.2499951 330.368615,92.222 C331.30462,93.1940049 332.492608,93.68 333.932615,93.68 Z M347.881231,71.288 L353.497231,71.288 L353.497231,98 L347.881231,98 L347.881231,71.288 Z M378.029846,71.288 L378.029846,98 L372.665846,98 L372.665846,95.768 C371.273839,97.4480084 369.257859,98.288 366.617846,98.288 C364.793837,98.288 363.143854,97.8800041 361.667846,97.064 C360.191839,96.2479959 359.03385,95.0840076 358.193846,93.572 C357.353842,92.0599924 356.933846,90.30801 356.933846,88.316 C356.933846,86.32399 357.353842,84.5720076 358.193846,83.06 C359.03385,81.5479924 360.191839,80.3840041 361.667846,79.568 C363.143854,78.7519959 364.793837,78.344 366.617846,78.344 C369.089859,78.344 371.021839,79.1239922 372.413846,80.684 L372.413846,71.288 L378.029846,71.288 Z M367.589846,93.68 C369.005853,93.68 370.181841,93.1940049 371.117846,92.222 C372.053851,91.2499951 372.521846,89.9480082 372.521846,88.316 C372.521846,86.6839918 372.053851,85.3820049 371.117846,84.41 C370.181841,83.4379951 369.005853,82.952 367.589846,82.952 C366.149839,82.952 364.961851,83.4379951 364.025846,84.41 C363.089841,85.3820049 362.621846,86.6839918 362.621846,88.316 C362.621846,89.9480082 363.089841,91.2499951 364.025846,92.222 C364.961851,93.1940049 366.149839,93.68 367.589846,93.68 Z" id="Bold" fill="#44444E" fill-rule="nonzero"></path>
                <path d="M300.948,125 L297.406,125 L297.406,124.594 C297.779335,124.444666 298.161998,124.332667 298.554,124.258 L298.554,115.956 C298.115331,115.890666 297.732668,115.774001 297.406,115.606 L297.406,115.2 L300.948,115.2 L300.948,115.606 C300.789333,115.69 300.621334,115.76 300.444,115.816 C300.266666,115.872 300.084668,115.918666 299.898,115.956 L299.898,119.61 L304.294,119.61 L304.294,115.956 C304.097999,115.909333 303.913668,115.858 303.741,115.802 C303.568332,115.746 303.402667,115.680667 303.244,115.606 L303.244,115.2 L306.786,115.2 L306.786,115.606 C306.617999,115.699334 306.433668,115.771666 306.233,115.823 C306.032332,115.874334 305.834001,115.918666 305.638,115.956 L305.638,124.258 C305.852668,124.295334 306.057999,124.342 306.254,124.398 C306.450001,124.454 306.627333,124.519333 306.786,124.594 L306.786,125 L303.244,125 L303.244,124.594 C303.580002,124.444666 303.929998,124.332667 304.294,124.258 L304.294,120.338 L299.898,120.338 L299.898,124.258 C300.084668,124.295334 300.266666,124.342 300.444,124.398 C300.621334,124.454 300.789333,124.519333 300.948,124.594 L300.948,125 Z M314.247462,115.2 C314.238128,115.573335 314.221795,115.948998 314.198462,116.327 C314.175128,116.705002 314.140129,117.085331 314.093462,117.468 L313.729462,117.468 L313.155462,115.928 L310.103462,115.928 L310.103462,119.638 L312.385462,119.638 L312.931462,118.602 L313.281462,118.602 C313.337462,119.526005 313.337462,120.468662 313.281462,121.43 L312.931462,121.43 L312.385462,120.366 L310.103462,120.366 L310.103462,124.272 L313.323462,124.272 L314.009462,122.592 L314.359462,122.592 C314.424796,122.984002 314.471462,123.380665 314.499462,123.782 C314.527462,124.183335 314.532129,124.589331 314.513462,125 L307.611462,125 L307.611462,124.594 C307.93813,124.444666 308.320793,124.332667 308.759462,124.258 L308.759462,115.956 C308.572794,115.918666 308.381463,115.869667 308.185462,115.809 C307.989461,115.748333 307.798129,115.680667 307.611462,115.606 L307.611462,115.2 L314.247462,115.2 Z M318.474924,125 L315.366924,125 L315.366924,124.594 C315.702925,124.444666 316.038922,124.332667 316.374924,124.258 L319.916924,115.032 L320.322924,115.032 L323.864924,124.258 C324.051591,124.295334 324.235923,124.337333 324.417924,124.384 C324.599925,124.430667 324.770256,124.500666 324.928924,124.594 L324.928924,125 L321.344924,125 L321.344924,124.594 C321.531591,124.519333 321.722923,124.454 321.918924,124.398 C322.114925,124.342 322.306256,124.295334 322.492924,124.258 L321.540924,121.696 L318.194924,121.696 L317.270924,124.258 C317.662926,124.314 318.064255,124.425999 318.474924,124.594 L318.474924,125 Z M318.474924,120.968 L321.302924,120.968 L320.196924,118 L319.930924,116.796 L319.902924,116.796 L319.552924,118.028 L318.474924,120.968 Z M325.348386,125 L325.348386,124.594 C325.675054,124.444666 326.057717,124.332667 326.496386,124.258 L326.496386,115.956 C326.281718,115.909333 326.076387,115.855667 325.880386,115.795 C325.684385,115.734333 325.507053,115.671334 325.348386,115.606 L325.348386,115.2 L326.776386,115.2 C326.935053,115.2 327.121718,115.195333 327.336386,115.186 C327.551053,115.176667 327.772718,115.165 328.001386,115.151 C328.230053,115.137 328.449385,115.123 328.659386,115.109 C328.869387,115.095 329.044385,115.088 329.184386,115.088 C330.77106,115.088 331.991381,115.512662 332.845386,116.362 C333.69939,117.211338 334.126386,118.415326 334.126386,119.974 C334.126386,120.711337 334.021387,121.394997 333.811386,122.025 C333.601385,122.655003 333.281721,123.198664 332.852386,123.656 C332.42305,124.113336 331.879389,124.472665 331.221386,124.734 C330.563382,124.995335 329.78639,125.126 328.890386,125.126 C328.750385,125.126 328.59172,125.119 328.414386,125.105 C328.237051,125.091 328.050387,125.077 327.854386,125.063 C327.658385,125.049 327.460053,125.035 327.259386,125.021 C327.058718,125.007 326.86972,125 326.692386,125 L325.348386,125 Z M328.988386,115.816 C328.745718,115.816 328.512387,115.818333 328.288386,115.823 C328.064385,115.827667 327.887053,115.844 327.756386,115.872 L327.756386,124.356 C327.803053,124.365333 327.887052,124.372333 328.008386,124.377 C328.12972,124.381667 328.260385,124.386333 328.400386,124.391 C328.540386,124.395667 328.673385,124.398 328.799386,124.398 L329.072386,124.398 C329.716389,124.398 330.262383,124.276668 330.710386,124.034 C331.158388,123.791332 331.524718,123.467002 331.809386,123.061 C332.094054,122.654998 332.301718,122.186003 332.432386,121.654 C332.563053,121.121997 332.628386,120.562003 332.628386,119.974 C332.628386,119.516664 332.565386,119.043002 332.439386,118.553 C332.313385,118.062998 332.108054,117.615002 331.823386,117.209 C331.538718,116.802998 331.163055,116.469335 330.696386,116.208 C330.229717,115.946665 329.660389,115.816 328.988386,115.816 Z M341.909847,115.2 C341.900514,115.573335 341.884181,115.948998 341.860847,116.327 C341.837514,116.705002 341.802514,117.085331 341.755847,117.468 L341.391847,117.468 L340.817847,115.928 L337.765848,115.928 L337.765848,119.638 L340.047847,119.638 L340.593847,118.602 L340.943847,118.602 C340.999848,119.526005 340.999848,120.468662 340.943847,121.43 L340.593847,121.43 L340.047847,120.366 L337.765848,120.366 L337.765848,124.272 L340.985847,124.272 L341.671847,122.592 L342.021847,122.592 C342.087181,122.984002 342.133847,123.380665 342.161847,123.782 C342.189848,124.183335 342.194514,124.589331 342.175847,125 L335.273847,125 L335.273847,124.594 C335.600516,124.444666 335.983179,124.332667 336.421847,124.258 L336.421847,115.956 C336.23518,115.918666 336.043848,115.869667 335.847847,115.809 C335.651847,115.748333 335.460515,115.680667 335.273847,115.606 L335.273847,115.2 L341.909847,115.2 Z M345.927309,124.258 C346.141977,124.304667 346.347308,124.353666 346.543309,124.405 C346.73931,124.456334 346.930642,124.519333 347.117309,124.594 L347.117309,125 L343.435309,125 L343.435309,124.594 C343.640644,124.500666 343.836642,124.430667 344.023309,124.384 C344.209977,124.337333 344.396642,124.295334 344.583309,124.258 L344.583309,115.956 C344.340641,115.909333 344.125977,115.855667 343.939309,115.795 C343.752642,115.734333 343.584643,115.671334 343.435309,115.606 L343.435309,115.2 L344.667309,115.2 C345.040645,115.2 345.448974,115.181334 345.892309,115.144 C346.335645,115.106666 346.767307,115.088 347.187309,115.088 C347.644645,115.088 348.071641,115.139333 348.468309,115.242 C348.864978,115.344667 349.207975,115.507999 349.497309,115.732 C349.786644,115.956001 350.012975,116.240665 350.176309,116.586 C350.339644,116.931335 350.421309,117.346664 350.421309,117.832 C350.421309,118.513337 350.241645,119.077998 349.882309,119.526 C349.522974,119.974002 349.035312,120.295999 348.419309,120.492 C348.820645,121.12667 349.240641,121.756664 349.679309,122.382 C350.117978,123.007336 350.575307,123.627997 351.051309,124.244 L351.807309,124.65 L351.807309,125 L350.113309,125 L349.581309,124.608 C349.319975,124.281332 349.081977,123.961668 348.867309,123.649 C348.652642,123.336332 348.451977,123.019002 348.265309,122.697 C348.078642,122.374998 347.903644,122.048335 347.740309,121.717 C347.576975,121.385665 347.41131,121.033335 347.243309,120.66 L345.927309,120.66 L345.927309,124.258 Z M346.879309,115.816 C346.655308,115.816 346.470977,115.820667 346.326309,115.83 C346.181642,115.839333 346.048643,115.858 345.927309,115.886 L345.927309,120.072 L346.935309,120.072 C347.579313,120.072 348.090307,119.866669 348.468309,119.456 C348.846311,119.045331 349.035309,118.504003 349.035309,117.832 C349.035309,117.14133 348.834645,116.632668 348.433309,116.306 C348.031974,115.979332 347.513979,115.816 346.879309,115.816 Z" id="HEADER" fill="#0847FF" fill-rule="nonzero"></path>
                <path d="M58.1328125,190.916016 L60.8535156,190.916016 L60.8535156,208.607422 L71.0253906,208.607422 L71.0253906,211 L58.1328125,211 L58.1328125,190.916016 Z M73.0538762,196.425781 L75.5558293,196.425781 L75.5558293,211 L73.0538762,211 L73.0538762,196.425781 Z M73.0538762,190.916016 L75.5558293,190.916016 L75.5558293,193.705078 L73.0538762,193.705078 L73.0538762,190.916016 Z M84.1194712,196.097656 C85.2679144,196.097656 86.2705085,196.380206 87.1272837,196.945312 C87.5921297,197.264325 88.0660833,197.729164 88.5491587,198.339844 L88.5491587,196.494141 L90.8186899,196.494141 L90.8186899,209.810547 C90.8186899,211.669931 90.5452551,213.137364 89.9983774,214.212891 C88.977539,216.19988 87.0498239,217.193359 84.2151743,217.193359 C82.6383435,217.193359 81.3121849,216.840173 80.2366587,216.133789 C79.1611324,215.427405 78.559576,214.322273 78.4319712,212.818359 L80.9339243,212.818359 C81.0524145,213.474613 81.2893913,213.980467 81.6448618,214.335938 C82.2008541,214.882815 83.0758454,215.15625 84.2698618,215.15625 C86.15659,215.15625 87.3916037,214.490892 87.9749399,213.160156 C88.3212958,212.376298 88.4807993,210.977224 88.4534555,208.962891 C87.9612656,209.71029 87.3688236,210.266274 86.6761118,210.630859 C85.9834,210.995445 85.0673935,211.177734 83.9280649,211.177734 C82.3421195,211.177734 80.954438,210.614914 79.764979,209.489258 C78.5755199,208.363601 77.9807993,206.501966 77.9807993,203.904297 C77.9807993,201.452462 78.5800771,199.538418 79.7786508,198.162109 C80.9772245,196.7858 82.4241502,196.097656 84.1194712,196.097656 Z M88.5491587,203.617188 C88.5491587,201.803376 88.1754645,200.458989 87.4280649,199.583984 C86.6806653,198.70898 85.7282009,198.271484 84.570643,198.271484 C82.8388635,198.271484 81.6539796,199.082674 81.0159555,200.705078 C80.6787143,201.570968 80.5100962,202.705722 80.5100962,204.109375 C80.5100962,205.759123 80.8450537,207.014644 81.514979,207.875977 C82.1849042,208.737309 83.0849603,209.167969 84.2151743,209.167969 C85.9834123,209.167969 87.2275405,208.370451 87.9475962,206.775391 C88.3486398,205.873042 88.5491587,204.820319 88.5491587,203.617188 Z M94.2006911,190.847656 L96.6616286,190.847656 L96.6616286,198.339844 C97.2449649,197.601559 97.7690482,197.082033 98.2338942,196.78125 C99.0268669,196.261716 100.015789,196.001953 101.200691,196.001953 C103.3244,196.001953 104.764489,196.744784 105.521004,198.230469 C105.931162,199.041671 106.136238,200.167311 106.136238,201.607422 L106.136238,211 L103.606941,211 L103.606941,201.771484 C103.606941,200.695958 103.470224,199.907555 103.196785,199.40625 C102.750168,198.604163 101.911635,198.203125 100.68116,198.203125 C99.6603214,198.203125 98.7352005,198.554033 97.9057692,199.255859 C97.076338,199.957686 96.6616286,201.283844 96.6616286,203.234375 L96.6616286,211 L94.2006911,211 L94.2006911,190.847656 Z M109.942067,192.269531 L112.430349,192.269531 L112.430349,196.357422 L114.768239,196.357422 L114.768239,198.367188 L112.430349,198.367188 L112.430349,207.923828 C112.430349,208.434247 112.603524,208.776041 112.94988,208.949219 C113.141287,209.04948 113.460294,209.099609 113.906911,209.099609 C114.025401,209.099609 114.153004,209.097331 114.289724,209.092773 C114.426443,209.088216 114.585947,209.076823 114.768239,209.058594 L114.768239,211 C114.485686,211.082032 114.191743,211.141276 113.886403,211.177734 C113.581063,211.214193 113.250663,211.232422 112.895192,211.232422 C111.746749,211.232422 110.96746,210.93848 110.557302,210.350586 C110.147143,209.762692 109.942067,208.999354 109.942067,208.060547 L109.942067,198.367188 L107.959645,198.367188 L107.959645,196.357422 L109.942067,196.357422 L109.942067,192.269531 Z" id="Light" fill="#44444E" fill-rule="nonzero"></path>
                <path d="M58.1,234.034 C58.2120006,234.146001 58.3566658,234.241666 58.534,234.321 C58.7113342,234.400334 58.9773316,234.44 59.332,234.44 C59.6306682,234.44 59.9106654,234.400334 60.172,234.321 C60.4333346,234.241666 60.6596657,234.125001 60.851,233.971 C61.0423343,233.816999 61.1939994,233.630334 61.306,233.411 C61.4180006,233.191666 61.474,232.942001 61.474,232.662 C61.474,232.288665 61.3596678,231.976001 61.131,231.724 C60.9023322,231.471999 60.6176684,231.248001 60.277,231.052 C59.9363316,230.855999 59.5653353,230.664668 59.164,230.478 C58.7626647,230.291332 58.3916684,230.069668 58.051,229.813 C57.7103316,229.556332 57.4256678,229.248335 57.197,228.889 C56.9683322,228.529665 56.854,228.079336 56.854,227.538 C56.854,227.145998 56.9239993,226.796002 57.064,226.488 C57.2040007,226.179998 57.4023321,225.918668 57.659,225.704 C57.915668,225.489332 58.2213316,225.323667 58.576,225.207 C58.9306684,225.090333 59.3273311,225.032 59.766,225.032 C60.3353362,225.032 60.8556643,225.076333 61.327,225.165 C61.7983357,225.253667 62.169332,225.363333 62.44,225.494 C62.44,225.652667 62.4283335,225.836999 62.405,226.047 C62.3816666,226.257001 62.3536668,226.473999 62.321,226.698 C62.2883332,226.922001 62.2533335,227.138999 62.216,227.349 C62.1786665,227.559001 62.1413335,227.743333 62.104,227.902 L61.74,227.902 L61.18,225.984 C61.0119992,225.909333 60.799668,225.853334 60.543,225.816 C60.2863321,225.778666 60.0133348,225.76 59.724,225.76 C59.2479976,225.76 58.8653348,225.892999 58.576,226.159 C58.2866652,226.425001 58.142,226.795998 58.142,227.272 C58.142,227.654669 58.2563322,227.976665 58.485,228.238 C58.7136678,228.499335 59.0006649,228.732666 59.346,228.938 C59.6913351,229.143334 60.0623314,229.341666 60.459,229.533 C60.8556687,229.724334 61.2266649,229.945999 61.572,230.198 C61.9173351,230.450001 62.2043322,230.748665 62.433,231.094 C62.6616678,231.439335 62.776,231.868664 62.776,232.382 C62.776,232.802002 62.6990008,233.184665 62.545,233.53 C62.3909992,233.875335 62.1693348,234.169332 61.88,234.412 C61.5906652,234.654668 61.2360021,234.841333 60.816,234.972 C60.3959979,235.102667 59.9200027,235.168 59.388,235.168 C58.7999971,235.168 58.272669,235.098001 57.806,234.958 C57.339331,234.817999 57.008001,234.668667 56.812,234.51 C56.8213334,234.351333 56.8376666,234.160001 56.861,233.936 C56.8843335,233.711999 56.9123332,233.481001 56.945,233.243 C56.9776668,233.004999 57.0126665,232.774001 57.05,232.55 C57.0873335,232.325999 57.1246665,232.134667 57.162,231.976 L57.526,231.976 L58.1,234.034 Z M63.6574619,225.2 L67.2134619,225.2 L67.2134619,225.606 C67.0361277,225.680667 66.8587961,225.746 66.6814619,225.802 C66.5041277,225.858 66.3267961,225.909333 66.1494619,225.956 L66.1494619,231.682 C66.1494619,232.176669 66.203128,232.589665 66.3104619,232.921 C66.4177957,233.252335 66.5741275,233.518332 66.7794619,233.719 C66.9847962,233.919668 67.239127,234.064333 67.5424619,234.153 C67.8457967,234.241667 68.1887933,234.286 68.5714619,234.286 C69.3087989,234.286 69.8827932,234.083002 70.2934619,233.677 C70.7041306,233.270998 70.9094619,232.601338 70.9094619,231.668 L70.9094619,226.082 C70.6947941,226.007333 70.4941295,225.930334 70.3074619,225.851 C70.1207943,225.771666 69.952796,225.69 69.8034619,225.606 L69.8034619,225.2 L72.7854619,225.2 L72.7854619,225.606 C72.6081277,225.708667 72.4284628,225.802 72.2464619,225.886 C72.064461,225.97 71.8801295,226.035333 71.6934619,226.082 L71.6934619,231.696 C71.6934619,232.293336 71.6141293,232.806665 71.4554619,233.236 C71.2967944,233.665335 71.07513,234.019999 70.7904619,234.3 C70.5057938,234.580001 70.1604639,234.787666 69.7544619,234.923 C69.3484598,235.058334 68.898131,235.126 68.4034619,235.126 C67.2367894,235.126 66.345465,234.862336 65.7294619,234.335 C65.1134588,233.807664 64.8054619,232.998005 64.8054619,231.906 L64.8054619,225.956 C64.4227933,225.9 64.0401305,225.783334 63.6574619,225.606 L63.6574619,225.2 Z M73.3449238,235 L73.3449238,234.594 C73.718259,234.416666 74.1009218,234.304667 74.4929238,234.258 L74.4929238,225.956 C74.3062562,225.918666 74.1149247,225.869667 73.9189238,225.809 C73.7229228,225.748333 73.5315914,225.680667 73.3449238,225.606 L73.3449238,225.2 L74.8289238,225.2 C75.006258,225.2 75.1765896,225.195333 75.3399238,225.186 C75.5032579,225.176667 75.6735895,225.167333 75.8509238,225.158 C76.028258,225.148667 76.2195894,225.139333 76.4249238,225.13 C76.6302581,225.120667 76.8635891,225.116 77.1249238,225.116 C77.498259,225.116 77.8785885,225.146333 78.2659238,225.207 C78.653259,225.267667 79.0032555,225.381999 79.3159238,225.55 C79.628592,225.718001 79.8829228,225.953665 80.0789238,226.257 C80.2749247,226.560335 80.3729238,226.954664 80.3729238,227.44 C80.3729238,227.682668 80.3355908,227.925332 80.2609238,228.168 C80.1862567,228.410668 80.0719245,228.636999 79.9179238,228.847 C79.763923,229.057001 79.5702583,229.241333 79.3369238,229.4 C79.1035893,229.558667 78.8282587,229.675333 78.5109238,229.75 L78.5109238,229.806 C78.7909252,229.852667 79.068589,229.931999 79.3439238,230.044 C79.6192585,230.156001 79.864256,230.307666 80.0789238,230.499 C80.2935915,230.690334 80.4685897,230.925999 80.6039238,231.206 C80.7392578,231.486001 80.8069238,231.821998 80.8069238,232.214 C80.8069238,232.718003 80.6949249,233.151998 80.4709238,233.516 C80.2469226,233.880002 79.9552589,234.178666 79.5959238,234.412 C79.2365886,234.645335 78.8282594,234.815666 78.3709238,234.923 C77.9135881,235.030334 77.4515928,235.084 76.9849238,235.084 C76.6582555,235.084 76.2895925,235.07 75.8789238,235.042 C75.468255,235.014 75.0715923,235 74.6889238,235 L73.3449238,235 Z M77.0829238,234.356 C77.4189254,234.356 77.7339223,234.304667 78.0279238,234.202 C78.3219252,234.099333 78.5739227,233.957001 78.7839238,233.775 C78.9939248,233.592999 79.1595898,233.373668 79.2809238,233.117 C79.4022577,232.860332 79.4629238,232.582668 79.4629238,232.284 C79.4629238,231.910665 79.3905911,231.600335 79.2459238,231.353 C79.1012564,231.105665 78.9052583,230.909667 78.6579238,230.765 C78.4105892,230.620333 78.1259254,230.52 77.8039238,230.464 C77.4819221,230.408 77.1482588,230.38 76.8029238,230.38 L75.7529238,230.38 L75.7529238,234.244 C75.8835911,234.281334 76.0399228,234.309333 76.2219238,234.328 C76.4039247,234.346667 76.6909218,234.356 77.0829238,234.356 Z M76.4529238,229.652 C76.6115912,229.652 76.8005893,229.645 77.0199238,229.631 C77.2392582,229.617 77.4189231,229.600667 77.5589238,229.582 C77.9882592,229.432666 78.340589,229.192335 78.6159238,228.861 C78.8912585,228.529665 79.0289238,228.140002 79.0289238,227.692 C79.0289238,227.075997 78.8445923,226.614002 78.4759238,226.306 C78.1072552,225.997998 77.6149268,225.844 76.9989238,225.844 C76.709589,225.844 76.4622581,225.848667 76.2569238,225.858 C76.0515894,225.867333 75.8835911,225.881333 75.7529238,225.9 L75.7529238,229.652 L76.4529238,229.652 Z M85.5103856,235 L81.9683856,235 L81.9683856,234.594 C82.3417208,234.444666 82.7243837,234.332667 83.1163856,234.258 L83.1163856,225.956 C82.6777168,225.890666 82.2950539,225.774001 81.9683856,225.606 L81.9683856,225.2 L85.5103856,225.2 L85.5103856,225.606 C85.3517182,225.69 85.1837198,225.76 85.0063856,225.816 C84.8290514,225.872 84.6470532,225.918666 84.4603856,225.956 L84.4603856,229.61 L88.8563856,229.61 L88.8563856,225.956 C88.6603846,225.909333 88.4760532,225.858 88.3033856,225.802 C88.1307181,225.746 87.9650531,225.680667 87.8063856,225.606 L87.8063856,225.2 L91.3483856,225.2 L91.3483856,225.606 C91.1803848,225.699334 90.9960533,225.771666 90.7953856,225.823 C90.594718,225.874334 90.3963866,225.918666 90.2003856,225.956 L90.2003856,234.258 C90.4150534,234.295334 90.6203846,234.342 90.8163856,234.398 C91.0123866,234.454 91.1897182,234.519333 91.3483856,234.594 L91.3483856,235 L87.8063856,235 L87.8063856,234.594 C88.1423873,234.444666 88.4923838,234.332667 88.8563856,234.258 L88.8563856,230.338 L84.4603856,230.338 L84.4603856,234.258 C84.6470532,234.295334 84.8290514,234.342 85.0063856,234.398 C85.1837198,234.454 85.3517182,234.519333 85.5103856,234.594 L85.5103856,235 Z M98.8098475,225.2 C98.8005141,225.573335 98.784181,225.948998 98.7608475,226.327 C98.7375141,226.705002 98.7025144,227.085331 98.6558475,227.468 L98.2918475,227.468 L97.7178475,225.928 L94.6658475,225.928 L94.6658475,229.638 L96.9478475,229.638 L97.4938475,228.602 L97.8438475,228.602 C97.8998478,229.526005 97.8998478,230.468662 97.8438475,231.43 L97.4938475,231.43 L96.9478475,230.366 L94.6658475,230.366 L94.6658475,234.272 L97.8858475,234.272 L98.5718475,232.592 L98.9218475,232.592 C98.9871812,232.984002 99.0338474,233.380665 99.0618475,233.782 C99.0898476,234.183335 99.0945143,234.589331 99.0758475,235 L92.1738475,235 L92.1738475,234.594 C92.5005158,234.444666 92.8831786,234.332667 93.3218475,234.258 L93.3218475,225.956 C93.1351799,225.918666 92.9438485,225.869667 92.7478475,225.809 C92.5518465,225.748333 92.3605151,225.680667 92.1738475,225.606 L92.1738475,225.2 L98.8098475,225.2 Z M103.037309,235 L99.9293094,235 L99.9293094,234.594 C100.265311,234.444666 100.601308,234.332667 100.937309,234.258 L104.479309,225.032 L104.885309,225.032 L108.427309,234.258 C108.613977,234.295334 108.798308,234.337333 108.980309,234.384 C109.16231,234.430667 109.332642,234.500666 109.491309,234.594 L109.491309,235 L105.907309,235 L105.907309,234.594 C106.093977,234.519333 106.285308,234.454 106.481309,234.398 C106.67731,234.342 106.868642,234.295334 107.055309,234.258 L106.103309,231.696 L102.757309,231.696 L101.833309,234.258 C102.225311,234.314 102.626641,234.425999 103.037309,234.594 L103.037309,235 Z M103.037309,230.968 L105.865309,230.968 L104.759309,228 L104.493309,226.796 L104.465309,226.796 L104.115309,228.028 L103.037309,230.968 Z M109.910771,235 L109.910771,234.594 C110.23744,234.444666 110.620102,234.332667 111.058771,234.258 L111.058771,225.956 C110.844104,225.909333 110.638772,225.855667 110.442771,225.795 C110.24677,225.734333 110.069439,225.671334 109.910771,225.606 L109.910771,225.2 L111.338771,225.2 C111.497439,225.2 111.684104,225.195333 111.898771,225.186 C112.113439,225.176667 112.335103,225.165 112.563771,225.151 C112.792439,225.137 113.01177,225.123 113.221771,225.109 C113.431772,225.095 113.606771,225.088 113.746771,225.088 C115.333446,225.088 116.553767,225.512662 117.407771,226.362 C118.261776,227.211338 118.688771,228.415326 118.688771,229.974 C118.688771,230.711337 118.583772,231.394997 118.373771,232.025 C118.16377,232.655003 117.844107,233.198664 117.414771,233.656 C116.985436,234.113336 116.441775,234.472665 115.783771,234.734 C115.125768,234.995335 114.348776,235.126 113.452771,235.126 C113.312771,235.126 113.154105,235.119 112.976771,235.105 C112.799437,235.091 112.612772,235.077 112.416771,235.063 C112.22077,235.049 112.022439,235.035 111.821771,235.021 C111.621104,235.007 111.432105,235 111.254771,235 L109.910771,235 Z M113.550771,225.816 C113.308103,225.816 113.074772,225.818333 112.850771,225.823 C112.62677,225.827667 112.449439,225.844 112.318771,225.872 L112.318771,234.356 C112.365438,234.365333 112.449437,234.372333 112.570771,234.377 C112.692105,234.381667 112.822771,234.386333 112.962771,234.391 C113.102772,234.395667 113.235771,234.398 113.361771,234.398 L113.634771,234.398 C114.278774,234.398 114.824769,234.276668 115.272771,234.034 C115.720773,233.791332 116.087103,233.467002 116.371771,233.061 C116.656439,232.654998 116.864104,232.186003 116.994771,231.654 C117.125439,231.121997 117.190771,230.562003 117.190771,229.974 C117.190771,229.516664 117.127772,229.043002 117.001771,228.553 C116.875771,228.062998 116.670439,227.615002 116.385771,227.209 C116.101103,226.802998 115.72544,226.469335 115.258771,226.208 C114.792102,225.946665 114.222775,225.816 113.550771,225.816 Z M126.472233,225.2 C126.4629,225.573335 126.446567,225.948998 126.423233,226.327 C126.3999,226.705002 126.3649,227.085331 126.318233,227.468 L125.954233,227.468 L125.380233,225.928 L122.328233,225.928 L122.328233,229.638 L124.610233,229.638 L125.156233,228.602 L125.506233,228.602 C125.562233,229.526005 125.562233,230.468662 125.506233,231.43 L125.156233,231.43 L124.610233,230.366 L122.328233,230.366 L122.328233,234.272 L125.548233,234.272 L126.234233,232.592 L126.584233,232.592 C126.649567,232.984002 126.696233,233.380665 126.724233,233.782 C126.752233,234.183335 126.7569,234.589331 126.738233,235 L119.836233,235 L119.836233,234.594 C120.162901,234.444666 120.545564,234.332667 120.984233,234.258 L120.984233,225.956 C120.797566,225.918666 120.606234,225.869667 120.410233,225.809 C120.214232,225.748333 120.022901,225.680667 119.836233,225.606 L119.836233,225.2 L126.472233,225.2 Z M130.489695,234.258 C130.704363,234.304667 130.909694,234.353666 131.105695,234.405 C131.301696,234.456334 131.493027,234.519333 131.679695,234.594 L131.679695,235 L127.997695,235 L127.997695,234.594 C128.203029,234.500666 128.399027,234.430667 128.585695,234.384 C128.772363,234.337333 128.959027,234.295334 129.145695,234.258 L129.145695,225.956 C128.903027,225.909333 128.688363,225.855667 128.501695,225.795 C128.315027,225.734333 128.147029,225.671334 127.997695,225.606 L127.997695,225.2 L129.229695,225.2 C129.60303,225.2 130.011359,225.181334 130.454695,225.144 C130.898031,225.106666 131.329693,225.088 131.749695,225.088 C132.207031,225.088 132.634026,225.139333 133.030695,225.242 C133.427364,225.344667 133.77036,225.507999 134.059695,225.732 C134.34903,225.956001 134.575361,226.240665 134.738695,226.586 C134.902029,226.931335 134.983695,227.346664 134.983695,227.832 C134.983695,228.513337 134.80403,229.077998 134.444695,229.526 C134.08536,229.974002 133.597698,230.295999 132.981695,230.492 C133.38303,231.12667 133.803026,231.756664 134.241695,232.382 C134.680364,233.007336 135.137693,233.627997 135.613695,234.244 L136.369695,234.65 L136.369695,235 L134.675695,235 L134.143695,234.608 C133.88236,234.281332 133.644363,233.961668 133.429695,233.649 C133.215027,233.336332 133.014363,233.019002 132.827695,232.697 C132.641027,232.374998 132.466029,232.048335 132.302695,231.717 C132.139361,231.385665 131.973696,231.033335 131.805695,230.66 L130.489695,230.66 L130.489695,234.258 Z M131.441695,225.816 C131.217694,225.816 131.033362,225.820667 130.888695,225.83 C130.744028,225.839333 130.611029,225.858 130.489695,225.886 L130.489695,230.072 L131.497695,230.072 C132.141698,230.072 132.652693,229.866669 133.030695,229.456 C133.408697,229.045331 133.597695,228.504003 133.597695,227.832 C133.597695,227.14133 133.39703,226.632668 132.995695,226.306 C132.59436,225.979332 132.076365,225.816 131.441695,225.816 Z" id="SUBHEADER" fill="#0847FF" fill-rule="nonzero"></path>
                <path d="M311.576,210 L307.096,203.7 C306.591997,203.756 306.069336,203.784 305.528,203.784 L300.264,203.784 L300.264,210 L298.192,210 L298.192,190.4 L305.528,190.4 C308.029346,190.4 309.989326,190.997327 311.408,192.192 C312.826674,193.386673 313.536,195.029323 313.536,197.12 C313.536,198.650674 313.148671,199.943328 312.374,200.998 C311.599329,202.052672 310.493341,202.813331 309.056,203.28 L313.844,210 L311.576,210 Z M305.472,202.02 C307.413343,202.02 308.897328,201.590671 309.924,200.732 C310.950672,199.873329 311.464,198.669341 311.464,197.12 C311.464,195.533325 310.950672,194.315338 309.924,193.466 C308.897328,192.616662 307.413343,192.192 305.472,192.192 L300.264,192.192 L300.264,202.02 L305.472,202.02 Z M330.516923,203.252 L318.196923,203.252 C318.308924,204.782674 318.896918,206.019329 319.960923,206.962 C321.024928,207.904671 322.368915,208.376 323.992923,208.376 C324.907594,208.376 325.747586,208.212668 326.512923,207.886 C327.27826,207.559332 327.94092,207.07867 328.500923,206.444 L329.620923,207.732 C328.967586,208.516004 328.150928,209.113331 327.170923,209.524 C326.190918,209.934669 325.112929,210.14 323.936923,210.14 C322.424916,210.14 321.085596,209.818003 319.918923,209.174 C318.752251,208.529997 317.84226,207.638672 317.188923,206.5 C316.535586,205.361328 316.208923,204.073341 316.208923,202.636 C316.208923,201.198659 316.521587,199.910672 317.146923,198.772 C317.77226,197.633328 318.630918,196.74667 319.722923,196.112 C320.814929,195.47733 322.04225,195.16 323.404923,195.16 C324.767597,195.16 325.990251,195.47733 327.072923,196.112 C328.155595,196.74667 329.00492,197.628661 329.620923,198.758 C330.236926,199.887339 330.544923,201.179993 330.544923,202.636 L330.516923,203.252 Z M323.404923,196.868 C321.986249,196.868 320.796261,197.320662 319.834923,198.226 C318.873585,199.131338 318.32759,200.311993 318.196923,201.768 L328.640923,201.768 C328.510256,200.311993 327.964261,199.131338 327.002923,198.226 C326.041585,197.320662 324.842264,196.868 323.404923,196.868 Z M347.917846,195.272 L347.917846,208.208 C347.917846,210.709346 347.306519,212.561994 346.083846,213.766 C344.861173,214.970006 343.017858,215.572 340.553846,215.572 C339.191173,215.572 337.898519,215.371335 336.675846,214.97 C335.453173,214.568665 334.459183,214.013337 333.693846,213.304 L334.701846,211.792 C335.411183,212.42667 336.274508,212.921332 337.291846,213.276 C338.309185,213.630668 339.377841,213.808 340.497846,213.808 C342.364522,213.808 343.736508,213.374004 344.613846,212.506 C345.491184,211.637996 345.929846,210.289342 345.929846,208.46 L345.929846,206.584 C345.313843,207.517338 344.506518,208.226664 343.507846,208.712 C342.509174,209.197336 341.403186,209.44 340.189846,209.44 C338.808506,209.44 337.553185,209.13667 336.423846,208.53 C335.294507,207.92333 334.407849,207.074005 333.763846,205.982 C333.119843,204.889995 332.797846,203.65334 332.797846,202.272 C332.797846,200.89066 333.119843,199.658672 333.763846,198.576 C334.407849,197.493328 335.289841,196.653336 336.409846,196.056 C337.529852,195.458664 338.789839,195.16 340.189846,195.16 C341.440519,195.16 342.569841,195.411997 343.577846,195.916 C344.585851,196.420003 345.397843,197.147995 346.013846,198.1 L346.013846,195.272 L347.917846,195.272 Z M340.385846,207.676 C341.449851,207.676 342.411175,207.447336 343.269846,206.99 C344.128517,206.532664 344.795844,205.893337 345.271846,205.072 C345.747849,204.250663 345.985846,203.317339 345.985846,202.272 C345.985846,201.226661 345.747849,200.298004 345.271846,199.486 C344.795844,198.673996 344.133184,198.039336 343.283846,197.582 C342.434509,197.124664 341.468518,196.896 340.385846,196.896 C339.321841,196.896 338.365184,197.119998 337.515846,197.568 C336.666509,198.016002 336.003849,198.650663 335.527846,199.472 C335.051844,200.293337 334.813846,201.226661 334.813846,202.272 C334.813846,203.317339 335.051844,204.250663 335.527846,205.072 C336.003849,205.893337 336.666509,206.532664 337.515846,206.99 C338.365184,207.447336 339.321841,207.676 340.385846,207.676 Z M366.438769,195.272 L366.438769,210 L364.534769,210 L364.534769,207.312 C364.0121,208.208004 363.29344,208.903331 362.378769,209.398 C361.464098,209.892669 360.418775,210.14 359.242769,210.14 C357.320093,210.14 355.803441,209.603339 354.692769,208.53 C353.582097,207.456661 353.026769,205.88401 353.026769,203.812 L353.026769,195.272 L355.014769,195.272 L355.014769,203.616 C355.014769,205.165341 355.397432,206.341329 356.162769,207.144 C356.928106,207.946671 358.020095,208.348 359.438769,208.348 C360.98811,208.348 362.210765,207.876671 363.106769,206.934 C364.002774,205.991329 364.450769,204.680008 364.450769,203 L364.450769,195.272 L366.438769,195.272 Z M371.687692,189.224 L373.675692,189.224 L373.675692,210 L371.687692,210 L371.687692,189.224 Z M384.048615,195.16 C385.971292,195.16 387.445944,195.640662 388.472615,196.602 C389.499287,197.563338 390.012615,198.986657 390.012615,200.872 L390.012615,210 L388.108615,210 L388.108615,207.704 C387.660613,208.469337 387.00262,209.066665 386.134615,209.496 C385.266611,209.925335 384.235288,210.14 383.040615,210.14 C381.397941,210.14 380.091287,209.748004 379.120615,208.964 C378.149944,208.179996 377.664615,207.144006 377.664615,205.856 C377.664615,204.605327 378.117278,203.597337 379.022615,202.832 C379.927953,202.066663 381.369939,201.684 383.348615,201.684 L388.024615,201.684 L388.024615,200.788 C388.024615,199.51866 387.669952,198.55267 386.960615,197.89 C386.251279,197.22733 385.215289,196.896 383.852615,196.896 C382.919277,196.896 382.023286,197.049998 381.164615,197.358 C380.305944,197.666002 379.568618,198.090664 378.952615,198.632 L378.056615,197.148 C378.803286,196.51333 379.699277,196.023335 380.744615,195.678 C381.789954,195.332665 382.891276,195.16 384.048615,195.16 Z M383.348615,208.572 C384.468621,208.572 385.429945,208.315336 386.232615,207.802 C387.035286,207.288664 387.632613,206.546672 388.024615,205.576 L388.024615,203.168 L383.404615,203.168 C380.884603,203.168 379.624615,204.045325 379.624615,205.8 C379.624615,206.658671 379.951279,207.335331 380.604615,207.83 C381.257952,208.324669 382.17261,208.572 383.348615,208.572 Z M396.997538,198.156 C397.464207,197.166662 398.159534,196.420003 399.083538,195.916 C400.007543,195.411997 401.150865,195.16 402.513538,195.16 L402.513538,197.092 L402.037538,197.064 C400.488197,197.064 399.274876,197.539995 398.397538,198.492 C397.520201,199.444005 397.081538,200.778658 397.081538,202.496 L397.081538,210 L395.093538,210 L395.093538,195.272 L396.997538,195.272 L396.997538,198.156 Z" id="Regular" fill="#44444E" fill-rule="nonzero"></path>
                <path d="M297.1,234.034 C297.212001,234.146001 297.356666,234.241666 297.534,234.321 C297.711334,234.400334 297.977332,234.44 298.332,234.44 C298.630668,234.44 298.910665,234.400334 299.172,234.321 C299.433335,234.241666 299.659666,234.125001 299.851,233.971 C300.042334,233.816999 300.193999,233.630334 300.306,233.411 C300.418001,233.191666 300.474,232.942001 300.474,232.662 C300.474,232.288665 300.359668,231.976001 300.131,231.724 C299.902332,231.471999 299.617668,231.248001 299.277,231.052 C298.936332,230.855999 298.565335,230.664668 298.164,230.478 C297.762665,230.291332 297.391668,230.069668 297.051,229.813 C296.710332,229.556332 296.425668,229.248335 296.197,228.889 C295.968332,228.529665 295.854,228.079336 295.854,227.538 C295.854,227.145998 295.923999,226.796002 296.064,226.488 C296.204001,226.179998 296.402332,225.918668 296.659,225.704 C296.915668,225.489332 297.221332,225.323667 297.576,225.207 C297.930668,225.090333 298.327331,225.032 298.766,225.032 C299.335336,225.032 299.855664,225.076333 300.327,225.165 C300.798336,225.253667 301.169332,225.363333 301.44,225.494 C301.44,225.652667 301.428333,225.836999 301.405,226.047 C301.381667,226.257001 301.353667,226.473999 301.321,226.698 C301.288333,226.922001 301.253334,227.138999 301.216,227.349 C301.178666,227.559001 301.141334,227.743333 301.104,227.902 L300.74,227.902 L300.18,225.984 C300.011999,225.909333 299.799668,225.853334 299.543,225.816 C299.286332,225.778666 299.013335,225.76 298.724,225.76 C298.247998,225.76 297.865335,225.892999 297.576,226.159 C297.286665,226.425001 297.142,226.795998 297.142,227.272 C297.142,227.654669 297.256332,227.976665 297.485,228.238 C297.713668,228.499335 298.000665,228.732666 298.346,228.938 C298.691335,229.143334 299.062331,229.341666 299.459,229.533 C299.855669,229.724334 300.226665,229.945999 300.572,230.198 C300.917335,230.450001 301.204332,230.748665 301.433,231.094 C301.661668,231.439335 301.776,231.868664 301.776,232.382 C301.776,232.802002 301.699001,233.184665 301.545,233.53 C301.390999,233.875335 301.169335,234.169332 300.88,234.412 C300.590665,234.654668 300.236002,234.841333 299.816,234.972 C299.395998,235.102667 298.920003,235.168 298.388,235.168 C297.799997,235.168 297.272669,235.098001 296.806,234.958 C296.339331,234.817999 296.008001,234.668667 295.812,234.51 C295.821333,234.351333 295.837667,234.160001 295.861,233.936 C295.884333,233.711999 295.912333,233.481001 295.945,233.243 C295.977667,233.004999 296.012666,232.774001 296.05,232.55 C296.087334,232.325999 296.124666,232.134667 296.162,231.976 L296.526,231.976 L297.1,234.034 Z M302.657462,225.2 L306.213462,225.2 L306.213462,225.606 C306.036128,225.680667 305.858796,225.746 305.681462,225.802 C305.504128,225.858 305.326796,225.909333 305.149462,225.956 L305.149462,231.682 C305.149462,232.176669 305.203128,232.589665 305.310462,232.921 C305.417796,233.252335 305.574128,233.518332 305.779462,233.719 C305.984796,233.919668 306.239127,234.064333 306.542462,234.153 C306.845797,234.241667 307.188793,234.286 307.571462,234.286 C308.308799,234.286 308.882793,234.083002 309.293462,233.677 C309.704131,233.270998 309.909462,232.601338 309.909462,231.668 L309.909462,226.082 C309.694794,226.007333 309.494129,225.930334 309.307462,225.851 C309.120794,225.771666 308.952796,225.69 308.803462,225.606 L308.803462,225.2 L311.785462,225.2 L311.785462,225.606 C311.608128,225.708667 311.428463,225.802 311.246462,225.886 C311.064461,225.97 310.880129,226.035333 310.693462,226.082 L310.693462,231.696 C310.693462,232.293336 310.614129,232.806665 310.455462,233.236 C310.296794,233.665335 310.07513,234.019999 309.790462,234.3 C309.505794,234.580001 309.160464,234.787666 308.754462,234.923 C308.34846,235.058334 307.898131,235.126 307.403462,235.126 C306.236789,235.126 305.345465,234.862336 304.729462,234.335 C304.113459,233.807664 303.805462,232.998005 303.805462,231.906 L303.805462,225.956 C303.422793,225.9 303.04013,225.783334 302.657462,225.606 L302.657462,225.2 Z M312.344924,235 L312.344924,234.594 C312.718259,234.416666 313.100922,234.304667 313.492924,234.258 L313.492924,225.956 C313.306256,225.918666 313.114925,225.869667 312.918924,225.809 C312.722923,225.748333 312.531591,225.680667 312.344924,225.606 L312.344924,225.2 L313.828924,225.2 C314.006258,225.2 314.17659,225.195333 314.339924,225.186 C314.503258,225.176667 314.67359,225.167333 314.850924,225.158 C315.028258,225.148667 315.219589,225.139333 315.424924,225.13 C315.630258,225.120667 315.863589,225.116 316.124924,225.116 C316.498259,225.116 316.878588,225.146333 317.265924,225.207 C317.653259,225.267667 318.003256,225.381999 318.315924,225.55 C318.628592,225.718001 318.882923,225.953665 319.078924,226.257 C319.274925,226.560335 319.372924,226.954664 319.372924,227.44 C319.372924,227.682668 319.335591,227.925332 319.260924,228.168 C319.186257,228.410668 319.071925,228.636999 318.917924,228.847 C318.763923,229.057001 318.570258,229.241333 318.336924,229.4 C318.103589,229.558667 317.828259,229.675333 317.510924,229.75 L317.510924,229.806 C317.790925,229.852667 318.068589,229.931999 318.343924,230.044 C318.619258,230.156001 318.864256,230.307666 319.078924,230.499 C319.293591,230.690334 319.46859,230.925999 319.603924,231.206 C319.739258,231.486001 319.806924,231.821998 319.806924,232.214 C319.806924,232.718003 319.694925,233.151998 319.470924,233.516 C319.246923,233.880002 318.955259,234.178666 318.595924,234.412 C318.236589,234.645335 317.828259,234.815666 317.370924,234.923 C316.913588,235.030334 316.451593,235.084 315.984924,235.084 C315.658255,235.084 315.289592,235.07 314.878924,235.042 C314.468255,235.014 314.071592,235 313.688924,235 L312.344924,235 Z M316.082924,234.356 C316.418925,234.356 316.733922,234.304667 317.027924,234.202 C317.321925,234.099333 317.573923,233.957001 317.783924,233.775 C317.993925,233.592999 318.15959,233.373668 318.280924,233.117 C318.402258,232.860332 318.462924,232.582668 318.462924,232.284 C318.462924,231.910665 318.390591,231.600335 318.245924,231.353 C318.101256,231.105665 317.905258,230.909667 317.657924,230.765 C317.410589,230.620333 317.125925,230.52 316.803924,230.464 C316.481922,230.408 316.148259,230.38 315.802924,230.38 L314.752924,230.38 L314.752924,234.244 C314.883591,234.281334 315.039923,234.309333 315.221924,234.328 C315.403925,234.346667 315.690922,234.356 316.082924,234.356 Z M315.452924,229.652 C315.611591,229.652 315.800589,229.645 316.019924,229.631 C316.239258,229.617 316.418923,229.600667 316.558924,229.582 C316.988259,229.432666 317.340589,229.192335 317.615924,228.861 C317.891258,228.529665 318.028924,228.140002 318.028924,227.692 C318.028924,227.075997 317.844592,226.614002 317.475924,226.306 C317.107255,225.997998 316.614927,225.844 315.998924,225.844 C315.709589,225.844 315.462258,225.848667 315.256924,225.858 C315.051589,225.867333 314.883591,225.881333 314.752924,225.9 L314.752924,229.652 L315.452924,229.652 Z M324.510386,235 L320.968386,235 L320.968386,234.594 C321.341721,234.444666 321.724384,234.332667 322.116386,234.258 L322.116386,225.956 C321.677717,225.890666 321.295054,225.774001 320.968386,225.606 L320.968386,225.2 L324.510386,225.2 L324.510386,225.606 C324.351718,225.69 324.18372,225.76 324.006386,225.816 C323.829051,225.872 323.647053,225.918666 323.460386,225.956 L323.460386,229.61 L327.856386,229.61 L327.856386,225.956 C327.660385,225.909333 327.476053,225.858 327.303386,225.802 C327.130718,225.746 326.965053,225.680667 326.806386,225.606 L326.806386,225.2 L330.348386,225.2 L330.348386,225.606 C330.180385,225.699334 329.996053,225.771666 329.795386,225.823 C329.594718,225.874334 329.396387,225.918666 329.200386,225.956 L329.200386,234.258 C329.415053,234.295334 329.620385,234.342 329.816386,234.398 C330.012387,234.454 330.189718,234.519333 330.348386,234.594 L330.348386,235 L326.806386,235 L326.806386,234.594 C327.142387,234.444666 327.492384,234.332667 327.856386,234.258 L327.856386,230.338 L323.460386,230.338 L323.460386,234.258 C323.647053,234.295334 323.829051,234.342 324.006386,234.398 C324.18372,234.454 324.351718,234.519333 324.510386,234.594 L324.510386,235 Z M337.809847,225.2 C337.800514,225.573335 337.784181,225.948998 337.760847,226.327 C337.737514,226.705002 337.702514,227.085331 337.655847,227.468 L337.291847,227.468 L336.717847,225.928 L333.665847,225.928 L333.665847,229.638 L335.947847,229.638 L336.493847,228.602 L336.843847,228.602 C336.899848,229.526005 336.899848,230.468662 336.843847,231.43 L336.493847,231.43 L335.947847,230.366 L333.665847,230.366 L333.665847,234.272 L336.885847,234.272 L337.571847,232.592 L337.921847,232.592 C337.987181,232.984002 338.033847,233.380665 338.061847,233.782 C338.089848,234.183335 338.094514,234.589331 338.075847,235 L331.173847,235 L331.173847,234.594 C331.500516,234.444666 331.883179,234.332667 332.321847,234.258 L332.321847,225.956 C332.13518,225.918666 331.943848,225.869667 331.747847,225.809 C331.551847,225.748333 331.360515,225.680667 331.173847,225.606 L331.173847,225.2 L337.809847,225.2 Z M342.037309,235 L338.929309,235 L338.929309,234.594 C339.265311,234.444666 339.601308,234.332667 339.937309,234.258 L343.479309,225.032 L343.885309,225.032 L347.427309,234.258 C347.613977,234.295334 347.798308,234.337333 347.980309,234.384 C348.16231,234.430667 348.332642,234.500666 348.491309,234.594 L348.491309,235 L344.907309,235 L344.907309,234.594 C345.093977,234.519333 345.285308,234.454 345.481309,234.398 C345.67731,234.342 345.868642,234.295334 346.055309,234.258 L345.103309,231.696 L341.757309,231.696 L340.833309,234.258 C341.225311,234.314 341.626641,234.425999 342.037309,234.594 L342.037309,235 Z M342.037309,230.968 L344.865309,230.968 L343.759309,228 L343.493309,226.796 L343.465309,226.796 L343.115309,228.028 L342.037309,230.968 Z M348.910771,235 L348.910771,234.594 C349.23744,234.444666 349.620102,234.332667 350.058771,234.258 L350.058771,225.956 C349.844104,225.909333 349.638772,225.855667 349.442771,225.795 C349.24677,225.734333 349.069439,225.671334 348.910771,225.606 L348.910771,225.2 L350.338771,225.2 C350.497439,225.2 350.684104,225.195333 350.898771,225.186 C351.113439,225.176667 351.335103,225.165 351.563771,225.151 C351.792439,225.137 352.01177,225.123 352.221771,225.109 C352.431772,225.095 352.606771,225.088 352.746771,225.088 C354.333446,225.088 355.553767,225.512662 356.407771,226.362 C357.261776,227.211338 357.688771,228.415326 357.688771,229.974 C357.688771,230.711337 357.583772,231.394997 357.373771,232.025 C357.16377,232.655003 356.844107,233.198664 356.414771,233.656 C355.985436,234.113336 355.441775,234.472665 354.783771,234.734 C354.125768,234.995335 353.348776,235.126 352.452771,235.126 C352.312771,235.126 352.154105,235.119 351.976771,235.105 C351.799437,235.091 351.612772,235.077 351.416771,235.063 C351.22077,235.049 351.022439,235.035 350.821771,235.021 C350.621104,235.007 350.432105,235 350.254771,235 L348.910771,235 Z M352.550771,225.816 C352.308103,225.816 352.074772,225.818333 351.850771,225.823 C351.62677,225.827667 351.449439,225.844 351.318771,225.872 L351.318771,234.356 C351.365438,234.365333 351.449437,234.372333 351.570771,234.377 C351.692105,234.381667 351.822771,234.386333 351.962771,234.391 C352.102772,234.395667 352.235771,234.398 352.361771,234.398 L352.634771,234.398 C353.278774,234.398 353.824769,234.276668 354.272771,234.034 C354.720773,233.791332 355.087103,233.467002 355.371771,233.061 C355.656439,232.654998 355.864104,232.186003 355.994771,231.654 C356.125439,231.121997 356.190771,230.562003 356.190771,229.974 C356.190771,229.516664 356.127772,229.043002 356.001771,228.553 C355.875771,228.062998 355.670439,227.615002 355.385771,227.209 C355.101103,226.802998 354.72544,226.469335 354.258771,226.208 C353.792102,225.946665 353.222775,225.816 352.550771,225.816 Z M365.472233,225.2 C365.4629,225.573335 365.446567,225.948998 365.423233,226.327 C365.3999,226.705002 365.3649,227.085331 365.318233,227.468 L364.954233,227.468 L364.380233,225.928 L361.328233,225.928 L361.328233,229.638 L363.610233,229.638 L364.156233,228.602 L364.506233,228.602 C364.562233,229.526005 364.562233,230.468662 364.506233,231.43 L364.156233,231.43 L363.610233,230.366 L361.328233,230.366 L361.328233,234.272 L364.548233,234.272 L365.234233,232.592 L365.584233,232.592 C365.649567,232.984002 365.696233,233.380665 365.724233,233.782 C365.752233,234.183335 365.7569,234.589331 365.738233,235 L358.836233,235 L358.836233,234.594 C359.162901,234.444666 359.545564,234.332667 359.984233,234.258 L359.984233,225.956 C359.797566,225.918666 359.606234,225.869667 359.410233,225.809 C359.214232,225.748333 359.022901,225.680667 358.836233,225.606 L358.836233,225.2 L365.472233,225.2 Z M369.489695,234.258 C369.704363,234.304667 369.909694,234.353666 370.105695,234.405 C370.301696,234.456334 370.493027,234.519333 370.679695,234.594 L370.679695,235 L366.997695,235 L366.997695,234.594 C367.203029,234.500666 367.399027,234.430667 367.585695,234.384 C367.772363,234.337333 367.959027,234.295334 368.145695,234.258 L368.145695,225.956 C367.903027,225.909333 367.688363,225.855667 367.501695,225.795 C367.315027,225.734333 367.147029,225.671334 366.997695,225.606 L366.997695,225.2 L368.229695,225.2 C368.60303,225.2 369.011359,225.181334 369.454695,225.144 C369.898031,225.106666 370.329693,225.088 370.749695,225.088 C371.207031,225.088 371.634026,225.139333 372.030695,225.242 C372.427364,225.344667 372.77036,225.507999 373.059695,225.732 C373.34903,225.956001 373.575361,226.240665 373.738695,226.586 C373.902029,226.931335 373.983695,227.346664 373.983695,227.832 C373.983695,228.513337 373.80403,229.077998 373.444695,229.526 C373.08536,229.974002 372.597698,230.295999 371.981695,230.492 C372.38303,231.12667 372.803026,231.756664 373.241695,232.382 C373.680364,233.007336 374.137693,233.627997 374.613695,234.244 L375.369695,234.65 L375.369695,235 L373.675695,235 L373.143695,234.608 C372.88236,234.281332 372.644363,233.961668 372.429695,233.649 C372.215027,233.336332 372.014363,233.019002 371.827695,232.697 C371.641027,232.374998 371.466029,232.048335 371.302695,231.717 C371.139361,231.385665 370.973696,231.033335 370.805695,230.66 L369.489695,230.66 L369.489695,234.258 Z M370.441695,225.816 C370.217694,225.816 370.033362,225.820667 369.888695,225.83 C369.744028,225.839333 369.611029,225.858 369.489695,225.886 L369.489695,230.072 L370.497695,230.072 C371.141698,230.072 371.652693,229.866669 372.030695,229.456 C372.408697,229.045331 372.597695,228.504003 372.597695,227.832 C372.597695,227.14133 372.39703,226.632668 371.995695,226.306 C371.59436,225.979332 371.076365,225.816 370.441695,225.816 Z" id="SUBHEADER" fill="#0847FF" fill-rule="nonzero"></path>
            </g>
        </g>
    </g>
</svg>