<?xml version="1.0" encoding="UTF-8"?>
<svg width="134px" height="23px" viewBox="0 0 134 23" version="1.1" xmlns="http://www.w3.org/2000/svg" xmlns:xlink="http://www.w3.org/1999/xlink">
    <!-- Generator: Sketch 53 (72520) - https://sketchapp.com -->
    <title>onbrand-logos-white</title>
    <desc>Created with Sketch.</desc>
    <g id="Design" stroke="none" stroke-width="1" fill="none" fill-rule="evenodd">
        <g id="2-for-1-copy" transform="translate(-233.000000, -38.000000)" fill="#FFFFFF">
            <g id="Group-3">
                <g id="onbrand-logos-white" transform="translate(233.000000, 38.000000)">
                    <path d="M0,9.15 C0,3.725 4.225,0 9.675,0 C15.125,0 19.35,3.725 19.35,9.15 C19.35,14.575 15.15,18.3 9.675,18.3 C4.2,18.3 0,14.6 0,9.15 Z M13.925,9.15 C13.925,6.675 12.25,4.725 9.675,4.725 C7.1,4.725 5.425,6.7 5.425,9.15 C5.425,11.6 7.1,13.575 9.675,13.575 C12.25,13.575 13.925,11.625 13.925,9.15 Z" id="Shape" fill-rule="nonzero"></path>
                    <polygon id="Path" points="33.175 18 26.65 9.025 26.65 18 21.275 18 21.275 0.3 26.8 0.3 32.95 8.675 32.95 0.3 38.3 0.3 38.3 18"></polygon>
                    <path d="M41.175,18 L41.175,0.3 L51.925,0.3 C55.575,0.3 57.175,2.75 57.175,4.8 C57.175,7 55.875,8.5 54.15,8.85 C56.05,9.15 57.525,10.9 57.525,13.175 C57.525,15.65 55.85,17.975 52.3,17.975 L41.175,17.975 L41.175,18 Z M51.725,5.75 C51.7218176,5.47701831 51.6085345,5.21688914 51.4108447,5.02861311 C51.2131548,4.84033708 50.9478122,4.73987033 50.675,4.75 L46.525,4.75 L46.525,6.82501413 L50.675,6.825 C50.9582946,6.82647237 51.2300474,6.71286188 51.4279992,6.51019692 C51.625951,6.30753195 51.7331368,6.03318157 51.725,5.75 L51.725,5.75 Z M52.075,12.425 C52.075,11.8 51.6,11.275 50.825,11.275 L46.525,11.275 L46.525,13.525 L50.825,13.525 C51.6,13.525 52.075,13.075 52.075,12.425 L52.075,12.425 Z" id="Shape" fill-rule="nonzero"></path>
                    <path d="M69.4,18 L66.95,12.425 L65.025,12.425 L65.025,18 L59.675,18 L59.675,0.3 L69.125,0.3 C73.275,0.3 75.5,3.05 75.5,6.375 C75.5,9.425 73.725,11.05 72.325,11.725 L75.5,18 L69.4,18 Z M70.05,6.35 C70.05,5.4 69.2,4.975 68.3,4.975 L65.025,4.975 L65.025,7.75 L68.3,7.75 C69.2,7.75 70.05,7.325 70.05,6.35 L70.05,6.35 Z" id="Shape" fill-rule="nonzero"></path>
                    <path d="M89.475,18 L88.85,15.925 L82.475,15.925 L81.85,18 L75.75,18 L82.275,0.3 L89.025,0.3 L95.55,18 L89.475,18 Z M85.65,5.55 L83.9,11.25 L87.4,11.25 L85.65,5.55 Z" id="Shape" fill-rule="nonzero"></path>
                    <polygon id="Path" points="96.5 18 96.5 0.3 101.85 0.3 101.85 8.675 108 0.3 113.525 0.3 113.525 18 108.175 18 108.175 9.025 101.65 18"></polygon>
                    <path d="M116.4,18 L116.4,0.3 L124.3,0.3 C129.875,0.3 134,3.475 134,9.125 C134,14.775 129.85,17.975 124.325,17.975 L116.4,17.975 L116.4,18 Z M128.575,9.125 C128.575,6.725 127.2,4.95 124.325,4.95 L121.75,4.95 L121.75,13.3 L124.3,13.3 C126.975,13.325 128.575,11.35 128.575,9.125 L128.575,9.125 Z" id="Shape" fill-rule="nonzero"></path>
                    <rect id="Rectangle" x="1.175" y="19.725" width="17.025" height="3.2"></rect>
                </g>
            </g>
        </g>
    </g>
</svg>