<?xml version="1.0" encoding="UTF-8"?>
<svg width="120px" height="26px" viewBox="0 0 120 26" version="1.1" xmlns="http://www.w3.org/2000/svg" xmlns:xlink="http://www.w3.org/1999/xlink">
    <!-- Generator: Sketch 53 (72520) - https://sketchapp.com -->
    <title>Bynder-horlogo-blue Copy 3</title>
    <desc>Created with Sketch.</desc>
    <g id="Landing-page" stroke="none" stroke-width="1" fill="none" fill-rule="evenodd">
        <g id="Landing-page-V1" transform="translate(-127.000000, -4282.000000)">
            <g id="footer" transform="translate(-3.000000, 4241.000000)">
                <g id="Bynder-horlogo-blue-Copy-3" transform="translate(130.000000, 41.000000)">
                    <path d="M46.7896472,15.8851004 C46.7896472,16.9378366 47.6465469,17.4647077 49.3603463,17.4647077 C50.4499211,17.4647077 51.2123088,17.0839522 51.649738,16.3229441 C52.0879536,15.5616846 52.307127,14.315427 52.307127,12.5824109 C52.307127,10.9359073 52.0256885,9.78446135 51.4626803,9.12870175 C50.8988857,8.47319364 50.0801316,8.14512523 49.0103506,8.14512523 C48.1731135,8.14512523 47.4328791,8.22673366 46.7896472,8.38907031 L46.7896472,15.8851004 Z M43.3548387,15.5535111 L43.3548387,0 L46.7896472,0 L46.7896472,5.62557487 C47.6091878,5.47304632 48.3912382,5.39709641 49.1359296,5.39709641 C51.2596304,5.39709641 52.8915019,6.03022193 54.0316754,7.29747893 C55.1727664,8.56335273 55.7419355,10.3881626 55.7419355,12.7687648 C55.7419355,14.0791523 55.5763757,15.2331132 55.2431588,16.2329108 C54.9082377,17.2318282 54.5127557,17.9896926 54.0602518,18.5058754 C53.6057816,19.0219324 53.0616497,19.4428006 52.4247098,19.7678511 C51.7914404,20.0935304 51.2381325,20.2934648 50.7714715,20.3702949 C50.3028442,20.4463705 49.8325129,20.4848485 49.3603463,20.4848485 C47.3205396,20.4848485 45.8097902,20.0024911 44.8263939,19.0368961 C43.8448328,18.072307 43.3548387,16.9109272 43.3548387,15.5535111 L43.3548387,15.5535111 Z" id="Fill-1" fill-opacity="0.5" fill="#44444E"></path>
                    <path d="M55.7419355,5.51515152 L59.318936,5.51515152 L62.4530845,15.7395821 L65.5341576,5.51515152 L68.9032258,5.51515152 L63.7675043,20.5660457 C63.0190509,22.7023017 62.2069842,24.1430559 61.3309185,24.8856568 C60.4542102,25.6283839 59.545117,26 58.6063375,26 C57.9119876,26 57.2028589,25.8638797 56.4842203,25.5915127 L56.4842203,22.6079771 C57.0221711,22.8468822 57.5513832,22.9665873 58.0718564,22.9665873 C59.0394226,22.9665873 59.9381064,21.7812796 60.7685504,19.4102855 L55.7419355,5.51515152" id="Fill-2" fill="#A1A1A6"></path>
                    <path d="M70.4516129,20.4848485 L70.4516129,7.13005967 C72.4622863,6.05366537 74.556743,5.51515152 76.7383796,5.51515152 C78.6497963,5.51515152 80.145064,6.0510051 81.2214152,7.12271227 C82.3001567,8.1953062 82.8387097,9.69670967 82.8387097,11.6293296 L82.8387097,20.4848485 L79.5405914,20.4848485 L79.5405914,11.3266927 C79.5405914,10.9323399 79.5064994,10.603607 79.439825,10.3384672 C79.3713894,10.0745941 79.2380406,9.79741974 79.036382,9.50947761 C78.836233,9.22102877 78.507893,9.0050405 78.0532491,8.8603727 C77.5957118,8.71621162 77.0111157,8.64387772 76.2939256,8.64387772 C75.4920716,8.64387772 74.6422875,8.73128646 73.7488506,8.90382372 L73.7488506,20.4848485 L70.4516129,20.4848485" id="Fill-3" fill="#A1A1A6"></path>
                    <path d="M87.81447,12.5824109 C87.81447,14.3052416 88.0331689,15.5497388 88.4687355,16.3157767 C88.9069182,17.0818145 89.6668708,17.4647077 90.7557874,17.4647077 C92.4835351,17.4647077 93.3485208,16.9378366 93.3485208,15.8851004 L93.3485208,8.38907031 C92.6784283,8.23603878 91.9263237,8.15455609 91.0907683,8.14512523 C90.0205562,8.14512523 89.209068,8.47319364 88.6491098,9.12870175 C88.0937297,9.78446135 87.81447,10.9359073 87.81447,12.5824109 M84.3870968,12.7687648 C84.3870968,10.3881626 84.9524178,8.56335273 86.0865915,7.29747893 C87.2198496,6.03022193 88.8509355,5.39709641 90.9789336,5.39709641 C91.739671,5.39709641 92.530885,5.47304632 93.3485208,5.62557487 L93.3485208,0 L96.7741935,0 L96.7741935,15.5535111 C96.7741935,16.9011191 96.280813,18.0598583 95.2915666,19.0306088 C94.3021893,19.9999762 92.790263,20.4848485 90.7557874,20.4848485 C90.2811113,20.4848485 89.8090513,20.4463705 89.3415692,20.3702949 C88.872256,20.2934648 88.3248547,20.0935304 87.6945256,19.7678511 C87.0696903,19.4428006 86.5220273,19.0219324 86.0572921,18.5058754 C85.5942573,17.9896926 85.1995005,17.2318282 84.8734141,16.2329108 C84.5487666,15.2331132 84.3870968,14.0791523 84.3870968,12.7687648" id="Fill-4" fill="#A1A1A6"></path>
                    <path d="M101.660326,11.9220548 L107.250826,11.9220548 C107.159901,10.9287239 106.877702,10.0896787 106.401809,9.40479469 C105.927571,8.72053329 105.275049,8.3787139 104.442587,8.3787139 C103.610124,8.3787139 102.96104,8.65802205 102.495462,9.21564218 C102.029121,9.7737604 101.751251,10.6758149 101.660326,11.9220548 M98.3225806,13.1699135 C98.3225806,10.8445454 98.81592,8.9883852 99.8075652,7.59856873 C100.797682,6.20949939 102.369135,5.51515152 104.524088,5.51515152 C106.559336,5.51515152 108.098825,6.19094526 109.143319,7.54228371 C110.189595,8.89399573 110.709677,10.5568942 110.709677,12.5322242 C110.709677,13.3454929 110.690575,13.9450777 110.656065,14.3325975 L101.660326,14.3325975 C101.751251,15.5891729 102.109603,16.430335 102.739585,16.8555858 C103.367784,17.2814591 104.183055,17.4940222 105.188581,17.4940222 C106.815429,17.4940222 108.390448,17.119951 109.911726,16.3735519 L109.911726,19.1808293 C108.373128,20.050383 106.630268,20.4848485 104.686709,20.4848485 C104.071372,20.4848485 103.492456,20.4331709 102.948942,20.329193 C102.407212,20.2254642 101.844723,20.0080447 101.26135,19.6771834 C100.680014,19.3463222 100.17878,18.9258034 99.7600651,18.4155025 C99.3395678,17.90433 98.9958603,17.1982768 98.7267776,16.2957242 C98.4568036,15.3931716 98.3225806,14.3511517 98.3225806,13.1699135" id="Fill-5" fill="#A1A1A6"></path>
                    <g id="Group-9">
                        <polygon id="Clip-7" points="0 0.0298564593 120 0.0298564593 120 25.9925359 0 25.9925359"></polygon>
                        <path d="M113.2055,7.05197129 C113.428875,6.94038278 113.73375,6.80677512 114.123625,6.65251675 C114.515125,6.49825837 115.300875,6.27844019 116.48175,5.99355981 C117.66325,5.70830622 118.8345,5.55603828 120,5.53750239 L120,8.52588517 C118.6315,8.54442105 117.4585,8.70502392 116.48175,9.00819139 L116.48175,20.2380766 L113.2055,20.2380766 L113.2055,7.05197129 Z" id="Fill-6" fill="#A1A1A6"></path>
                        <path d="M20.164625,2.82653589 L9.106125,13.8196842 L5.940125,10.6694545 C5.390875,10.0521722 5.1055,9.30277512 5.106875,8.45982775 C5.110625,6.6169378 6.599875,5.14650718 8.45175,5.14849761 C9.292,5.14924402 10.031625,5.43225837 10.647875,5.97402871 C10.84525,6.14794258 11.4045,6.72342584 11.4045,6.72342584 L14.906,3.23818182 L13.8965,2.23425837 C12.43125,0.851655502 10.4315,0.0328421053 8.252,0.0328421053 C3.69925,0.0328421053 0,3.69772249 0,8.228689 C0,10.3042105 0.78275,12.2367943 2.02825,13.6504976 L9.1285,20.7468804 L23.965125,5.98074641 C24.586,5.4342488 25.325,5.14725359 26.172375,5.14849761 C28.02525,5.15260287 29.502,6.63982775 29.49725,8.48408612 C29.494875,9.32044019 29.211125,10.0622488 28.665375,10.6754258 L18.80475,20.488622 C18.432,20.8816077 17.88725,21.101177 17.30125,21.1052823 C16.71525,21.101177 16.1935,20.8572249 15.82075,20.464488 L15.07875,19.7312632 L11.593,23.2002105 L12.30675,23.9024593 C13.585375,25.1995981 15.36575,26 17.315125,26 C19.27025,26 21.0225,25.204823 22.3005,23.9070622 L32.577,13.6559713 C33.8225,12.2427656 34.60925,10.3075694 34.608875,8.23142584 C34.60925,3.70045933 30.915375,0.0298564593 26.362625,0.0298564593 C23.892625,0.0298564593 21.6755,1.11339713 20.164625,2.82653589 Z" id="Fill-8" fill="#A1A1A6"></path>
                    </g>
                </g>
            </g>
        </g>
    </g>
</svg>