<?xml version="1.0" encoding="UTF-8"?>
<svg width="139px" height="24px" viewBox="0 0 139 24" version="1.1" xmlns="http://www.w3.org/2000/svg" xmlns:xlink="http://www.w3.org/1999/xlink">
    <!-- Generator: Sketch 53 (72520) - https://sketchapp.com -->
    <title>Group</title>
    <desc>Created with Sketch.</desc>
    <g id="Onbrand-5" stroke="none" stroke-width="1" fill="none" fill-rule="evenodd">
        <g id="Group" fill="#0947FF">
            <g id="onbrand-logo-white">
                <path d="M0,9.54782609 C0,3.88695652 4.38264925,0 10.0360075,0 C15.6893657,0 20.0720149,3.88695652 20.0720149,9.54782609 C20.0720149,15.2086957 15.7152985,19.0956522 10.0360075,19.0956522 C4.35671642,19.0956522 0,15.2347826 0,9.54782609 Z M14.4445896,9.54782609 C14.4445896,6.96521739 12.7070896,4.93043478 10.0360075,4.93043478 C7.36492537,4.93043478 5.62742537,6.99130435 5.62742537,9.54782609 C5.62742537,12.1043478 7.36492537,14.1652174 10.0360075,14.1652174 C12.7070896,14.1652174 14.4445896,12.1304348 14.4445896,9.54782609 Z" id="Shape" fill-rule="nonzero"></path>
                <polygon id="Path" points="34.4128731 18.7826087 27.644403 9.4173913 27.644403 18.7826087 22.0688433 18.7826087 22.0688433 0.313043478 27.8 0.313043478 34.1794776 9.05217391 34.1794776 0.313043478 39.7291045 0.313043478 39.7291045 18.7826087"></polygon>
                <path d="M42.7113806,18.7826087 L42.7113806,0.313043478 L53.8625,0.313043478 C57.648694,0.313043478 59.3083955,2.86956522 59.3083955,5.00869565 C59.3083955,7.30434783 57.9598881,8.86956522 56.1705224,9.23478261 C58.1414179,9.54782609 59.6714552,11.373913 59.6714552,13.7478261 C59.6714552,16.3304348 57.9339552,18.7565217 54.2514925,18.7565217 L42.7113806,18.7565217 L42.7113806,18.7826087 Z M53.6550373,6 C53.6517362,5.71514954 53.5342261,5.4437104 53.3291598,5.24724846 C53.1240934,5.05078652 52.84885,4.94595165 52.5658582,4.95652174 L48.2610075,4.95652174 L48.2610075,7.12175388 L52.5658582,7.12173913 C52.8597235,7.12327552 53.1416163,7.00472544 53.3469544,6.79324896 C53.5522925,6.58177247 53.6634777,6.29549382 53.6550373,6 L53.6550373,6 Z M54.018097,12.9652174 C54.018097,12.3130435 53.5253731,11.7652174 52.7214552,11.7652174 L48.2610075,11.7652174 L48.2610075,14.1130435 L52.7214552,14.1130435 C53.5253731,14.1130435 54.018097,13.6434783 54.018097,12.9652174 L54.018097,12.9652174 Z" id="Shape" fill-rule="nonzero"></path>
                <path d="M71.9895522,18.7826087 L69.4481343,12.9652174 L67.451306,12.9652174 L67.451306,18.7826087 L61.9016791,18.7826087 L61.9016791,0.313043478 L71.704291,0.313043478 C76.0091418,0.313043478 78.3171642,3.1826087 78.3171642,6.65217391 C78.3171642,9.83478261 76.4759328,11.5304348 75.023694,12.2347826 L78.3171642,18.7826087 L71.9895522,18.7826087 Z M72.663806,6.62608696 C72.663806,5.63478261 71.7820896,5.19130435 70.8485075,5.19130435 L67.451306,5.19130435 L67.451306,8.08695652 L70.8485075,8.08695652 C71.7820896,8.08695652 72.663806,7.64347826 72.663806,6.62608696 L72.663806,6.62608696 Z" id="Shape" fill-rule="nonzero"></path>
                <path d="M92.8136194,18.7826087 L92.1652985,16.6173913 L85.5524254,16.6173913 L84.9041045,18.7826087 L78.5764925,18.7826087 L85.3449627,0.313043478 L92.3468284,0.313043478 L99.1152985,18.7826087 L92.8136194,18.7826087 Z M88.8458955,5.79130435 L87.030597,11.7391304 L90.661194,11.7391304 L88.8458955,5.79130435 Z" id="Shape" fill-rule="nonzero"></path>
                <polygon id="Path" points="100.100746 18.7826087 100.100746 0.313043478 105.650373 0.313043478 105.650373 9.05217391 112.029851 0.313043478 117.761007 0.313043478 117.761007 18.7826087 112.211381 18.7826087 112.211381 9.4173913 105.44291 18.7826087"></polygon>
                <path d="M120.743284,18.7826087 L120.743284,0.313043478 L128.93806,0.313043478 C134.721082,0.313043478 139,3.62608696 139,9.52173913 C139,15.4173913 134.695149,18.7565217 128.963993,18.7565217 L120.743284,18.7565217 L120.743284,18.7826087 Z M133.372575,9.52173913 C133.372575,7.0173913 131.946269,5.16521739 128.963993,5.16521739 L126.29291,5.16521739 L126.29291,13.8782609 L128.93806,13.8782609 C131.712873,13.9043478 133.372575,11.8434783 133.372575,9.52173913 L133.372575,9.52173913 Z" id="Shape" fill-rule="nonzero"></path>
                <rect id="Rectangle" x="1.21884328" y="20.5826087" width="17.6602612" height="3.33913043"></rect>
            </g>
        </g>
    </g>
</svg>