<?xml version="1.0" encoding="UTF-8"?>
<svg width="151px" height="32px" viewBox="0 0 151 32" version="1.1" xmlns="http://www.w3.org/2000/svg" xmlns:xlink="http://www.w3.org/1999/xlink">
    <!-- Generator: Sketch 53 (72520) - https://sketchapp.com -->
    <title>Bynder-horlogo-blue</title>
    <desc>Created with Sketch.</desc>
    <g id="Landing-page" stroke="none" stroke-width="1" fill="none" fill-rule="evenodd">
        <g id="Landing-page-V1" transform="translate(-125.000000, -3762.000000)">
            <g id="partnership" transform="translate(125.000000, 3573.000000)">
                <g id="Bynder-horlogo-blue" transform="translate(0.000000, 189.000000)">
                    <path d="M58.6052147,19.5508928 C58.6052147,20.8465682 59.6785032,21.4950249 61.8250802,21.4950249 C63.1898002,21.4950249 64.1447101,21.0264027 64.6926011,20.0897774 C65.2414773,19.1528425 65.5159975,17.618987 65.5159975,15.4860442 C65.5159975,13.4595782 65.1634886,12.042414 64.4583067,11.2353252 C63.7521396,10.428546 62.7266294,10.0247695 61.3867017,10.0247695 C60.3380412,10.0247695 59.4108788,10.1252107 58.6052147,10.3250096 L58.6052147,19.5508928 Z M54.3030303,19.142783 L54.3030303,0 L58.6052147,0 L58.6052147,6.92378446 C59.63171,6.73605701 60.6112479,6.6425802 61.5439926,6.6425802 C64.2039815,6.6425802 66.2479418,7.4218116 67.6760378,8.98151253 C69.1052831,10.5395111 69.8181818,12.7854309 69.8181818,15.7154029 C69.8181818,17.3281875 69.610814,18.748447 69.1934514,19.9789671 C68.7739543,21.2084039 68.278603,22.1411602 67.7118305,22.776462 C67.1425952,23.4116092 66.4610562,23.9296007 65.6632729,24.3296629 C64.8700869,24.7304989 64.1770548,24.976572 63.5925502,25.0711322 C63.0055827,25.1647638 62.4164808,25.2121212 61.8250802,25.2121212 C59.2701708,25.2121212 57.377919,24.6184506 56.1461903,23.4300259 C54.9167602,22.2428394 54.3030303,20.8134489 54.3030303,19.142783 L54.3030303,19.142783 Z" id="Fill-1" fill="#00AAFF"></path>
                    <path d="M69.8181818,6.78787879 L74.2984653,6.78787879 L78.2240654,19.3717934 L82.0831872,6.78787879 L86.3030303,6.78787879 L79.8704094,25.3120563 C78.9329527,27.9412944 77.9158186,29.7145304 76.8185242,30.6285006 C75.7204249,31.5426263 74.5817627,32 73.4059176,32 C72.5362269,32 71.6480253,31.8324673 70.7479123,31.4972464 L70.7479123,27.8252026 C71.4217093,28.1192396 72.0845608,28.2665689 72.7364666,28.2665689 C73.9483677,28.2665689 75.0739918,26.8077288 76.1141439,23.8895822 L69.8181818,6.78787879" id="Fill-2" fill="#00AAFF"></path>
                    <path d="M88.2424242,25.2121212 L88.2424242,8.77545806 C90.7608435,7.45066507 93.3842034,6.78787879 96.1167583,6.78787879 C98.5108559,6.78787879 100.383717,7.44739089 101.731874,8.7664151 C103.083025,10.0865307 103.757576,11.9344119 103.757576,14.313021 L103.757576,25.2121212 L99.6265993,25.2121212 L99.6265993,13.9405448 C99.6265993,13.4551876 99.5838982,13.0505933 99.5003868,12.7242673 C99.4146695,12.3995005 99.2476468,12.0583628 98.9950643,11.7039724 C98.7443726,11.3489585 98.3331185,11.0831268 97.7636655,10.9050741 C97.1905885,10.7276451 96.4583671,10.6386187 95.5600684,10.6386187 C94.555726,10.6386187 93.49135,10.7461987 92.3722977,10.9585523 L92.3722977,25.2121212 L88.2424242,25.2121212" id="Fill-3" fill="#00AAFF"></path>
                    <path d="M109.989841,15.4860442 C109.989841,17.6064512 110.263767,19.1381401 110.809325,20.0809559 C111.35816,21.0237717 112.31002,21.4950249 113.673916,21.4950249 C115.837963,21.4950249 116.92138,20.8465682 116.92138,19.5508928 L116.92138,10.3250096 C116.082072,10.1366631 115.140042,10.0363767 114.093488,10.0247695 C112.75302,10.0247695 111.73661,10.428546 111.035249,11.2353252 C110.339621,12.042414 109.989841,13.4595782 109.989841,15.4860442 M105.69697,15.7154029 C105.69697,12.7854309 106.405049,10.5395111 107.82563,8.98151253 C109.245064,7.4218116 111.28804,6.6425802 113.953412,6.6425802 C114.906255,6.6425802 115.89727,6.73605701 116.92138,6.92378446 L116.92138,0 L121.212121,0 L121.212121,19.142783 C121.212121,20.8013774 120.59415,22.2275179 119.355093,23.4222878 C118.115874,24.6153553 116.222148,25.2121212 113.673916,25.2121212 C113.079372,25.2121212 112.488105,25.1647638 111.902572,25.0711322 C111.314745,24.976572 110.629111,24.7304989 109.839608,24.3296629 C109.056986,23.9296007 108.371024,23.4116092 107.788932,22.776462 C107.208969,22.1411602 106.714526,21.2084039 106.306094,19.9789671 C105.899465,18.748447 105.69697,17.3281875 105.69697,15.7154029" id="Fill-4" fill="#00AAFF"></path>
                    <path d="M127.332125,14.6732982 L134.334368,14.6732982 C134.220482,13.4507371 133.86702,12.4180661 133.270952,11.5751319 C132.676958,10.732964 131.859657,10.3122633 130.816977,10.3122633 C129.774297,10.3122633 128.961303,10.6560271 128.378155,11.3423288 C127.79405,12.0292436 127.446011,13.1394645 127.332125,14.6732982 M123.151515,16.2091243 C123.151515,13.3471329 123.769435,11.0626279 125.011496,9.35208459 C126.251642,7.64246079 128.219927,6.78787879 130.91906,6.78787879 C133.468259,6.78787879 135.396508,7.61962494 136.704763,9.28281072 C138.015251,10.9464563 138.666667,12.9931005 138.666667,15.424276 C138.666667,16.425222 138.642741,17.1631725 138.599515,17.64012 L127.332125,17.64012 C127.446011,19.1866744 127.894857,20.2219508 128.683925,20.7453363 C129.47076,21.2694881 130.491907,21.5311042 131.751354,21.5311042 C133.789022,21.5311042 135.761773,21.0707089 137.667212,20.1520639 L137.667212,23.6071745 C135.74008,24.6773944 133.557103,25.2121212 131.122747,25.2121212 C130.352022,25.2121212 129.626915,25.148518 128.94615,25.0205453 C128.267618,24.892879 127.563088,24.6252858 126.832398,24.2180719 C126.10426,23.8108581 125.476451,23.2932965 124.952001,22.6652339 C124.425317,22.0360985 123.994815,21.1671099 123.657782,20.0562759 C123.319633,18.9454419 123.151515,17.6629559 123.151515,16.2091243" id="Fill-5" fill="#00AAFF"></path>
                    <g id="Group-9">
                        <polygon id="Clip-7" points="0 0.0367464115 150.30303 0.0367464115 150.30303 31.9908134 0 31.9908134"></polygon>
                        <path d="M141.792747,24.9084019 L141.792747,8.67934928 C142.07253,8.54200957 142.454394,8.37756938 142.942722,8.18771292 C143.433086,7.99785646 144.417258,7.727311 145.896333,7.376689 C147.376192,7.02560766 148.843212,6.83820096 150.30303,6.81538756 L150.30303,10.4933971 C148.588949,10.5162105 147.119737,10.7138756 145.896333,11.0870048 L145.896333,24.9084019 L141.792747,24.9084019" id="Fill-6" fill="#00AAFF"></path>
                        <path d="M33.0198535,0.0367464115 C29.9261162,0.0367464115 27.1491111,1.37033493 25.256702,3.4788134 L11.4056515,17.0088421 L7.44015657,13.1316364 C6.75220707,12.3719043 6.39476768,11.4495694 6.3964899,10.4120957 C6.40118687,8.14392344 8.2665101,6.33416268 10.5860303,6.33661244 C11.6384646,6.3375311 12.5648636,6.68585646 13.3367323,7.35265072 C13.5839495,7.56669856 14.2844242,8.27498565 14.2844242,8.27498565 L18.6701414,3.98545455 L17.4057172,2.74985646 L17.4052475,2.74985646 C15.5704545,1.04819139 13.0657172,0.0404210526 10.3358384,0.0404210526 C4.63340404,0.0404210526 0,4.55104306 0,10.1276172 C0,12.6821053 0.980414141,15.0606699 2.54043434,16.8006124 L11.4336768,25.534622 L30.0169242,7.36091866 C30.7945859,6.68830622 31.720202,6.33508134 32.7815606,6.33661244 C35.1023333,6.34166507 36.952,8.17209569 36.9460505,10.4419522 C36.9430758,11.471311 36.5876717,12.3843062 35.9041061,13.1389856 L23.5534242,25.2167656 C23.0865455,25.7004402 22.4042323,25.9706794 21.6702525,25.9757321 C20.9362727,25.9706794 20.2827677,25.6704306 19.8158889,25.1870622 L18.8865152,24.2846316 L14.5205253,28.5541053 L15.4145152,29.4184115 C17.0160253,31.01489 19.2459899,32 21.6876313,32 C21.6940505,32 21.6876313,32 21.6940505,32 C24.1364747,32 26.3312121,31.0213206 27.9319394,29.4240766 L40.8035152,16.8073493 C42.3635354,15.0680191 43.3489596,12.6862392 43.3484899,10.1309856 C43.3489596,4.55441148 38.7222879,0.0367464115 33.0198535,0.0367464115" id="Fill-8" fill="#00AAFF"></path>
                    </g>
                </g>
            </g>
        </g>
    </g>
</svg>