<?xml version="1.0" encoding="UTF-8"?>
<svg width="185px" height="72px" viewBox="0 0 185 72" version="1.1" xmlns="http://www.w3.org/2000/svg" xmlns:xlink="http://www.w3.org/1999/xlink">
    <!-- Generator: Sketch 53 (72520) - https://sketchapp.com -->
    <title>GLIMMA_logo_Horizontal_large_G_white</title>
    <desc>Created with Sketch.</desc>
    <g id="Landing-page" stroke="none" stroke-width="1" fill="none" fill-rule="evenodd">
        <g id="Landing-page-V1" transform="translate(-245.000000, -3982.000000)">
            <g id="partnership" transform="translate(125.000000, 3573.000000)">
                <g id="Group-10" transform="translate(120.000000, 409.000000)">
                    <g id="GLIMMA_logo_Horizontal_large_G_white">
                        <polygon id="Fill-1" fill="#FFFFFE" points="0 72 185 72 185 0 0 0"></polygon>
                        <path d="M63,49 L64.791458,37 L67.4259205,37 L69.6921944,44.0655779 C69.7399116,44.2140674 69.7905744,44.4304895 69.8471281,44.7136416 C69.9030928,44.9979961 69.9561119,45.3226291 70.0038292,45.6899454 C70.0468336,45.3166174 70.0945508,44.9853715 70.1493373,44.6926006 C70.2023564,44.4004308 70.2541973,44.1858123 70.3019146,44.0499474 L72.6064801,37 L75.2008837,37 L77,49 L74.6141384,49 L73.7552283,41.7618857 C73.6904271,41.2274435 73.6474227,40.8228546 73.6273932,40.5499223 C73.6050074,40.2751866 73.5944035,40.0220931 73.5944035,39.7882371 C73.5944035,39.6607885 73.5967599,39.5670057 73.5985272,39.5032814 C73.6020619,39.4413607 73.6050074,39.3854516 73.6103093,39.3373578 C73.5301915,39.8062722 73.4547865,40.2114624 73.3817378,40.5529282 C73.3098675,40.8943941 73.2427099,41.1541005 73.1849779,41.3278393 L70.6954345,49 L69.2815906,49 L66.8315169,41.3278393 C66.8097202,41.2562998 66.7637703,41.0603176 66.6918999,40.7380893 C66.6182622,40.4158609 66.5175258,39.9463454 66.3891016,39.3271379 L66.3891016,39.6794249 C66.3891016,40.2379139 66.3419735,40.9202445 66.2459499,41.7288212 L66.2377025,41.7618857 L65.3852725,49 L63,49" id="Fill-3" fill="#46B7AB"></path>
                        <path d="M83.7591682,44.463012 C83.7591682,43.7107133 83.5682169,43.1145166 83.1856822,42.6750488 C82.804412,42.2374617 82.2871997,42.0174143 81.6384713,42.0174143 C80.9714065,42.0174143 80.447239,42.234954 80.0634397,42.6712873 C79.683434,43.1069936 79.4912182,43.7050711 79.4912182,44.463012 C79.4912182,45.2196991 79.679008,45.8096266 80.0564845,46.2309139 C80.4326964,46.6522012 80.954967,46.8634717 81.6201349,46.8634717 C82.2985809,46.8634717 82.8246452,46.6522012 83.1983279,46.2309139 C83.572643,45.8096266 83.7591682,45.2196991 83.7591682,44.463012 M86,48.6671078 L83.6219615,48.6671078 L83.6561051,47.462803 C83.3228889,47.9919198 82.9213854,48.3799805 82.4515948,48.6294929 C81.9843333,48.8758707 81.4133764,49 80.7418856,49 C79.6208374,49 78.7166643,48.5874896 78.0306309,47.7612148 C77.3427006,46.9361939 77,45.8434801 77,44.4880886 C77,43.0737671 77.3376423,41.9729033 78.0135591,41.1854974 C78.687579,40.393703 79.6258957,40 80.8278769,40 C81.4532106,40 82.0051988,40.1398022 82.4775186,40.4175258 C82.9523676,40.697757 83.3500773,41.114029 83.6725446,41.6657147 L83.6725446,40.2814851 L86,40.2814851 L86,48.6671078" id="Fill-4" fill="#46B7AB"></path>
                        <path d="M89,49 L89,40.2922966 L91.2405184,40.2922966 L91.2405184,41.6606872 C91.6540982,41.0930199 92.095957,40.6737794 92.5708079,40.4036166 C93.0438913,40.1341049 93.5711761,40 94.1485382,40 C94.7600707,40 95.2726269,40.1126221 95.6867958,40.3417722 C96.1015539,40.5702712 96.4302968,40.9166004 96.6706679,41.3853165 C96.7884969,41.6268354 96.873923,41.9002532 96.9245894,42.2062206 C96.9740776,42.5108861 97,42.9893671 97,43.6397107 L97,49 L94.71235,49 L94.71235,44.6949729 C94.71235,43.6240868 94.5992341,42.9164557 94.3741807,42.5733816 C94.1485382,42.2309584 93.7620591,42.0590958 93.2176891,42.0590958 C92.9001399,42.0590958 92.6096914,42.1313562 92.3457545,42.27783 C92.0812284,42.4203978 91.8597098,42.6267631 91.6829663,42.8936709 C91.5427498,43.1000362 91.4443626,43.3383002 91.3825024,43.603906 C91.3206422,43.8701627 91.2900066,44.2757324 91.2900066,44.8193128 L91.2900066,49 L89,49" id="Fill-5" fill="#46B7AB"></path>
                        <path d="M104.758851,44.463012 C104.758851,43.7107133 104.568559,43.1145166 104.185445,42.6750488 C103.804861,42.2374617 103.287089,42.0174143 102.639084,42.0174143 C101.971481,42.0174143 101.447387,42.234954 101.064274,42.6712873 C100.683689,43.1069936 100.490868,43.7050711 100.490868,44.463012 C100.490868,45.2196991 100.679264,45.8096266 101.057319,46.2309139 C101.433479,46.6522012 101.955676,46.8634717 102.62075,46.8634717 C103.299101,46.8634717 103.823827,46.6522012 104.198089,46.2309139 C104.572352,45.8096266 104.758851,45.2196991 104.758851,44.463012 M107,48.6671078 L104.622296,48.6671078 L104.655802,47.462803 C104.323265,47.9919198 103.921186,48.3799805 103.452093,48.6294929 C102.984897,48.8758707 102.413389,49 101.741992,49 C100.621734,49 99.7176876,48.5874896 99.0304861,47.7612148 C98.3432846,46.9361939 98,45.8434801 98,44.4880886 C98,43.0737671 98.338227,41.9729033 99.0146811,41.1854974 C99.6886064,40.393703 100.626791,40 101.829236,40 C102.453849,40 103.00576,40.1398022 103.477381,40.4175258 C103.952796,40.697757 104.35045,41.114029 104.672872,41.6657147 L104.672872,40.2814851 L107,40.2814851 L107,48.6671078" id="Fill-6" fill="#46B7AB"></path>
                        <path d="M114.770427,44.2903647 C114.770427,43.5784186 114.57914,43.0159751 114.202266,42.6042399 C113.822225,42.1943133 113.302203,41.9881443 112.647266,41.9881443 C111.972693,41.9881443 111.445703,42.1931076 111.065663,42.6006229 C110.685622,43.0099467 110.494968,43.5735959 110.494968,44.2903647 C110.494968,45.0071335 110.681821,45.5665628 111.056795,45.9662413 C111.431769,46.3665227 111.954958,46.567869 112.628264,46.567869 C113.302203,46.567869 113.827293,46.3665227 114.2048,45.9662413 C114.58104,45.5665628 114.770427,45.0071335 114.770427,44.2903647 M117,48.2027529 C117,49.0521451 116.946161,49.6495529 116.839749,49.9937707 C116.733971,50.3391942 116.549652,50.6388024 116.29059,50.889581 C115.920684,51.2675575 115.449433,51.5466693 114.873672,51.7293278 C114.299177,51.9089722 113.598635,52 112.774579,52 C111.400099,52 110.354986,51.7920225 109.64051,51.3760675 C108.9273,50.9589069 108.537758,50.3265347 108.475684,49.4765397 L111.177775,49.4765397 C111.218946,49.7900131 111.369062,50.0184869 111.62749,50.1667839 C111.885917,50.3156837 112.267858,50.3886265 112.774579,50.3886265 C113.442818,50.3886265 113.926737,50.224053 114.221902,49.8961117 C114.5196,49.5675676 114.667183,49.0189892 114.667183,48.2521853 L114.667183,47.099568 C114.339081,47.6005225 113.942572,47.9688536 113.480189,48.2099869 C113.016539,48.4511203 112.468647,48.5716869 111.835245,48.5716869 C110.671687,48.5716869 109.742487,48.1846679 109.045112,47.4094243 C108.348371,46.6335778 108,45.5888677 108,44.2728825 C108,42.9364011 108.339503,41.8898824 109.019143,41.1339295 C109.698149,40.3767708 110.636216,40 111.835245,40 C112.450278,40 112.999437,40.1356375 113.480189,40.4063097 C113.96094,40.6775846 114.361883,41.0754546 114.684285,41.6011253 L114.684285,40.2694665 L117,40.2694665 L117,48.2027529" id="Fill-7" fill="#46B7AB"></path>
                        <path d="M124.477654,43.6068966 C124.407391,43.0752351 124.208853,42.676489 123.883971,42.4050157 C123.558444,42.1341693 123.114955,41.999373 122.552858,41.999373 C121.990761,41.999373 121.54018,42.1341693 121.20434,42.4050157 C120.865922,42.676489 120.650623,43.0752351 120.557155,43.6068966 L124.477654,43.6068966 Z M126.954878,45.077116 L120.477224,45.077116 C120.579072,45.6821317 120.80404,46.1329154 121.15535,46.4319749 C121.506661,46.7316614 121.983025,46.8821317 122.587022,46.8821317 C123.044693,46.8821317 123.439192,46.7962382 123.769231,46.6244514 C124.100559,46.4539185 124.37774,46.1943574 124.601418,45.8470219 L126.62226,46.8294671 C126.154276,47.5642633 125.585088,48.1097179 124.916631,48.4658307 C124.249463,48.8219436 123.455952,49 122.534164,49 C121.141169,49 120.036313,48.5968652 119.22153,47.7868339 C118.407391,46.9774295 118,45.8890282 118,44.5210031 C118,43.2043887 118.42544,42.1222571 119.277611,41.2727273 C120.131715,40.4250784 121.222389,40 122.552858,40 C123.924581,40 125.008165,40.3981191 125.804254,41.1918495 C126.601633,41.9880878 127,43.0702194 127,44.4451411 C127,44.5184953 126.996777,44.600627 126.990331,44.6877743 C126.984529,44.7768025 126.974216,44.9059561 126.954878,45.077116 L126.954878,45.077116 Z" id="Fill-8" fill="#46B7AB"></path>
                        <path d="M130.325573,49 L128,49 L128,40.2922966 L130.325573,40.2922966 L130.325573,41.6606872 C130.704794,41.0871609 131.112128,40.6653165 131.544585,40.3997107 C131.975844,40.1341049 132.46632,40 133.016012,40 C133.679948,40 134.218874,40.1477758 134.635778,40.4446293 C135.050888,40.7395298 135.345772,41.1867631 135.519233,41.7850271 C135.890678,41.1919711 136.309975,40.7466908 136.780114,40.4491863 C137.249057,40.1484268 137.764654,40 138.326309,40 C138.891552,40 139.369467,40.1126221 139.765437,40.3417722 C140.158415,40.5702712 140.466458,40.9113924 140.682985,41.3670886 C140.796632,41.6144665 140.877979,41.8963472 140.927027,42.2094756 C140.974878,42.525208 141,43.000434 141,43.6397107 L141,49 L138.676222,49 L138.676222,44.6949729 C138.676222,43.6358047 138.577528,42.9320796 138.377151,42.5831465 C138.180363,42.2342134 137.834039,42.0590958 137.337582,42.0590958 C136.739441,42.0590958 136.306984,42.3025678 136.037821,42.7869078 C135.768657,43.2712477 135.634076,44.0648101 135.634076,45.1669439 L135.634076,49 L133.309101,49 L133.309101,44.6949729 C133.309101,43.6716094 133.216987,42.9796022 133.03276,42.6189512 C132.847934,42.2569982 132.528527,42.0773237 132.078126,42.0773237 C131.465032,42.0773237 131.018818,42.3207957 130.741281,42.8090416 C130.463743,43.2979385 130.325573,44.083689 130.325573,45.1669439 L130.325573,49" id="Fill-9" fill="#46B7AB"></path>
                        <path d="M149.477473,43.6068966 C149.407206,43.0752351 149.208653,42.676489 148.883103,42.4050157 C148.558198,42.1341693 148.115966,41.999373 147.553829,41.999373 C146.991046,41.999373 146.540434,42.1341693 146.203925,42.4050157 C145.866127,42.676489 145.650813,43.0752351 145.557983,43.6068966 L149.477473,43.6068966 Z M151.955519,45.077116 L145.476757,45.077116 C145.577967,45.6821317 145.80424,46.1329154 146.155576,46.4319749 C146.507557,46.7316614 146.983311,46.8821317 147.586061,46.8821317 C148.044409,46.8821317 148.438937,46.7962382 148.769644,46.6244514 C149.099706,46.4539185 149.379486,46.1943574 149.600602,45.8470219 L151.622878,46.8294671 C151.154215,47.5642633 150.586276,48.1097179 149.917126,48.4658307 C149.249266,48.8219436 148.455698,49 147.534489,49 C146.140105,49 145.035169,48.5968652 144.222262,47.7868339 C143.406776,46.9774295 143,45.8890282 143,44.5210031 C143,43.2043887 143.425471,42.1222571 144.278347,41.2727273 C145.131867,40.4250784 146.22262,40 147.553829,40 C148.924361,40 150.008667,40.3981191 150.804169,41.1918495 C151.602249,41.9880878 152,43.0702194 152,44.4451411 C152,44.5184953 151.996132,44.600627 151.99033,44.6877743 C151.985818,44.7768025 151.974214,44.9059561 151.955519,45.077116 L151.955519,45.077116 Z" id="Fill-10" fill="#46B7AB"></path>
                        <path d="M153,49 L153,40.2922966 L155.240353,40.2922966 L155.240353,41.6606872 C155.653903,41.0930199 156.096318,40.6737794 156.571134,40.4036166 C157.043594,40.1341049 157.571429,40 158.148159,40 C158.759057,40 159.272165,40.1126221 159.686892,40.3417722 C160.10162,40.5702712 160.429161,40.9166004 160.670103,41.3853165 C160.788513,41.6268354 160.873343,41.9002532 160.924595,42.2062206 C160.97408,42.5108861 161,42.9893671 161,43.6397107 L161,49 L158.711929,49 L158.711929,44.6949729 C158.711929,43.6240868 158.598822,42.9164557 158.373785,42.5733816 C158.148159,42.2309584 157.762297,42.0590958 157.217378,42.0590958 C156.900442,42.0590958 156.610015,42.1313562 156.346097,42.27783 C156.081001,42.4203978 155.860677,42.6267631 155.683358,42.8936709 C155.542563,43.1000362 155.444183,43.3383002 155.381738,43.603906 C155.320471,43.8701627 155.290427,44.2757324 155.290427,44.8193128 L155.290427,49 L153,49" id="Fill-11" fill="#46B7AB"></path>
                        <polyline id="Fill-12" fill="#46B7AB" points="163.98137 49 163.98137 43.1991245 163 43.1991245 163 41.4929846 163.98137 41.4929846 163.98137 39 166.01968 39 166.01968 41.4929846 167 41.4929846 167 43.1991245 166.01968 43.1991245 166.01968 49 163.98137 49"></polyline>
                        <path d="M68.1443673,25.6639129 L73.9764422,25.6639129 C73.986711,25.7315314 73.9927514,25.8048804 73.9969798,25.8828136 C73.9981879,25.9607469 74,26.0805119 74,26.2409627 C74,27.955494 73.4835397,29.3445394 72.4518272,30.4069529 C71.4195107,31.4699394 70.0851706,32 68.4500151,32 C66.576865,32 65.0347327,31.4332649 63.819994,30.3003677 C62.6070674,29.1674705 62,27.7297168 62,25.9848145 C62,24.2553842 62.6094835,22.82508 63.8296587,21.695621 C65.0486258,20.564443 66.5871338,20 68.4500151,20 C69.4321957,20 70.3322259,20.1948331 71.1519178,20.5862184 C71.9691936,20.9770307 72.6994866,21.5598109 73.3415886,22.335132 L71.603141,23.553985 C71.1706433,23.0445537 70.7139837,22.6755169 70.2355784,22.4503128 C69.7589852,22.2228165 69.2062821,22.1093549 68.5816974,22.1093549 C67.3893084,22.1093549 66.436122,22.4617736 65.7239505,23.1637458 C65.0099668,23.866291 64.6529749,24.8077933 64.6529749,25.9848145 C64.6529749,27.1400602 65.0117789,28.074686 65.7275748,28.7863999 C66.4433706,29.4969677 67.3784355,29.8522516 68.5321655,29.8522516 C69.3784355,29.8522516 70.064029,29.6631488 70.5913621,29.2860895 C71.1180912,28.9078841 71.3808517,28.4139248 71.3808517,27.8042118 L71.3808517,27.6804355 L68.1443673,27.6804355 L68.1443673,25.6639129" id="Fill-13" fill="#46B7AB"></path>
                        <polygon id="Fill-14" fill="#46B7AB" points="76 32 79 32 79 19 76 19"></polygon>
                        <path d="M86.6151115,28.487776 C86.6151115,27.8032319 86.4246098,27.2578533 86.0399893,26.8510134 C85.6577802,26.4441736 85.1429433,26.2391865 84.4954786,26.2391865 C83.8492196,26.2391865 83.3349856,26.442293 82.9582022,26.8459985 C82.580213,27.2503308 82.3897113,27.7982169 82.3897113,28.487776 C82.3897113,29.1710664 82.580213,29.7183256 82.9582022,30.1289267 C83.3349856,30.5395278 83.8492196,30.7451417 84.4954786,30.7451417 C85.1369147,30.7451417 85.6499431,30.5395278 86.0375779,30.1289267 C86.4228013,29.7183256 86.6151115,29.1710664 86.6151115,28.487776 M89,28.5040747 C89,29.7929233 88.5755911,30.8629937 87.7303905,31.7186738 C86.8821756,32.5724734 85.8096992,33 84.5111528,33 C83.2029607,33 82.1232501,32.5724734 81.2738295,31.7186738 C80.4244089,30.8629937 80,29.7929233 80,28.5040747 C80,27.2208679 80.4262174,26.1514244 81.2804608,25.2901024 C82.1365128,24.4300341 83.2132092,24 84.5111528,24 C85.8151249,24 86.8900127,24.4250192 87.7334048,25.2738037 C88.5773997,26.1225883 89,27.1995542 89,28.5040747" id="Fill-15" fill="#46B7AB"></path>
                        <path d="M92.2392617,28.6564649 C92.2392617,29.3819877 92.4274986,29.9454831 92.8027092,30.3487513 C93.179183,30.7526197 93.7040988,30.9548539 94.3755615,30.9548539 C95.0476558,30.9548539 95.5706766,30.7526197 95.9465188,30.3487513 C96.3217294,29.9454831 96.5099663,29.3819877 96.5099663,28.6564649 C96.5099663,27.9315423 96.3198344,27.3596455 95.9376755,26.9419748 C95.5561482,26.5243041 95.0287058,26.3154688 94.3572431,26.3154688 C93.7091522,26.3154688 93.1930797,26.5261044 92.8109208,26.9455754 C92.4300253,27.3662466 92.2392617,27.9363431 92.2392617,28.6564649 M90,32.6813461 L90,20 L92.3504351,20 L92.3504351,24.5727739 C92.3504351,24.8236163 92.3409601,25.0738587 92.3213784,25.3223007 C92.3005334,25.5695425 92.2733717,25.8119836 92.2392617,26.0460232 C92.6391072,25.4693256 93.0774846,25.046254 93.5474453,24.7822093 C94.0186693,24.5169644 94.5587451,24.3849421 95.1664093,24.3849421 C96.3722628,24.3849421 97.3121842,24.7624059 97.9880685,25.5185339 C98.6614262,26.2740618 99,27.3284402 99,28.6816692 C99,29.9838896 98.6576362,31.0316669 97.9748035,31.8190001 C97.2919708,32.6069335 96.3937395,33 95.2807412,33 C94.6080152,33 94.0369876,32.88178 93.5701853,32.64534 C93.1008563,32.4064996 92.700379,32.0350367 92.3687535,31.528551 L92.3858085,32.6813461 L90,32.6813461" id="Fill-16" fill="#46B7AB"></path>
                        <path d="M106.758851,28.4623851 C106.758851,27.7100864 106.567294,27.1145166 106.185445,26.6750488 C105.803597,26.2368348 105.287089,26.0167874 104.639084,26.0167874 C103.972113,26.0167874 103.447387,26.234954 103.064274,26.6712873 C102.683057,27.1076205 102.490868,27.7050711 102.490868,28.4623851 C102.490868,29.220326 102.679264,29.8089997 103.057319,30.230287 C103.432846,30.6522012 103.954411,30.8634717 104.620118,30.8634717 C105.297836,30.8634717 105.823827,30.6522012 106.198089,30.230287 C106.57172,29.8089997 106.758851,29.220326 106.758851,28.4623851 M109,32.6671078 L106.621031,32.6671078 L106.655802,31.462803 C106.322633,31.9919198 105.921186,32.3799805 105.451461,32.6294929 C104.984265,32.8764976 104.413389,33 103.74136,33 C102.621101,33 101.717055,32.5881165 101.030486,31.7605879 C100.343285,30.935567 100,29.844107 100,28.4887155 C100,27.0750209 100.338227,25.9735302 101.014049,25.1842435 C101.688606,24.3943299 102.626791,24 103.827971,24 C104.452585,24 105.005128,24.1404291 105.477381,24.4187796 C105.952164,24.697757 106.349817,25.114029 106.672872,25.6663416 L106.672872,24.2814851 L109,24.2814851 L109,32.6671078" id="Fill-17" fill="#46B7AB"></path>
                        <polygon id="Fill-18" fill="#46B7AB" points="111 32 114 32 114 19 111 19"></polygon>
                        <polygon id="Fill-19" fill="#46B7AB" points="119 32 122 32 122 19 119 19"></polygon>
                        <path d="M126.324484,32 L124,32 L124,23.2916456 L126.324484,23.2916456 L126.324484,24.6593852 C126.704321,24.0865099 127.111673,23.6653165 127.543551,23.3997107 C127.975429,23.1334539 128.465329,23 129.015644,23 C129.679013,23 130.218562,23.1471248 130.634887,23.4439783 C131.051212,23.7388788 131.345511,24.1867631 131.51898,24.7837251 C131.890443,24.1919711 132.309759,23.7466908 132.779322,23.4478843 C133.249482,23.1484268 133.764506,23 134.325588,23 C134.892054,23 135.369392,23.1126221 135.764782,23.3404702 C136.158975,23.5696203 136.465835,23.9107414 136.682372,24.3644846 C136.796623,24.6144665 136.878572,24.8956962 136.927023,25.2094756 C136.974877,25.524557 137,25.999783 137,26.6397107 L137,32 L134.676115,32 L134.676115,27.6936709 C134.676115,26.6351537 134.577417,25.9320796 134.377628,25.5831465 C134.180233,25.2335624 133.833295,25.0577939 133.338011,25.0577939 C132.739843,25.0577939 132.30617,25.3012658 132.037593,25.7869078 C131.769015,26.2712477 131.633829,27.0641591 131.633829,28.164991 L131.633829,32 L129.308747,32 L129.308747,27.6936709 C129.308747,26.6709584 129.216031,25.9789512 129.032393,25.6189512 C128.847559,25.2569982 128.528137,25.0760217 128.077716,25.0760217 C127.463995,25.0760217 127.017761,25.3207957 126.740809,25.8090416 C126.464455,26.2979385 126.324484,27.083038 126.324484,28.164991 L126.324484,32" id="Fill-20" fill="#46B7AB"></path>
                        <path d="M144.758536,28.4623851 C144.758536,27.7100864 144.568217,27.1145166 144.186314,26.6750488 C143.804412,26.2368348 143.2872,26.0167874 142.639104,26.0167874 C141.972039,26.0167874 141.447871,26.234954 141.064704,26.6712873 C140.683434,27.1076205 140.490586,27.7050711 140.490586,28.4623851 C140.490586,29.220326 140.679008,29.8089997 141.057117,30.230287 C141.432696,30.6522012 141.954967,30.8634717 142.620767,30.8634717 C143.298581,30.8634717 143.824645,30.6522012 144.198328,30.230287 C144.572011,29.8089997 144.758536,29.220326 144.758536,28.4623851 M147,32.6671078 L144.621962,32.6671078 L144.656105,31.462803 C144.323521,31.9919198 143.921385,32.3799805 143.452227,32.6294929 C142.984966,32.8764976 142.412744,33 141.741886,33 C140.620837,33 139.717297,32.5881165 139.030631,31.7605879 C138.343333,30.935567 138,29.844107 138,28.4887155 C138,27.0750209 138.337642,25.9735302 139.013559,25.1842435 C139.687579,24.3943299 140.626528,24 141.829141,24 C142.453211,24 143.005199,24.1404291 143.478151,24.4187796 C143.953,24.697757 144.35071,25.114029 144.673177,25.6663416 L144.673177,24.2814851 L147,24.2814851 L147,32.6671078" id="Fill-21" fill="#46B7AB"></path>
                        <path d="M154.771061,28.2915704 C154.771061,27.5790214 154.580407,27.0159751 154.202266,26.6054456 C153.822225,26.1949161 153.302203,25.9887471 152.647266,25.9887471 C151.973327,25.9887471 151.446337,26.1925048 151.065663,26.6018286 C150.686889,27.0099467 150.494968,27.5729931 150.494968,28.2915704 C150.494968,29.0071335 150.683088,29.5665628 151.058062,29.967447 C151.431769,30.3671255 151.954958,30.5684718 152.628897,30.5684718 C153.302203,30.5684718 153.827926,30.3671255 154.205433,29.967447 C154.581674,29.5665628 154.771061,29.0071335 154.771061,28.2915704 M157,32.2033558 C157,33.0527479 156.946161,33.6501557 156.840383,33.9943736 C156.733971,34.3403999 156.550285,34.6388024 156.29059,34.8907867 C155.921951,35.2681604 155.450067,35.547875 154.873672,35.7293278 C154.29981,35.909575 153.599268,36 152.775213,36 C151.400099,36 150.356253,35.7926253 149.641776,35.3766704 C148.9273,34.9595097 148.538391,34.3259319 148.475684,33.4771426 L151.178408,33.4771426 C151.218946,33.7894102 151.369062,34.0190897 151.628756,34.1673867 C151.887184,34.3156837 152.268492,34.3892294 152.775213,34.3892294 C153.442818,34.3892294 153.926103,34.2252587 154.221902,33.8961117 C154.5196,33.5675676 154.66845,33.0195921 154.66845,32.2521853 L154.66845,31.1007736 C154.339081,31.6011253 153.943205,31.9694564 153.480822,32.2105898 C153.015905,32.4523259 152.468647,32.5722898 151.835245,32.5722898 C150.671054,32.5722898 149.742487,32.1852708 149.045112,31.41063 C148.349004,30.6341806 148,29.5900733 148,28.2740882 C148,26.9370039 148.340137,25.8910881 149.019143,25.1345323 C149.698149,24.3773737 150.636216,24 151.835245,24 C152.450911,24 152.999437,24.1362403 153.480822,24.4069125 C153.961574,24.6775846 154.36125,25.0766603 154.684918,25.602331 L154.684918,24.2706722 L157,24.2706722 L157,32.2033558" id="Fill-22" fill="#46B7AB"></path>
                        <path d="M164.477473,27.6060184 C164.407206,27.0756478 164.208653,26.6756757 163.883103,26.406102 C163.558842,26.1340206 163.115966,26.0004876 162.552539,26.0004876 C161.991691,26.0004876 161.541079,26.1340206 161.203925,26.406102 C160.866127,26.6756757 160.651458,27.0756478 160.557983,27.6060184 L164.477473,27.6060184 Z M166.954874,29.0761354 L160.477401,29.0761354 C160.578612,29.6817359 160.80424,30.1324882 161.154932,30.4321538 C161.507557,30.7318194 161.983311,30.8810254 162.586706,30.8810254 C163.044409,30.8810254 163.438937,30.7951379 163.770933,30.62399 C164.099706,30.4534689 164.379486,30.1939259 164.601246,29.8466147 L166.622878,30.8296183 C166.154215,31.5643633 165.586276,32.109153 164.917126,32.4658679 C164.24991,32.8213291 163.455053,33 162.533844,33 C161.140749,33 160.036459,32.5962664 159.222262,31.7856645 C158.407421,30.9775704 158,29.888618 158,28.5200613 C158,27.2041655 158.425471,26.1221092 159.277702,25.2732655 C160.131223,24.4250488 161.223265,24 162.552539,24 C163.924361,24 165.008667,24.3974645 165.804169,25.1917665 C166.601604,25.9873224 167,27.0700056 167,28.4442045 C167,28.5181806 166.996777,28.6003065 166.99162,28.6868208 C166.984528,28.7764698 166.974214,28.9049875 166.954874,29.0761354 L166.954874,29.0761354 Z" id="Fill-23" fill="#46B7AB"></path>
                        <path d="M53.3666143,39.9920517 C51.4236495,47.1543181 44.9478957,52.4174026 37.2571922,52.4174026 C28.0304962,52.4174026 20.5510364,44.8436367 20.5510364,35.5 C20.5510364,26.1569676 28.0304962,18.5825974 37.2571922,18.5825974 C41.0088568,18.5825974 44.4711055,19.8364321 47.259642,21.9501255 L48.9591394,20.0134796 C45.715892,17.4967463 41.6592965,16 37.2571922,16 C26.6222048,16 18,24.7303151 18,35.5 C18,46.2696849 26.6222048,55 37.2571922,55 C46.3663317,55 53.9967651,48.596077 56,39.9920517 L53.3666143,39.9920517 Z M37.2571922,23.7574603 C39.6978329,23.7574603 41.9612437,24.521242 43.8290201,25.8246258 C43.8355842,25.8288556 43.8415515,25.8330854 43.8481156,25.8379195 L45.5529837,23.895231 C43.222142,22.1839732 40.3566269,21.1742586 37.2571922,21.1742586 C29.4441583,21.1742586 23.1098304,27.5878498 23.1098304,35.5 C23.1098304,43.4121502 29.4441583,49.8263456 37.2571922,49.8263456 C43.5211055,49.8263456 48.8332286,45.7034954 50.6938442,39.9920517 L47.9739322,39.9920517 C46.2320666,44.2478386 42.0907349,47.243144 37.2571922,47.243144 C30.8530465,47.243144 25.6608668,41.9848936 25.6608668,35.5 C25.6608668,29.0151064 30.8530465,23.7574603 37.2571922,23.7574603 Z M40.5362437,29.6362834 L38.2579146,32.2327787 L49.3207601,32.2327787 L47.0573492,29.6362834 L40.5362437,29.6362834 Z M33.6923053,37.4088501 L53.8463882,37.4088501 L51.5716394,34.8220229 L35.9622802,34.8220229 L33.6923053,37.4088501 L33.6923053,37.4088501 Z" id="Fill-24" fill="#46B7AB"></path>
                    </g>
                </g>
            </g>
        </g>
    </g>
</svg>